<svg xmlns="http://www.w3.org/2000/svg" width="16" height="16" fill="none" viewBox="0 0 16 16"><path fill="#6C707E" d="M13.967 13.533a.5.5 0 1 0 .5-.866l-.5.866Zm-2.217-1.28 2.217 1.28.5-.866-2.217-1.28-.5.866ZM14.9 9.5a.5.5 0 0 0 0-1v1Zm-2.5 0h2.5v-1h-2.5v1Zm2.055-4.26a.5.5 0 0 0-.476-.88l.476.88Zm-2.217 1.2 2.217-1.2-.476-.88-2.217 1.2.476.88ZM2.03 13.533a.5.5 0 0 1-.5-.866l.5.866Zm2.22-1.282-2.22 1.282-.5-.866 2.22-1.282.5.866ZM1.1 9.5a.5.5 0 0 1 0-1v1Zm2.5 0H1.1v-1h2.5v1ZM1.542 5.24a.5.5 0 0 1 .476-.88l-.476.88Zm2.22 1.2-2.22-1.2.476-.88 2.22 1.2-.476.88Z"/><path fill="#6C707E" fill-rule="evenodd" d="M6.3 4.2a1.7 1.7 0 1 1 3.201.8h.999c.027 0 .053 0 .08.002a2.7 2.7 0 1 0-5.158 0C5.448 5 5.474 5 5.5 5h1c-.127-.238-.2-.51-.2-.8Z" clip-rule="evenodd"/><path stroke="#6C707E" d="M4 7.5a3 3 0 0 1 3-3h2a3 3 0 0 1 3 3V10a4 4 0 0 1-8 0V7.5Z"/></svg>