<svg xmlns="http://www.w3.org/2000/svg" width="32" height="32" fill="none" viewBox="0 0 32 32"><path fill="#fff" fill-rule="evenodd" d="M27.591 19.106c.46-1.718.523-3.449.246-5.095a7.043 7.043 0 0 1-1.89 3.03v.009A7.105 7.105 0 1 1 17 6.088a7.104 7.104 0 0 1 3.406-1.251c-.42-.165-.854-.309-1.3-.428-6.402-1.715-12.982 2.083-14.697 8.485-1.715 6.402 2.084 12.982 8.485 14.697 6.402 1.715 12.982-2.084 14.697-8.485Zm-2.545 1.16c-2.02 4.298-6.886 6.665-11.634 5.393-5.335-1.43-8.5-6.913-7.071-12.247a9.998 9.998 0 0 1 7.377-7.15 9.232 9.232 0 0 0 11.328 14.005Zm.814-11.652L25.336 7l-.525 1.614h-1.697l1.373.998-.524 1.614 1.373-.998 1.373.998-.524-1.614 1.373-.998H25.86ZM19.336 7l.524 1.614h1.698l-1.373.998.524 1.614-1.373-.998-1.373.998.524-1.614-1.373-.998h1.697L19.336 7Zm3.524 5.614L22.336 11l-.525 1.614h-1.697l1.373.998-.524 1.614 1.373-.998 1.373.998-.524-1.614 1.373-.998H22.86Z" clip-rule="evenodd"/></svg>