<svg xmlns="http://www.w3.org/2000/svg" width="32" height="32" fill="none" viewBox="0 0 32 32"><path fill="#fff" fill-rule="evenodd" d="M25 23.762c2.88-.8 5-3.524 5-6.762a7.15 7.15 0 0 0-1.144-3.9 7.202 7.202 0 0 0-10.65-9.445A10.283 10.283 0 0 0 12.608 2C6.75 2 2 6.925 2 13c0 4.363 2.45 8.132 6 9.91V20.6c-2.39-1.585-4-4.37-4-7.6 0-5.04 3.922-9 8.608-9 3.976 0 7.401 2.85 8.349 6.791l.003-.001c.134.547.22 1.114.25 1.696A4.54 4.54 0 0 1 23.25 12c2.555 0 4.75 2.17 4.75 5 0 2.152-1.269 3.922-3 4.647v2.115ZM19.822 4.935a11.072 11.072 0 0 1 2.999 5.079 6.574 6.574 0 0 1 4.633 1.51 5.202 5.202 0 0 0-7.632-6.589Zm-9.461 15.99c-.208.486-.36 1.006-.36 1.484 0 .879.672 1.591 1.5 1.591.829 0 1.5-.712 1.5-1.59 0-.448-.168-.978-.392-1.485C12.164 19.917 11.5 19 11.5 19s-.696.886-1.14 1.924ZM15 22.408c0-.478.152-.998.36-1.485C15.804 19.886 16.5 19 16.5 19s.664.918 1.109 1.925c.224.507.392 1.037.392 1.484 0 .879-.671 1.591-1.5 1.591-.828 0-1.5-.712-1.5-1.59Zm-1.766 3.515c-.207.487-.36 1.007-.36 1.485 0 .879.673 1.591 1.501 1.591.829 0 1.5-.712 1.5-1.59 0-.448-.169-.978-.393-1.485C15.04 24.917 14.374 24 14.374 24s-.695.886-1.139 1.924ZM20 22.408c0-.478.152-.998.36-1.485A9.78 9.78 0 0 1 21.5 19s.664.918 1.109 1.925c.224.507.392 1.037.392 1.484 0 .879-.671 1.591-1.5 1.591-.828 0-1.5-.712-1.5-1.59Zm-1.75 3.515c-.208.487-.36 1.007-.36 1.485 0 .879.672 1.591 1.5 1.591s1.5-.712 1.5-1.59c0-.448-.169-.978-.393-1.485C20.054 24.917 19.39 24 19.39 24s-.695.886-1.139 1.924Z" clip-rule="evenodd"/></svg>