<svg xmlns="http://www.w3.org/2000/svg" width="32" height="32" fill="none" viewBox="0 0 32 32"><path fill="#fff" fill-rule="evenodd" d="M2 13c0 4.363 2.45 8.132 6 9.91V20.6c-2.39-1.585-4-4.37-4-7.6 0-5.04 3.922-9 8.608-9 3.976 0 7.401 2.85 8.349 6.791l.003-.001c.134.547.22 1.114.25 1.696A4.54 4.54 0 0 1 23.25 12c2.555 0 4.75 2.17 4.75 5 0 2.549-1.78 4.561-4 4.937v2.02c3.375-.387 6-3.354 6-6.957 0-3.866-3.022-7-6.75-7-.145 0-.287.005-.429.014C21.566 5.39 17.469 2 12.608 2 6.75 2 2 6.925 2 13Zm11 9.456c0 .336-.258.546-.5.546s-.5-.21-.5-.546c0-.428.173-1.012.472-1.662.1.21.191.42.27.623.195.51.258.855.258 1.039ZM12.498 17s-.598.73-1.208 1.757c-.638 1.074-1.291 2.472-1.29 3.699 0 1.406 1.12 2.546 2.5 2.546 1.381 0 2.5-1.14 2.5-2.546 0-1.118-.684-2.558-1.337-3.678A20 20 0 0 0 12.498 17Zm7.004 6.002c.242 0 .5-.21.5-.546 0-.184-.063-.53-.258-1.04a8.774 8.774 0 0 0-.27-.622c-.299.65-.473 1.234-.472 1.662 0 .336.258.546.5.546Zm-1.21-4.245C18.902 17.73 19.5 17 19.5 17s.57.755 1.166 1.778c.652 1.12 1.336 2.56 1.336 3.678 0 1.406-1.118 2.546-2.5 2.546-1.38 0-2.5-1.14-2.5-2.546 0-1.227.652-2.625 1.29-3.699ZM17.732 27 16 26l-1.732 1v2L16 30l1.732-1v-2ZM22 26l1.732 1v2L22 30l-1.732-1v-2L22 26Zm-10.268 1L10 26l-1.732 1v2L10 30l1.732-1v-2Z" clip-rule="evenodd"/></svg>