<svg xmlns="http://www.w3.org/2000/svg" width="32" height="32" fill="none" viewBox="0 0 32 32"><path fill="#fff" fill-rule="evenodd" d="M2 13c0 4.363 2.45 8.132 6 9.91V20.6c-2.39-1.585-4-4.37-4-7.6 0-5.04 3.922-9 8.608-9 3.976 0 7.401 2.85 8.349 6.791l.003-.001c.134.547.22 1.114.25 1.696A4.54 4.54 0 0 1 23.25 12c2.555 0 4.75 2.17 4.75 5 0 1.71-.802 3.18-2 4.075v2.32c2.357-1.093 4-3.545 4-6.395 0-3.866-3.022-7-6.75-7-.145 0-.287.005-.429.014C21.566 5.39 17.469 2 12.608 2 6.75 2 2 6.925 2 13Zm16.719 7.203c.21.12.538.068.706-.223.092-.16.21-.49.296-1.03a8.84 8.84 0 0 0 .078-.674c-.584.414-1.026.832-1.24 1.204a.525.525 0 0 0 .16.723Zm1.075-4.281c1.043-.584 1.925-.918 1.925-.918s.116.94.12 2.122c.005 1.297-.123 2.886-.682 3.854-.703 1.218-2.242 1.645-3.438.955-1.196-.69-1.595-2.238-.892-3.456.613-1.063 1.878-1.947 2.967-2.557Zm-7.678 5.298c.21.121.538.069.706-.223.092-.159.21-.49.296-1.029a8.79 8.79 0 0 0 .079-.674c-.584.413-1.027.832-1.241 1.203-.168.291-.05.602.16.723Zm1.076-4.28c1.042-.585 1.924-.918 1.924-.918s.116.939.12 2.122c.005 1.296-.123 2.885-.682 3.854-.703 1.218-2.242 1.645-3.438.954-1.195-.69-1.595-2.237-.892-3.455.613-1.063 1.878-1.947 2.968-2.558Zm8.487 9.173c-.168.29-.496.344-.706.223-.21-.121-.328-.432-.16-.723.214-.372.657-.79 1.24-1.203a8.599 8.599 0 0 1-.078.674c-.085.538-.204.87-.296 1.029Zm2.294-4.976s-.882.334-1.924.918c-1.09.61-2.355 1.494-2.968 2.557-.703 1.218-.303 2.765.892 3.456 1.196.69 2.735.263 3.438-.955.56-.968.687-2.557.682-3.854-.004-1.183-.12-2.122-.12-2.122Zm-9.718 6.8c.21.122.538.069.706-.222.092-.16.21-.49.296-1.03.034-.214.06-.441.078-.674-.584.414-1.026.832-1.24 1.203-.168.291-.05.602.16.724Zm1.075-4.28c1.043-.584 1.925-.918 1.925-.918s.116.94.12 2.122c.005 1.296-.123 2.886-.682 3.854-.703 1.218-2.242 1.645-3.438.955-1.196-.69-1.595-2.238-.892-3.456.613-1.063 1.878-1.947 2.967-2.557Z" clip-rule="evenodd"/></svg>