<svg xmlns="http://www.w3.org/2000/svg" width="32" height="32" fill="none" viewBox="0 0 32 32"><path fill="#fff" fill-rule="evenodd" d="M30 17c0 3.603-2.625 6.57-6 6.957v-2.02c2.22-.376 4-2.388 4-4.937 0-2.83-2.195-5-4.75-5a4.54 4.54 0 0 0-2.04.486 9.247 9.247 0 0 0-.25-1.696l-.003.001C20.009 6.85 16.584 4 12.608 4 7.922 4 4 7.96 4 13c0 4.066 2.553 7.43 6 8.577v2.088C5.402 22.46 2 18.142 2 13 2 6.925 6.75 2 12.608 2c2.055 0 3.973.606 5.598 1.654a7.202 7.202 0 0 1 10.65 9.445A7.15 7.15 0 0 1 30 17Zm-2.546-5.476a5.202 5.202 0 0 0-7.632-6.589 11.072 11.072 0 0 1 2.999 5.079 6.574 6.574 0 0 1 4.633 1.51ZM14.002 27.456c0 .336-.258.546-.5.546s-.5-.21-.5-.546c0-.428.173-1.012.472-1.662.1.21.192.42.27.623.195.51.258.855.258 1.039ZM13.5 22s-.597.73-1.208 1.757c-.638 1.074-1.29 2.472-1.29 3.699 0 1.406 1.12 2.546 2.5 2.546 1.381 0 2.5-1.14 2.5-2.546 0-1.118-.684-2.558-1.336-3.678A19.973 19.973 0 0 0 13.5 22Zm6.002 3.002c.242 0 .5-.21.5-.546 0-.184-.063-.53-.258-1.04a8.774 8.774 0 0 0-.27-.622c-.299.65-.473 1.234-.472 1.662 0 .336.258.546.5.546Zm-1.21-4.245C18.902 19.73 19.5 19 19.5 19s.57.755 1.166 1.778c.652 1.12 1.336 2.56 1.336 3.678 0 1.406-1.118 2.546-2.5 2.546-1.38 0-2.5-1.14-2.5-2.546 0-1.227.652-2.625 1.29-3.699Z" clip-rule="evenodd"/></svg>