<svg xmlns="http://www.w3.org/2000/svg" width="32" height="32" fill="none" viewBox="0 0 32 32"><g fill="#fff" fill-rule="evenodd" clip-rule="evenodd"><path d="M8 22.91C4.45 21.133 2 17.364 2 13 2 6.925 6.75 2 12.608 2c2.793 0 5.334 1.12 7.229 2.949a5.372 5.372 0 0 1 7.05-2.45 2.812 2.812 0 0 0-2.207 3.699l.008.03a2.165 2.165 0 0 0 .803 1.17 2.812 2.812 0 0 0 4.423-.992c.14.761.117 1.564-.096 2.361a5.353 5.353 0 0 1-2.087 2.998A7.097 7.097 0 0 1 30 17c0 2.85-1.643 5.302-4 6.394v-2.32c1.198-.894 2-2.364 2-4.074 0-2.83-2.195-5-4.75-5a4.54 4.54 0 0 0-2.04.486 9.247 9.247 0 0 0-.25-1.696l-.003.001C20.009 6.85 16.584 4 12.608 4 7.922 4 4 7.96 4 13c0 3.23 1.61 6.015 4 7.6v2.31Zm17.83-12.38a3.391 3.391 0 0 0 1.076-.665 4.208 4.208 0 0 1-4.21-5.252 3.36 3.36 0 0 0-1.374 2.112 11.11 11.11 0 0 1 1.499 3.289 6.523 6.523 0 0 1 3.009.516Zm-6.405 9.45c-.168.29-.496.344-.706.223-.21-.122-.328-.433-.16-.724.214-.37.656-.79 1.24-1.203a8.57 8.57 0 0 1-.078.675c-.086.538-.204.87-.296 1.029Zm2.294-4.976s-.882.334-1.925.918c-1.09.61-2.354 1.494-2.967 2.557-.703 1.218-.304 2.765.892 3.456 1.196.69 2.735.263 3.438-.955.559-.968.687-2.558.682-3.854a19.99 19.99 0 0 0-.12-2.122Zm-8.897 5.993c-.168.291-.496.344-.706.223-.21-.12-.328-.432-.16-.723.214-.37.657-.79 1.24-1.203-.018.233-.044.46-.078.674-.085.54-.204.87-.296 1.03Zm2.294-4.975s-.882.333-1.924.917c-1.09.61-2.355 1.495-2.968 2.558-.703 1.218-.303 2.765.892 3.456 1.196.69 2.735.263 3.438-.955.56-.969.687-2.558.682-3.854a20.008 20.008 0 0 0-.12-2.122Zm5.857 10.314c.21.12.538.068.706-.223.092-.16.21-.49.296-1.03a8.79 8.79 0 0 0 .079-.674c-.584.414-1.027.832-1.241 1.204-.168.29-.05.602.16.723Zm1.076-4.281c1.042-.584 1.924-.918 1.924-.918s.116.94.12 2.122c.005 1.297-.123 2.886-.682 3.854-.703 1.218-2.242 1.645-3.438.955-1.195-.69-1.595-2.238-.892-3.456.613-1.063 1.878-1.947 2.968-2.557Zm-7.088 5.66c-.168.29-.497.344-.706.223-.21-.122-.328-.433-.16-.724.214-.37.656-.79 1.24-1.203a8.79 8.79 0 0 1-.078.674c-.086.54-.204.87-.296 1.03Zm2.294-4.976s-.882.334-1.925.918c-1.09.61-2.354 1.494-2.967 2.557-.703 1.218-.304 2.765.892 3.456 1.196.69 2.735.263 3.438-.955.559-.968.687-2.558.682-3.854-.004-1.183-.12-2.122-.12-2.122Z"/><path d="M8 22.91C4.45 21.133 2 17.364 2 13 2 6.925 6.75 2 12.608 2c2.793 0 5.334 1.12 7.229 2.949a5.372 5.372 0 0 1 7.05-2.45 2.812 2.812 0 0 0-2.207 3.699l.008.03a2.165 2.165 0 0 0 .803 1.17 2.812 2.812 0 0 0 4.423-.992c.14.761.117 1.564-.096 2.361a5.353 5.353 0 0 1-2.087 2.998A7.097 7.097 0 0 1 30 17c0 2.85-1.643 5.302-4 6.394v-2.32c1.198-.894 2-2.364 2-4.074 0-2.83-2.195-5-4.75-5a4.54 4.54 0 0 0-2.04.486 9.247 9.247 0 0 0-.25-1.696l-.003.001C20.009 6.85 16.584 4 12.608 4 7.922 4 4 7.96 4 13c0 3.23 1.61 6.015 4 7.6v2.31Zm17.83-12.38a3.391 3.391 0 0 0 1.076-.665 4.208 4.208 0 0 1-4.21-5.252 3.36 3.36 0 0 0-1.374 2.112 11.11 11.11 0 0 1 1.499 3.289 6.523 6.523 0 0 1 3.009.516Zm-6.405 9.45c-.168.29-.496.344-.706.223-.21-.122-.328-.433-.16-.724.214-.37.656-.79 1.24-1.203a8.57 8.57 0 0 1-.078.675c-.086.538-.204.87-.296 1.029Zm2.294-4.976s-.882.334-1.925.918c-1.09.61-2.354 1.494-2.967 2.557-.703 1.218-.304 2.765.892 3.456 1.196.69 2.735.263 3.438-.955.559-.968.687-2.558.682-3.854a19.99 19.99 0 0 0-.12-2.122Zm-8.897 5.993c-.168.291-.496.344-.706.223-.21-.12-.328-.432-.16-.723.214-.37.657-.79 1.24-1.203-.018.233-.044.46-.078.674-.085.54-.204.87-.296 1.03Zm2.294-4.975s-.882.333-1.924.917c-1.09.61-2.355 1.495-2.968 2.558-.703 1.218-.303 2.765.892 3.456 1.196.69 2.735.263 3.438-.955.56-.969.687-2.558.682-3.854a20.008 20.008 0 0 0-.12-2.122Zm5.857 10.314c.21.12.538.068.706-.223.092-.16.21-.49.296-1.03a8.79 8.79 0 0 0 .079-.674c-.584.414-1.027.832-1.241 1.204-.168.29-.05.602.16.723Zm1.076-4.281c1.042-.584 1.924-.918 1.924-.918s.116.94.12 2.122c.005 1.297-.123 2.886-.682 3.854-.703 1.218-2.242 1.645-3.438.955-1.195-.69-1.595-2.238-.892-3.456.613-1.063 1.878-1.947 2.968-2.557Zm-7.088 5.66c-.168.29-.497.344-.706.223-.21-.122-.328-.433-.16-.724.214-.37.656-.79 1.24-1.203a8.79 8.79 0 0 1-.078.674c-.086.54-.204.87-.296 1.03Zm2.294-4.976s-.882.334-1.925.918c-1.09.61-2.354 1.494-2.967 2.557-.703 1.218-.304 2.765.892 3.456 1.196.69 2.735.263 3.438-.955.559-.968.687-2.558.682-3.854-.004-1.183-.12-2.122-.12-2.122Z"/></g></svg>