<svg xmlns="http://www.w3.org/2000/svg" width="32" height="32" fill="none" viewBox="0 0 32 32"><path fill="#fff" fill-rule="evenodd" d="M14 10.994v-.005H8.34l5.43-1.963-.001-.001a1 1 0 0 1 .36-.024h.001a1 1 0 0 1 .726.455 1 1 0 0 1 .107.85 1 1 0 0 1-.59.621c-.013.006-.026.01-.04.015a.991.991 0 0 1-.333.052ZM4 10.43v2.559h9.98a2.996 2.996 0 0 0 2.203-.931 2.996 2.996 0 0 0 .8-2.437v-.002a2.993 2.993 0 0 0-1.38-2.162 2.989 2.989 0 0 0-1.24-.437 2.992 2.992 0 0 0-1.273.126v-.001l-.03.011-.005.001L4 10.43Zm0 8.568v2.054l13.206 4.699a3.498 3.498 0 0 0 4.688-4.106 3.498 3.498 0 0 0-3.37-2.644v-.003H4Zm14.51 2H9.815l8.17 2.906-.002.003a1.495 1.495 0 0 0 1.728-.521 1.497 1.497 0 0 0-1.2-2.384v-.004Zm4.508-9.75-.984-1.74-.002-.003.003-.001a3.999 3.999 0 0 1 5.885 4.283 4 4 0 0 1-3.926 3.203H4v-2h19.997v-.002a1.999 1.999 0 1 0-.979-3.74Z" clip-rule="evenodd"/></svg>