<svg xmlns="http://www.w3.org/2000/svg" width="16" height="16" fill="none" viewBox="0 0 16 16"><path stroke="#6C707E" stroke-linejoin="round" d="m4.144 14.248-3.429-6a.5.5 0 0 1 0-.496l-.434-.248.434.248 3.429-6a.5.5 0 0 1 .434-.252h6.84a.5.5 0 0 1 .433.252l3.429 6a.5.5 0 0 1 0 .496l-3.429 6a.5.5 0 0 1-.434.252H4.578a.5.5 0 0 1-.434-.252Z"/><path fill="#6C707E" fill-rule="evenodd" d="M8.667 6.686A1.5 1.5 0 1 0 6.249 5.5v2.585a1.5 1.5 0 1 0 .356 2.647L8.75 9.404a1.5 1.5 0 1 0 2.32-1.159L8.666 6.686ZM7.748 6a.5.5 0 1 0-.325-.12l.112.072c.064.03.137.048.213.048Zm-.5.958v2.2l1.737-1.074-1.737-1.126ZM6.048 9.9a.5.5 0 1 0-.077.048l.077-.048Zm4.2.1a.5.5 0 1 0 0-1 .5.5 0 0 0 0 1Z" clip-rule="evenodd"/></svg>