<svg xmlns="http://www.w3.org/2000/svg" width="16" height="16" fill="none" viewBox="0 0 16 16"><path fill="#6C707E" d="m14.283 7.358-.466.18v.001l.466-.181Zm-.017-.046.466-.18V7.13l-.466.182ZM12.038 2.5l.451-.215a.5.5 0 0 0-.912.021l.461.194Zm-1.62 4V7h.361l.114-.342-.474-.158Zm-4.836 0-.475.158.114.342h.36v-.5Zm-1.62-3.998.46-.193a.5.5 0 0 0-.911-.022l.451.215Zm-2.227 4.81.464.186.002-.004-.466-.182Zm-.018.046-.464-.187-.002.005.466.182Zm1.09 3.722.316-.388-.009-.007-.01-.008-.297.403Zm.006.005-.316.387.012.01.012.009.292-.406Zm.016.01.296-.402-.004-.003-.292.406Zm2.692 1.978.297-.401-.001-.001-.296.402Zm1.335.99.298-.402-.298.402Zm.81.601-.297.402.298-.402Zm.331.11v-.5.5Zm.331-.11-.298-.401.298.402Zm.811-.6-.298-.403.298.402Zm1.336-.99-.296-.404-.002.002.298.401Zm2.71-1.99-.287-.41-.008.007.295.403Zm.008-.005.287.41.01-.008-.297-.402Zm1.557-3.901-.018-.046-.933.36.018.045.933-.36ZM10.419 6H5.582v1h4.837V6ZM1.27 7.126l-.018.045.928.373.018-.046-.928-.372Zm-.02.05a3.66 3.66 0 0 0-.103 2.362l.96-.281a2.66 2.66 0 0 1 .075-1.718l-.932-.363Zm-.103 2.362a3.72 3.72 0 0 0 1.362 1.944l.594-.804a2.72 2.72 0 0 1-.997-1.421l-.96.28Zm1.343 1.929.006.005.633-.774-.007-.006-.632.775Zm.03.024.016.01.584-.811-.016-.011-.584.812Zm.012.008 2.692 1.977.592-.805-2.692-1.978-.592.806Zm2.69 1.976 1.335.99.596-.804-1.336-.99-.595.804Zm1.335.99.81.601.596-.803-.81-.601-.596.803Zm.81.601c.183.135.403.207.63.207v-1a.055.055 0 0 1-.034-.01l-.595.803Zm.63.207c.225 0 .446-.072.628-.207l-.596-.803a.055.055 0 0 1-.033.01v1Zm.628-.207.81-.601-.595-.804-.81.602.595.803Zm.81-.601 1.336-.99-.595-.803-1.336.99.596.803Zm1.334-.988 2.711-1.99-.591-.806-2.711 1.99.591.806Zm2.702-1.983.007-.005-.573-.82-.007.006.573.819Zm.018-.013a3.72 3.72 0 0 0 1.362-1.943l-.96-.282a2.72 2.72 0 0 1-.996 1.421l.594.804Zm1.362-1.943a3.661 3.661 0 0 0-.103-2.362l-.931.363c.214.55.24 1.152.074 1.717l.96.282ZM3.962 2.502l-.451-.215-.002.003-.004.009-.016.034a257.496 257.496 0 0 0-.284.596L2.51 4.401c-.514 1.096-1.08 2.318-1.24 2.73l.93.363c.146-.371.693-1.554 1.216-2.668a408.477 408.477 0 0 1 .976-2.063l.016-.034.004-.009v-.002h.001l-.451-.216Zm2.094 3.84c-.122-.365-.535-1.385-.908-2.29a299.888 299.888 0 0 0-.665-1.6l-.044-.106-.012-.028-.003-.007V2.31h-.001l-.461.193-.461.194a.137.137 0 0 1 .004.01l.012.027.044.106a299.835 299.835 0 0 1 .663 1.595c.38.922.776 1.901.883 2.224l.949-.316ZM12.038 2.5l-.46-.193h-.001v.002a.49.49 0 0 0-.004.007l-.012.028a123.683 123.683 0 0 0-.205.492c-.134.322-.316.758-.504 1.216-.373.905-.786 1.926-.908 2.29l.949.316c.108-.323.504-1.302.884-2.225a301.373 301.373 0 0 1 .662-1.596l.045-.106.011-.028.003-.007.001-.002-.46-.194Zm2.693 4.63c-.157-.403-.724-1.626-1.239-2.724-.26-.554-.51-1.084-.696-1.476l-.223-.47-.062-.13-.016-.033a.313.313 0 0 0-.004-.01l-.001-.001v-.001l-.452.215-.451.215.001.003.004.009.016.034a93.973 93.973 0 0 1 .284.597c.186.391.436.92.695 1.473.524 1.116 1.07 2.3 1.213 2.663l.931-.364Z"/></svg>