<svg xmlns="http://www.w3.org/2000/svg" width="32" height="32" fill="none" viewBox="0 0 32 32"><path fill="#fff" fill-rule="evenodd" d="M10.257 7.52 11 7l-.743-.52.157-.894-.894.158L9 5l-.52.744-.894-.158.158.894L7 7l.744.52-.158.894.894-.158L9 9l.52-.744.894.158-.157-.894Zm3.171 4 .744-.52-.744-.52.158-.894-.894.158-.52-.744-.52.744-.895-.158.158.894-.743.52.743.52-.158.894.894-.157.52.743.521-.743.894.157-.158-.894Zm6.744-.52-.744.52.158.894-.894-.157-.52.743-.52-.743-.895.157.158-.894-.743-.52.743-.52-.158-.894.894.158.52-.744.521.744.894-.158-.158.894.744.52Zm-3.916-3.48L17 7l-.744-.52.158-.894-.894.158L15 5l-.52.744-.894-.158.157.894L13 7l.743.52-.157.894.894-.158L15 9l.52-.744.894.158-.158-.894ZM8 11l-.744.52.158.894-.894-.157L6 13l-.52-.743-.894.157.158-.894L4 11l.744-.52-.158-.894.894.158L6 9l.52.744.894-.158-.158.894L8 11Zm15.017.248h.001a1.997 1.997 0 0 1 2.563 2.963 1.997 1.997 0 0 1-1.584.777v.002H4v2h19.994a4 4 0 0 0 3.03-6.62 4 4 0 0 0-4.99-.866l-.002.001.002.002.983 1.742ZM4 21.053l13.206 4.698a3.498 3.498 0 0 0 4.688-4.105 3.498 3.498 0 0 0-3.37-2.644v-.003H4v2.054Zm14.51-.054H9.815l8.17 2.906-.002.002a1.495 1.495 0 0 0 1.728-.52 1.497 1.497 0 0 0-1.2-2.384v-.004Z" clip-rule="evenodd"/></svg>