<svg xmlns="http://www.w3.org/2000/svg" width="32" height="32" fill="none" viewBox="0 0 32 32"><path fill="#fff" fill-rule="evenodd" d="M2 13c0 4.762 2.918 8.816 7 10.347v-2.176C6.07 19.753 4 16.66 4 13c0-5.04 3.922-9 8.608-9 3.976 0 7.401 2.85 8.349 6.791l.003-.001c.134.547.22 1.114.25 1.696A4.54 4.54 0 0 1 23.25 12c2.555 0 4.75 2.17 4.75 5 0 2.81-2.164 4.97-4.697 5H23v1.995c.083.003.166.005.25.005 3.728 0 6.75-3.134 6.75-7s-3.022-7-6.75-7c-.145 0-.287.005-.429.014C21.566 5.39 17.469 2 12.608 2 6.75 2 2 6.925 2 13Zm15.168 3.445-4 6L12.132 24h4.912l-3.188 4.415 1.621 1.17 4.334-6L20.956 22h-5.088l2.964-4.445-1.664-1.11Zm3.193 10.48c-.208.486-.36 1.006-.36 1.484 0 .879.672 1.591 1.5 1.591.829 0 1.5-.712 1.5-1.59 0-.448-.168-.978-.392-1.485C22.164 25.917 21.5 25 21.5 25s-.696.886-1.14 1.924ZM9 28.408c0-.478.152-.998.36-1.485C9.804 25.886 10.5 25 10.5 25s.664.918 1.109 1.925c.224.507.392 1.037.392 1.484 0 .879-.671 1.591-1.5 1.591-.828 0-1.5-.712-1.5-1.59Z" clip-rule="evenodd"/></svg>