<svg xmlns="http://www.w3.org/2000/svg" width="32" height="32" fill="none" viewBox="0 0 32 32"><path fill="#fff" fill-rule="evenodd" d="M10 23.665C5.402 22.46 2 18.142 2 13 2 6.925 6.75 2 12.608 2c2.297 0 4.424.757 6.16 2.043a6.5 6.5 0 0 1 9.753 8.584A7.132 7.132 0 0 1 30 17c0 3.866-3.022 7-6.75 7-.084 0-.167-.002-.25-.005V22h.303C25.836 21.97 28 19.81 28 17c0-2.83-2.195-5-4.75-5a4.54 4.54 0 0 0-2.04.486 9.247 9.247 0 0 0-.25-1.696l-.003.001C20.009 6.85 16.584 4 12.608 4 7.922 4 4 7.96 4 13c0 4.066 2.553 7.43 6 8.577v2.088Zm17.076-12.433a4.5 4.5 0 0 0-6.818-5.853 11.091 11.091 0 0 1 2.563 4.635 6.554 6.554 0 0 1 4.255 1.219ZM13.168 22.445l4-6 1.664 1.11L15.868 22h5.088l-1.145 1.585-4.334 6-1.621-1.17L17.044 24h-4.912l1.036-1.555Z" clip-rule="evenodd"/></svg>