<svg xmlns="http://www.w3.org/2000/svg" width="32" height="32" fill="none" viewBox="0 0 32 32"><path fill="#fff" fill-rule="evenodd" d="M2 13c0 5.142 3.402 9.46 8 10.665v-2.088C6.553 20.43 4 17.066 4 13c0-5.04 3.922-9 8.608-9 3.976 0 7.401 2.85 8.349 6.791l.003-.001c.134.547.22 1.114.25 1.696A4.54 4.54 0 0 1 23.25 12c2.555 0 4.75 2.17 4.75 5 0 2.81-2.164 4.97-4.697 5H23v1.995c.083.003.166.005.25.005 3.728 0 6.75-3.134 6.75-7s-3.022-7-6.75-7c-.145 0-.287.005-.429.014C21.566 5.39 17.469 2 12.608 2 6.75 2 2 6.925 2 13Zm15.168 3.445-4 6L12.132 24h4.912l-3.188 4.415 1.621 1.17 4.334-6L20.956 22h-5.088l2.964-4.445-1.664-1.11Z" clip-rule="evenodd"/></svg>