<svg xmlns="http://www.w3.org/2000/svg" width="32" height="32" fill="none" viewBox="0 0 32 32"><path fill="#fff" fill-rule="evenodd" d="M9 23.347C4.918 21.817 2 17.762 2 13 2 6.925 6.75 2 12.608 2c4.861 0 8.958 3.39 10.213 8.014.142-.01.284-.014.428-.014C26.978 10 30 13.134 30 17c0 3.603-2.625 6.57-6 6.957v-2.02c2.22-.376 4-2.388 4-4.937 0-2.83-2.195-5-4.75-5a4.54 4.54 0 0 0-2.04.486 9.247 9.247 0 0 0-.25-1.696l-.003.001C20.009 6.85 16.584 4 12.608 4 7.922 4 4 7.96 4 13c0 3.662 2.07 6.753 5 8.17v2.177ZM14 18l-.743.52.157.894-.894-.158L12 20l-.52-.744-.894.158.157-.894L10 18l.743-.52-.157-.894.894.158L12 16l.52.744.894-.158-.157.894L14 18Zm3.256 3.52L18 21l-.744-.52.158-.894-.894.158L16 19l-.52.744-.894-.158.157.894L14 21l.743.52-.157.894.894-.158L16 23l.52-.744.894.158-.158-.894ZM18 15l-.744.52.158.894-.894-.158L16 17l-.52-.744-.894.158.157-.894L14 15l.743-.52-.157-.894.894.157L16 13l.52.743.894-.157-.158.894L18 15Zm3.256 3.52L22 18l-.744-.52.158-.894-.894.158L20 16l-.52.744-.894-.158.158.894L18 18l.744.52-.158.894.894-.158L20 20l.52-.744.894.158-.158-.894Zm-8.754 9.482c.242 0 .5-.21.5-.546 0-.184-.063-.53-.259-1.04a8.774 8.774 0 0 0-.269-.622c-.299.65-.473 1.234-.472 1.662 0 .336.258.546.5.546Zm-1.21-4.245C11.902 22.73 12.5 22 12.5 22s.57.755 1.165 1.778c.653 1.12 1.337 2.56 1.337 3.678 0 1.406-1.119 2.546-2.5 2.546-1.38 0-2.5-1.14-2.5-2.546 0-1.227.652-2.625 1.29-3.699Zm8.71 3.699c0 .336-.258.546-.5.546s-.5-.21-.5-.546c0-.428.173-1.012.472-1.662.1.21.192.42.27.623.195.51.258.855.258 1.039ZM19.5 22s-.597.73-1.208 1.757c-.638 1.074-1.29 2.472-1.29 3.699 0 1.406 1.12 2.546 2.5 2.546 1.382 0 2.5-1.14 2.5-2.546 0-1.118-.684-2.558-1.336-3.678A19.973 19.973 0 0 0 19.5 22Z" clip-rule="evenodd"/></svg>