<svg width="0" height="0"><symbol xmlns="http://www.w3.org/2000/svg" id="add" fill="none" viewBox="0 0 16 16"><g fill="currentColor"><path d="M13.5 6a.5.5 0 0 0 .5-.5v-3a.5.5 0 0 0-.5-.5h-11a.5.5 0 0 0-.5.5v3a.5.5 0 0 0 1 0V3h10v2.5a.5.5 0 0 0 .5.5"/><path d="M5.146 8.353a.5.5 0 0 1 0-.707l2.5-2.5a.5.5 0 0 1 .708 0l2.5 2.5a.5.5 0 0 1-.707.708L8.5 6.707V13.5a.5.5 0 1 1-1 0V6.707L5.854 8.353a.5.5 0 0 1-.708 0"/></g></symbol><symbol xmlns="http://www.w3.org/2000/svg" id="autoscroll-from-source" fill="none" viewBox="0 0 16 16"><g fill="currentColor"><path d="M14 5.5a.5.5 0 0 1-1 0V3H3v2.5a.5.5 0 0 1-1 0v-3a.5.5 0 0 1 .5-.5h11a.5.5 0 0 1 .5.5z"/><path d="M5.146 11.354a.5.5 0 0 1 .707-.707L7.5 12.293V5.5a.5.5 0 1 1 1 0v6.793l1.646-1.647a.5.5 0 1 1 .707.707l-2.5 2.5a.5.5 0 0 1-.707 0z"/></g></symbol><symbol xmlns="http://www.w3.org/2000/svg" id="checkmark" fill="none" viewBox="0 0 16 16"><path stroke="currentColor" stroke-linecap="round" stroke-linejoin="round" stroke-width="1.5" d="m2.5 8.25 3.5 3.5 7.5-7.5"/></symbol><symbol xmlns="http://www.w3.org/2000/svg" id="chevron-down" fill="none" viewBox="0 0 16 16"><path stroke="var(--icon-secondary-color)" stroke-linecap="round" d="M11.5 6.25 8 9.75l-3.5-3.5"/></symbol><symbol xmlns="http://www.w3.org/2000/svg" id="chevron-left" fill="none" viewBox="0 0 16 16"><path stroke="var(--icon-secondary-color)" stroke-linecap="round" d="M9.5 11.5 6 8l3.5-3.5"/></symbol><symbol xmlns="http://www.w3.org/2000/svg" id="chevron-right" fill="none" viewBox="0 0 16 16"><path stroke="var(--icon-secondary-color)" stroke-linecap="round" d="M6 11.5 9.5 8 6 4.5"/></symbol><symbol xmlns="http://www.w3.org/2000/svg" id="chevron-up-large" fill="none" viewBox="0 0 16 16"><path stroke="currentColor" stroke-linecap="round" d="M12.5 10.25 8 5.75l-4.5 4.5"/></symbol><symbol xmlns="http://www.w3.org/2000/svg" id="chevron-up" fill="none" viewBox="0 0 16 16"><path stroke="var(--icon-secondary-color)" stroke-linecap="round" d="M4.5 9.75 8 6.25l3.5 3.5"/></symbol><symbol xmlns="http://www.w3.org/2000/svg" id="close-small-hovered" fill="none" viewBox="0 0 16 16"><circle cx="8" cy="8" r="8" fill="currentColor" opacity=".1"/><path fill="var(--icon-secondary-color)" fill-rule="evenodd" d="M11.493 4.488a.5.5 0 0 0-.72-.01L8 7.288l-2.772-2.81a.5.5 0 0 0-.711.702L7.299 8l-2.782 2.82a.5.5 0 0 0 .711.702L8 8.712l2.772 2.81a.5.5 0 1 0 .712-.702L8.702 8l2.782-2.82a.5.5 0 0 0 .01-.692Z" clip-rule="evenodd"/></symbol><symbol xmlns="http://www.w3.org/2000/svg" id="close-small" fill="none" viewBox="0 0 16 16"><path fill="var(--icon-secondary-color)" fill-rule="evenodd" d="M11.493 4.488a.5.5 0 0 0-.72-.01L8 7.288l-2.772-2.81a.5.5 0 0 0-.711.702L7.299 8l-2.782 2.82a.5.5 0 0 0 .711.702L8 8.712l2.772 2.81a.5.5 0 1 0 .712-.702L8.702 8l2.782-2.82a.5.5 0 0 0 .01-.692Z" clip-rule="evenodd"/></symbol><symbol xmlns="http://www.w3.org/2000/svg" id="close" fill="none" viewBox="0 0 16 16"><path stroke="currentColor" stroke-linecap="round" d="M3 13 13 3m0 10L3 3"/></symbol><symbol xmlns="http://www.w3.org/2000/svg" id="collapse-all" fill="none" viewBox="0 0 16 16"><path stroke="currentColor" stroke-linecap="round" stroke-linejoin="round" d="M4.5 2.5 8 6l3.5-3.5m-7 11L8 10l3.5 3.5"/></symbol><symbol xmlns="http://www.w3.org/2000/svg" id="copy" fill="none" viewBox="0 0 16 16"><rect width="9" height="10" x="2.5" y="3.5" stroke="currentColor" rx="1.5"/><rect width="4" height="1" x="5" y="6" fill="currentColor" rx=".5"/><rect width="4" height="1" x="5" y="8" fill="currentColor" rx=".5"/><rect width="4" height="1" x="5" y="10" fill="currentColor" rx=".5"/><path fill="currentColor" fill-rule="evenodd" d="M11.002 2h.598A1.4 1.4 0 0 1 13 3.4v.51l.002.09v7.548A2.4 2.4 0 0 0 14 9.6V3.4A2.4 2.4 0 0 0 11.6 1H6.4c-.803 0-1.514.394-1.95 1z" clip-rule="evenodd"/></symbol><symbol xmlns="http://www.w3.org/2000/svg" id="cut" fill="none" viewBox="0 0 16 16"><path fill="currentColor" fill-rule="evenodd" d="M7 4.5a2.5 2.5 0 0 1-1.243 2.161l1.865.794 5.683-2.415a.5.5 0 1 1 .39.92L8.9 8l4.797 2.04a.5.5 0 0 1-.391.921L7.622 8.542l-1.87.794A2.499 2.499 0 0 1 4.5 14a2.5 2.5 0 0 1-1.058-4.766l-.001-.002 2.903-1.234-2.687-1.144A2.501 2.501 0 1 1 7 4.5m-1 0a1.5 1.5 0 0 1-1.985 1.42l-.2-.086A1.5 1.5 0 1 1 6 4.5m0 7a1.5 1.5 0 1 1-3 0 1.5 1.5 0 0 1 3 0" clip-rule="evenodd"/></symbol><symbol xmlns="http://www.w3.org/2000/svg" id="delete" fill="none" viewBox="0 0 16 16"><path fill="currentColor" fill-rule="evenodd" d="M7 2h2a1 1 0 0 1 1 1H6a1 1 0 0 1 1-1M5 3a2 2 0 0 1 2-2h2a2 2 0 0 1 2 2h2a1 1 0 0 1 1 1v2h-1v7a2 2 0 0 1-2 2H5a2 2 0 0 1-2-2V6H2V4a1 1 0 0 1 1-1zm6 1H3v1h10V4zM4 6h8v7a1 1 0 0 1-1 1H5a1 1 0 0 1-1-1zm2.5 1a.5.5 0 0 0-.5.5v4a.5.5 0 0 0 1 0v-4a.5.5 0 0 0-.5-.5m2.5.5a.5.5 0 0 1 1 0v4a.5.5 0 0 1-1 0z" clip-rule="evenodd"/></symbol><symbol xmlns="http://www.w3.org/2000/svg" id="double-color" fill="none" viewBox="0 0 16 16"><path fill="currentColor" d="M13 4H8.5L6.736 2.283A1 1 0 0 0 6.038 2H2.75C1.784 2 1 2.836 1 3.867v8.266C1 13.164 1.784 14 2.75 14H8v-1H2.75c-.354 0-.75-.326-.75-.867V3.867c0-.54.396-.867.75-.867h3.288l2.056 2H13a1 1 0 0 1 1 1v1h1V6a2 2 0 0 0-2-2"/><path fill="var(--icon-secondary-color)" d="M13 12.5a.5.5 0 0 1 .5-.5h2a.5.5 0 0 1 .5.5v2a.5.5 0 0 1-.5.5h-2a.5.5 0 0 1-.5-.5zm-4 0a.5.5 0 0 1 .5-.5h2a.5.5 0 0 1 .5.5v2a.5.5 0 0 1-.5.5h-2a.5.5 0 0 1-.5-.5zm4-4a.5.5 0 0 1 .5-.5h2a.5.5 0 0 1 .5.5v2a.5.5 0 0 1-.5.5h-2a.5.5 0 0 1-.5-.5z"/></symbol><symbol xmlns="http://www.w3.org/2000/svg" id="down" fill="none" viewBox="0 0 16 16"><path fill="currentColor" fill-rule="evenodd" d="M12.354 9.654a.5.5 0 0 0-.708-.708L8.5 12.093V2.5a.5.5 0 0 0-1 0v9.593L4.354 8.946a.5.5 0 1 0-.708.708l4 4 .354.353.354-.353z" clip-rule="evenodd"/></symbol><symbol xmlns="http://www.w3.org/2000/svg" id="edit" fill="none" viewBox="0 0 16 16"><path stroke="currentColor" stroke-miterlimit="10" d="m11.597 7.655 2.091-2.095a1.035 1.035 0 0 0 .007-1.474l-1.668-1.772-.005-.005a1.05 1.05 0 0 0-1.489.002L8.387 4.444m3.21 3.21-3.21-3.21m3.21 3.21L5.74 13.5H2.5v-3.18l5.887-5.876"/></symbol><symbol xmlns="http://www.w3.org/2000/svg" id="exit" fill="none" viewBox="0 0 16 16"><path fill="currentColor" fill-rule="evenodd" d="M6 2h7a1 1 0 0 1 1 1v10a1 1 0 0 1-1 1H6a1 1 0 0 1-1-1v-3H4v3a2 2 0 0 0 2 2h7a2 2 0 0 0 2-2V3a2 2 0 0 0-2-2H6a2 2 0 0 0-2 2v3h1V3a1 1 0 0 1 1-1" clip-rule="evenodd"/><path stroke="var(--icon-secondary-color)" stroke-linecap="round" stroke-linejoin="round" d="M2.5 8H11m0 0L8.5 5.5M11 8l-2.5 2.5"/></symbol><symbol xmlns="http://www.w3.org/2000/svg" id="expand-all" fill="none" viewBox="0 0 16 16"><path stroke="currentColor" stroke-linecap="round" stroke-linejoin="round" d="M4.5 6 8 2.5 11.5 6m-7 4L8 13.5l3.5-3.5"/></symbol><symbol xmlns="http://www.w3.org/2000/svg" id="export" fill="none" viewBox="0 0 16 16"><path fill="currentColor" fill-rule="evenodd" d="M13.962 2.309a.5.5 0 0 0-.106-.16l-.005-.005A.5.5 0 0 0 13.5 2h-4a.5.5 0 0 0 0 1h2.793L7.146 8.146a.5.5 0 1 0 .708.708L13 3.707V6.5a.5.5 0 0 0 1 0V2.497a.5.5 0 0 0-.038-.188" clip-rule="evenodd"/><path stroke="currentColor" stroke-linecap="round" d="M2.5 4.5V12A1.5 1.5 0 0 0 4 13.5h7.5"/></symbol><symbol xmlns="http://www.w3.org/2000/svg" id="external-link" fill="none" viewBox="0 0 16 16"><path fill="currentColor" fill-rule="evenodd" d="M5 5.5a.5.5 0 0 1 .5-.5H11v5.5a.5.5 0 0 1-1 0V6.707l-5.146 5.147a.5.5 0 0 1-.708-.708L9.293 6H5.5a.5.5 0 0 1-.5-.5" clip-rule="evenodd"/></symbol><symbol xmlns="http://www.w3.org/2000/svg" id="favourite"><path fill="currentColor" d="m24 41.95-2.05-1.85q-5.3-4.85-8.75-8.375t-5.5-6.3T4.825 20.4 4 15.85q0-4.5 3.025-7.525T14.5 5.3q2.85 0 5.275 1.35T24 10.55q2.1-2.7 4.45-3.975T33.5 5.3q4.45 0 7.475 3.025T44 15.85q0 2.3-.825 4.55T40.3 25.425t-5.5 6.3-8.75 8.375ZM24 38q5.05-4.65 8.325-7.975t5.2-5.825 2.7-4.45.775-3.9q0-3.3-2.1-5.425T33.5 8.3q-2.55 0-4.75 1.575T25.2 14.3h-2.45q-1.3-2.8-3.5-4.4T14.5 8.3q-3.3 0-5.4 2.125T7 15.85q0 1.95.775 3.925t2.7 4.5T15.7 30.1 24 38m0-14.85"/></symbol><symbol xmlns="http://www.w3.org/2000/svg" id="filter" fill="none" viewBox="0 0 16 16"><path stroke="currentColor" stroke-linejoin="round" d="M13.5 2.5h-11l4 5V14l3-2V7.5z"/></symbol><symbol xmlns="http://www.w3.org/2000/svg" id="groups" fill="none" viewBox="0 0 16 16"><g stroke="currentColor"><rect width="5" height="5" x="1.5" y="1.5" rx=".5"/><rect width="5" height="5" x="1.5" y="8.5" rx=".5"/><rect width="5" height="5" x="8.5" y="8.5" rx=".5"/><rect width="5" height="5" x="8.5" y="1.5" rx=".5"/></g></symbol><symbol xmlns="http://www.w3.org/2000/svg" id="help" fill="none" viewBox="0 0 16 16"><g fill="currentColor"><circle cx="7.8" cy="14.15" r=".85"/><path d="M7.98 8.251q.337-.356.88-.833.56-.492.886-.847V6.57a3 3 0 0 0 .552-.837l.001-.002a2.54 2.54 0 0 0 .228-1.097q0-.748-.311-1.32a2.2 2.2 0 0 0-.873-.892h-.001a2.54 2.54 0 0 0-1.299-.329q-.764.001-1.356.338-.583.337-.912.949-.153.289-.234.62a3 3 0 0 0-.058.317c-.04.302-.275.55-.58.55H4.78a.53.53 0 0 1-.53-.55q.015-.161.043-.317a3.7 3.7 0 0 1 .415-1.191 3.4 3.4 0 0 1 1.36-1.331Q6.938.999 8.053 1q1.085 0 1.928.458.85.45 1.322 1.264.47.815.469 1.865.001.824-.274 1.464-.271.63-.674 1.064-.385.424-1.015.967-.502.435-.782.725a2.6 2.6 0 0 0-.448.64v.002a1.7 1.7 0 0 0-.18.78.48.48 0 0 1-.48.48H7.72a.53.53 0 0 1-.527-.527q0-.608.227-1.097.225-.48.56-.834"/></g></symbol><symbol xmlns="http://www.w3.org/2000/svg" id="hide" fill="none" viewBox="0 0 16 16"><path stroke="currentColor" stroke-linecap="round" d="M2 8h12"/></symbol><symbol xmlns="http://www.w3.org/2000/svg" id="layout" fill="none" viewBox="0 0 16 16"><path fill="currentColor" fill-rule="evenodd" d="M7 3H4a1 1 0 0 0-1 1v8a1 1 0 0 0 1 1h3zm1 0v4h5V4a1 1 0 0 0-1-1zm0 5v5h4a1 1 0 0 0 1-1V8zM4 2a2 2 0 0 0-2 2v8a2 2 0 0 0 2 2h8a2 2 0 0 0 2-2V4a2 2 0 0 0-2-2z" clip-rule="evenodd"/></symbol><symbol xmlns="http://www.w3.org/2000/svg" id="left" fill="none" viewBox="0 0 16 16"><path fill="currentColor" fill-rule="evenodd" d="M6.347 3.646a.5.5 0 1 1 .707.708l-3.15 3.15h9.6a.5.5 0 0 1 0 1H3.91l3.143 3.142a.5.5 0 0 1-.707.708l-4-4L1.993 8l.354-.354z" clip-rule="evenodd"/></symbol></svg>