<svg xmlns="http://www.w3.org/2000/svg" width="32" height="32" fill="none" viewBox="0 0 32 32"><path fill="#fff" fill-rule="evenodd" d="M25.865 15.974a6.934 6.934 0 0 0 2.068-4.016 6.62 6.62 0 0 1-.412.167c-.815.297-1.69.43-2.573.383h-.018a6.43 6.43 0 0 1-4.154-1.832l-.008-.008a6.169 6.169 0 0 1-1.831-4.108 6.092 6.092 0 0 1 .385-2.414c-2.3.462-4.178 1.987-5.105 4 3.818.658 6.943 3.474 8.194 7.213a6.706 6.706 0 0 1 3.454.615ZM12.112 8.007C13.373 4.508 16.785 2 20.795 2c.977 0 1.918.149 2.8.424a4.33 4.33 0 0 0-1.968 1.622l-.016-.002a4.173 4.173 0 0 0 .586 5.23l.008.007a4.39 4.39 0 0 0 2.853 1.256h.018a4.428 4.428 0 0 0 1.882-.318 4.359 4.359 0 0 0 1.075-.626l.001.001a4.24 4.24 0 0 0 1.343-1.856 8.86 8.86 0 0 1-1.816 9.365C29.053 18.448 30 20.441 30 22.667 30 26.717 26.866 30 23 30H12.5C6.701 30 2 25.075 2 19 2 13.061 6.493 8.221 12.112 8.007ZM12.553 28H12.5C7.892 28 4 24.06 4 19c0-5.06 3.892-9 8.5-9 3.586 0 6.739 2.387 7.96 5.83l-.002.002c.224.63.384 1.295.47 1.984A4.721 4.721 0 0 1 23 17.333c2.675 0 5 2.3 5 5.334S25.675 28 23 28H12.553Z" clip-rule="evenodd"/></svg>