<?xml version="1.0" standalone="no"?>
<!DOCTYPE svg PUBLIC "-//W3C//DTD SVG 20010904//EN"
 "http://www.w3.org/TR/2001/REC-SVG-20010904/DTD/svg10.dtd">
<svg version="1.0" xmlns="http://www.w3.org/2000/svg"
 width="232.000000pt" height="232.000000pt" viewBox="0 0 232.000000 232.000000"
 preserveAspectRatio="xMidYMid meet">
<metadata>
Created by potrace 1.14, written by Peter Selinger 2001-2017
</metadata>
<g transform="translate(0.000000,232.000000) scale(0.100000,-0.100000)"
fill="#000000" stroke="none">
<path d="M1010 2249 c-68 -9 -99 -16 -170 -35 -30 -8 -62 -16 -70 -18 -39 -9
-159 -69 -154 -77 3 -5 -1 -6 -9 -3 -17 6 -189 -105 -181 -117 3 -5 1 -8 -4
-7 -17 5 -104 -73 -98 -88 3 -8 0 -11 -8 -8 -16 6 -78 -65 -69 -80 3 -6 3 -8
-2 -4 -10 9 -22 -4 -66 -73 -44 -66 -90 -155 -87 -166 1 -5 -6 -20 -16 -35
-10 -15 -15 -32 -11 -38 3 -5 1 -10 -6 -10 -6 0 -9 -8 -6 -20 3 -11 2 -18 -3
-15 -19 12 -44 -162 -44 -310 1 -129 4 -164 27 -252 39 -148 115 -302 209
-420 322 -405 908 -545 1397 -335 345 149 601 467 666 828 14 77 15 308 1 364
-3 14 -8 39 -12 55 -21 111 -95 277 -172 385 -96 136 -259 278 -402 350 -36
17 -76 38 -90 45 -48 24 -200 67 -287 80 -94 14 -244 16 -333 4z m-230 -125
c0 -8 -19 -13 -24 -6 -3 5 1 9 9 9 8 0 15 -2 15 -3z m525 -34 c55 0 215 -49
308 -95 242 -118 421 -321 502 -569 33 -103 40 -156 39 -296 -3 -448 -355
-839 -822 -914 -573 -93 -1106 290 -1167 839 -18 160 9 330 77 472 10 23 19
45 18 49 -1 4 2 10 7 13 14 10 66 95 66 108 0 7 3 10 7 8 3 -2 13 5 21 17 8
11 36 44 64 72 27 28 48 54 47 59 -1 4 1 6 5 5 5 -2 33 16 63 38 30 22 78 53
105 68 28 16 55 31 60 36 6 4 48 21 95 38 111 39 265 65 368 60 48 -2 82 1 82
7 0 5 5 4 12 -3 7 -7 26 -12 43 -12z m-577 -15 c-3 -3 -9 2 -12 12 -6 14 -5
15 5 6 7 -7 10 -15 7 -18z m-40 -40 c-3 -3 -9 2 -12 12 -6 14 -5 15 5 6 7 -7
10 -15 7 -18z m-327 -128 c-10 -9 -11 -8 -5 6 3 10 9 15 12 12 3 -3 0 -11 -7
-18z m-156 -235 c-3 -3 -11 0 -18 7 -9 10 -8 11 6 5 10 -3 15 -9 12 -12z"/>
<path d="M890 1678 c-48 -12 -80 -29 -74 -39 3 -5 -1 -6 -8 -4 -18 7 -92 -71
-82 -86 4 -7 3 -9 -3 -6 -30 19 -36 -59 -40 -470 l-3 -413 70 0 71 0 -2 398
c0 236 3 407 9 422 20 50 89 91 141 83 40 -6 84 -36 104 -71 17 -29 19 -59 20
-339 2 -293 3 -310 24 -353 52 -109 133 -158 259 -155 107 3 182 52 235 155
23 45 23 48 23 455 l1 410 -67 3 c-65 2 -68 1 -69 -20 0 -13 -1 -194 -2 -403
-2 -376 -2 -380 -25 -416 -62 -101 -217 -72 -237 45 -3 17 -6 162 -7 321 -3
277 -4 292 -25 335 -13 25 -28 52 -35 60 -22 25 -86 70 -101 70 -7 0 -17 3
-21 7 -16 16 -109 23 -156 11z"/>
</g>
</svg>
