<svg xmlns="http://www.w3.org/2000/svg" width="16" height="16" fill="none" viewBox="0 0 16 16"><g fill="#6C707E"><path d="M5.5 6a.5.5 0 0 0 0 1h5a.5.5 0 0 0 0-1h-5ZM5 8.5a.5.5 0 0 1 .5-.5h5a.5.5 0 0 1 0 1h-5a.5.5 0 0 1-.5-.5Zm.5 1.5a.5.5 0 0 0 0 1h5a.5.5 0 0 0 0-1h-5Z"/><path fill-rule="evenodd" d="M12 2h-1.085A1.5 1.5 0 0 0 9.5 1h-3a1.5 1.5 0 0 0-1.415 1H4a2 2 0 0 0-2 2v9a2 2 0 0 0 2 2h8a2 2 0 0 0 2-2V4a2 2 0 0 0-2-2ZM4 3h1.085A1.5 1.5 0 0 0 6.5 4h3a1.5 1.5 0 0 0 1.415-1H12a1 1 0 0 1 1 1v9a1 1 0 0 1-1 1H4a1 1 0 0 1-1-1V4a1 1 0 0 1 1-1Zm2.5-1a.5.5 0 0 0 0 1h3a.5.5 0 0 0 0-1h-3Z" clip-rule="evenodd"/></g></svg>