<svg xmlns="http://www.w3.org/2000/svg" width="16" height="16" fill="none" viewBox="0 0 16 16"><g fill="#6C707E"><path d="M13.385 2.12h1.2l-5.06 7h-1.2l5.06-7ZM9.65 5.4c-.334 0-.632-.072-.895-.215a1.553 1.553 0 0 1-.61-.6 1.77 1.77 0 0 1-.22-.885c0-.33.073-.623.22-.88.146-.26.35-.462.61-.605.263-.143.561-.215.895-.215.34 0 .64.072.9.215.263.143.468.345.615.605.15.257.225.55.225.88 0 .33-.075.625-.225.885a1.544 1.544 0 0 1-.615.6c-.26.143-.56.215-.9.215Zm.005-.885a.708.708 0 0 0 .665-.39.918.918 0 0 0 .095-.425.918.918 0 0 0-.095-.425.675.675 0 0 0-.27-.285.753.753 0 0 0-.395-.105.753.753 0 0 0-.395.105.685.685 0 0 0-.265.285.917.917 0 0 0-.095.425c0 .16.031.302.095.425a.72.72 0 0 0 .265.29c.116.067.248.1.395.1ZM13.26 9.24c-.337 0-.635-.072-.895-.215a1.588 1.588 0 0 1-.615-.6 1.77 1.77 0 0 1-.22-.885c0-.33.073-.623.22-.88.15-.26.355-.462.615-.605.26-.143.558-.215.895-.215.337 0 .636.072.9.215.267.143.473.345.62.605.147.257.22.55.22.88 0 .33-.073.625-.22.885a1.536 1.536 0 0 1-.62.6 1.852 1.852 0 0 1-.9.215Zm0-.885a.79.79 0 0 0 .4-.1.708.708 0 0 0 .27-.29.88.88 0 0 0 .1-.425.869.869 0 0 0-.1-.42.67.67 0 0 0-.27-.29.762.762 0 0 0-.4-.105.753.753 0 0 0-.395.105.679.679 0 0 0-.265.29.907.907 0 0 0-.095.42c0 .16.031.302.095.425a.72.72 0 0 0 .265.29c.117.067.248.1.395.1Z"/><path fill-rule="evenodd" d="M7.854 10.854a.5.5 0 0 0-.708-.708L5 12.293V2.5a.5.5 0 0 0-1 0v9.793l-2.146-2.147a.5.5 0 0 0-.708.708l3 3a.5.5 0 0 0 .708 0l3-3Z" clip-rule="evenodd"/></g></svg>