<svg xmlns="http://www.w3.org/2000/svg" width="16" height="16" fill="none" viewBox="0 0 16 16"><g fill="#6C707E"><path fill-rule="evenodd" d="M8.854 10.854a.5.5 0 0 0-.708-.708L6 12.293V2.5a.5.5 0 0 0-1 0v9.793l-2.146-2.147a.5.5 0 0 0-.708.708l3 3a.5.5 0 0 0 .708 0l3-3Z" clip-rule="evenodd"/><path d="M11.973 1.9c.4 0 .753.071 1.057.213.307.143.545.35.713.621.171.269.257.585.257.95v3.299h-1.057l-.01-1.858h.262c0 .41-.074.765-.223 1.062a1.572 1.572 0 0 1-.63.68 1.95 1.95 0 0 1-.975.232 1.97 1.97 0 0 1-.864-.184 1.485 1.485 0 0 1-.596-.51 1.313 1.313 0 0 1-.214-.737c0-.265.068-.509.204-.732.14-.223.33-.406.572-.548a2.07 2.07 0 0 1 .83-.262l1.3-.14a.339.339 0 0 0 .237-.112.445.445 0 0 0 .088-.296l.058 1.082-1.436.16a.955.955 0 0 0-.383.121.68.68 0 0 0-.35.606c0 .142.038.269.112.379a.75.75 0 0 0 .316.252c.135.061.29.092.465.092a1.4 1.4 0 0 0 .64-.14c.185-.098.327-.232.427-.403.1-.175.15-.375.15-.602V3.588a.767.767 0 0 0-.465-.723 1.214 1.214 0 0 0-.51-.102c-.19 0-.362.033-.514.097a.978.978 0 0 0-.368.262.712.712 0 0 0-.17.364H9.815c.032-.304.145-.576.34-.815a1.98 1.98 0 0 1 .765-.567 2.645 2.645 0 0 1 1.053-.204Zm.732 8.055h-2.493v-.921h3.798v.902l-2.62 3.143H14V14h-3.914v-.902l2.619-3.143Z"/></g></svg>