<svg width="0" height="0"><symbol xmlns="http://www.w3.org/2000/svg" id="ac" viewBox="0 0 512 512"><mask id="a"><circle cx="256" cy="256" r="256" fill="currentColor"/></mask><g mask="url(#a)"><path fill="#0052b4" d="M256 0h256v512H0V256Z"/><path fill="#eee" d="M0 0v32l32 32L0 96v160h32l32-32 32 32h32v-83l83 83h45l-8-16 8-15v-14l-83-83h83V96l-32-32 32-32V0H96L64 32 32 0Z"/><path fill="#d80027" d="M32 0v32H0v64h32v160h64V96h160V32H96V0Zm96 128 128 128v-31l-97-97z"/><path fill="#6da544" d="m320 144 48-80 48 80z"/><circle cx="368" cy="144" r="48" fill="#acabb1"/><path fill="#338af3" d="M320 144v77c0 36 48 48 48 48s48-12 48-48v-77z"/><rect width="32" height="128" x="288" y="128" fill="#ff9811" rx="16" ry="16"/><rect width="32" height="128" x="416" y="128" fill="#ff9811" rx="16" ry="16"/><path fill="#6da544" d="m368 160-48 67c2 11 9 19 16 26l32-45 32 45c8-7 14-15 16-26z"/></g></symbol><symbol xmlns="http://www.w3.org/2000/svg" id="ad" viewBox="0 0 512 512"><g mask="url(#a)"><path fill="#0052b4" d="M0 0h144.7l36 254.6-36 257.4H0z"/><path fill="#d80027" d="M367.3 0H512v512H367.3l-29.7-257.3z"/><path fill="#ffda44" d="M144.7 0h222.6v512H144.7z"/><path fill="#d80027" d="M256 354.5V256h66.8v47.3zm-66.8-165.3H256V256h-66.8z"/><path fill="#ff9811" d="M289.4 167a22.3 22.3 0 0 0-33.4-19.3 22.1 22.1 0 0 0-11.1-3c-12.3 0-22.3 10-22.3 22.3H167v111.3c0 41.4 32.9 65.4 58.7 77.8a22.1 22.1 0 0 0-3 11.2 22.3 22.3 0 0 0 33.3 19.3 22.1 22.1 0 0 0 11.1 3 22.3 22.3 0 0 0 19.2-33.5c25.8-12.4 58.7-36.4 58.7-77.8V167zm22.3 111.3c0 5.8 0 23.4-27.5 40.9a136.5 136.5 0 0 1-28.2 13.3c-7-2.4-17.8-6.7-28.2-13.3-27.5-17.5-27.5-35.1-27.5-41v-77.9h111.4z"/></g></symbol><symbol xmlns="http://www.w3.org/2000/svg" id="ae" viewBox="0 0 512 512"><g mask="url(#a)"><path fill="#a2001d" d="M0 0h167l52.3 252L167 512H0z"/><path fill="#eee" d="m167 167 170.8-44.6L512 167v178l-173.2 36.9L167 345z"/><path fill="#6da544" d="M167 0h345v167H167z"/><path fill="#333" d="M167 345h345v167H167z"/></g></symbol><symbol xmlns="http://www.w3.org/2000/svg" id="af" viewBox="0 0 512 512"><g mask="url(#a)"><path fill="#d80027" d="M144.7 0h222.6l37 257.7-37 254.3H144.7l-42.4-255.2z"/><path fill="#496e2d" d="M367.3 0H512v512H367.3z"/><path fill="#333" d="M0 0h144.7v512H0z"/><g fill="#ffda44"><path d="M256 167a89 89 0 1 0 0 178 89 89 0 0 0 0-178zm0 144.7a55.7 55.7 0 1 1 0-111.4 55.7 55.7 0 0 1 0 111.4z"/><path d="M256 222.6c-12.3 0-22.3 10-22.3 22.3v33.4h44.6v-33.4c0-12.3-10-22.3-22.3-22.3z"/></g></g></symbol></svg>