<svg width="0" height="0"><symbol xmlns="http://www.w3.org/2000/svg" xml:space="preserve" id="instagram" viewBox="0 0 512 512"><g id="Symbol"><g><radialGradient id="a" cx="56.35" cy="19.218" r="711.335" gradientTransform="matrix(.9986 -.05234 .04449 .8488 -36.974 443.801)" gradientUnits="userSpaceOnUse"><stop offset="0"/><stop offset=".263"/><stop offset=".609"/><stop offset="1"/></radialGradient><path d="M96.1 23.2c-16.2 6.3-29.9 14.7-43.6 28.4C38.8 65.2 30.4 79 24.1 95.1c-6.1 15.6-10.2 33.5-11.4 59.7-1.2 26.2-1.5 34.6-1.5 101.4s.3 75.2 1.5 101.4c1.2 26.2 5.4 44.1 11.4 59.7 6.3 16.2 14.7 29.9 28.4 43.6 13.7 13.7 27.4 22.1 43.6 28.4 15.6 6.1 33.5 10.2 59.7 11.4 26.2 1.2 34.6 1.5 101.4 1.5 66.8 0 75.2-.3 101.4-1.5 26.2-1.2 44.1-5.4 59.7-11.4 16.2-6.3 29.9-14.7 43.6-28.4 13.7-13.7 22.1-27.4 28.4-43.6 6.1-15.6 10.2-33.5 11.4-59.7 1.2-26.2 1.5-34.6 1.5-101.4s-.3-75.2-1.5-101.4c-1.2-26.2-5.4-44.1-11.4-59.7C484 79 475.6 65.2 462 51.6c-13.7-13.7-27.4-22.1-43.6-28.4-15.6-6.1-33.5-10.2-59.7-11.4-26.2-1.2-34.6-1.5-101.4-1.5s-75.2.3-101.4 1.5c-26.3 1.1-44.2 5.3-59.8 11.4zM356.6 56c24 1.1 37 5.1 45.7 8.5 11.5 4.5 19.7 9.8 28.3 18.4 8.6 8.6 13.9 16.8 18.4 28.3 3.4 8.7 7.4 21.7 8.5 45.7 1.2 25.9 1.4 33.7 1.4 99.4s-.3 73.5-1.4 99.4c-1.1 24-5.1 37-8.5 45.7-4.5 11.5-9.8 19.7-18.4 28.3-8.6 8.6-16.8 13.9-28.3 18.4-8.7 3.4-21.7 7.4-45.7 8.5-25.9 1.2-33.7 1.4-99.4 1.4s-73.5-.3-99.4-1.4c-24-1.1-37-5.1-45.7-8.5-11.5-4.5-19.7-9.8-28.3-18.4-8.6-8.6-13.9-16.8-18.4-28.3-3.4-8.7-7.4-21.7-8.5-45.7-1.2-25.9-1.4-33.7-1.4-99.4s.3-73.5 1.4-99.4c1.1-24 5.1-37 8.5-45.7 4.5-11.5 9.8-19.7 18.4-28.3 8.6-8.6 16.8-13.9 28.3-18.4 8.7-3.4 21.7-7.4 45.7-8.5 25.9-1.2 33.7-1.4 99.4-1.4s73.5.2 99.4 1.4z"/><radialGradient id="b" cx="154.073" cy="134.55" r="365.28" gradientTransform="matrix(.9986 -.05234 .04449 .8488 -24.362 253.295)" gradientUnits="userSpaceOnUse"><stop offset="0"/><stop offset=".263"/><stop offset=".609"/><stop offset="1"/></radialGradient><path d="M130.9 256.3c0 69.8 56.6 126.3 126.3 126.3S383.5 326 383.5 256.3 327 130 257.2 130s-126.3 56.5-126.3 126.3zm208.3 0c0 45.3-36.7 82-82 82s-82-36.7-82-82 36.7-82 82-82 82 36.7 82 82z"/><circle cx="388.6" cy="125" r="29.5"/></g></g></symbol><symbol xmlns="http://www.w3.org/2000/svg" id="linkedin" fill="none" viewBox="0 0 140 34"><g fill="#0A66C2"><path d="M137.201 31.805a.623.623 0 0 0 .63-.66c0-.469-.283-.692-.862-.692h-.937v2.452h.352v-1.07h.433l.01.014.672 1.056h.376l-.722-1.093.048-.007Zm-.407-.245h-.409v-.83h.518c.267 0 .572.044.572.394 0 .403-.308.436-.683.436M0 4.99h5.198v18.945h9.624v4.8H0V4.99Zm17.12 7.645h4.993v16.09H17.12v-16.09Zm2.496-8A2.896 2.896 0 0 1 22.457 8.1a2.898 2.898 0 0 1-5.25 1.044 2.9 2.9 0 0 1 2.41-4.509Zm23.39.351H48v14.19l5.66-6.548h6.122l-6.554 7.449 6.417 8.655h-6.277l-5.302-7.953h-.065v7.952h-4.994l-.001-23.745Zm-18.123 7.65h4.796v2.2h.068a5.248 5.248 0 0 1 4.728-2.6c5.065 0 5.997 3.334 5.997 7.665v8.824h-4.994V20.9c0-1.867-.035-4.267-2.601-4.267-2.596 0-2.997 2.033-2.997 4.132v7.957h-4.994l-.003-16.087Z"/><path d="M70.298 18.809a2.995 2.995 0 0 0-3.066-3.066 3.332 3.332 0 0 0-3.529 3.066h6.595Zm4.23 7.13A8.795 8.795 0 0 1 67.7 29.14c-4.994 0-8.992-3.335-8.992-8.5 0-5.164 3.998-8.498 8.992-8.498 4.668 0 7.595 3.332 7.595 8.499v1.566h-11.59a3.733 3.733 0 0 0 3.763 3.133 4.26 4.26 0 0 0 3.564-1.966l3.497 2.565Zm11.176-9.415c-2.497 0-3.995 1.668-3.995 4.099 0 2.43 1.498 4.1 3.995 4.1 2.498 0 3.999-1.665 3.999-4.1 0-2.435-1.499-4.099-3.999-4.099Zm8.597 12.198h-4.598V26.59h-.068a6.28 6.28 0 0 1-4.965 2.533c-4.798 0-7.96-3.465-7.96-8.364 0-4.5 2.798-8.632 7.396-8.632 2.067 0 3.997.566 5.13 2.134h.065V4.985H94.3v23.737Zm33.713.01h-4.994v-7.825c0-1.866-.033-4.268-2.598-4.268-2.601 0-2.999 2.033-2.999 4.132v7.96h-4.994v-16.09h4.795v2.198h.067a5.257 5.257 0 0 1 4.73-2.599c5.062 0 5.995 3.331 5.995 7.665l-.002 8.827Zm-21.219-18.29a2.899 2.899 0 1 1-.001-5.799 2.899 2.899 0 0 1 .001 5.798Zm2.497 18.29h-5V12.64h5v16.09ZM130.503.002h-28.72a2.457 2.457 0 0 0-2.487 2.43v28.855a2.463 2.463 0 0 0 2.487 2.433h28.72A2.465 2.465 0 0 0 133 31.287V2.43A2.465 2.465 0 0 0 130.503 0m6.333 29.36a2.299 2.299 0 1 0 .044 0h-.044Zm0 4.336a2.013 2.013 0 0 1-1.883-1.214 2.025 2.025 0 0 1-.134-1.163 2.024 2.024 0 0 1 1.557-1.61 2.013 2.013 0 0 1 2.083.823c.227.327.352.715.358 1.114v.034a1.973 1.973 0 0 1-1.929 2.015h-.052"/></g></symbol><symbol xmlns="http://www.w3.org/2000/svg" xml:space="preserve" id="twitter" viewBox="0 0 248 204"><path fill="#1d9bf0" d="M221.95 51.29c.15 2.17.15 4.34.15 6.53 0 66.73-50.8 143.69-143.69 143.69v-.04c-27.44.04-54.31-7.82-77.41-22.64 3.99.48 8 .72 12.02.73 22.74.02 44.83-7.61 62.72-21.66-21.61-.41-40.56-14.5-47.18-35.07a50.338 50.338 0 0 0 22.8-.87C27.8 117.2 10.85 96.5 10.85 72.46v-.64a50.18 50.18 0 0 0 22.92 6.32C11.58 63.31 4.74 33.79 18.14 10.71a143.333 143.333 0 0 0 104.08 52.76 50.532 50.532 0 0 1 14.61-48.25c20.34-19.12 52.33-18.14 71.45 2.19 11.31-2.23 22.15-6.38 32.07-12.26a50.69 50.69 0 0 1-22.2 27.93c10.01-1.18 19.79-3.86 29-7.95a102.594 102.594 0 0 1-25.2 26.16z"/></symbol></svg>