<svg width="0" height="0"><symbol xmlns="http://www.w3.org/2000/svg" id="add" fill="none" viewBox="0 0 16 16"><path fill="currentColor" fill-rule="evenodd" d="M7.5 1a.5.5 0 0 1 .5.5V7h5.5a.5.5 0 0 1 0 1H8v5.5a.5.5 0 0 1-1 0V8H1.5a.5.5 0 0 1 0-1H7V1.5a.5.5 0 0 1 .5-.5Z" clip-rule="evenodd"/></symbol><symbol xmlns="http://www.w3.org/2000/svg" id="autoscroll-from-source" fill="none" viewBox="0 0 16 16"><g fill="currentColor"><path d="M14 5.5a.5.5 0 0 1-1 0V3H3v2.5a.5.5 0 0 1-1 0v-3a.5.5 0 0 1 .5-.5h11a.5.5 0 0 1 .5.5v3Z"/><path d="M5.146 11.354a.5.5 0 0 1 .707-.707L7.5 12.293V5.5a.5.5 0 1 1 1 0v6.793l1.646-1.647a.5.5 0 1 1 .707.707l-2.5 2.5a.5.5 0 0 1-.707 0l-2.5-2.5Z"/></g></symbol><symbol xmlns="http://www.w3.org/2000/svg" id="autoscroll-to-source" fill="none" viewBox="0 0 16 16"><g fill="currentColor"><path d="M13.5 6a.5.5 0 0 0 .5-.5v-3a.5.5 0 0 0-.5-.5h-11a.5.5 0 0 0-.5.5v3a.5.5 0 0 0 1 0V3h10v2.5a.5.5 0 0 0 .5.5Z"/><path d="M5.146 8.353a.5.5 0 0 1 0-.707l2.5-2.5a.5.5 0 0 1 .708 0l2.5 2.5a.5.5 0 0 1-.707.708L8.5 6.707V13.5a.5.5 0 1 1-1 0V6.707L5.854 8.353a.5.5 0 0 1-.708 0Z"/></g></symbol><symbol xmlns="http://www.w3.org/2000/svg" id="build-server-protocol" fill="none" viewBox="0 0 16 16"><path fill="currentColor" fill-rule="evenodd" d="M7.146 2.146a.5.5 0 0 0 0 .708L8.293 4H3.5a.5.5 0 0 0 0 1h4.793L7.146 6.146a.5.5 0 1 0 .708.708l2-2a.5.5 0 0 0 0-.708l-2-2a.5.5 0 0 0-.708 0Zm1.708 7a.5.5 0 0 0-.708 0l-2 2a.5.5 0 0 0 0 .708l2 2a.5.5 0 0 0 .708-.708L7.707 12H12.5a.5.5 0 0 0 0-1H7.707l1.147-1.146a.5.5 0 0 0 0-.708ZM14.5 1a.5.5 0 0 1 .5.5v13a.5.5 0 0 1-1 0v-13a.5.5 0 0 1 .5-.5Zm-13 0a.5.5 0 0 1 .5.5v13a.5.5 0 0 1-1 0v-13a.5.5 0 0 1 .5-.5Z" clip-rule="evenodd"/></symbol><symbol xmlns="http://www.w3.org/2000/svg" id="build" fill="none" viewBox="0 0 16 16"><g stroke="currentColor" stroke-linejoin="round"><path d="M3.6 1.5h-2v3.2h2l.8-.4h1.2l1 .8h2.2l1.6-1.2c1.2 0 2 0 4 1.4-1.2-3.8-3.6-3.8-4.8-3.8h-3l-1 .4H4.4l-.8-.4Z"/><path d="M6 14.5h3.4V9.426a5 5 0 0 0-.404-1.97L8.8 7V5H6.6v2l-.196.457A5 5 0 0 0 6 9.427V14.5Z"/></g></symbol><symbol xmlns="http://www.w3.org/2000/svg" id="c-make-tool-window" fill="none" viewBox="0 0 16 16"><g stroke="currentColor"><path d="M14.568 14.501H1.431L8 1.621l6.568 12.88Z"/><path d="m5.486 10.761 3.281-2.856.463 4.452-3.744-1.596Z"/></g></symbol><symbol xmlns="http://www.w3.org/2000/svg" id="changes" fill="none" viewBox="0 0 16 16"><g fill="currentColor"><rect width="7" height="1" x="2" y="5" rx=".5"/><rect width="5" height="1" x="2" y="8" rx=".5"/><rect width="12" height="1" x="2" y="2" rx=".5"/><path fill-rule="evenodd" d="M12.146 6.146a.5.5 0 0 1 .708.708L11.707 8H15.5a.5.5 0 0 1 0 1h-3.793l1.147 1.146a.5.5 0 0 1-.708.708l-2-2-.353-.354.353-.354 2-2Zm-3.292 4a.5.5 0 0 0-.708.708L9.293 12H5.5a.5.5 0 0 0 0 1h3.793l-1.147 1.146a.5.5 0 0 0 .708.708l2-2 .353-.354-.353-.354-2-2Z" clip-rule="evenodd"/></g></symbol><symbol xmlns="http://www.w3.org/2000/svg" id="checkmark" fill="none" viewBox="0 0 16 16"><path stroke="currentColor" stroke-linecap="round" stroke-linejoin="round" stroke-width="1.5" d="m2.5 8.25 3.5 3.5 7.5-7.5"/></symbol><symbol xmlns="http://www.w3.org/2000/svg" id="commit" fill="none" viewBox="0 0 16 16"><path fill="currentColor" fill-rule="evenodd" d="M8 10a2 2 0 1 0 0-4 2 2 0 0 0 0 4Zm2.959-2.5a3 3 0 0 0-5.918 0H.5a.5.5 0 0 0 0 1h4.541a3 3 0 0 0 5.918 0H15.5a.5.5 0 0 0 0-1h-4.541Z" clip-rule="evenodd"/></symbol></svg>