<svg width="0" height="0"><symbol xmlns="http://www.w3.org/2000/svg" id="download" fill="none" viewBox="0 0 16 16"><g fill="currentColor"><path fill-rule="evenodd" d="M10.854 8.354a.5.5 0 1 0-.707-.707L8.5 9.293V2.5a.5.5 0 0 0-1 0v6.793L5.853 7.646a.5.5 0 0 0-.707.708l2.5 2.5a.5.5 0 0 0 .708 0l2.5-2.5Z" clip-rule="evenodd"/><rect width="12" height="1" rx=".5" transform="matrix(1 0 0 -1 2 14)"/><rect width="1" height="4" x="2" y="10" rx=".5"/><rect width="1" height="4" x="13" y="10" rx=".5"/></g></symbol><symbol xmlns="http://www.w3.org/2000/svg" id="history" fill="none" viewBox="0 0 16 16"><g stroke="currentColor"><circle cx="8" cy="8" r="6.5"/><path stroke-linecap="round" stroke-linejoin="round" d="M8 5v3l2.5 1.5"/></g></symbol><symbol xmlns="http://www.w3.org/2000/svg" id="import" fill="none" viewBox="0 0 16 16"><path fill="currentColor" fill-rule="evenodd" d="M7.038 8.691A.498.498 0 0 0 7.5 9h4a.5.5 0 0 0 0-1H8.707l5.147-5.146a.5.5 0 0 0-.708-.708L8 7.293V4.5a.5.5 0 0 0-1 0v4.003a.5.5 0 0 0 .038.188Z" clip-rule="evenodd"/><path stroke="currentColor" stroke-linecap="round" d="M2.5 4.5V12A1.5 1.5 0 0 0 4 13.5h7.5"/></symbol></svg>