<svg xmlns="http://www.w3.org/2000/svg" width="16" height="16" fill="none" viewBox="0 0 16 16"><path fill="#6C707E" fill-rule="evenodd" d="M7 4.5a2.5 2.5 0 0 1-1.243 2.161l1.865.794 5.683-2.415a.5.5 0 1 1 .39.92L8.9 8l4.797 2.04a.5.5 0 0 1-.391.921L7.622 8.542l-1.87.794A2.499 2.499 0 0 1 4.5 14a2.5 2.5 0 0 1-1.058-4.766l-.001-.002 2.903-1.234-2.687-1.144A2.501 2.501 0 1 1 7 4.5Zm-1 0a1.5 1.5 0 0 1-1.985 1.42l-.2-.086A1.5 1.5 0 1 1 6 4.5Zm0 7a1.5 1.5 0 1 1-3 0 1.5 1.5 0 0 1 3 0Z" clip-rule="evenodd"/></svg>