<svg xmlns="http://www.w3.org/2000/svg" width="16" height="16" fill="none" viewBox="0 0 16 16"><g fill="#6C707E"><path fill-rule="evenodd" d="M6.48 5.707 6.268 7.2c-.07.488-.366.872-.73 1.093C4.786 8.748 4.399 9.414 4.2 10h7.603c-.2-.586-.587-1.253-1.338-1.707A1.536 1.536 0 0 1 9.733 7.2l-.214-1.493A1.496 1.496 0 0 1 11 4V3H5v1c.91 0 1.61.806 1.48 1.707ZM5.278 7.06a.536.536 0 0 1-.258.378c-1.17.708-1.661 1.79-1.868 2.577-.141.534.297.986.85.986H12c.552 0 .99-.452.85-.986-.208-.786-.7-1.87-1.869-2.577a.536.536 0 0 1-.258-.378l-.214-1.493A.496.496 0 0 1 11 5a1 1 0 0 0 1-1V3a1 1 0 0 0-1-1H5a1 1 0 0 0-1 1v1a1 1 0 0 0 1 1c.302 0 .533.267.49.566l-.213 1.493Z" clip-rule="evenodd"/><path d="M7.5 11h1v3.5a.5.5 0 0 1-1 0V11Z"/></g></svg>