<svg xmlns="http://www.w3.org/2000/svg" width="16" height="16" fill="none" viewBox="0 0 16 16"><g stroke="#6C707E"><path stroke-width=".98" d="m11.91 3.506.144.155H14a.51.51 0 0 1 .51.51v2.736c0 .409-.268.603-.443.603H8.933c-.175 0-.443-.194-.443-.603V3.093c0-.409.268-.603.443-.603h1.99c.022 0 .044.01.06.026l.926.99Zm0 7.999.144.155H14a.51.51 0 0 1 .51.51v2.737c0 .409-.268.603-.443.603H8.933c-.175 0-.443-.194-.443-.603v-3.814c0-.409.268-.603.443-.603h1.99c.022 0 .044.01.06.026l.926.99Z"/><path stroke-linecap="round" d="M1.5 1.5v3m0 0h5m-5 0V12a.5.5 0 0 0 .5.5h4.5"/></g></svg>