<svg xmlns="http://www.w3.org/2000/svg" width="16" height="16" fill="none" viewBox="0 0 16 16"><path fill="#6C707E" fill-rule="evenodd" d="M7.854 10.854a.5.5 0 0 0-.708-.708L5 12.293V2.5a.5.5 0 0 0-1 0v9.793l-2.146-2.147a.5.5 0 0 0-.708.708l3 3a.5.5 0 0 0 .708 0l3-3Z" clip-rule="evenodd"/><path fill="#EBECF0" d="M10 6h4v3h-4z"/><path fill="#6C707E" fill-rule="evenodd" d="M14 5V4a2 2 0 1 0-4 0v1a1 1 0 0 0-1 1v3a1 1 0 0 0 1 1h4a1 1 0 0 0 1-1V6a1 1 0 0 0-1-1Zm-3-1a1 1 0 1 1 2 0v1h-2V4Zm-1 5V6h4v3h-4Z" clip-rule="evenodd"/></svg>