<svg width="0" height="0" class="hidden"><symbol xmlns="http://www.w3.org/2000/svg" fill="none" viewBox="0 0 16 16" id="add"><g fill="currentColor"><path d="M13.5 6a.5.5 0 0 0 .5-.5v-3a.5.5 0 0 0-.5-.5h-11a.5.5 0 0 0-.5.5v3a.5.5 0 0 0 1 0V3h10v2.5a.5.5 0 0 0 .5.5Z"></path><path d="M5.146 8.353a.5.5 0 0 1 0-.707l2.5-2.5a.5.5 0 0 1 .708 0l2.5 2.5a.5.5 0 0 1-.707.708L8.5 6.707V13.5a.5.5 0 1 1-1 0V6.707L5.854 8.353a.5.5 0 0 1-.708 0Z"></path></g></symbol><symbol xmlns="http://www.w3.org/2000/svg" fill="none" viewBox="0 0 16 16" id="autoscroll-from-source"><g fill="currentColor"><path d="M14 5.5a.5.5 0 0 1-1 0V3H3v2.5a.5.5 0 0 1-1 0v-3a.5.5 0 0 1 .5-.5h11a.5.5 0 0 1 .5.5v3Z"></path><path d="M5.146 11.354a.5.5 0 0 1 .707-.707L7.5 12.293V5.5a.5.5 0 1 1 1 0v6.793l1.646-1.647a.5.5 0 1 1 .707.707l-2.5 2.5a.5.5 0 0 1-.707 0l-2.5-2.5Z"></path></g></symbol><symbol xmlns="http://www.w3.org/2000/svg" fill="none" viewBox="0 0 16 16" id="autoscroll-to-source"><g fill="currentColor"><path d="M13.5 6a.5.5 0 0 0 .5-.5v-3a.5.5 0 0 0-.5-.5h-11a.5.5 0 0 0-.5.5v3a.5.5 0 0 0 1 0V3h10v2.5a.5.5 0 0 0 .5.5Z"></path><path d="M5.146 8.353a.5.5 0 0 1 0-.707l2.5-2.5a.5.5 0 0 1 .708 0l2.5 2.5a.5.5 0 0 1-.707.708L8.5 6.707V13.5a.5.5 0 1 1-1 0V6.707L5.854 8.353a.5.5 0 0 1-.708 0Z"></path></g></symbol><symbol xmlns="http://www.w3.org/2000/svg" fill="none" viewBox="0 0 16 16" id="checkmark"><path stroke="currentColor" stroke-linecap="round" stroke-linejoin="round" stroke-width="1.5" d="m2.5 8.25 3.5 3.5 7.5-7.5"></path></symbol><symbol xmlns="http://www.w3.org/2000/svg" fill="none" viewBox="0 0 16 16" id="chevron-down-large"><path stroke="currentColor" stroke-linecap="round" d="M12.5 5.75 8 10.25l-4.5-4.5"></path></symbol><symbol xmlns="http://www.w3.org/2000/svg" fill="none" viewBox="0 0 16 16" id="chevron-down"><path stroke="currentColor" stroke-linecap="round" d="M11.5 6.25 8 9.75l-3.5-3.5"></path></symbol><symbol xmlns="http://www.w3.org/2000/svg" fill="none" viewBox="0 0 16 16" id="chevron-left"><path stroke="currentColor" stroke-linecap="round" d="M9.5 11.5 6 8l3.5-3.5"></path></symbol><symbol xmlns="http://www.w3.org/2000/svg" fill="none" viewBox="0 0 16 16" id="chevron-right"><path stroke="currentColor" stroke-linecap="round" d="M6 11.5 9.5 8 6 4.5"></path></symbol><symbol xmlns="http://www.w3.org/2000/svg" fill="none" viewBox="0 0 16 16" id="chevron-up-large"><path stroke="currentColor" stroke-linecap="round" d="M12.5 10.25 8 5.75l-4.5 4.5"></path></symbol><symbol xmlns="http://www.w3.org/2000/svg" fill="none" viewBox="0 0 16 16" id="chevron-up"><path stroke="currentColor" stroke-linecap="round" d="M4.5 9.75 8 6.25l3.5 3.5"></path></symbol><symbol xmlns="http://www.w3.org/2000/svg" fill="none" viewBox="0 0 16 16" id="close-small-hovered"><circle cx="8" cy="8" r="8" fill="#313547" opacity=".1"></circle><path fill="currentColor" fill-rule="evenodd" d="M11.493 4.488a.5.5 0 0 0-.72-.01L8 7.288l-2.772-2.81a.5.5 0 0 0-.711.702L7.299 8l-2.782 2.82a.5.5 0 0 0 .711.702L8 8.712l2.772 2.81a.5.5 0 1 0 .712-.702L8.702 8l2.782-2.82a.5.5 0 0 0 .01-.692Z" clip-rule="evenodd"></path></symbol><symbol xmlns="http://www.w3.org/2000/svg" fill="none" viewBox="0 0 16 16" id="close-small"><path fill="currentColor" fill-rule="evenodd" d="M11.493 4.488a.5.5 0 0 0-.72-.01L8 7.288l-2.772-2.81a.5.5 0 0 0-.711.702L7.299 8l-2.782 2.82a.5.5 0 0 0 .711.702L8 8.712l2.772 2.81a.5.5 0 1 0 .712-.702L8.702 8l2.782-2.82a.5.5 0 0 0 .01-.692Z" clip-rule="evenodd"></path></symbol><symbol xmlns="http://www.w3.org/2000/svg" fill="none" viewBox="0 0 16 16" id="close"><path stroke="currentColor" stroke-linecap="round" d="M3 13 13 3m0 10L3 3"></path></symbol><symbol xmlns="http://www.w3.org/2000/svg" fill="none" viewBox="0 0 16 16" id="collapse-all"><path stroke="currentColor" stroke-linecap="round" stroke-linejoin="round" d="M4.5 2.5 8 6l3.5-3.5m-7 11L8 10l3.5 3.5"></path></symbol><symbol xmlns="http://www.w3.org/2000/svg" fill="none" viewBox="0 0 16 16" id="copy"><rect width="9" height="10" x="2.5" y="3.5" stroke="currentColor" rx="1.5"></rect><rect width="4" height="1" x="5" y="6" fill="currentColor" rx=".5"></rect><rect width="4" height="1" x="5" y="8" fill="currentColor" rx=".5"></rect><rect width="4" height="1" x="5" y="10" fill="currentColor" rx=".5"></rect><path fill="currentColor" fill-rule="evenodd" d="M11.002 2h.598A1.4 1.4 0 0 1 13 3.4v.51l.002.09v7.548A2.397 2.397 0 0 0 14 9.6V3.4A2.4 2.4 0 0 0 11.6 1H6.4c-.803 0-1.514.394-1.95 1h6.552Z" clip-rule="evenodd"></path></symbol><symbol xmlns="http://www.w3.org/2000/svg" fill="none" viewBox="0 0 16 16" id="cut"><path fill="currentColor" fill-rule="evenodd" d="M7 4.5a2.5 2.5 0 0 1-1.243 2.161l1.865.794 5.683-2.415a.5.5 0 1 1 .39.92L8.9 8l4.797 2.04a.5.5 0 0 1-.391.921L7.622 8.542l-1.87.794A2.499 2.499 0 0 1 4.5 14a2.5 2.5 0 0 1-1.058-4.766l-.001-.002 2.903-1.234-2.687-1.144A2.501 2.501 0 1 1 7 4.5Zm-1 0a1.5 1.5 0 0 1-1.985 1.42l-.2-.086A1.5 1.5 0 1 1 6 4.5Zm0 7a1.5 1.5 0 1 1-3 0 1.5 1.5 0 0 1 3 0Z" clip-rule="evenodd"></path></symbol><symbol xmlns="http://www.w3.org/2000/svg" fill="none" viewBox="0 0 16 16" id="delete"><path fill="currentColor" fill-rule="evenodd" d="M7 2h2a1 1 0 0 1 1 1H6a1 1 0 0 1 1-1ZM5 3a2 2 0 0 1 2-2h2a2 2 0 0 1 2 2h2a1 1 0 0 1 1 1v2h-1v7a2 2 0 0 1-2 2H5a2 2 0 0 1-2-2V6H2V4a1 1 0 0 1 1-1h2Zm6 1H3v1h10V4h-2ZM4 6h8v7a1 1 0 0 1-1 1H5a1 1 0 0 1-1-1V6Zm2.5 1a.5.5 0 0 0-.5.5v4a.5.5 0 0 0 1 0v-4a.5.5 0 0 0-.5-.5Zm2.5.5a.5.5 0 0 1 1 0v4a.5.5 0 0 1-1 0v-4Z" clip-rule="evenodd"></path></symbol><symbol xmlns="http://www.w3.org/2000/svg" fill="none" viewBox="0 0 16 16" id="down"><path fill="currentColor" fill-rule="evenodd" d="M12.354 9.654a.5.5 0 0 0-.708-.708L8.5 12.093V2.5a.5.5 0 0 0-1 0v9.593L4.354 8.946a.5.5 0 1 0-.708.708l4 4 .354.353.354-.353 4-4Z" clip-rule="evenodd"></path></symbol><symbol xmlns="http://www.w3.org/2000/svg" fill="none" viewBox="0 0 16 16" id="download"><g fill="currentColor"><path fill-rule="evenodd" d="M10.854 8.354a.5.5 0 1 0-.707-.707L8.5 9.293V2.5a.5.5 0 0 0-1 0v6.793L5.853 7.646a.5.5 0 0 0-.707.708l2.5 2.5a.5.5 0 0 0 .708 0l2.5-2.5Z" clip-rule="evenodd"></path><rect width="12" height="1" rx=".5" transform="matrix(1 0 0 -1 2 14)"></rect><rect width="1" height="4" x="2" y="10" rx=".5"></rect><rect width="1" height="4" x="13" y="10" rx=".5"></rect></g></symbol><symbol xmlns="http://www.w3.org/2000/svg" fill="none" viewBox="0 0 16 16" id="edit"><path stroke="currentColor" stroke-miterlimit="10" d="m11.597 7.655 2.091-2.095a1.035 1.035 0 0 0 .007-1.474l-1.668-1.772-.005-.005a1.05 1.05 0 0 0-1.489.002L8.387 4.444m3.21 3.21-3.21-3.21m3.21 3.21L5.74 13.5H2.5v-3.18l5.887-5.876"></path></symbol><symbol xmlns="http://www.w3.org/2000/svg" fill="none" viewBox="0 0 16 16" id="exit"><path fill="currentColor" fill-rule="evenodd" d="M6 2h7a1 1 0 0 1 1 1v10a1 1 0 0 1-1 1H6a1 1 0 0 1-1-1v-3H4v3a2 2 0 0 0 2 2h7a2 2 0 0 0 2-2V3a2 2 0 0 0-2-2H6a2 2 0 0 0-2 2v3h1V3a1 1 0 0 1 1-1Z" clip-rule="evenodd"></path><path stroke="#DB3B4B" stroke-linecap="round" stroke-linejoin="round" d="M2.5 8H11m0 0L8.5 5.5M11 8l-2.5 2.5"></path></symbol><symbol xmlns="http://www.w3.org/2000/svg" fill="none" viewBox="0 0 16 16" id="expand-all"><path stroke="currentColor" stroke-linecap="round" stroke-linejoin="round" d="M4.5 6 8 2.5 11.5 6m-7 4L8 13.5l3.5-3.5"></path></symbol><symbol xmlns="http://www.w3.org/2000/svg" fill="none" viewBox="0 0 16 16" id="export"><path fill="currentColor" fill-rule="evenodd" d="M13.962 2.309a.5.5 0 0 0-.106-.16l-.005-.005A.498.498 0 0 0 13.5 2h-4a.5.5 0 0 0 0 1h2.793L7.146 8.146a.5.5 0 1 0 .708.708L13 3.707V6.5a.5.5 0 0 0 1 0V2.497a.501.501 0 0 0-.038-.188Z" clip-rule="evenodd"></path><path stroke="currentColor" stroke-linecap="round" d="M2.5 4.5V12A1.5 1.5 0 0 0 4 13.5h7.5"></path></symbol><symbol xmlns="http://www.w3.org/2000/svg" fill="none" viewBox="0 0 16 16" id="external-link"><path fill="currentColor" fill-rule="evenodd" d="M5 5.5a.5.5 0 0 1 .5-.5H11v5.5a.5.5 0 0 1-1 0V6.707l-5.146 5.147a.5.5 0 0 1-.708-.708L9.293 6H5.5a.5.5 0 0 1-.5-.5Z" clip-rule="evenodd"></path></symbol><symbol xmlns="http://www.w3.org/2000/svg" fill="none" viewBox="0 0 16 16" id="filter"><path stroke="currentColor" stroke-linejoin="round" d="M13.5 2.5h-11l4 5V14l3-2V7.5l4-5Z"></path></symbol><symbol xmlns="http://www.w3.org/2000/svg" fill="none" viewBox="0 0 16 16" id="groups"><g stroke="currentColor"><rect width="5" height="5" x="1.5" y="1.5" rx=".5"></rect><rect width="5" height="5" x="1.5" y="8.5" rx=".5"></rect><rect width="5" height="5" x="8.5" y="8.5" rx=".5"></rect><rect width="5" height="5" x="8.5" y="1.5" rx=".5"></rect></g></symbol><symbol xmlns="http://www.w3.org/2000/svg" fill="none" viewBox="0 0 16 16" id="help"><g fill="currentColor"><circle cx="7.8" cy="14.15" r=".85"></circle><path d="M7.98 8.251c.224-.237.518-.515.88-.833.373-.328.668-.61.886-.847V6.57a3 3 0 0 0 .552-.837l.001-.002a2.54 2.54 0 0 0 .228-1.097c0-.499-.104-.938-.311-1.32a2.205 2.205 0 0 0-.873-.892h-.001a2.537 2.537 0 0 0-1.299-.329c-.51 0-.961.114-1.356.338-.389.225-.692.54-.912.949-.102.192-.18.4-.234.62a2.997 2.997 0 0 0-.058.317c-.04.302-.275.55-.58.55H4.78a.53.53 0 0 1-.53-.55c.01-.108.025-.213.043-.317a3.69 3.69 0 0 1 .415-1.191 3.385 3.385 0 0 1 1.36-1.331C6.647 1.158 7.31 1 8.053 1c.723 0 1.367.152 1.928.458.567.3 1.008.722 1.322 1.264.313.543.469 1.165.469 1.865 0 .549-.09 1.038-.274 1.464-.181.42-.405.775-.674 1.064-.257.282-.595.605-1.015.967-.335.29-.595.532-.782.725a2.56 2.56 0 0 0-.448.64v.002a1.685 1.685 0 0 0-.18.78.48.48 0 0 1-.48.48H7.72a.528.528 0 0 1-.527-.527c0-.405.075-.772.227-1.097.15-.32.337-.597.56-.834Z"></path></g></symbol><symbol xmlns="http://www.w3.org/2000/svg" fill="none" viewBox="0 0 16 16" id="hide"><path stroke="currentColor" stroke-linecap="round" d="M2 8h12"></path></symbol><symbol xmlns="http://www.w3.org/2000/svg" fill="none" viewBox="0 0 16 16" id="history"><g stroke="currentColor"><circle cx="8" cy="8" r="6.5"></circle><path stroke-linecap="round" stroke-linejoin="round" d="M8 5v3l2.5 1.5"></path></g></symbol><symbol xmlns="http://www.w3.org/2000/svg" fill="none" viewBox="0 0 16 16" id="ide-update"><g fill="#E66D17" clip-path="url(#a)"><path d="m8.5 5.207 2.646 2.647a.5.5 0 0 0 .708-.708l-3.5-3.5a.5.5 0 0 0-.708 0l-3.5 3.5a.5.5 0 1 0 .708.708L7.5 5.207V12a.5.5 0 0 0 1 0V5.207Z"></path><path fill-rule="evenodd" d="M8 16A8 8 0 1 0 8 0a8 8 0 0 0 0 16Zm0-1A7 7 0 1 0 8 1a7 7 0 0 0 0 14Z" clip-rule="evenodd"></path></g><defs><clipPath id="a"><path fill="#fff" d="M0 0h16v16H0z"></path></clipPath></defs></symbol><symbol xmlns="http://www.w3.org/2000/svg" fill="none" viewBox="0 0 16 16" id="import"><path fill="currentColor" fill-rule="evenodd" d="M7.038 8.691A.498.498 0 0 0 7.5 9h4a.5.5 0 0 0 0-1H8.707l5.147-5.146a.5.5 0 0 0-.708-.708L8 7.293V4.5a.5.5 0 0 0-1 0v4.003a.5.5 0 0 0 .038.188Z" clip-rule="evenodd"></path><path stroke="currentColor" stroke-linecap="round" d="M2.5 4.5V12A1.5 1.5 0 0 0 4 13.5h7.5"></path></symbol><symbol xmlns="http://www.w3.org/2000/svg" fill="none" viewBox="0 0 16 16" id="layout"><path fill="currentColor" fill-rule="evenodd" d="M7 3H4a1 1 0 0 0-1 1v8a1 1 0 0 0 1 1h3V3Zm1 0v4h5V4a1 1 0 0 0-1-1H8Zm0 5v5h4a1 1 0 0 0 1-1V8H8ZM4 2a2 2 0 0 0-2 2v8a2 2 0 0 0 2 2h8a2 2 0 0 0 2-2V4a2 2 0 0 0-2-2H4Z" clip-rule="evenodd"></path></symbol><symbol xmlns="http://www.w3.org/2000/svg" fill="none" viewBox="0 0 16 16" id="left"><path fill="currentColor" fill-rule="evenodd" d="M6.347 3.646a.5.5 0 1 1 .707.708l-3.15 3.15h9.6a.5.5 0 0 1 0 1H3.91l3.143 3.142a.5.5 0 0 1-.707.708l-4-4L1.993 8l.354-.354 4-4Z" clip-rule="evenodd"></path></symbol><symbol xmlns="http://www.w3.org/2000/svg" fill="none" viewBox="0 0 16 16" id="list-files"><rect width="11" height="13" x="2.5" y="1.5" stroke="currentColor" rx="1.5"></rect><rect width="6" height="1" x="5" y="5" fill="currentColor" rx=".5"></rect><rect width="6" height="1" x="5" y="7.5" fill="currentColor" rx=".5"></rect><rect width="6" height="1" x="5" y="10" fill="currentColor" rx=".5"></rect></symbol><symbol xmlns="http://www.w3.org/2000/svg" fill="none" viewBox="0 0 16 16" id="locate"><path fill="currentColor" fill-rule="evenodd" d="M8.5 5V2.02a6.001 6.001 0 0 1 5.48 5.48H11a.5.5 0 0 0 0 1h2.98a6.002 6.002 0 0 1-5.48 5.48V11a.5.5 0 0 0-1 0v2.98A6.001 6.001 0 0 1 2.02 8.5H5a.5.5 0 0 0 0-1H2.02A6.001 6.001 0 0 1 7.5 2.02V5a.5.5 0 0 0 1 0ZM1 8a7 7 0 1 1 14 0A7 7 0 0 1 1 8Z" clip-rule="evenodd"></path></symbol><symbol xmlns="http://www.w3.org/2000/svg" fill="none" viewBox="0 0 16 16" id="locked"><path fill="currentColor" fill-rule="evenodd" d="M5 5a3 3 0 0 1 6 0v1a2 2 0 0 1 2 2v4a2 2 0 0 1-2 2H5a2 2 0 0 1-2-2V8a2 2 0 0 1 2-2V5Zm5 0v1H6V5a2 2 0 1 1 4 0ZM5 7a1 1 0 0 0-1 1v4a1 1 0 0 0 1 1h6a1 1 0 0 0 1-1V8a1 1 0 0 0-1-1H5Zm3 1.5a.5.5 0 0 0-.5.5v2a.5.5 0 0 0 1 0V9a.5.5 0 0 0-.5-.5Z" clip-rule="evenodd"></path></symbol><symbol xmlns="http://www.w3.org/2000/svg" fill="none" viewBox="0 0 16 16" id="more-horizontal"><g fill="currentColor"><circle cx="3" cy="8" r="1" transform="rotate(-90 3 8)"></circle><circle cx="8" cy="8" r="1" transform="rotate(-90 8 8)"></circle><circle cx="13" cy="8" r="1" transform="rotate(-90 13 8)"></circle></g></symbol><symbol xmlns="http://www.w3.org/2000/svg" fill="none" viewBox="0 0 16 16" id="more-vertical"><g fill="currentColor"><circle cx="8" cy="3" r="1"></circle><circle cx="8" cy="8" r="1"></circle><circle cx="8" cy="13" r="1"></circle></g></symbol><symbol xmlns="http://www.w3.org/2000/svg" fill="none" viewBox="0 0 16 16" id="move-down"><g fill="currentColor"><rect width="12" height="1" x="2" y="2" rx=".5"></rect><path fill-rule="evenodd" d="M11.854 10.153a.5.5 0 0 0-.708-.707L8.5 12.093V4.5a.5.5 0 1 0-1 0v7.593L4.854 9.446a.5.5 0 0 0-.708.707l3.5 3.5.354.354.354-.354 3.5-3.5Z" clip-rule="evenodd"></path></g></symbol><symbol xmlns="http://www.w3.org/2000/svg" fill="none" viewBox="0 0 16 16" id="move-up"><g fill="currentColor"><path fill-rule="evenodd" d="M11.854 5.854a.5.5 0 0 1-.708.707L8.5 3.914v7.593a.5.5 0 0 1-1 0V3.914L4.854 6.561a.5.5 0 1 1-.708-.707l3.5-3.5L8 2l.354.354 3.5 3.5Z" clip-rule="evenodd"></path><rect width="12" height="1" x="2" y="13.007" rx=".5"></rect></g></symbol><symbol xmlns="http://www.w3.org/2000/svg" fill="none" viewBox="0 0 16 16" id="open-in-tool-window"><g stroke="currentColor"><path stroke-linecap="round" stroke-linejoin="round" d="m9 7-3.5 3.5m3 0h-3v-3"></path><rect width="11" height="11" x="2.5" y="2.5" rx="1.5"></rect></g></symbol><symbol xmlns="http://www.w3.org/2000/svg" fill="none" viewBox="0 0 16 16" id="open-new-tab"><path fill="currentColor" fill-rule="evenodd" d="M7 3H3a2 2 0 0 0-2 2v6a2 2 0 0 0 2 2h8a2 2 0 0 0 2-2V9h-1v2a1 1 0 0 1-1 1H3a1 1 0 0 1-1-1V5a1 1 0 0 1 1-1h4V3Zm5.5-3a.5.5 0 0 0-.5.5V3H9.5a.5.5 0 0 0 0 1H12v2.5a.5.5 0 0 0 1 0V4h2.5a.5.5 0 0 0 0-1H13V.5a.5.5 0 0 0-.5-.5Z" clip-rule="evenodd"></path></symbol><symbol xmlns="http://www.w3.org/2000/svg" fill="none" viewBox="0 0 16 16" id="open"><path stroke="currentColor" d="m8.151 4.358.146.142H13A1.5 1.5 0 0 1 14.5 6v6.133c0 .786-.59 1.367-1.25 1.367H2.75c-.66 0-1.25-.581-1.25-1.367V3.867c0-.786.59-1.367 1.25-1.367h3.288a.5.5 0 0 1 .349.142L8.15 4.358Z"></path></symbol><symbol xmlns="http://www.w3.org/2000/svg" fill="none" viewBox="0 0 16 16" id="pagination"><g stroke="currentColor" stroke-linecap="round"><path d="M1.5 2.5h13m-13 11h13"></path><path stroke-linejoin="round" d="m4.5 5-3 3 3 3m7-6 3 3-3 3"></path></g></symbol><symbol xmlns="http://www.w3.org/2000/svg" fill="none" viewBox="0 0 16 16" id="paste"><g fill="currentColor"><path d="M5.5 6a.5.5 0 0 0 0 1h5a.5.5 0 0 0 0-1h-5ZM5 8.5a.5.5 0 0 1 .5-.5h5a.5.5 0 0 1 0 1h-5a.5.5 0 0 1-.5-.5Zm.5 1.5a.5.5 0 0 0 0 1h5a.5.5 0 0 0 0-1h-5Z"></path><path fill-rule="evenodd" d="M12 2h-1.085A1.5 1.5 0 0 0 9.5 1h-3a1.5 1.5 0 0 0-1.415 1H4a2 2 0 0 0-2 2v9a2 2 0 0 0 2 2h8a2 2 0 0 0 2-2V4a2 2 0 0 0-2-2ZM4 3h1.085A1.5 1.5 0 0 0 6.5 4h3a1.5 1.5 0 0 0 1.415-1H12a1 1 0 0 1 1 1v9a1 1 0 0 1-1 1H4a1 1 0 0 1-1-1V4a1 1 0 0 1 1-1Zm2.5-1a.5.5 0 0 0 0 1h3a.5.5 0 0 0 0-1h-3Z" clip-rule="evenodd"></path></g></symbol><symbol xmlns="http://www.w3.org/2000/svg" fill="none" viewBox="0 0 16 16" id="pin"><g fill="currentColor"><path fill-rule="evenodd" d="M6.48 5.707 6.268 7.2c-.07.488-.366.872-.73 1.093C4.786 8.748 4.399 9.414 4.2 10h7.603c-.2-.586-.587-1.253-1.338-1.707A1.536 1.536 0 0 1 9.733 7.2l-.214-1.493A1.496 1.496 0 0 1 11 4V3H5v1c.91 0 1.61.806 1.48 1.707ZM5.278 7.06a.536.536 0 0 1-.258.378c-1.17.708-1.661 1.79-1.868 2.577-.141.534.297.986.85.986H12c.552 0 .99-.452.85-.986-.208-.786-.7-1.87-1.869-2.577a.536.536 0 0 1-.258-.378l-.214-1.493A.496.496 0 0 1 11 5a1 1 0 0 0 1-1V3a1 1 0 0 0-1-1H5a1 1 0 0 0-1 1v1a1 1 0 0 0 1 1c.302 0 .533.267.49.566l-.213 1.493Z" clip-rule="evenodd"></path><path d="M7.5 11h1v3.5a.5.5 0 0 1-1 0V11Z"></path></g></symbol><symbol xmlns="http://www.w3.org/2000/svg" fill="none" viewBox="0 0 16 16" id="plugin-update"><g fill="#3574F0" clip-path="url(#a)"><path d="m8.5 5.207 2.646 2.647a.5.5 0 0 0 .708-.708l-3.5-3.5a.5.5 0 0 0-.708 0l-3.5 3.5a.5.5 0 1 0 .708.708L7.5 5.207V12a.5.5 0 0 0 1 0V5.207Z"></path><path fill-rule="evenodd" d="M8 16A8 8 0 1 0 8 0a8 8 0 0 0 0 16Zm0-1A7 7 0 1 0 8 1a7 7 0 0 0 0 14Z" clip-rule="evenodd"></path></g><defs><clipPath id="a"><path fill="#fff" d="M16 0H0v16h16z"></path></clipPath></defs></symbol><symbol xmlns="http://www.w3.org/2000/svg" fill="none" viewBox="0 0 16 16" id="preview-horizontally"><path fill="currentColor" fill-rule="evenodd" d="M4 3h8a1 1 0 0 1 1 1v2H3V4a1 1 0 0 1 1-1ZM2 7v5a2 2 0 0 0 2 2h8a2 2 0 0 0 2-2V4a2 2 0 0 0-2-2H4a2 2 0 0 0-2 2v3Zm1 0h10v5a1 1 0 0 1-1 1H4a1 1 0 0 1-1-1V7Z" clip-rule="evenodd"></path><rect width="6" height="1" x="5" y="8.5" fill="currentColor" rx=".5"></rect><rect width="6" height="1" x="5" y="10.5" fill="currentColor" rx=".5"></rect></symbol><symbol xmlns="http://www.w3.org/2000/svg" fill="none" viewBox="0 0 16 16" id="preview-vertically"><g fill="currentColor"><path fill-rule="evenodd" d="M7 3h5a1 1 0 0 1 1 1v8a1 1 0 0 1-1 1H7V3ZM6 2h6a2 2 0 0 1 2 2v8a2 2 0 0 1-2 2H4a2 2 0 0 1-2-2V4a2 2 0 0 1 2-2h2Zm0 11H4a1 1 0 0 1-1-1V4a1 1 0 0 1 1-1h2v10Z" clip-rule="evenodd"></path><rect width="4" height="1" x="8" y="5" rx=".5"></rect><rect width="4" height="1" x="8" y="7.5" rx=".5"></rect><rect width="4" height="1" x="8" y="10" rx=".5"></rect></g></symbol><symbol xmlns="http://www.w3.org/2000/svg" fill="none" viewBox="0 0 16 16" id="print"><g fill="currentColor"><path d="M13 7h-1v1h1V7Z"></path><path fill-rule="evenodd" d="M4.5 2a.5.5 0 0 0-.5.5V5h-.5A2.5 2.5 0 0 0 1 7.5v5a.5.5 0 0 0 .5.5H4v.5a.5.5 0 0 0 .5.5h7a.5.5 0 0 0 .5-.5V13h2.5a.5.5 0 0 0 .5-.5v-5A2.5 2.5 0 0 0 12.5 5H12V2.5a.5.5 0 0 0-.5-.5h-7ZM11 5H5V3h6v2Zm0 8H5v-3h6v3Zm1-4v3h2V7.5A1.5 1.5 0 0 0 12.5 6h-9A1.5 1.5 0 0 0 2 7.5V12h2V9h8Z" clip-rule="evenodd"></path></g></symbol><symbol xmlns="http://www.w3.org/2000/svg" fill="none" viewBox="0 0 16 16" id="project-structure"><path fill="currentColor" d="M13 4H8.5L6.736 2.283A1 1 0 0 0 6.038 2H2.75C1.784 2 1 2.836 1 3.867v8.266C1 13.164 1.784 14 2.75 14H8v-1H2.75c-.354 0-.75-.326-.75-.867V3.867c0-.54.396-.867.75-.867h3.288l2.056 2H13a1 1 0 0 1 1 1v1h1V6a2 2 0 0 0-2-2Z"></path><path fill="#3574F0" d="M13 12.5a.5.5 0 0 1 .5-.5h2a.5.5 0 0 1 .5.5v2a.5.5 0 0 1-.5.5h-2a.5.5 0 0 1-.5-.5v-2Zm-4 0a.5.5 0 0 1 .5-.5h2a.5.5 0 0 1 .5.5v2a.5.5 0 0 1-.5.5h-2a.5.5 0 0 1-.5-.5v-2Zm4-4a.5.5 0 0 1 .5-.5h2a.5.5 0 0 1 .5.5v2a.5.5 0 0 1-.5.5h-2a.5.5 0 0 1-.5-.5v-2Z"></path></symbol><symbol xmlns="http://www.w3.org/2000/svg" fill="none" viewBox="0 0 16 16" id="project-wide-analysis-off"><path fill="currentColor" fill-rule="evenodd" d="M7.5.996h1v6.138a1 1 0 1 1-1 0V5.04a3 3 0 1 0 2.857 1.102l.71-.71A4 4 0 1 1 7.5 4.03V2.02a6 6 0 1 0 4.985 1.994l.709-.708A7 7 0 1 1 7.5 1.018V.996Z" clip-rule="evenodd"></path></symbol><symbol xmlns="http://www.w3.org/2000/svg" fill="none" viewBox="0 0 16 16" id="project-wide-analysis-on"><path fill="#369650" fill-rule="evenodd" d="M7.5.996h1v6.138a1 1 0 1 1-1 0V5.04a3 3 0 1 0 2.857 1.102l.71-.71A4 4 0 1 1 7.5 4.03V2.02a6 6 0 1 0 4.985 1.994l.709-.708A7 7 0 1 1 7.5 1.018V.996Z" clip-rule="evenodd"></path></symbol><symbol xmlns="http://www.w3.org/2000/svg" fill="none" viewBox="0 0 16 16" id="redo"><path stroke="currentColor" stroke-linecap="round" d="M1.5 10.5s0-5 5-5C10 5.5 14 10 14 10m-2.5.5h3v-3"></path></symbol><symbol xmlns="http://www.w3.org/2000/svg" fill="none" viewBox="0 0 16 16" id="refresh"><g stroke="currentColor" stroke-linecap="round"><path d="M2.5 9V8A5.5 5.5 0 0 1 11 3.39m-6 9.22A5.5 5.5 0 0 0 13.5 8V7"></path><path d="m.5 7.5 2 2 2-2m7 1 2-2 2 2"></path></g></symbol><symbol xmlns="http://www.w3.org/2000/svg" fill="none" viewBox="0 0 16 16" id="remove"><path fill="currentColor" fill-rule="evenodd" d="M1 7.5a.5.5 0 0 0 .5.5h12a.5.5 0 0 0 0-1h-12a.5.5 0 0 0-.5.5Z" clip-rule="evenodd"></path></symbol><symbol xmlns="http://www.w3.org/2000/svg" fill="none" viewBox="0 0 16 16" id="right"><path fill="currentColor" fill-rule="evenodd" d="M9.653 12.354a.5.5 0 0 1-.707-.708l3.143-3.142H2.496a.5.5 0 0 1 0-1h9.6l-3.15-3.15a.5.5 0 1 1 .707-.708l4 4 .354.354-.354.354-4 4Z" clip-rule="evenodd"></path></symbol><symbol xmlns="http://www.w3.org/2000/svg" fill="none" viewBox="0 0 16 16" id="run-anything"><g stroke="currentColor"><rect width="13" height="11" x="1.5" y="2.5" rx="1.5"></rect><path d="M7.95 9.327a.2.2 0 0 1 0 .346L4.8 11.492a.2.2 0 0 1-.3-.173V7.68a.2.2 0 0 1 .3-.173l3.15 1.819Z"></path><path stroke-width=".5" d="M1.25 5.25h13.5v.5H1.25z"></path></g></symbol><symbol xmlns="http://www.w3.org/2000/svg" fill="none" viewBox="0 0 16 16" id="save"><path stroke="currentColor" stroke-linejoin="round" d="M5.5 3v2.5h5V3m-6 10V9.5h7V13m-9 .5v-11h9l2 2v9h-11Z"></path></symbol><symbol xmlns="http://www.w3.org/2000/svg" fill="none" viewBox="0 0 16 16" id="scroll-down"><path stroke="currentColor" stroke-linecap="round" stroke-linejoin="round" d="M1.5 3.5h4M1.5 8h4m-4 4.5h13"></path><path fill="currentColor" fill-rule="evenodd" d="M11.5 3a.5.5 0 0 1 .5.5v5.793l2.146-2.147a.5.5 0 0 1 .708.708l-3 3-.354.353-.354-.353-3-3a.5.5 0 1 1 .708-.708L11 9.293V3.5a.5.5 0 0 1 .5-.5Z" clip-rule="evenodd"></path></symbol><symbol xmlns="http://www.w3.org/2000/svg" fill="none" viewBox="0 0 16 16" id="search"><g stroke="currentColor"><circle cx="7" cy="7" r="4.5"></circle><path stroke-linecap="round" d="m10.2 10.2 3.3 3.296"></path></g></symbol><symbol xmlns="http://www.w3.org/2000/svg" fill="none" viewBox="0 0 16 16" id="settings"><path fill="currentColor" fill-rule="evenodd" d="M3.227 4.37c-.305.4-.56.838-.757 1.306l.84 1.418c.33.559.33 1.253 0 1.812l-.84 1.418c.197.468.452.907.757 1.306l1.646-.018c.649-.007 1.25.34 1.568.906l.808 1.435a6.06 6.06 0 0 0 1.51 0l.808-1.435c.318-.566.92-.913 1.568-.906l1.647.018c.304-.4.559-.838.756-1.306l-.84-1.418a1.778 1.778 0 0 1 0-1.812l.84-1.418a5.99 5.99 0 0 0-.756-1.306l-1.647.018a1.778 1.778 0 0 1-1.568-.906l-.808-1.435a6.07 6.07 0 0 0-1.51 0l-.808 1.435c-.318.566-.92.913-1.568.906L3.227 4.37ZM10.655 8a2.651 2.651 0 1 1-5.302 0 2.651 2.651 0 0 1 5.302 0ZM4.884 3.388a.778.778 0 0 0 .686-.397l.868-1.542a.732.732 0 0 1 .526-.372 7.057 7.057 0 0 1 2.08 0 .732.732 0 0 1 .526.372l.868 1.542c.14.248.402.4.686.397l1.77-.02a.733.733 0 0 1 .584.269 6.994 6.994 0 0 1 1.043 1.802.732.732 0 0 1-.06.64l-.902 1.525a.778.778 0 0 0 0 .792l.902 1.525c.115.194.142.43.06.64a6.996 6.996 0 0 1-1.043 1.802.733.733 0 0 1-.584.269l-1.77-.02a.778.778 0 0 0-.686.396l-.868 1.543a.733.733 0 0 1-.526.372 7.063 7.063 0 0 1-2.08 0 .732.732 0 0 1-.526-.372l-.868-1.543a.778.778 0 0 0-.686-.396l-1.77.02a.733.733 0 0 1-.584-.269 6.992 6.992 0 0 1-1.043-1.802.732.732 0 0 1 .06-.64l.902-1.525a.778.778 0 0 0 0-.792l-.902-1.525a.732.732 0 0 1-.06-.64A6.993 6.993 0 0 1 2.53 3.637a.733.733 0 0 1 .584-.269l1.77.02ZM9.655 8a1.651 1.651 0 1 1-3.302 0 1.651 1.651 0 0 1 3.302 0Z" clip-rule="evenodd"></path></symbol><symbol xmlns="http://www.w3.org/2000/svg" fill="none" viewBox="0 0 16 16" id="show-as-tree"><g stroke="currentColor"><path stroke-width=".98" d="m11.91 3.506.144.155H14a.51.51 0 0 1 .51.51v2.736c0 .409-.268.603-.443.603H8.933c-.175 0-.443-.194-.443-.603V3.093c0-.409.268-.603.443-.603h1.99c.022 0 .044.01.06.026l.926.99Zm0 7.999.144.155H14a.51.51 0 0 1 .51.51v2.737c0 .409-.268.603-.443.603H8.933c-.175 0-.443-.194-.443-.603v-3.814c0-.409.268-.603.443-.603h1.99c.022 0 .044.01.06.026l.926.99Z"></path><path stroke-linecap="round" d="M1.5 1.5v3m0 0h5m-5 0V12a.5.5 0 0 0 .5.5h4.5"></path></g></symbol><symbol xmlns="http://www.w3.org/2000/svg" fill="none" viewBox="0 0 16 16" id="show"><g stroke="currentColor"><circle cx="8" cy="8" r="2.5"></circle><path d="M3.348 11.464C2.033 10.55 1.014 9.32.53 8c.484-1.319 1.503-2.55 2.818-3.465C4.714 3.585 6.366 3 8 3c1.634 0 3.286.585 4.652 1.535C13.967 5.45 14.986 6.681 15.47 8c-.484 1.319-1.503 2.55-2.818 3.464C11.286 12.414 9.634 13 8 13c-1.634 0-3.286-.585-4.652-1.536Z"></path></g></symbol><symbol xmlns="http://www.w3.org/2000/svg" fill="none" viewBox="0 0 16 16" id="soft-wrap"><path stroke="currentColor" stroke-linecap="round" d="M1.5 3.5h13M1.5 8h10.75a2.25 2.25 0 0 1 2.25 2.25v0a2.25 2.25 0 0 1-2.25 2.25H8.5m0 0 2-2m-2 2 2 2m-9-2h4"></path></symbol><symbol xmlns="http://www.w3.org/2000/svg" fill="none" viewBox="0 0 16 16" id="sort-alphabetically"><g fill="currentColor"><path fill-rule="evenodd" d="M8.854 10.854a.5.5 0 0 0-.708-.708L6 12.293V2.5a.5.5 0 0 0-1 0v9.793l-2.146-2.147a.5.5 0 0 0-.708.708l3 3a.5.5 0 0 0 .708 0l3-3Z" clip-rule="evenodd"></path><path d="M11.973 1.9c.4 0 .753.071 1.057.213.307.143.545.35.713.621.171.269.257.585.257.95v3.299h-1.057l-.01-1.858h.262c0 .41-.074.765-.223 1.062a1.572 1.572 0 0 1-.63.68 1.95 1.95 0 0 1-.975.232 1.97 1.97 0 0 1-.864-.184 1.485 1.485 0 0 1-.596-.51 1.313 1.313 0 0 1-.214-.737c0-.265.068-.509.204-.732.14-.223.33-.406.572-.548a2.07 2.07 0 0 1 .83-.262l1.3-.14a.339.339 0 0 0 .237-.112.445.445 0 0 0 .088-.296l.058 1.082-1.436.16a.955.955 0 0 0-.383.121.68.68 0 0 0-.35.606c0 .142.038.269.112.379a.75.75 0 0 0 .316.252c.135.061.29.092.465.092a1.4 1.4 0 0 0 .64-.14c.185-.098.327-.232.427-.403.1-.175.15-.375.15-.602V3.588a.767.767 0 0 0-.465-.723 1.214 1.214 0 0 0-.51-.102c-.19 0-.362.033-.514.097a.978.978 0 0 0-.368.262.712.712 0 0 0-.17.364H9.815c.032-.304.145-.576.34-.815a1.98 1.98 0 0 1 .765-.567 2.645 2.645 0 0 1 1.053-.204Zm.732 8.055h-2.493v-.921h3.798v.902l-2.62 3.143H14V14h-3.914v-.902l2.619-3.143Z"></path></g></symbol><symbol xmlns="http://www.w3.org/2000/svg" fill="none" viewBox="0 0 16 16" id="sort-by-duration"><path stroke="currentColor" stroke-linecap="round" stroke-linejoin="round" d="M7.5 3.5h7M9.5 8h5m-3 4.5h3"></path><path fill="currentColor" fill-rule="evenodd" d="M7.854 9.854a.5.5 0 0 0-.708-.708L5 11.293V3.5a.5.5 0 1 0-1 0v7.793L1.854 9.146a.5.5 0 1 0-.708.708l3 3a.499.499 0 0 0 .71-.002l2.998-2.998Z" clip-rule="evenodd"></path></symbol><symbol xmlns="http://www.w3.org/2000/svg" fill="none" viewBox="0 0 16 16" id="sort-by-type"><path fill="currentColor" fill-rule="evenodd" d="M7.854 10.854a.5.5 0 0 0-.708-.708L5 12.293V2.5a.5.5 0 0 0-1 0v9.793l-2.146-2.147a.5.5 0 0 0-.708.708l3 3a.5.5 0 0 0 .708 0l3-3Z" clip-rule="evenodd"></path><path stroke="currentColor" d="M11 2.5h3a.5.5 0 0 1 .5.5v2a.5.5 0 0 1-.5.5h-3a.5.5 0 0 1-.5-.5V3a.5.5 0 0 1 .5-.5Zm0 5h3a.5.5 0 0 1 .5.5v2a.5.5 0 0 1-.5.5h-3a.5.5 0 0 1-.5-.5V8a.5.5 0 0 1 .5-.5Z"></path></symbol><symbol xmlns="http://www.w3.org/2000/svg" fill="none" viewBox="0 0 16 16" id="sort-by-usage"><g fill="currentColor"><path d="M13.385 2.12h1.2l-5.06 7h-1.2l5.06-7ZM9.65 5.4c-.334 0-.632-.072-.895-.215a1.553 1.553 0 0 1-.61-.6 1.77 1.77 0 0 1-.22-.885c0-.33.073-.623.22-.88.146-.26.35-.462.61-.605.263-.143.561-.215.895-.215.34 0 .64.072.9.215.263.143.468.345.615.605.15.257.225.55.225.88 0 .33-.075.625-.225.885a1.544 1.544 0 0 1-.615.6c-.26.143-.56.215-.9.215Zm.005-.885a.708.708 0 0 0 .665-.39.918.918 0 0 0 .095-.425.918.918 0 0 0-.095-.425.675.675 0 0 0-.27-.285.753.753 0 0 0-.395-.105.753.753 0 0 0-.395.105.685.685 0 0 0-.265.285.917.917 0 0 0-.095.425c0 .16.031.302.095.425a.72.72 0 0 0 .265.29c.116.067.248.1.395.1ZM13.26 9.24c-.337 0-.635-.072-.895-.215a1.588 1.588 0 0 1-.615-.6 1.77 1.77 0 0 1-.22-.885c0-.33.073-.623.22-.88.15-.26.355-.462.615-.605.26-.143.558-.215.895-.215.337 0 .636.072.9.215.267.143.473.345.62.605.147.257.22.55.22.88 0 .33-.073.625-.22.885a1.536 1.536 0 0 1-.62.6 1.852 1.852 0 0 1-.9.215Zm0-.885a.79.79 0 0 0 .4-.1.708.708 0 0 0 .27-.29.88.88 0 0 0 .1-.425.869.869 0 0 0-.1-.42.67.67 0 0 0-.27-.29.762.762 0 0 0-.4-.105.753.753 0 0 0-.395.105.679.679 0 0 0-.265.29.907.907 0 0 0-.095.42c0 .16.031.302.095.425a.72.72 0 0 0 .265.29c.117.067.248.1.395.1Z"></path><path fill-rule="evenodd" d="M7.854 10.854a.5.5 0 0 0-.708-.708L5 12.293V2.5a.5.5 0 0 0-1 0v9.793l-2.146-2.147a.5.5 0 0 0-.708.708l3 3a.5.5 0 0 0 .708 0l3-3Z" clip-rule="evenodd"></path></g></symbol><symbol xmlns="http://www.w3.org/2000/svg" fill="none" viewBox="0 0 16 16" id="sort-by-visibility"><path fill="currentColor" fill-rule="evenodd" d="M7.854 10.854a.5.5 0 0 0-.708-.708L5 12.293V2.5a.5.5 0 0 0-1 0v9.793l-2.146-2.147a.5.5 0 0 0-.708.708l3 3a.5.5 0 0 0 .708 0l3-3Z" clip-rule="evenodd"></path><path fill="#EBECF0" d="M10 6h4v3h-4z"></path><path fill="currentColor" fill-rule="evenodd" d="M14 5V4a2 2 0 1 0-4 0v1a1 1 0 0 0-1 1v3a1 1 0 0 0 1 1h4a1 1 0 0 0 1-1V6a1 1 0 0 0-1-1Zm-3-1a1 1 0 1 1 2 0v1h-2V4Zm-1 5V6h4v3h-4Z" clip-rule="evenodd"></path></symbol><symbol xmlns="http://www.w3.org/2000/svg" fill="none" viewBox="0 0 16 16" id="sort-by"><path stroke="currentColor" stroke-linecap="round" stroke-linejoin="round" d="M2.5 3.5h12m-12 5H12m-9.5 5h7"></path></symbol><symbol xmlns="http://www.w3.org/2000/svg" fill="none" viewBox="0 0 16 16" id="split-horizontally"><path fill="currentColor" fill-rule="evenodd" d="M4 3h8a1 1 0 0 1 1 1v3.5H3V4a1 1 0 0 1 1-1ZM2 8.5V4a2 2 0 0 1 2-2h8a2 2 0 0 1 2 2v8a2 2 0 0 1-2 2H4a2 2 0 0 1-2-2V8.5Zm11 0V12a1 1 0 0 1-1 1H4a1 1 0 0 1-1-1V8.5h10Z" clip-rule="evenodd"></path></symbol><symbol xmlns="http://www.w3.org/2000/svg" fill="none" viewBox="0 0 16 16" id="split-vertically"><path fill="currentColor" fill-rule="evenodd" d="M8.5 3H12a1 1 0 0 1 1 1v8a1 1 0 0 1-1 1H8.5V3Zm-1-1H12a2 2 0 0 1 2 2v8a2 2 0 0 1-2 2H4a2 2 0 0 1-2-2V4a2 2 0 0 1 2-2h3.5Zm0 11H4a1 1 0 0 1-1-1V4a1 1 0 0 1 1-1h3.5v10Z" clip-rule="evenodd"></path></symbol><symbol xmlns="http://www.w3.org/2000/svg" fill="none" viewBox="0 0 16 16" id="undo"><path fill="currentColor" d="M1.626 9.668a.5.5 0 0 0 .748.664l-.748-.664ZM14 10.5a.5.5 0 0 0 1 0h-1Zm-12-3a.5.5 0 0 0-1 0h1Zm-.5 3H1v.5h.5v-.5Zm3 .5a.5.5 0 0 0 0-1v1ZM2 10l.374.332.002-.002.007-.008.032-.035.127-.137a20.708 20.708 0 0 1 2.203-2.006C6.175 7.026 7.933 6 9.5 6V5C7.568 5 5.576 6.224 4.13 7.356a21.707 21.707 0 0 0-2.502 2.31l-.001.001L2 10Zm7.5-4c1.162 0 2.001.29 2.613.697.616.41 1.032.96 1.315 1.527.284.567.428 1.14.5 1.577a5.644 5.644 0 0 1 .072.7l.5-.001h.5v-.022a3.136 3.136 0 0 0-.011-.229 6.661 6.661 0 0 0-.074-.612 6.644 6.644 0 0 0-.593-1.86c-.342-.685-.863-1.384-1.654-1.912C11.874 5.335 10.838 5 9.5 5v1ZM1 7.5v3h1v-3H1Zm.5 3.5h3v-1h-3v1Z"></path></symbol><symbol xmlns="http://www.w3.org/2000/svg" fill="none" viewBox="0 0 16 16" id="unlocked"><path fill="currentColor" fill-rule="evenodd" d="M10 5a3 3 0 1 1 6 0v1.5a.5.5 0 0 1-1 0V5a2 2 0 1 0-4 0v1a2 2 0 0 1 2 2v4a2 2 0 0 1-2 2H5a2 2 0 0 1-2-2V8a2 2 0 0 1 2-2h5V5ZM5 7h6a1 1 0 0 1 1 1v4a1 1 0 0 1-1 1H5a1 1 0 0 1-1-1V8a1 1 0 0 1 1-1Zm3 1.5a.5.5 0 0 0-.5.5v2a.5.5 0 0 0 1 0V9a.5.5 0 0 0-.5-.5Z" clip-rule="evenodd"></path></symbol><symbol xmlns="http://www.w3.org/2000/svg" fill="none" viewBox="0 0 16 16" id="up"><path fill="currentColor" fill-rule="evenodd" d="M12.354 6.346a.5.5 0 0 1-.708.707L8.5 3.907v9.6a.5.5 0 1 1-1 0v-9.6L4.354 7.053a.5.5 0 1 1-.708-.707l4-4L8 1.993l.354.353 4 4Z" clip-rule="evenodd"></path></symbol><symbol xmlns="http://www.w3.org/2000/svg" fill="none" viewBox="0 0 16 16" id="upload"><g fill="currentColor"><path fill-rule="evenodd" d="M10.854 4.646a.5.5 0 1 1-.707.707L8.5 3.707v6.807a.5.5 0 0 1-1 0V3.707L5.853 5.354a.5.5 0 0 1-.707-.708l2.5-2.5a.5.5 0 0 1 .708 0l2.5 2.5Z" clip-rule="evenodd"></path><rect width="12" height="1" rx=".5" transform="matrix(1 0 0 -1 2 14)"></rect><rect width="1" height="4" x="2" y="10" rx=".5"></rect><rect width="1" height="4" x="13" y="10" rx=".5"></rect></g></symbol><symbol xmlns="http://www.w3.org/2000/svg" fill="none" viewBox="0 0 16 16" id="vcs"><g stroke="currentColor"><circle cx="4.5" cy="4" r="2"></circle><path d="M4.5 11.5h4a2 2 0 0 0 2-2V8"></path><path stroke-linecap="round" stroke-linejoin="round" d="M4.5 6.5v8"></path><circle cx="10.5" cy="6" r="2"></circle></g></symbol></svg>