<svg xmlns="http://www.w3.org/2000/svg" width="16" height="16" fill="none" viewBox="0 0 16 16"><g fill="#6C707E" fill-rule="evenodd" clip-rule="evenodd"><path d="m8 .457 6 2.545v5.776c0 1.766-.892 3.057-2.032 4.079-.839.751-1.86 1.395-2.797 1.987a53.67 53.67 0 0 0-.896.573L8 15.6l-.275-.182a53.67 53.67 0 0 0-.896-.573c-.937-.592-1.958-1.236-2.797-1.987C2.892 11.835 2 10.544 2 8.777V3.003L8 .457ZM3 3.664v5.114c0 1.377.679 2.42 1.7 3.334.77.69 1.684 1.268 2.602 1.847.233.147.467.295.698.444.231-.15.465-.297.698-.444.918-.58 1.832-1.157 2.602-1.847 1.021-.915 1.7-1.957 1.7-3.334V3.664l-5-2.12-5 2.12Z"/><path d="M10.854 5.725a.5.5 0 0 1 0 .707l-3.5 3.5a.5.5 0 0 1-.708 0l-1.5-1.5a.5.5 0 1 1 .708-.707L7 8.87l3.146-3.146a.5.5 0 0 1 .708 0Z"/></g></svg>