<svg xmlns="http://www.w3.org/2000/svg" width="16" height="16" fill="none" viewBox="0 0 16 16"><g fill="#6C707E"><path fill-rule="evenodd" d="M8 7a3 3 0 1 0 0-6 3 3 0 0 0 0 6Zm0-1a2 2 0 1 0 0-4 2 2 0 0 0 0 4Z" clip-rule="evenodd"/><path d="M2.103 13.008C2.399 11.303 3.548 8 8 8c1.238 0 2.22.255 3 .66v1.17C10.314 9.345 9.359 9 8 9c-1.942 0-3.06.704-3.744 1.511-.665.784-.985 1.744-1.134 2.489H8v1H3c-.553 0-.992-.448-.897-.992Z"/></g><path fill="#6C707E" fill-rule="evenodd" d="M12.5 9a.5.5 0 0 1 .5.5V12h2.5a.5.5 0 0 1 0 1H13v2.5a.5.5 0 0 1-1 0V13H9.5a.5.5 0 0 1 0-1H12V9.5a.5.5 0 0 1 .5-.5Z" clip-rule="evenodd"/></svg>