<svg xmlns="http://www.w3.org/2000/svg" width="16" height="16" fill="none" viewBox="0 0 16 16"><g fill="#6C707E"><path fill-rule="evenodd" d="M2 4c0-.477.267-.866.606-1.158.34-.292.805-.534 1.334-.726C5.003 1.729 6.439 1.5 8 1.5c1.561 0 2.997.23 4.06.616.53.192.993.434 1.334.726.339.292.606.681.606 1.158v2.805c-.002.474-.268.862-.606 1.153-.34.293-.805.534-1.334.726-1.063.387-2.499.616-4.06.616-1.561 0-2.997-.23-4.06-.616A5.185 5.185 0 0 1 3 8.242V9.6c0 .076.04.212.258.4.216.185.558.375 1.024.544.927.338 2.242.556 3.718.556v1c-1.561 0-2.997-.23-4.06-.616a5.186 5.186 0 0 1-.94-.442V12.4c0 .076.04.212.258.4.216.185.558.375 1.024.544.927.338 2.242.556 3.718.556v1c-1.561 0-2.997-.23-4.06-.616-.53-.192-.993-.434-1.334-.726C2.267 13.266 2 12.877 2 12.4V4Zm1 0c0-.076.04-.212.258-.4.216-.185.558-.375 1.024-.544C5.209 2.718 6.524 2.5 8 2.5s2.79.218 3.718.556c.466.17.808.359 1.024.545.217.187.258.323.258.399 0 .076-.04.212-.258.4-.216.185-.558.375-1.024.544-.927.338-2.242.556-3.718.556s-2.79-.218-3.718-.556c-.466-.17-.808-.359-1.024-.545C3.041 4.212 3 4.076 3 4Zm0 2.8c0 .076.04.212.258.4.216.185.558.375 1.024.544.927.338 2.242.556 3.718.556s2.79-.218 3.718-.556c.466-.169.808-.359 1.024-.545.217-.187.258-.323.258-.399V5.442a5.189 5.189 0 0 1-.94.442C10.997 6.271 9.561 6.5 8 6.5c-1.561 0-2.997-.23-4.06-.616A5.185 5.185 0 0 1 3 5.442V6.8Z" clip-rule="evenodd"/><path d="M15.354 11.354a.5.5 0 0 0-.708-.708L11.5 13.793l-1.646-1.647a.5.5 0 0 0-.708.708l2.354 2.353 3.854-3.853Z"/></g></svg>