<svg xmlns="http://www.w3.org/2000/svg" width="16" height="16" fill="none" viewBox="0 0 16 16"><g fill="#6C707E"><path d="M11.992 14.931h1.024V16h-1.024v-1.069Zm0-7.931h1.024v1.209h-1.024V7Zm.367 8.118a3.11 3.11 0 0 1-1.313-.265 2.165 2.165 0 0 1-.891-.75 1.987 1.987 0 0 1-.329-1.112h1.26a.96.96 0 0 0 .161.549c.108.16.26.284.456.372.196.088.42.132.671.132.242 0 .456-.039.642-.117a.97.97 0 0 0 .426-.338.869.869 0 0 0 .152-.505.931.931 0 0 0-.789-.936l-1.18-.196a2.066 2.066 0 0 1-.868-.348 1.845 1.845 0 0 1-.568-.671 2.015 2.015 0 0 1-.196-.887c0-.389.1-.737.299-1.044.202-.307.482-.547.838-.72.359-.173.766-.26 1.22-.26.46 0 .87.085 1.23.255.362.167.643.4.842.7.203.301.307.646.314 1.035h-1.26a.83.83 0 0 0-.141-.475.877.877 0 0 0-.392-.324 1.344 1.344 0 0 0-.579-.117c-.219 0-.411.037-.578.112a.907.907 0 0 0-.392.309.805.805 0 0 0-.137.465c0 .21.067.39.2.54.135.15.311.244.53.284l1.147.186a2.057 2.057 0 0 1 1.519 1.102c.147.288.22.597.22.926 0 .396-.106.753-.318 1.074a2.16 2.16 0 0 1-.892.754c-.38.18-.813.27-1.303.27Z"/><path d="M2 3a4.243 4.243 0 0 1 6 0 4.243 4.243 0 0 1 6.8 4.893c-.23-.21-.493-.38-.782-.516v-.184a3.243 3.243 0 0 0-5.31-3.486L8 4.414l-.707-.707a3.243 3.243 0 0 0-4.585 4.586L8 13.586l.825-.825.002.238c.003.348.058.685.17 1.005L8 15 2 9a4.243 4.243 0 0 1 0-6Z"/></g></svg>