<svg xmlns="http://www.w3.org/2000/svg" width="15" height="15" fill="none" viewBox="0 0 15 15"><g fill="#6C707E"><path d="M5.009 3.927h1V5.78h-1zm3.828 1.361.5.866-1.605.926-.5-.866zm.359 3.57-.5.866-1.604-.926.5-.866zm-4.187.627h1v1.853h-1z"/><path fill-rule="evenodd" d="M5.544 8.97a1.47 1.47 0 1 0 0-2.94 1.47 1.47 0 0 0 0 2.94Zm0 1.03a2.5 2.5 0 1 0 0-5 2.5 2.5 0 0 0 0 5Zm.001-6.676a.824.824 0 1 0 0-1.648.824.824 0 0 0 0 1.648Zm0 .962a1.786 1.786 0 1 0 0-3.572 1.786 1.786 0 0 0 0 3.572Zm4.625 1.721a.824.824 0 1 0 0-1.648.824.824 0 0 0 0 1.648Zm0 .961a1.786 1.786 0 1 0 0-3.571 1.786 1.786 0 0 0 0 3.571Zm-4.625 6.356a.824.824 0 1 0 0-1.648.824.824 0 0 0 0 1.648Zm0 .962a1.786 1.786 0 1 0 0-3.572 1.786 1.786 0 0 0 0 3.572Zm4.625-3.514a.824.824 0 1 0 0-1.649.824.824 0 0 0 0 1.649Zm0 .961a1.786 1.786 0 1 0 0-3.571 1.786 1.786 0 0 0 0 3.571Z" clip-rule="evenodd"/></g></svg>