<svg xmlns="http://www.w3.org/2000/svg" width="16" height="16" fill="none" viewBox="0 0 16 16"><path fill="#6C707E" fill-rule="evenodd" d="M6.407 1.137A9.215 9.215 0 0 1 8.007 1h.004c.567.005 1.134.055 1.693.15.538.06 1.039.305 1.417.692.377.386.66.953.66 1.502v2.952a2.2 2.2 0 0 1-2.144 2.2H6.515a1.376 1.376 0 0 0-.938.393c-.25.244-.487.562-.502.911v1.5c0 .332-.178.612-.51.612H3.479a2.047 2.047 0 0 1-1.516-.636c-.367-.382-.593-.887-.72-1.412a6.488 6.488 0 0 1-.005-3.49 2.544 2.544 0 0 1 2.56-2.046h.56v-1c0-.474.06-1.003.43-1.434.36-.421.92-.633 1.618-.757h.002Zm1.596.895c-.466 0-.989.04-1.447.12-.614.108-.83.255-.917.356-.078.091-.139.247-.139.652v1.368a1 1 0 0 1-1 1h-.918c-.32-.01-.633.096-.882.296-.283.228-.396.516-.49.851a5.288 5.288 0 0 0 0 2.874c.09.321.19.649.427.896.162.168.555.267.84.267h.489v-.934A2.576 2.576 0 0 1 6.5 7.296h.01l3.204-.016a1 1 0 0 0 .969-1V3.185a1.144 1.144 0 0 0-.32-.689c-.207-.213-.457-.296-.741-.345-.502-.086-1.11-.114-1.62-.119Z" clip-rule="evenodd"/><path fill="#6C707E" fill-rule="evenodd" d="M11 4.5c0-.331-.15-.524.182-.524h1.208c.634 0 1.13.258 1.486.673.331.386.522.883.644 1.364a5.928 5.928 0 0 1-.006 3.543l-.001.004c-.157.487-.348.989-.667 1.366-.354.42-.834.65-1.456.65h-.96v1c0 .661-.298 1.164-.71 1.516-.39.335-.88.535-1.319.659a5.752 5.752 0 0 1-3.463-.003c-.869-.27-1.972-.897-1.972-2.172v-1.32a.6.6 0 0 1 .6-.6c.331 0 .509.268.509.6v1.497c0 .42.442.785 1.22 1.027l.004.001a5.025 5.025 0 0 0 2.892 0c.315-.1.635-.204.891-.424a.749.749 0 0 0 .29-.605V11.5a1 1 0 0 1 1-1l1.128.001c.282 0 .422-.085.54-.224.153-.18.286-.478.44-.958.29-.924.29-2.167 0-3.09-.102-.323-.177-.661-.404-.926a.694.694 0 0 0-.576-.254h-1.318C10.85 5.049 11 4.83 11 4.5Z" clip-rule="evenodd"/><path fill="#6C707E" d="M7.55 3.6a.76.76 0 1 1-.75.76.75.75 0 0 1 .75-.76Zm.667 7.46a.76.76 0 1 1 0 1.52.76.76 0 0 1 0-1.52Z"/></svg>