<svg xmlns="http://www.w3.org/2000/svg" width="16" height="16" fill="none" viewBox="0 0 16 16"><path fill="#6C707E" fill-rule="evenodd" d="M15 8A7 7 0 1 1 1 8a7 7 0 0 1 14 0Zm-1.8 2.996A5.998 5.998 0 0 1 8 14a5.998 5.998 0 0 1-5.197-3h5.261c.047 0 .079-.016.079-.06V9.45c0-.043-.032-.051-.08-.051H6.84v-.945h1.325c.12 0 .646.035.814.71.019.075.046.209.076.36.055.273.12.602.171.74.08.243.4.736.741.736l2.16-.004H13.2Zm.642-1.623H11.91c-.268 0-.571-.132-.632-.474-.117-.666-.377-.877-.776-1.193l-.028-.023c.515-.329 1.05-.814 1.05-1.463 0-.702-.477-1.144-.803-1.36a2.272 2.272 0 0 0-1.1-.364H3.13a6 6 0 0 1 10.713 4.877ZM2.322 6.055a6.018 6.018 0 0 0-.17 3.292h2.385V6.055H2.322Zm4.518.035v.97h1.603c.341 0 .756-.121.756-.46 0-.406-.541-.51-.63-.51h-1.73Z" clip-rule="evenodd"/></svg>