<svg xmlns="http://www.w3.org/2000/svg" width="16" height="16" fill="none" viewBox="0 0 16 16"><path fill="#6C707E" fill-rule="evenodd" d="M3 2a2 2 0 0 0-2 2v8a2 2 0 0 0 2 2h4.416a4.962 4.962 0 0 1-.316-1H3a1 1 0 0 1-1-1V6h12v1.416c.357.156.692.352 1 .584V4a2 2 0 0 0-2-2H3Zm10 1H3a1 1 0 0 0-1 1v1h12V4a1 1 0 0 0-1-1Z" clip-rule="evenodd"/><path stroke="#6C707E" d="M10.92 15.134 8.895 13.09a.5.5 0 0 1-.129-.48l.733-2.784a.5.5 0 0 1 .354-.355l2.743-.735a.5.5 0 0 1 .484.13l2.027 2.046a.5.5 0 0 1 .129.48l-.733 2.784a.5.5 0 0 1-.354.355l-2.743.735a.5.5 0 0 1-.484-.13Z"/></svg>