<svg xmlns="http://www.w3.org/2000/svg" width="16" height="16" fill="none" viewBox="0 0 16 16"><path fill="#6C707E" fill-rule="evenodd" d="M4.195 5.8c.848-.327 1.66-.39 2.363-.43l.265-.013c.614-.032 1.14-.06 1.7-.193h.002c1.385-.329 2.935-1.379 3.522-2.598L13.11.356l.784 2.324c.43 1.272.924 2.964 1.066 4.676.14 1.699-.054 3.57-1.173 5.06-1.154 1.537-2.92 1.971-4.494 2.09-.798.06-1.605.043-2.334.021l-.286-.009a23.248 23.248 0 0 0-1.666-.016L5 14.503l-.047.003a7.762 7.762 0 0 0-.703.08c-.21.035-.44.023-.67-.066a1.274 1.274 0 0 1-.493-.35c-.182-.209-.282-.458-.324-.56l-.038-.097a5.646 5.646 0 0 0-.038-.093c-1.355-.7-1.84-2.353-1.643-3.777C1.255 8.11 2.256 6.545 4.195 5.8Zm2.513 7.719c2.25.071 4.885.155 6.28-1.703 1.814-2.415.803-6.32-.04-8.816-.75 1.56-2.598 2.758-4.192 3.137-.655.156-1.278.188-1.886.219-.78.04-1.539.078-2.316.377-3.155 1.212-3.107 4.973-1.37 5.818l.104.055s2.555-.509 3.969-1.03c2.063-.76 4.33-2.638 5.075-4.82-.395 2.268-2.344 4.451-4.302 5.454-.66.34-1.23.512-1.994.744-.44.133-.947.287-1.574.503-.21.073-.375.143-.375.143.436-.072.868-.096.868-.096a23.69 23.69 0 0 1 1.753.015Z" clip-rule="evenodd"/></svg>