<svg xmlns="http://www.w3.org/2000/svg" width="16" height="16" fill="none" viewBox="0 0 16 16"><path fill="#6C707E" fill-rule="evenodd" d="M8 14.053a.51.51 0 0 1-.391-.15c-2.02-2.1-4.321-1.282-5.606-.526-.408.24-1.003-.047-1.003-.52V3.47c0-.285.153-.545.412-.661C2.562 2.292 5.86 1.095 8 3.202c2.141-2.107 5.438-.91 6.588-.393a.71.71 0 0 1 .412.66v9.388c0 .473-.595.76-1.003.52-1.284-.756-3.586-1.575-5.606.526a.51.51 0 0 1-.391.15ZM7.5 4.13c-.772-.902-1.781-1.164-2.826-1.128-1.055.037-2.066.383-2.674.64v8.6c.672-.334 1.534-.638 2.493-.673a4.768 4.768 0 0 1 3.007.917V4.13Zm1 8.356a4.768 4.768 0 0 1 3.007-.917c.959.035 1.82.34 2.493.672V3.643c-.608-.257-1.619-.603-2.674-.64-1.045-.036-2.054.226-2.826 1.128v8.356Z" clip-rule="evenodd"/></svg>