<svg width="0" height="0"><symbol xmlns="http://www.w3.org/2000/svg" id="autoscroll-from-source" fill="none" viewBox="0 0 16 16"><g fill="currentColor"><path d="M14 5.5a.5.5 0 0 1-1 0V3H3v2.5a.5.5 0 0 1-1 0v-3a.5.5 0 0 1 .5-.5h11a.5.5 0 0 1 .5.5z"/><path d="M5.146 11.354a.5.5 0 0 1 .707-.707L7.5 12.293V5.5a.5.5 0 1 1 1 0v6.793l1.646-1.647a.5.5 0 1 1 .707.707l-2.5 2.5a.5.5 0 0 1-.707 0z"/></g></symbol><symbol xmlns="http://www.w3.org/2000/svg" id="autoscroll-to-source" fill="none" viewBox="0 0 16 16"><g fill="currentColor"><path d="M13.5 6a.5.5 0 0 0 .5-.5v-3a.5.5 0 0 0-.5-.5h-11a.5.5 0 0 0-.5.5v3a.5.5 0 0 0 1 0V3h10v2.5a.5.5 0 0 0 .5.5"/><path d="M5.146 8.353a.5.5 0 0 1 0-.707l2.5-2.5a.5.5 0 0 1 .708 0l2.5 2.5a.5.5 0 0 1-.707.708L8.5 6.707V13.5a.5.5 0 1 1-1 0V6.707L5.854 8.353a.5.5 0 0 1-.708 0"/></g></symbol><symbol xmlns="http://www.w3.org/2000/svg" id="checkmark" fill="none" viewBox="0 0 16 16"><path stroke="currentColor" stroke-linecap="round" stroke-linejoin="round" stroke-width="1.5" d="m2.5 8.25 3.5 3.5 7.5-7.5"/></symbol><symbol xmlns="http://www.w3.org/2000/svg" id="chevron-down-large" fill="none" viewBox="0 0 16 16"><path stroke="currentColor" stroke-linecap="round" d="M12.5 5.75 8 10.25l-4.5-4.5"/></symbol><symbol xmlns="http://www.w3.org/2000/svg" id="chevron-down" fill="none" viewBox="0 0 16 16"><path stroke="currentColor" stroke-linecap="round" d="M11.5 6.25 8 9.75l-3.5-3.5"/></symbol><symbol xmlns="http://www.w3.org/2000/svg" id="chevron-left" fill="none" viewBox="0 0 16 16"><path stroke="currentColor" stroke-linecap="round" d="M9.5 11.5 6 8l3.5-3.5"/></symbol><symbol xmlns="http://www.w3.org/2000/svg" id="chevron-right" fill="none" viewBox="0 0 16 16"><path stroke="currentColor" stroke-linecap="round" d="M6 11.5 9.5 8 6 4.5"/></symbol><symbol xmlns="http://www.w3.org/2000/svg" id="chevron-up-large" fill="none" viewBox="0 0 16 16"><path stroke="currentColor" stroke-linecap="round" d="M12.5 10.25 8 5.75l-4.5 4.5"/></symbol><symbol xmlns="http://www.w3.org/2000/svg" id="chevron-up" fill="none" viewBox="0 0 16 16"><path stroke="currentColor" stroke-linecap="round" d="M4.5 9.75 8 6.25l3.5 3.5"/></symbol><symbol xmlns="http://www.w3.org/2000/svg" id="close-small-hovered" fill="none" viewBox="0 0 16 16"><circle cx="8" cy="8" r="8" fill="#313547" opacity=".1"/><path fill="currentColor" fill-rule="evenodd" d="M11.493 4.488a.5.5 0 0 0-.72-.01L8 7.288l-2.772-2.81a.5.5 0 0 0-.711.702L7.299 8l-2.782 2.82a.5.5 0 0 0 .711.702L8 8.712l2.772 2.81a.5.5 0 1 0 .712-.702L8.702 8l2.782-2.82a.5.5 0 0 0 .01-.692Z" clip-rule="evenodd"/></symbol><symbol xmlns="http://www.w3.org/2000/svg" id="close-small" fill="none" viewBox="0 0 16 16"><path fill="currentColor" fill-rule="evenodd" d="M11.493 4.488a.5.5 0 0 0-.72-.01L8 7.288l-2.772-2.81a.5.5 0 0 0-.711.702L7.299 8l-2.782 2.82a.5.5 0 0 0 .711.702L8 8.712l2.772 2.81a.5.5 0 1 0 .712-.702L8.702 8l2.782-2.82a.5.5 0 0 0 .01-.692Z" clip-rule="evenodd"/></symbol><symbol xmlns="http://www.w3.org/2000/svg" id="close" fill="none" viewBox="0 0 16 16"><path stroke="currentColor" stroke-linecap="round" d="M3 13 13 3m0 10L3 3"/></symbol><symbol xmlns="http://www.w3.org/2000/svg" id="collapse-all" fill="none" viewBox="0 0 16 16"><path stroke="currentColor" stroke-linecap="round" stroke-linejoin="round" d="M4.5 2.5 8 6l3.5-3.5m-7 11L8 10l3.5 3.5"/></symbol><symbol xmlns="http://www.w3.org/2000/svg" id="copy" fill="none" viewBox="0 0 16 16"><rect width="9" height="10" x="2.5" y="3.5" stroke="currentColor" rx="1.5"/><rect width="4" height="1" x="5" y="6" fill="currentColor" rx=".5"/><rect width="4" height="1" x="5" y="8" fill="currentColor" rx=".5"/><rect width="4" height="1" x="5" y="10" fill="currentColor" rx=".5"/><path fill="currentColor" fill-rule="evenodd" d="M11.002 2h.598A1.4 1.4 0 0 1 13 3.4v.51l.002.09v7.548A2.4 2.4 0 0 0 14 9.6V3.4A2.4 2.4 0 0 0 11.6 1H6.4c-.803 0-1.514.394-1.95 1z" clip-rule="evenodd"/></symbol><symbol xmlns="http://www.w3.org/2000/svg" id="cut" fill="none" viewBox="0 0 16 16"><path fill="currentColor" fill-rule="evenodd" d="M7 4.5a2.5 2.5 0 0 1-1.243 2.161l1.865.794 5.683-2.415a.5.5 0 1 1 .39.92L8.9 8l4.797 2.04a.5.5 0 0 1-.391.921L7.622 8.542l-1.87.794A2.499 2.499 0 0 1 4.5 14a2.5 2.5 0 0 1-1.058-4.766l-.001-.002 2.903-1.234-2.687-1.144A2.501 2.501 0 1 1 7 4.5m-1 0a1.5 1.5 0 0 1-1.985 1.42l-.2-.086A1.5 1.5 0 1 1 6 4.5m0 7a1.5 1.5 0 1 1-3 0 1.5 1.5 0 0 1 3 0" clip-rule="evenodd"/></symbol><symbol xmlns="http://www.w3.org/2000/svg" id="delete" fill="none" viewBox="0 0 16 16"><path fill="currentColor" fill-rule="evenodd" d="M7 2h2a1 1 0 0 1 1 1H6a1 1 0 0 1 1-1M5 3a2 2 0 0 1 2-2h2a2 2 0 0 1 2 2h2a1 1 0 0 1 1 1v2h-1v7a2 2 0 0 1-2 2H5a2 2 0 0 1-2-2V6H2V4a1 1 0 0 1 1-1zm6 1H3v1h10V4zM4 6h8v7a1 1 0 0 1-1 1H5a1 1 0 0 1-1-1zm2.5 1a.5.5 0 0 0-.5.5v4a.5.5 0 0 0 1 0v-4a.5.5 0 0 0-.5-.5m2.5.5a.5.5 0 0 1 1 0v4a.5.5 0 0 1-1 0z" clip-rule="evenodd"/></symbol><symbol xmlns="http://www.w3.org/2000/svg" id="down" fill="none" viewBox="0 0 16 16"><path fill="currentColor" fill-rule="evenodd" d="M12.354 9.654a.5.5 0 0 0-.708-.708L8.5 12.093V2.5a.5.5 0 0 0-1 0v9.593L4.354 8.946a.5.5 0 1 0-.708.708l4 4 .354.353.354-.353z" clip-rule="evenodd"/></symbol><symbol xmlns="http://www.w3.org/2000/svg" id="download" fill="none" viewBox="0 0 16 16"><g fill="currentColor"><path fill-rule="evenodd" d="M10.854 8.354a.5.5 0 1 0-.707-.707L8.5 9.293V2.5a.5.5 0 0 0-1 0v6.793L5.853 7.646a.5.5 0 0 0-.707.708l2.5 2.5a.5.5 0 0 0 .708 0z" clip-rule="evenodd"/><rect width="12" height="1" rx=".5" transform="matrix(1 0 0 -1 2 14)"/><rect width="1" height="4" x="2" y="10" rx=".5"/><rect width="1" height="4" x="13" y="10" rx=".5"/></g></symbol><symbol xmlns="http://www.w3.org/2000/svg" id="edit" fill="none" viewBox="0 0 16 16"><path stroke="currentColor" stroke-miterlimit="10" d="m11.597 7.655 2.091-2.095a1.035 1.035 0 0 0 .007-1.474l-1.668-1.772-.005-.005a1.05 1.05 0 0 0-1.489.002L8.387 4.444m3.21 3.21-3.21-3.21m3.21 3.21L5.74 13.5H2.5v-3.18l5.887-5.876"/></symbol><symbol xmlns="http://www.w3.org/2000/svg" id="exit" fill="none" viewBox="0 0 16 16"><path fill="currentColor" fill-rule="evenodd" d="M6 2h7a1 1 0 0 1 1 1v10a1 1 0 0 1-1 1H6a1 1 0 0 1-1-1v-3H4v3a2 2 0 0 0 2 2h7a2 2 0 0 0 2-2V3a2 2 0 0 0-2-2H6a2 2 0 0 0-2 2v3h1V3a1 1 0 0 1 1-1" clip-rule="evenodd"/><path stroke="#DB3B4B" stroke-linecap="round" stroke-linejoin="round" d="M2.5 8H11m0 0L8.5 5.5M11 8l-2.5 2.5"/></symbol><symbol xmlns="http://www.w3.org/2000/svg" id="expand-all" fill="none" viewBox="0 0 16 16"><path stroke="currentColor" stroke-linecap="round" stroke-linejoin="round" d="M4.5 6 8 2.5 11.5 6m-7 4L8 13.5l3.5-3.5"/></symbol><symbol xmlns="http://www.w3.org/2000/svg" id="export" fill="none" viewBox="0 0 16 16"><path fill="currentColor" fill-rule="evenodd" d="M13.962 2.309a.5.5 0 0 0-.106-.16l-.005-.005A.5.5 0 0 0 13.5 2h-4a.5.5 0 0 0 0 1h2.793L7.146 8.146a.5.5 0 1 0 .708.708L13 3.707V6.5a.5.5 0 0 0 1 0V2.497a.5.5 0 0 0-.038-.188" clip-rule="evenodd"/><path stroke="currentColor" stroke-linecap="round" d="M2.5 4.5V12A1.5 1.5 0 0 0 4 13.5h7.5"/></symbol><symbol xmlns="http://www.w3.org/2000/svg" id="external-link" fill="none" viewBox="0 0 16 16"><path fill="currentColor" fill-rule="evenodd" d="M5 5.5a.5.5 0 0 1 .5-.5H11v5.5a.5.5 0 0 1-1 0V6.707l-5.146 5.147a.5.5 0 0 1-.708-.708L9.293 6H5.5a.5.5 0 0 1-.5-.5" clip-rule="evenodd"/></symbol><symbol xmlns="http://www.w3.org/2000/svg" id="filter" fill="none" viewBox="0 0 16 16"><path stroke="currentColor" stroke-linejoin="round" d="M13.5 2.5h-11l4 5V14l3-2V7.5z"/></symbol><symbol xmlns="http://www.w3.org/2000/svg" id="groups" fill="none" viewBox="0 0 16 16"><g stroke="currentColor"><rect width="5" height="5" x="1.5" y="1.5" rx=".5"/><rect width="5" height="5" x="1.5" y="8.5" rx=".5"/><rect width="5" height="5" x="8.5" y="8.5" rx=".5"/><rect width="5" height="5" x="8.5" y="1.5" rx=".5"/></g></symbol><symbol xmlns="http://www.w3.org/2000/svg" id="help" fill="none" viewBox="0 0 16 16"><g fill="currentColor"><circle cx="7.8" cy="14.15" r=".85"/><path d="M7.98 8.251q.337-.356.88-.833.56-.492.886-.847V6.57a3 3 0 0 0 .552-.837l.001-.002a2.54 2.54 0 0 0 .228-1.097q0-.748-.311-1.32a2.2 2.2 0 0 0-.873-.892h-.001a2.54 2.54 0 0 0-1.299-.329q-.764.001-1.356.338-.583.337-.912.949-.153.289-.234.62a3 3 0 0 0-.058.317c-.04.302-.275.55-.58.55H4.78a.53.53 0 0 1-.53-.55q.015-.161.043-.317a3.7 3.7 0 0 1 .415-1.191 3.4 3.4 0 0 1 1.36-1.331Q6.938.999 8.053 1q1.085 0 1.928.458.85.45 1.322 1.264.47.815.469 1.865.001.824-.274 1.464-.271.63-.674 1.064-.385.424-1.015.967-.502.435-.782.725a2.6 2.6 0 0 0-.448.64v.002a1.7 1.7 0 0 0-.18.78.48.48 0 0 1-.48.48H7.72a.53.53 0 0 1-.527-.527q0-.608.227-1.097.225-.48.56-.834"/></g></symbol><symbol xmlns="http://www.w3.org/2000/svg" id="hide" fill="none" viewBox="0 0 16 16"><path stroke="currentColor" stroke-linecap="round" d="M2 8h12"/></symbol><symbol xmlns="http://www.w3.org/2000/svg" id="history" fill="none" viewBox="0 0 16 16"><g stroke="currentColor"><circle cx="8" cy="8" r="6.5"/><path stroke-linecap="round" stroke-linejoin="round" d="M8 5v3l2.5 1.5"/></g></symbol><symbol xmlns="http://www.w3.org/2000/svg" id="import" fill="none" viewBox="0 0 16 16"><path fill="currentColor" fill-rule="evenodd" d="M7.038 8.691A.5.5 0 0 0 7.5 9h4a.5.5 0 0 0 0-1H8.707l5.147-5.146a.5.5 0 0 0-.708-.708L8 7.293V4.5a.5.5 0 0 0-1 0v4.003a.5.5 0 0 0 .038.188" clip-rule="evenodd"/><path stroke="currentColor" stroke-linecap="round" d="M2.5 4.5V12A1.5 1.5 0 0 0 4 13.5h7.5"/></symbol><symbol xmlns="http://www.w3.org/2000/svg" id="layout" fill="none" viewBox="0 0 16 16"><path fill="currentColor" fill-rule="evenodd" d="M7 3H4a1 1 0 0 0-1 1v8a1 1 0 0 0 1 1h3zm1 0v4h5V4a1 1 0 0 0-1-1zm0 5v5h4a1 1 0 0 0 1-1V8zM4 2a2 2 0 0 0-2 2v8a2 2 0 0 0 2 2h8a2 2 0 0 0 2-2V4a2 2 0 0 0-2-2z" clip-rule="evenodd"/></symbol><symbol xmlns="http://www.w3.org/2000/svg" id="left" fill="none" viewBox="0 0 16 16"><path fill="currentColor" fill-rule="evenodd" d="M6.347 3.646a.5.5 0 1 1 .707.708l-3.15 3.15h9.6a.5.5 0 0 1 0 1H3.91l3.143 3.142a.5.5 0 0 1-.707.708l-4-4L1.993 8l.354-.354z" clip-rule="evenodd"/></symbol><symbol xmlns="http://www.w3.org/2000/svg" id="list-files" fill="none" viewBox="0 0 16 16"><rect width="11" height="13" x="2.5" y="1.5" stroke="currentColor" rx="1.5"/><rect width="6" height="1" x="5" y="5" fill="currentColor" rx=".5"/><rect width="6" height="1" x="5" y="7.5" fill="currentColor" rx=".5"/><rect width="6" height="1" x="5" y="10" fill="currentColor" rx=".5"/></symbol><symbol xmlns="http://www.w3.org/2000/svg" id="locate" fill="none" viewBox="0 0 16 16"><path fill="currentColor" fill-rule="evenodd" d="M8.5 5V2.02a6 6 0 0 1 5.48 5.48H11a.5.5 0 0 0 0 1h2.98a6 6 0 0 1-5.48 5.48V11a.5.5 0 0 0-1 0v2.98A6 6 0 0 1 2.02 8.5H5a.5.5 0 0 0 0-1H2.02A6 6 0 0 1 7.5 2.02V5a.5.5 0 0 0 1 0M1 8a7 7 0 1 1 14 0A7 7 0 0 1 1 8" clip-rule="evenodd"/></symbol><symbol xmlns="http://www.w3.org/2000/svg" id="locked" fill="none" viewBox="0 0 16 16"><path fill="currentColor" fill-rule="evenodd" d="M5 5a3 3 0 0 1 6 0v1a2 2 0 0 1 2 2v4a2 2 0 0 1-2 2H5a2 2 0 0 1-2-2V8a2 2 0 0 1 2-2zm5 0v1H6V5a2 2 0 1 1 4 0M5 7a1 1 0 0 0-1 1v4a1 1 0 0 0 1 1h6a1 1 0 0 0 1-1V8a1 1 0 0 0-1-1zm3 1.5a.5.5 0 0 0-.5.5v2a.5.5 0 0 0 1 0V9a.5.5 0 0 0-.5-.5" clip-rule="evenodd"/></symbol><symbol xmlns="http://www.w3.org/2000/svg" id="more-horizontal" fill="none" viewBox="0 0 16 16"><g fill="currentColor"><circle cx="3" cy="8" r="1" transform="rotate(-90 3 8)"/><circle cx="8" cy="8" r="1" transform="rotate(-90 8 8)"/><circle cx="13" cy="8" r="1" transform="rotate(-90 13 8)"/></g></symbol><symbol xmlns="http://www.w3.org/2000/svg" id="more-vertical" fill="none" viewBox="0 0 16 16"><g fill="currentColor"><circle cx="8" cy="3" r="1"/><circle cx="8" cy="8" r="1"/><circle cx="8" cy="13" r="1"/></g></symbol><symbol xmlns="http://www.w3.org/2000/svg" id="move-down" fill="none" viewBox="0 0 16 16"><g fill="currentColor"><rect width="12" height="1" x="2" y="2" rx=".5"/><path fill-rule="evenodd" d="M11.854 10.153a.5.5 0 0 0-.708-.707L8.5 12.093V4.5a.5.5 0 1 0-1 0v7.593L4.854 9.446a.5.5 0 0 0-.708.707l3.5 3.5.354.354.354-.354z" clip-rule="evenodd"/></g></symbol><symbol xmlns="http://www.w3.org/2000/svg" id="move-up" fill="none" viewBox="0 0 16 16"><g fill="currentColor"><path fill-rule="evenodd" d="M11.854 5.854a.5.5 0 0 1-.708.707L8.5 3.914v7.593a.5.5 0 0 1-1 0V3.914L4.854 6.561a.5.5 0 1 1-.708-.707l3.5-3.5L8 2l.354.354z" clip-rule="evenodd"/><rect width="12" height="1" x="2" y="13.007" rx=".5"/></g></symbol><symbol xmlns="http://www.w3.org/2000/svg" id="open-in-tool-window" fill="none" viewBox="0 0 16 16"><g stroke="currentColor"><path stroke-linecap="round" stroke-linejoin="round" d="m9 7-3.5 3.5m3 0h-3v-3"/><rect width="11" height="11" x="2.5" y="2.5" rx="1.5"/></g></symbol><symbol xmlns="http://www.w3.org/2000/svg" id="open-new-tab" fill="none" viewBox="0 0 16 16"><path fill="currentColor" fill-rule="evenodd" d="M7 3H3a2 2 0 0 0-2 2v6a2 2 0 0 0 2 2h8a2 2 0 0 0 2-2V9h-1v2a1 1 0 0 1-1 1H3a1 1 0 0 1-1-1V5a1 1 0 0 1 1-1h4zm5.5-3a.5.5 0 0 0-.5.5V3H9.5a.5.5 0 0 0 0 1H12v2.5a.5.5 0 0 0 1 0V4h2.5a.5.5 0 0 0 0-1H13V.5a.5.5 0 0 0-.5-.5" clip-rule="evenodd"/></symbol><symbol xmlns="http://www.w3.org/2000/svg" id="open" fill="none" viewBox="0 0 16 16"><path stroke="currentColor" d="m8.151 4.358.146.142H13A1.5 1.5 0 0 1 14.5 6v6.133c0 .786-.59 1.367-1.25 1.367H2.75c-.66 0-1.25-.581-1.25-1.367V3.867c0-.786.59-1.367 1.25-1.367h3.288a.5.5 0 0 1 .349.142z"/></symbol><symbol xmlns="http://www.w3.org/2000/svg" id="pagination" fill="none" viewBox="0 0 16 16"><g stroke="currentColor" stroke-linecap="round"><path d="M1.5 2.5h13m-13 11h13"/><path stroke-linejoin="round" d="m4.5 5-3 3 3 3m7-6 3 3-3 3"/></g></symbol><symbol xmlns="http://www.w3.org/2000/svg" id="paste" fill="none" viewBox="0 0 16 16"><g fill="currentColor"><path d="M5.5 6a.5.5 0 0 0 0 1h5a.5.5 0 0 0 0-1zM5 8.5a.5.5 0 0 1 .5-.5h5a.5.5 0 0 1 0 1h-5a.5.5 0 0 1-.5-.5m.5 1.5a.5.5 0 0 0 0 1h5a.5.5 0 0 0 0-1z"/><path fill-rule="evenodd" d="M12 2h-1.085A1.5 1.5 0 0 0 9.5 1h-3a1.5 1.5 0 0 0-1.415 1H4a2 2 0 0 0-2 2v9a2 2 0 0 0 2 2h8a2 2 0 0 0 2-2V4a2 2 0 0 0-2-2M4 3h1.085A1.5 1.5 0 0 0 6.5 4h3a1.5 1.5 0 0 0 1.415-1H12a1 1 0 0 1 1 1v9a1 1 0 0 1-1 1H4a1 1 0 0 1-1-1V4a1 1 0 0 1 1-1m2.5-1a.5.5 0 0 0 0 1h3a.5.5 0 0 0 0-1z" clip-rule="evenodd"/></g></symbol><symbol xmlns="http://www.w3.org/2000/svg" id="pin" fill="none" viewBox="0 0 16 16"><g fill="currentColor"><path fill-rule="evenodd" d="M6.48 5.707 6.268 7.2c-.07.488-.366.872-.73 1.093C4.786 8.748 4.399 9.414 4.2 10h7.603c-.2-.586-.587-1.253-1.338-1.707A1.54 1.54 0 0 1 9.733 7.2l-.214-1.493A1.496 1.496 0 0 1 11 4V3H5v1c.91 0 1.61.806 1.48 1.707M5.278 7.06a.54.54 0 0 1-.258.378c-1.17.708-1.661 1.79-1.868 2.577-.141.534.297.986.85.986H12c.552 0 .99-.452.85-.986-.208-.786-.7-1.87-1.869-2.577a.54.54 0 0 1-.258-.378l-.214-1.493A.496.496 0 0 1 11 5a1 1 0 0 0 1-1V3a1 1 0 0 0-1-1H5a1 1 0 0 0-1 1v1a1 1 0 0 0 1 1c.302 0 .533.267.49.566z" clip-rule="evenodd"/><path d="M7.5 11h1v3.5a.5.5 0 0 1-1 0z"/></g></symbol><symbol xmlns="http://www.w3.org/2000/svg" id="preview-horizontally" fill="none" viewBox="0 0 16 16"><path fill="currentColor" fill-rule="evenodd" d="M4 3h8a1 1 0 0 1 1 1v2H3V4a1 1 0 0 1 1-1M2 7v5a2 2 0 0 0 2 2h8a2 2 0 0 0 2-2V4a2 2 0 0 0-2-2H4a2 2 0 0 0-2 2zm1 0h10v5a1 1 0 0 1-1 1H4a1 1 0 0 1-1-1z" clip-rule="evenodd"/><rect width="6" height="1" x="5" y="8.5" fill="currentColor" rx=".5"/><rect width="6" height="1" x="5" y="10.5" fill="currentColor" rx=".5"/></symbol><symbol xmlns="http://www.w3.org/2000/svg" id="preview-vertically" fill="none" viewBox="0 0 16 16"><g fill="currentColor"><path fill-rule="evenodd" d="M7 3h5a1 1 0 0 1 1 1v8a1 1 0 0 1-1 1H7zM6 2h6a2 2 0 0 1 2 2v8a2 2 0 0 1-2 2H4a2 2 0 0 1-2-2V4a2 2 0 0 1 2-2zm0 11H4a1 1 0 0 1-1-1V4a1 1 0 0 1 1-1h2z" clip-rule="evenodd"/><rect width="4" height="1" x="8" y="5" rx=".5"/><rect width="4" height="1" x="8" y="7.5" rx=".5"/><rect width="4" height="1" x="8" y="10" rx=".5"/></g></symbol><symbol xmlns="http://www.w3.org/2000/svg" id="print" fill="none" viewBox="0 0 16 16"><g fill="currentColor"><path d="M13 7h-1v1h1z"/><path fill-rule="evenodd" d="M4.5 2a.5.5 0 0 0-.5.5V5h-.5A2.5 2.5 0 0 0 1 7.5v5a.5.5 0 0 0 .5.5H4v.5a.5.5 0 0 0 .5.5h7a.5.5 0 0 0 .5-.5V13h2.5a.5.5 0 0 0 .5-.5v-5A2.5 2.5 0 0 0 12.5 5H12V2.5a.5.5 0 0 0-.5-.5zM11 5H5V3h6zm0 8H5v-3h6zm1-4v3h2V7.5A1.5 1.5 0 0 0 12.5 6h-9A1.5 1.5 0 0 0 2 7.5V12h2V9z" clip-rule="evenodd"/></g></symbol><symbol xmlns="http://www.w3.org/2000/svg" id="project-structure" fill="none" viewBox="0 0 16 16"><path fill="currentColor" d="M13 4H8.5L6.736 2.283A1 1 0 0 0 6.038 2H2.75C1.784 2 1 2.836 1 3.867v8.266C1 13.164 1.784 14 2.75 14H8v-1H2.75c-.354 0-.75-.326-.75-.867V3.867c0-.54.396-.867.75-.867h3.288l2.056 2H13a1 1 0 0 1 1 1v1h1V6a2 2 0 0 0-2-2"/><path fill="#3574F0" d="M13 12.5a.5.5 0 0 1 .5-.5h2a.5.5 0 0 1 .5.5v2a.5.5 0 0 1-.5.5h-2a.5.5 0 0 1-.5-.5zm-4 0a.5.5 0 0 1 .5-.5h2a.5.5 0 0 1 .5.5v2a.5.5 0 0 1-.5.5h-2a.5.5 0 0 1-.5-.5zm4-4a.5.5 0 0 1 .5-.5h2a.5.5 0 0 1 .5.5v2a.5.5 0 0 1-.5.5h-2a.5.5 0 0 1-.5-.5z"/></symbol><symbol xmlns="http://www.w3.org/2000/svg" id="project-wide-analysis-off" fill="none" viewBox="0 0 16 16"><path fill="currentColor" fill-rule="evenodd" d="M7.5.996h1v6.138a1 1 0 1 1-1 0V5.04a3 3 0 1 0 2.857 1.102l.71-.71A4 4 0 1 1 7.5 4.03V2.02a6 6 0 1 0 4.985 1.994l.709-.708A7 7 0 1 1 7.5 1.018z" clip-rule="evenodd"/></symbol><symbol xmlns="http://www.w3.org/2000/svg" id="project-wide-analysis-on" fill="none" viewBox="0 0 16 16"><path fill="#369650" fill-rule="evenodd" d="M7.5.996h1v6.138a1 1 0 1 1-1 0V5.04a3 3 0 1 0 2.857 1.102l.71-.71A4 4 0 1 1 7.5 4.03V2.02a6 6 0 1 0 4.985 1.994l.709-.708A7 7 0 1 1 7.5 1.018z" clip-rule="evenodd"/></symbol><symbol xmlns="http://www.w3.org/2000/svg" id="redo" fill="none" viewBox="0 0 16 16"><path stroke="currentColor" stroke-linecap="round" d="M1.5 10.5s0-5 5-5C10 5.5 14 10 14 10m-2.5.5h3v-3"/></symbol><symbol xmlns="http://www.w3.org/2000/svg" id="refresh" fill="none" viewBox="0 0 16 16"><g stroke="currentColor" stroke-linecap="round"><path d="M2.5 9V8A5.5 5.5 0 0 1 11 3.39m-6 9.22A5.5 5.5 0 0 0 13.5 8V7"/><path d="m.5 7.5 2 2 2-2m7 1 2-2 2 2"/></g></symbol><symbol xmlns="http://www.w3.org/2000/svg" id="remove" fill="none" viewBox="0 0 16 16"><path fill="currentColor" fill-rule="evenodd" d="M1 7.5a.5.5 0 0 0 .5.5h12a.5.5 0 0 0 0-1h-12a.5.5 0 0 0-.5.5" clip-rule="evenodd"/></symbol><symbol xmlns="http://www.w3.org/2000/svg" id="right" fill="none" viewBox="0 0 16 16"><path fill="currentColor" fill-rule="evenodd" d="M9.653 12.354a.5.5 0 0 1-.707-.708l3.143-3.142H2.496a.5.5 0 0 1 0-1h9.6l-3.15-3.15a.5.5 0 1 1 .707-.708l4 4 .354.354-.354.354z" clip-rule="evenodd"/></symbol><symbol xmlns="http://www.w3.org/2000/svg" id="run-anything" fill="none" viewBox="0 0 16 16"><g stroke="currentColor"><rect width="13" height="11" x="1.5" y="2.5" rx="1.5"/><path d="M7.95 9.327a.2.2 0 0 1 0 .346L4.8 11.492a.2.2 0 0 1-.3-.173V7.68a.2.2 0 0 1 .3-.173z"/><path stroke-width=".5" d="M1.25 5.25h13.5v.5H1.25z"/></g></symbol><symbol xmlns="http://www.w3.org/2000/svg" id="save" fill="none" viewBox="0 0 16 16"><path stroke="currentColor" stroke-linejoin="round" d="M5.5 3v2.5h5V3m-6 10V9.5h7V13m-9 .5v-11h9l2 2v9z"/></symbol><symbol xmlns="http://www.w3.org/2000/svg" id="scroll-down" fill="none" viewBox="0 0 16 16"><path stroke="currentColor" stroke-linecap="round" stroke-linejoin="round" d="M1.5 3.5h4M1.5 8h4m-4 4.5h13"/><path fill="currentColor" fill-rule="evenodd" d="M11.5 3a.5.5 0 0 1 .5.5v5.793l2.146-2.147a.5.5 0 0 1 .708.708l-3 3-.354.353-.354-.353-3-3a.5.5 0 1 1 .708-.708L11 9.293V3.5a.5.5 0 0 1 .5-.5" clip-rule="evenodd"/></symbol><symbol xmlns="http://www.w3.org/2000/svg" id="search" fill="none" viewBox="0 0 16 16"><g stroke="currentColor"><circle cx="7" cy="7" r="4.5"/><path stroke-linecap="round" d="m10.2 10.2 3.3 3.296"/></g></symbol><symbol xmlns="http://www.w3.org/2000/svg" id="settings" fill="none" viewBox="0 0 16 16"><path fill="currentColor" fill-rule="evenodd" d="M3.227 4.37q-.46.602-.757 1.306l.84 1.418c.33.559.33 1.253 0 1.812l-.84 1.418c.197.468.452.907.757 1.306l1.646-.018c.649-.007 1.25.34 1.568.906l.808 1.435a6 6 0 0 0 1.51 0l.808-1.435c.318-.566.92-.913 1.568-.906l1.647.018c.304-.4.559-.838.756-1.306l-.84-1.418a1.78 1.78 0 0 1 0-1.812l.84-1.418a6 6 0 0 0-.756-1.306l-1.647.018a1.78 1.78 0 0 1-1.568-.906l-.808-1.435a6 6 0 0 0-1.51 0l-.808 1.435c-.318.566-.92.913-1.568.906zM10.655 8a2.651 2.651 0 1 1-5.302 0 2.651 2.651 0 0 1 5.302 0M4.884 3.388a.78.78 0 0 0 .686-.397l.868-1.542a.73.73 0 0 1 .526-.372 7 7 0 0 1 2.08 0 .73.73 0 0 1 .526.372l.868 1.542c.14.248.402.4.686.397l1.77-.02a.73.73 0 0 1 .584.269 7 7 0 0 1 1.043 1.802.73.73 0 0 1-.06.64l-.902 1.525a.78.78 0 0 0 0 .792l.902 1.525c.115.194.142.43.06.64a7 7 0 0 1-1.043 1.802.73.73 0 0 1-.584.269l-1.77-.02a.78.78 0 0 0-.686.396l-.868 1.543a.73.73 0 0 1-.526.372 7 7 0 0 1-2.08 0 .73.73 0 0 1-.526-.372l-.868-1.543a.78.78 0 0 0-.686-.396l-1.77.02a.73.73 0 0 1-.584-.269 7 7 0 0 1-1.043-1.802.73.73 0 0 1 .06-.64l.902-1.525a.78.78 0 0 0 0-.792l-.902-1.525a.73.73 0 0 1-.06-.64A7 7 0 0 1 2.53 3.637a.73.73 0 0 1 .584-.269zM9.655 8a1.651 1.651 0 1 1-3.302 0 1.651 1.651 0 0 1 3.302 0" clip-rule="evenodd"/></symbol><symbol xmlns="http://www.w3.org/2000/svg" id="show-as-tree" fill="none" viewBox="0 0 16 16"><g stroke="currentColor"><path stroke-width=".98" d="m11.91 3.506.144.155H14a.51.51 0 0 1 .51.51v2.736c0 .409-.268.603-.443.603H8.933c-.175 0-.443-.194-.443-.603V3.093c0-.409.268-.603.443-.603h1.99q.034.001.06.026zm0 7.999.144.155H14a.51.51 0 0 1 .51.51v2.737c0 .409-.268.603-.443.603H8.933c-.175 0-.443-.194-.443-.603v-3.814c0-.409.268-.603.443-.603h1.99q.034.001.06.026z"/><path stroke-linecap="round" d="M1.5 1.5v3m0 0h5m-5 0V12a.5.5 0 0 0 .5.5h4.5"/></g></symbol><symbol xmlns="http://www.w3.org/2000/svg" id="show" fill="none" viewBox="0 0 16 16"><g stroke="currentColor"><circle cx="8" cy="8" r="2.5"/><path d="M3.348 11.464C2.033 10.55 1.014 9.32.53 8c.484-1.319 1.503-2.55 2.818-3.465C4.714 3.585 6.366 3 8 3s3.286.585 4.652 1.535C13.967 5.45 14.986 6.681 15.47 8c-.484 1.319-1.503 2.55-2.818 3.464C11.286 12.414 9.634 13 8 13s-3.286-.585-4.652-1.536Z"/></g></symbol><symbol xmlns="http://www.w3.org/2000/svg" id="soft-wrap" fill="none" viewBox="0 0 16 16"><path stroke="currentColor" stroke-linecap="round" d="M1.5 3.5h13M1.5 8h10.75a2.25 2.25 0 0 1 2.25 2.25v0a2.25 2.25 0 0 1-2.25 2.25H8.5m0 0 2-2m-2 2 2 2m-9-2h4"/></symbol><symbol xmlns="http://www.w3.org/2000/svg" id="sort-alphabetically" fill="none" viewBox="0 0 16 16"><g fill="currentColor"><path fill-rule="evenodd" d="M8.854 10.854a.5.5 0 0 0-.708-.708L6 12.293V2.5a.5.5 0 0 0-1 0v9.793l-2.146-2.147a.5.5 0 0 0-.708.708l3 3a.5.5 0 0 0 .708 0z" clip-rule="evenodd"/><path d="M11.973 1.9q.6 0 1.057.213.46.214.713.621.257.403.257.95v3.299h-1.057l-.01-1.858h.262q0 .616-.223 1.062a1.57 1.57 0 0 1-.63.68 1.95 1.95 0 0 1-.975.232 2 2 0 0 1-.864-.184 1.5 1.5 0 0 1-.596-.51 1.3 1.3 0 0 1-.214-.737q0-.397.204-.732.21-.335.572-.548a2.1 2.1 0 0 1 .83-.262l1.3-.14a.34.34 0 0 0 .237-.112.45.45 0 0 0 .088-.296l.058 1.082-1.436.16a1 1 0 0 0-.383.121.68.68 0 0 0-.35.606q0 .213.112.379a.75.75 0 0 0 .316.252q.202.092.465.092a1.4 1.4 0 0 0 .64-.14q.277-.147.427-.403.15-.262.15-.602V3.588a.77.77 0 0 0-.465-.723 1.2 1.2 0 0 0-.51-.102q-.285 0-.514.097a1 1 0 0 0-.368.262.7.7 0 0 0-.17.364H9.815q.048-.456.34-.815a2 2 0 0 1 .765-.567 2.65 2.65 0 0 1 1.053-.204m.732 8.055h-2.493v-.921h3.798v.902l-2.62 3.143H14V14h-3.914v-.902z"/></g></symbol><symbol xmlns="http://www.w3.org/2000/svg" id="sort-by-duration" fill="none" viewBox="0 0 16 16"><path stroke="currentColor" stroke-linecap="round" stroke-linejoin="round" d="M7.5 3.5h7M9.5 8h5m-3 4.5h3"/><path fill="currentColor" fill-rule="evenodd" d="M7.854 9.854a.5.5 0 0 0-.708-.708L5 11.293V3.5a.5.5 0 1 0-1 0v7.793L1.854 9.146a.5.5 0 1 0-.708.708l3 3a.5.5 0 0 0 .71-.002z" clip-rule="evenodd"/></symbol><symbol xmlns="http://www.w3.org/2000/svg" id="sort-by-type" fill="none" viewBox="0 0 16 16"><path fill="currentColor" fill-rule="evenodd" d="M7.854 10.854a.5.5 0 0 0-.708-.708L5 12.293V2.5a.5.5 0 0 0-1 0v9.793l-2.146-2.147a.5.5 0 0 0-.708.708l3 3a.5.5 0 0 0 .708 0z" clip-rule="evenodd"/><path stroke="currentColor" d="M11 2.5h3a.5.5 0 0 1 .5.5v2a.5.5 0 0 1-.5.5h-3a.5.5 0 0 1-.5-.5V3a.5.5 0 0 1 .5-.5Zm0 5h3a.5.5 0 0 1 .5.5v2a.5.5 0 0 1-.5.5h-3a.5.5 0 0 1-.5-.5V8a.5.5 0 0 1 .5-.5Z"/></symbol><symbol xmlns="http://www.w3.org/2000/svg" id="sort-by-usage" fill="none" viewBox="0 0 16 16"><g fill="currentColor"><path d="M13.385 2.12h1.2l-5.06 7h-1.2zM9.65 5.4q-.5 0-.895-.215a1.55 1.55 0 0 1-.61-.6 1.77 1.77 0 0 1-.22-.885q0-.495.22-.88.22-.39.61-.605Q9.149 2 9.65 2q.51 0 .9.215.395.215.615.605.225.385.225.88t-.225.885a1.54 1.54 0 0 1-.615.6q-.39.215-.9.215m.005-.885a.71.71 0 0 0 .665-.39.9.9 0 0 0 .095-.425.9.9 0 0 0-.095-.425.7.7 0 0 0-.27-.285.75.75 0 0 0-.395-.105.75.75 0 0 0-.395.105.7.7 0 0 0-.265.285.9.9 0 0 0-.095.425q0 .24.095.425a.7.7 0 0 0 .265.29q.174.1.395.1M13.26 9.24q-.505 0-.895-.215a1.6 1.6 0 0 1-.615-.6 1.77 1.77 0 0 1-.22-.885q0-.495.22-.88.225-.39.615-.605t.895-.215.9.215q.4.215.62.605.22.385.22.88t-.22.885a1.54 1.54 0 0 1-.62.6 1.85 1.85 0 0 1-.9.215m0-.885a.8.8 0 0 0 .4-.1.7.7 0 0 0 .27-.29.9.9 0 0 0 .1-.425.9.9 0 0 0-.1-.42.67.67 0 0 0-.27-.29.76.76 0 0 0-.4-.105.75.75 0 0 0-.395.105.7.7 0 0 0-.265.29.9.9 0 0 0-.095.42q0 .24.095.425a.7.7 0 0 0 .265.29q.175.1.395.1"/><path fill-rule="evenodd" d="M7.854 10.854a.5.5 0 0 0-.708-.708L5 12.293V2.5a.5.5 0 0 0-1 0v9.793l-2.146-2.147a.5.5 0 0 0-.708.708l3 3a.5.5 0 0 0 .708 0z" clip-rule="evenodd"/></g></symbol><symbol xmlns="http://www.w3.org/2000/svg" id="sort-by-visibility" fill="none" viewBox="0 0 16 16"><path fill="currentColor" fill-rule="evenodd" d="M7.854 10.854a.5.5 0 0 0-.708-.708L5 12.293V2.5a.5.5 0 0 0-1 0v9.793l-2.146-2.147a.5.5 0 0 0-.708.708l3 3a.5.5 0 0 0 .708 0z" clip-rule="evenodd"/><path fill="#EBECF0" d="M10 6h4v3h-4z"/><path fill="currentColor" fill-rule="evenodd" d="M14 5V4a2 2 0 1 0-4 0v1a1 1 0 0 0-1 1v3a1 1 0 0 0 1 1h4a1 1 0 0 0 1-1V6a1 1 0 0 0-1-1m-3-1a1 1 0 1 1 2 0v1h-2zm-1 5V6h4v3z" clip-rule="evenodd"/></symbol><symbol xmlns="http://www.w3.org/2000/svg" id="sort-by" fill="none" viewBox="0 0 16 16"><path stroke="currentColor" stroke-linecap="round" stroke-linejoin="round" d="M2.5 3.5h12m-12 5H12m-9.5 5h7"/></symbol><symbol xmlns="http://www.w3.org/2000/svg" id="split-horizontally" fill="none" viewBox="0 0 16 16"><path fill="currentColor" fill-rule="evenodd" d="M4 3h8a1 1 0 0 1 1 1v3.5H3V4a1 1 0 0 1 1-1M2 8.5V4a2 2 0 0 1 2-2h8a2 2 0 0 1 2 2v8a2 2 0 0 1-2 2H4a2 2 0 0 1-2-2zm11 0V12a1 1 0 0 1-1 1H4a1 1 0 0 1-1-1V8.5z" clip-rule="evenodd"/></symbol><symbol xmlns="http://www.w3.org/2000/svg" id="split-vertically" fill="none" viewBox="0 0 16 16"><path fill="currentColor" fill-rule="evenodd" d="M8.5 3H12a1 1 0 0 1 1 1v8a1 1 0 0 1-1 1H8.5zm-1-1H12a2 2 0 0 1 2 2v8a2 2 0 0 1-2 2H4a2 2 0 0 1-2-2V4a2 2 0 0 1 2-2zm0 11H4a1 1 0 0 1-1-1V4a1 1 0 0 1 1-1h3.5z" clip-rule="evenodd"/></symbol><symbol xmlns="http://www.w3.org/2000/svg" id="undo" fill="none" viewBox="0 0 16 16"><path fill="currentColor" d="M1.626 9.668a.5.5 0 0 0 .748.664zM14 10.5a.5.5 0 0 0 1 0zm-12-3a.5.5 0 0 0-1 0zm-.5 3H1v.5h.5zm3 .5a.5.5 0 0 0 0-1zM2 10l.374.332.002-.002.007-.008.032-.035.127-.137a21 21 0 0 1 2.203-2.006C6.175 7.026 7.933 6 9.5 6V5C7.568 5 5.576 6.224 4.13 7.356a22 22 0 0 0-2.502 2.31l-.001.001zm7.5-4c1.162 0 2.001.29 2.613.697.616.41 1.032.96 1.315 1.527.284.567.428 1.14.5 1.577a6 6 0 0 1 .072.7l.5-.001h.5v-.022a3 3 0 0 0-.011-.229 7 7 0 0 0-.074-.612 6.6 6.6 0 0 0-.593-1.86c-.342-.685-.863-1.384-1.654-1.912C11.874 5.335 10.838 5 9.5 5zM1 7.5v3h1v-3zm.5 3.5h3v-1h-3z"/></symbol><symbol xmlns="http://www.w3.org/2000/svg" id="unlocked" fill="none" viewBox="0 0 16 16"><path fill="currentColor" fill-rule="evenodd" d="M10 5a3 3 0 1 1 6 0v1.5a.5.5 0 0 1-1 0V5a2 2 0 1 0-4 0v1a2 2 0 0 1 2 2v4a2 2 0 0 1-2 2H5a2 2 0 0 1-2-2V8a2 2 0 0 1 2-2h5zM5 7h6a1 1 0 0 1 1 1v4a1 1 0 0 1-1 1H5a1 1 0 0 1-1-1V8a1 1 0 0 1 1-1m3 1.5a.5.5 0 0 0-.5.5v2a.5.5 0 0 0 1 0V9a.5.5 0 0 0-.5-.5" clip-rule="evenodd"/></symbol><symbol xmlns="http://www.w3.org/2000/svg" id="up" fill="none" viewBox="0 0 16 16"><path fill="currentColor" fill-rule="evenodd" d="M12.354 6.346a.5.5 0 0 1-.708.707L8.5 3.907v9.6a.5.5 0 1 1-1 0v-9.6L4.354 7.053a.5.5 0 1 1-.708-.707l4-4L8 1.993l.354.353z" clip-rule="evenodd"/></symbol><symbol xmlns="http://www.w3.org/2000/svg" id="upload" fill="none" viewBox="0 0 16 16"><g fill="currentColor"><path fill-rule="evenodd" d="M10.854 4.646a.5.5 0 1 1-.707.707L8.5 3.707v6.807a.5.5 0 0 1-1 0V3.707L5.853 5.354a.5.5 0 0 1-.707-.708l2.5-2.5a.5.5 0 0 1 .708 0z" clip-rule="evenodd"/><rect width="12" height="1" rx=".5" transform="matrix(1 0 0 -1 2 14)"/><rect width="1" height="4" x="2" y="10" rx=".5"/><rect width="1" height="4" x="13" y="10" rx=".5"/></g></symbol><symbol xmlns="http://www.w3.org/2000/svg" id="vcs" fill="none" viewBox="0 0 16 16"><g stroke="currentColor"><circle cx="4.5" cy="4" r="2"/><circle cx="10.5" cy="6" r="2"/><path d="M4.5 11.5h4a2 2 0 0 0 2-2V8"/><path stroke-linecap="round" stroke-linejoin="round" d="M4.5 6.5v8"/></g></symbol></svg>