<svg xmlns="http://www.w3.org/2000/svg" width="16" height="16" fill="none" viewBox="0 0 16 16"><path fill="#6C707E" fill-rule="evenodd" d="M7.146 2.146a.5.5 0 0 0 0 .708L8.293 4H3.5a.5.5 0 0 0 0 1h4.793L7.146 6.146a.5.5 0 1 0 .708.708l2-2a.5.5 0 0 0 0-.708l-2-2a.5.5 0 0 0-.708 0Zm1.708 7a.5.5 0 0 0-.708 0l-2 2a.5.5 0 0 0 0 .708l2 2a.5.5 0 0 0 .708-.708L7.707 12H12.5a.5.5 0 0 0 0-1H7.707l1.147-1.146a.5.5 0 0 0 0-.708ZM14.5 1a.5.5 0 0 1 .5.5v13a.5.5 0 0 1-1 0v-13a.5.5 0 0 1 .5-.5Zm-13 0a.5.5 0 0 1 .5.5v13a.5.5 0 0 1-1 0v-13a.5.5 0 0 1 .5-.5Z" clip-rule="evenodd"/></svg>