<svg xmlns="http://www.w3.org/2000/svg" width="16" height="16" fill="none" viewBox="0 0 16 16"><g fill="#6C707E"><circle cx="7.8" cy="14.15" r=".85"/><path d="M7.98 8.251c.224-.237.518-.515.88-.833.373-.328.668-.61.886-.847V6.57a3 3 0 0 0 .552-.837l.001-.002a2.54 2.54 0 0 0 .228-1.097c0-.499-.104-.938-.311-1.32a2.205 2.205 0 0 0-.873-.892h-.001a2.537 2.537 0 0 0-1.299-.329c-.51 0-.961.114-1.356.338-.389.225-.692.54-.912.949-.102.192-.18.4-.234.62a2.997 2.997 0 0 0-.058.317c-.04.302-.275.55-.58.55H4.78a.53.53 0 0 1-.53-.55c.01-.108.025-.213.043-.317a3.69 3.69 0 0 1 .415-1.191 3.385 3.385 0 0 1 1.36-1.331C6.647 1.158 7.31 1 8.053 1c.723 0 1.367.152 1.928.458.567.3 1.008.722 1.322 1.264.313.543.469 1.165.469 1.865 0 .549-.09 1.038-.274 1.464-.181.42-.405.775-.674 1.064-.257.282-.595.605-1.015.967-.335.29-.595.532-.782.725a2.56 2.56 0 0 0-.448.64v.002a1.685 1.685 0 0 0-.18.78.48.48 0 0 1-.48.48H7.72a.528.528 0 0 1-.527-.527c0-.405.075-.772.227-1.097.15-.32.337-.597.56-.834Z"/></g></svg>