<svg xmlns="http://www.w3.org/2000/svg" width="16" height="16" fill="none" viewBox="0 0 16 16"><g fill="#6C707E"><rect width="7" height="1" x="2" y="5" rx=".5"/><rect width="5" height="1" x="2" y="8" rx=".5"/><rect width="12" height="1" x="2" y="2" rx=".5"/><path fill-rule="evenodd" d="M12.146 6.146a.5.5 0 0 1 .708.708L11.707 8H15.5a.5.5 0 0 1 0 1h-3.793l1.147 1.146a.5.5 0 0 1-.708.708l-2-2-.353-.354.353-.354 2-2Zm-3.292 4a.5.5 0 0 0-.708.708L9.293 12H5.5a.5.5 0 0 0 0 1h3.793l-1.147 1.146a.5.5 0 0 0 .708.708l2-2 .353-.354-.353-.354-2-2Z" clip-rule="evenodd"/></g></svg>