<svg xmlns="http://www.w3.org/2000/svg" width="16" height="16" fill="none" viewBox="0 0 16 16"><g fill="#6C707E"><path fill-rule="evenodd" d="M4.443 1.15c-.193.126-.38.307-.58.512-.117.12-.22.24-.319.356-.183.213-.352.41-.571.571a.923.923 0 0 1-.496.166 2.177 2.177 0 0 0-.072.005c-.08.007-.16.014-.32-.006-.182-.099-.355-.035-.523.167-.185.266-.42.771-.517 1.09-.201.81.311 1.48.802 1.994.437.427.689.694.868 1.085.081.152.15.338.216.516.043.118.086.232.13.33l.008.017c.03.06.03.062.128.083.154.033.348.044.544.055.095.005.191.01.283.019.122.001.29-.003.448-.02l.107-.02c.192-.035.403-.073.584-.136.21-.052.398-.123.567-.19-.012.04-.061.077-.114.118a.584.584 0 0 0-.13.121c-.56.803-.722 1.52-.635 2.63l-.003-.002.004.019.005.054c.056.51.173.934.35 1.418.08.221.253.572.418.805a3 3 0 0 0 .138.181l.001.001c.542.66 1.579 1.43 2.975 1.743.267.037.569.017.853-.058.754-.229 2.29-.77 2.29-.77s-1.363.114-1.988.052a3.949 3.949 0 0 0-.064-.01c-.126-.017-.254-.035-.34-.119-.017-.022-.079-.145-.04-.146.02-.001.052-.01.096-.021.08-.021.2-.053.354-.067-.505-.054-.505-.054-.54-.144l-.002-.003a5.82 5.82 0 0 0-.238-.516c.224.019.722.047.891-.127 0 0-.294.034-.555.003a1.61 1.61 0 0 1-.282-.08 1.689 1.689 0 0 0-.126-.042c-.055-.017-.096-.03-.11-.047a1.624 1.624 0 0 0-.045-.105c-.021-.045-.043-.09-.071-.172a1.784 1.784 0 0 1-.08-.507l-.005-.067c.17.21.388.386.675.476l.036.011c.1.035.386.134.605.063l.05-.016c.004 0 .005-.001.005-.002l-.005.002a.597.597 0 0 1-.237-.018c-.46-.196-.59-.37-.673-.48a.775.775 0 0 0-.042-.055l-.236-.353c.072-.143.112-.148.207-.15.04.005.076.01.11.013.212.025.326.038.476.002.03.06.053.12.077.18.071.18.14.35.341.484.857.254 1.071-.051 1.278-.344l.028-.04c.644.473 1.691.618 2.419.008.925-1.07 1.218-2.757 1.136-2.854-.116-.196-.267-.398-.397-.37-.17.046-.301.108-.421.164-.208.096-.383.178-.674.144l.055-.002a.457.457 0 0 0 .092-.007c.036-.39-.002-.578-.02-.61-.104-.23-.232-.47-.344-.677l-.106-.197a.746.746 0 0 1-.04-.103c-.05-.138-.133-.371-.251-.481-.07-.06-.24-.216-.24-.216l-.014.166s.066.01.091.113c.046.188.183.499.317.775h-.216l.247.065c.133.272.255.497.273.518.092.15.09.319.09.473v.1l-.063.031c-.009-.196-.205-.196-.386-.197h-.041l-.157-.038c.016.014.042.023.068.033.054.019.108.038.068.102-.042.022-.064.105-.087.187l-.015.051-.085.004.13.05c.104.04.207.08.323.128l.082.013-.083.208-.112-.046-.004-.078c-.198-.08-.58-.113-.595-.097a2.36 2.36 0 0 0-.294.377l-.06.09c.046-.037.09-.08.133-.122.098-.095.197-.192.34-.226.01-.001.106.016.2.033l.131.024c-.023.005-.05.008-.078.012-.057.008-.114.016-.126.033-.106.13-.193.281-.28.431a7.169 7.169 0 0 1-.126.213c.062-.064.11-.128.157-.192.095-.13.19-.258.401-.382a.577.577 0 0 1 .313.033 1.782 1.782 0 0 1-.108.26l-.044.095a1.92 1.92 0 0 1-.22.355c-.04.057-.081.113-.118.17.204-.249.257-.301.31-.355.04-.039.08-.078.18-.196.1-.235.198-.489.29-.74l.018-.01c.019.01.093.008.187.005.086-.002.187-.004.276.001.158-.034.236-.085.307-.131a.524.524 0 0 1 .287-.104c.19-.015.21.342.207.37-.036.393-.155.85-.339 1.268-.38.734-.807 1.393-1.412 1.484-.617.108-.987-.1-1.325-.292a5.517 5.517 0 0 0-.196-.107l-.153.13c-.52.519-1.137.473-1.39-.204h.002l-.008-.014a1.689 1.689 0 0 0-.043-.082l-.033-.065a3.917 3.917 0 0 0-.207-.367c-.759-.6-.438-1.149-.23-1.506l.018-.03c-.434-.109-1.01-.342-1.088-.649-.128-.991-.063-1.306.064-1.815l-.058.012c-.563.118-1.134.239-1.738.44v-.005a6.232 6.232 0 0 0-.886.329c-.126.036-.244.074-.365.111-.224.07-.455.143-.753.217-.15.019-.296.019-.44 0-.177-.025-.422-.024-.617-.024-.166 0-.295 0-.311-.015-.116-.16-.188-.388-.26-.61-.065-.21-.13-.415-.23-.56l-.002-.002-.002-.003c-.104-.14-.222-.256-.341-.373l-.054-.053c-.489-.486-.907-.956-1.024-1.454l-.021-.087a1.64 1.64 0 0 1-.044-.647v-.002l.001-.002c.118-.407.31-.738.634-1.07.338.006.673.013.933.063l.047.007c.13.021.351.056.578.141.65.242 1.51.64 1.51.64-.145-.08-.293-.164-.442-.249-.513-.293-1.026-.586-1.38-.658-.067-.01-.109-.04-.129-.094.43-.253.64-.534.848-.814.123-.165.245-.33.412-.487l.084-.037c.148-.065.228-.101.377-.117 1.426.225 2.386.752 3.145 1.17.103.055.201.11.297.16.148.081.29.153.428.222.165.084.325.164.48.253.249.082 1 .648 1.22.954.223.471.386.98.534 1.472.107.5.2.702.2.702s-.09-.418-.075-.493c.094.035.316.105.408.094 0 0-.411-.213-.465-.4a18.833 18.833 0 0 1-.247-1.016c-.07-.31-.123-.55-.146-.575-.132-.165-.682-.586-1.019-.78-.127-.074-.196-.12-.201-.152l.064-.066c.094-.096.2-.204.295-.278l.064-.05a1.11 1.11 0 0 1 .314-.196c.48-.216.818-.079 1.015 0 .09.037.15.061.18.033 0 0-.15-.172-.083-.144.035.02.112.04.181.059a.608.608 0 0 1 .135.045c.255.2.923.929 1.325 1.699.096.188.135.312.09.54a3.93 3.93 0 0 1-.128.503c-.044.102-.295.797-.294.89-.05.381.164.858.164.858l-.001-.125a.916.916 0 0 1 .005-.166l.014-.165s-.01-.045-.008-.062c.007-.07.02-.132.031-.186.007-.034.014-.065.017-.09.074-.457.197-.797.34-1.187l.038-.106a1.03 1.03 0 0 1 .052-.101c.03-.055.056-.1.054-.155.002-.113-.074-.255-.153-.403-.026-.046-.05-.094-.074-.14a5.909 5.909 0 0 0-.366-.65c-.347-.5-.643-.89-1.186-1.135-.152-.067-.749-.132-.955-.093-.25.052-.465.103-.637.213a2.84 2.84 0 0 0-.379.31 2.71 2.71 0 0 1-.352.288 6.459 6.459 0 0 1-.814-.475 1.055 1.055 0 0 0-.051-.034 20.13 20.13 0 0 0-1.143-.572c-.202-.189-1.46-.64-2.612-.73Zm1.362 11.881c-.202-.228-.395-.662-.55-1.025.851.513 2.225 1.074 3.39 1.046.117.203.257.416.37.585-1.484.227-2.513-.228-3.142-.537a9.678 9.678 0 0 1-.068-.069Zm-.467-2.013c.545.486 1.112.992 3.082 1.412l.003-.005a1.83 1.83 0 0 1 .114-.645l.005-.01c-1.868-.224-3.26-1.702-3.553-2.495a4.29 4.29 0 0 0-.041 1.41c.14.11.265.22.39.333Zm3.422.227c-.028.06-.06.135-.094.22-.656-.324-1.198-.713-1.743-1.105l-.013-.01c-.882-.644-1.102-1.41-1.257-2.412a.213.213 0 0 1 .07-.063 2.66 2.66 0 0 1 .928-.397c.289 1.085.884 2.177 1.476 3.174l.093.12c.16.209.248.325.54.473Zm-1.105 3.026c.538-.003 1.092-.006 1.617-.246.043.09.107.169.14.208l.02.026c.498.65-.63.5-.864.461a3.613 3.613 0 0 1-1.204-.446l.291-.003Zm3.828-2.855c-.34-.265-.625-.538-.813-.82-.051.276-.214.485-.367.68l-.09.118c-.034.055-.059.129.11.365.046.063.21.073.322.068a2.3 2.3 0 0 0-.109-.076c-.092-.061-.185-.123-.204-.179.199.136.383.175.55.153.038-.004.085-.045.122-.107a.502.502 0 0 1 .184-.236l.007-.005.135.17.153-.131Zm.419-7.493c-.025-.14-.557-.98-.656-.99m.656.99c.019.131.05.27.082.41l-.082-.41Zm.082.41c.041.187.084.376.1.558l-.1-.557Zm.1.558a10.393 10.393 0 0 0-.302-.92l.302.92Zm-.302-.92c-.035-.085-.123-.276-.368-.546l.368.546Zm-.368-.546c-.11-.182-.137-.327-.164-.471l.164.471Zm-1.76 2.319c.1.164.191.316.287.391a5.74 5.74 0 0 1-.178-.459c-.146-.407-.305-.851-.612-1.123-.411-.132-.972-.14-1.533-.147-.168-.002-.337-.004-.5-.01.224.058.488.095.754.132.461.064.929.129 1.21.302.006.024-.012.04-.039.053a2.443 2.443 0 0 1-.068-.01.653.653 0 0 0-.264-.008c-.115.037-.222.097-.328.156-.05.028-.1.056-.152.081.301-.061.454-.031.627.003.08.015.165.032.27.04.217.083.38.354.527.599Zm1.15 1.56c.23-.05.464-.047.693-.019-.444.064-.555.083-.833.39a1.34 1.34 0 0 0 .03-.108.692.692 0 0 1 .11-.263Zm3.732 1.635c-.076.076-.152.152-.438.24-.275.064-.43-.046-.559-.194a.747.747 0 0 1 .12.05c.118.059.232.115.633-.011l.322-.157c-.03.024-.054.048-.078.072Zm-3.558 1.51c-.051-.018-.5-.076-.5-.062-.172.122-.198.24-.194.341l.022-.021c.264-.26.265-.261.672-.259Zm0 0Zm-.023-2.044c.006-.03-.317.016-.317.016.424-.273.707-.348 1.197-.22-.066.016-.13.033-.195.055.026.008.123.354.047.365-.021.003.321.098.321.098a6.39 6.39 0 0 1-.275.012c-.312.011-.619.022-.913.17l.178-.146c.002.002.003.001.004-.003l-.004.003a.884.884 0 0 1-.043-.35Z" clip-rule="evenodd"/><path d="m3.863 1.662-.04-.04.04.04Zm.58-.512.03-.048-.031-.02-.03.02.03.048Zm-.899.868-.043-.037.043.037Zm-.571.571-.034-.046-.004.003.038.043Zm-.496.166.003.057-.003-.057Zm-.072.005L2.4 2.704l.005.056Zm-.32-.006-.027.05.01.005.01.001.007-.056Zm-.523.167-.044-.037-.003.004.047.033Zm-.517 1.09L.99 3.993v.003l.055.013Zm.802 1.994-.041.04.001.001.04-.04Zm.868 1.085-.052.024.002.003.05-.027Zm.216.516.054-.02-.054.02Zm0 0-.054.019.054-.02Zm.13.33-.053.023.001.003.051-.026Zm.008.017.05-.026-.05.026Zm.128.083-.012.056.012-.056Zm.544.055.003-.057-.003.057Zm.283.019-.005.057h.004V8.11Zm.448-.02.006.057h.005l-.01-.057Zm.107-.02-.01-.056.01.057Zm0 0 .01.057-.01-.056Zm.584-.136-.014-.055-.005.001.019.054Zm.567-.19.055.017.032-.112-.108.042.02.053Zm-.114.118.034.045-.034-.045Zm-.13.121.048.033v-.002l-.047-.03Zm-.635 2.63-.034.046.1.073-.01-.123-.056.004Zm-.003-.002.033-.046-.057-.042-.029.065.053.023Zm0 0-.053-.023-.007.018.004.018.056-.013Zm.004.019.058-.005-.002-.009-.056.014Zm.005.054-.057.005v.002l.057-.007Zm.35 1.418.053-.02-.053.02Zm.418.805-.047.033.047-.033Zm.138.181-.005.057.137.013-.088-.106-.044.036Zm0 0 .005-.057-.191-.018.15.12.036-.045Zm.001.001.045-.037-.01-.007-.035.044Zm2.975 1.743-.012.056h.004l.008-.056Zm.853-.058.015.055h.002l-.017-.055Zm2.29-.77.02.055-.025-.111.005.057Zm-1.988.052-.009.056h.004l.005-.056Zm-.064-.01-.008.057.008-.056Zm-.34-.119-.046.035.006.006.04-.041Zm-.04-.146v-.058.057Zm.096-.021-.014-.056.014.056Zm0 0 .014.055-.014-.055Zm.354-.067.005.057.001-.114-.006.057Zm-.54-.144.053-.02-.053.02Zm-.002-.003.053-.022-.053.022Zm-.238-.516.004-.057-.104-.009.05.093.05-.027Zm.891-.127.041.04.111-.115-.158.018.006.057Zm-.555.003-.006.057.006-.057Zm-.282-.08-.02.053.02-.053Zm-.126-.042.016-.055-.016.055Zm-.11-.047-.052.02.003.008.004.006.046-.034Zm-.045-.105-.052.024.052-.024Zm-.071-.172.053-.019-.053.02Zm-.08-.507.057-.003-.057.003Zm-.005-.067.045-.036-.113-.139.012.178.056-.003Zm.675.476-.017.055.047.015.021-.045-.051-.025Zm.036.011.021-.053h-.002l-.019.053Zm0 0-.021.053.002.001.019-.054Zm.605.063-.018-.054.018.054Zm.055-.018h.057v-.078l-.074.024.017.054Zm-.242-.016.025-.051-.003-.002-.022.053Zm-.673-.48-.045.033.045-.034Zm-.042-.055-.048.031.005.006.043-.037Zm-.236-.353-.05-.025-.016.03.019.027.047-.032Zm.207-.15.006-.056h-.007l.001.057Zm.11.013-.007.057.007-.057Zm.476.002.052-.025-.02-.041-.045.01.013.056Zm.077.18.053-.021-.053.02Zm0 0-.053.02.053-.02Zm.341.484-.03.047.006.005.008.002.017-.054Zm1.278-.344-.046-.033.046.033Zm.028-.04.034-.046-.047-.034-.034.047.047.033Zm2.419.008.037.045.006-.007-.043-.037Zm1.136-2.854-.05.03.007.007.043-.037Zm-.397-.37-.012-.056-.003.001.015.055Zm-.421.164-.024-.052.024.052Zm-.674.144-.003-.057-.004.114.007-.057Zm.055-.002-.002-.057.002.057Zm.092-.007.057.007v-.002l-.056-.005Zm-.02-.61-.052.023.002.003.05-.026Zm-.344-.677-.051.026v.001l.05-.027Zm0 0 .05-.025v-.002l-.05.027Zm-.106-.197.05-.027-.002-.005-.048.032Zm-.04-.103.053-.02-.054.02Zm-.251-.481.038-.042-.001-.001-.037.043Zm-.24-.216.039-.042-.086-.078-.01.115.057.005Zm-.014.166-.057-.005-.005.054.053.008.009-.057Zm.091.113-.055.014.056-.014Zm.317.775v.057h.09l-.039-.081-.051.024Zm-.216 0v-.057l-.014.113.014-.056Zm.247.065.051-.025-.011-.023-.025-.007-.015.055Zm.273.518.048-.03-.004-.006-.044.036Zm.09.473h-.058.057Zm0 .1.025.05.032-.015v-.036h-.057Zm-.063.031-.056.003.004.087.078-.039-.025-.05Zm-.386-.197v.057-.057Zm-.041 0-.014.057h.014v-.057Zm-.157-.038.014-.056-.214-.052.161.15.04-.042Zm.068.033.019-.054-.02.054Zm.068.102.027.05.013-.007.008-.012-.048-.03Zm-.087.187.055.015-.055-.015Zm-.015.051.003.057.04-.002.012-.039-.055-.016Zm-.085.004-.002-.057-.018.11.02-.053Zm.13.05-.02.054.02-.053Zm.323.128-.022.055.014.002.008-.057Zm.082.013.053.021.027-.067-.071-.01-.009.056Zm-.083.208-.021.053.053.021.021-.053-.053-.021Zm-.112-.046-.057.003.002.037.033.013.022-.053Zm-.004-.078.057-.003-.002-.037-.034-.013-.021.053Zm-.595-.097.04.041.004-.004-.043-.037Zm-.294.377-.047-.032.047.032Zm0 0 .047.032-.047-.032Zm0 0-.047-.032.047.032Zm-.06.09-.048-.033.082.078-.035-.045Zm.133-.122-.038-.042-.002.002.04.04Zm0 0 .038.043.002-.002-.04-.04Zm.34-.226-.006-.057-.007.002.013.055Zm.2.033.012-.055h-.002l-.01.055Zm0 0-.012.056h.002l.01-.056Zm0 0 .01-.056-.01.056Zm.131.024.012.056-.002-.112-.01.056Zm-.078.012.008.057-.008-.057Zm-.126.033.044.036.002-.003-.046-.033Zm-.28.431.048.032.002-.003-.05-.029Zm0 0-.047-.032-.002.003.05.029Zm-.126.213-.048-.03.089.07-.041-.04Zm.157-.192.046.034.001-.003-.047-.031Zm0 0-.046-.034-.002.002.048.032Zm.401-.382.029.049.002-.002-.031-.047Zm.313.033.055.016.012-.046-.042-.02-.025.05Zm-.108.26-.051-.025.051.025Zm-.044.095-.052-.024v.001l.052.023Zm-.22.355.046.033-.046-.033Zm-.118.17-.048-.03.091.066-.043-.036Zm.31-.355.041.04-.04-.04Zm0 0-.04-.04.04.04Zm.18-.196.043.037.006-.007.004-.008-.053-.022Zm.29-.74-.028-.05-.019.01-.007.02.053.02Zm.018-.01.028-.05-.027-.015-.027.014.027.05Zm.187.005V8.87h-.001l.001.057Zm0 0v.057h.002l-.002-.057Zm.276.001-.003.057h.008l.008-.001-.013-.056Zm.307-.131-.031-.048.031.048Zm.287-.104.005.057-.005-.057Zm.207.37-.057-.006.057.005Zm-.339 1.268.051.026.002-.003-.053-.023Zm-1.412 1.484-.008-.056h-.002l.01.056Zm-1.325-.292.028-.05-.028.05Zm-.196-.107.026-.05-.034-.018-.029.025.037.043Zm-.153.13-.037-.043-.003.004.04.04Zm-1.39-.204.055-.02-.003-.004-.051.024Zm0 0-.003-.057-.084.006.036.076.052-.025Zm.002 0 .003.057.089-.006-.042-.078-.05.027Zm-.008-.014-.051.025v.002l.051-.027Zm-.043-.082-.05.026v.002l.05-.028Zm-.033-.065-.051.026.05-.026Zm0 0 .05-.025-.05.025Zm-.207-.367.048-.031-.005-.008-.007-.005-.036.044Zm-.23-1.506.05.029-.05-.029Zm.018-.03.05.03.037-.066-.073-.018-.014.055ZM8.35 8.63l-.057.008.001.007.056-.015Zm.064-1.815.056.013.022-.088-.09.019.012.056Zm-.058.012-.011-.056-.007.002.018.054Zm0 0 .01.056.008-.002-.018-.054Zm0 0-.01-.056h-.001l.011.056Zm-1.738.44-.056.009.01.066.064-.02-.018-.055Zm0-.005.056-.008-.01-.06-.06.013.013.055Zm-.886.329.017.056.01-.006-.027-.05Zm-.365.111-.017-.054.017.054Zm0 0 .017.055h.001L5.368 7.7Zm-.753.217.007.057.007-.001-.014-.056Zm-.44 0-.007.056.008-.056Zm-.617-.024v.057-.057Zm0 0v-.057.057Zm-.311-.015-.048.034.009.008.039-.042Zm-.26-.61-.053.016.054-.017Zm-.23-.56.048-.032-.003-.003-.044.035Zm-.002-.002L2.8 6.67l-.003-.003-.042.038Zm-.002-.003-.046.034.003.004.043-.038Zm-.341-.373-.04.04.04-.04Zm-.054-.053-.04.04.04-.04ZM1.334 4.824l-.056.011v.002l.056-.013Zm-.021-.087.055-.014-.055.014Zm-.044-.647-.056-.02-.001.015.057.005Zm0-.002.054.019v-.001l-.054-.018Zm.001-.002.054.018V4.1l-.054-.015Zm.634-1.07V2.96H1.88l-.017.017.041.04Zm.933.063-.01.056h.001l.01-.056Zm.047.007-.01.057h.001l.009-.057Zm.578.141-.02.053.02-.053Zm1.51.64-.024.052.051-.102-.027.05Zm-.442-.249.028-.05-.028.05ZM3.15 2.96l.012-.055-.004-.001-.007.056Zm-.129-.094-.029-.05-.041.025.017.045.053-.02Zm.848-.814.046.034-.046-.034Zm0 0-.046-.034.046.034Zm.412-.487-.022-.052-.01.004-.007.007.04.041Zm.084-.037-.023-.052.023.052Zm0 0 .023.052-.023-.052Zm.377-.117.01-.057h-.016l.006.057Zm3.145 1.17.028-.05-.028.05Zm0 0-.027.049.027-.05Zm.297.16.027-.05-.027.05Zm.428.222-.026.051.026-.05Zm0 0 .025-.05-.025.05Zm.48.253-.029.05.011.004.018-.054Zm1.22.954.052-.025-.007-.008-.046.033Zm.534 1.472.056-.012-.001-.005-.055.017Zm.2.702-.051.024.107-.036-.056.012Zm-.075-.493.02-.053-.063-.024-.013.066.056.011Zm.408.094.006.056.185-.021-.165-.086-.026.05Zm-.465-.4.055-.016-.055.015Zm-.247-1.016.056-.013-.001-.004-.055.017Zm0 0-.056.012.001.004.055-.016Zm-.146-.575-.045.036.003.004.042-.04Zm-1.019-.78-.028.049.028-.05Zm-.201-.152-.04-.04-.021.02.004.03.057-.01Zm.064-.066.041.04-.04-.04Zm0 0-.04-.04.04.04Zm.295-.278.035.045-.035-.045Zm.064-.05.036.044.002-.001-.038-.043Zm0 0-.035-.045-.002.002.037.043Zm.314-.196.02.054.004-.002-.024-.052Zm1.015 0-.022.053.022-.053Zm.18.033.04.042.04-.038-.037-.041-.042.037Zm-.083-.144.027-.05-.005-.003-.022.053Zm.181.059-.015.055.015-.055Zm.135.045-.039.042.004.002.035-.044Zm1.325 1.699.05-.026-.05.026Zm.09.54.056.01-.055-.01Zm-.128.503.053.023.001-.005-.054-.018Zm-.294.89.057.007v-.008h-.057Zm.164.858-.052.024.109-.023h-.057Zm-.001-.125-.057.002.057-.002Zm.005-.166.056.007V6.63l-.056-.005Zm.014-.165.057.004v-.008l-.001-.008-.056.012Zm-.008-.062-.056-.005.056.005Zm.031-.186.056.012-.056-.012Zm0 0-.056-.011.056.011Zm.017-.09-.057-.01v.003l.057.007Zm.34-1.187.053.02-.053-.02Zm.038-.106-.052-.023-.001.003.053.02Zm.052-.101-.048-.032-.002.004.05.028Zm0 0 .047.031.003-.003-.05-.028Zm.054-.155h-.057v.003l.057-.003Zm-.153-.403.05-.026-.05.026Zm-.074-.14-.051.024.05-.025Zm-.366-.65.048-.031v-.001l-.048.032Zm-1.186-1.135.024-.052h-.001l-.023.052Zm-.955-.093-.01-.056h-.002l.012.056Zm-.637.213.03.048-.03-.048Zm-.379.31.038.043.001-.001-.039-.042Zm0 0-.037-.043-.004.004.041.039Zm0 0 .04.042.002-.003-.042-.04Zm-.352.288-.025.051.029.015.027-.018-.03-.048Zm-.814-.475.033-.047-.033.047Zm0 0-.032.047.032-.047Zm-.051-.034.028-.05h-.001l-.027.05ZM7.055 1.88l-.039.042.007.006.009.004.023-.052Zm-2.612-.73-.03.048.012.007.013.001.005-.057Zm.812 10.855.03-.049-.152-.09.07.162.052-.023Zm.55 1.025-.043.038.002.002.04-.04Zm2.84.021.05-.028-.017-.03-.034.001.001.057Zm.37.585.01.057.088-.014-.05-.074-.047.031ZM5.874 13.1l-.04.04.006.007.008.004.026-.051Zm2.547-.67-.012.056.042.008.02-.037-.05-.027Zm-3.082-1.412-.037.042.037-.042Zm3.085 1.407.05.026.007-.013v-.014h-.057Zm.114-.645.053.022-.053-.022Zm.005-.01.053.02.028-.069-.074-.008-.007.056ZM4.989 9.274l.054-.02-.068-.184-.041.192.055.012Zm-.041 1.41-.057.008.003.023.019.015.035-.045Zm3.718.78-.026.05.055.028.023-.057-.052-.021Zm.094-.22.052.025.024-.05-.05-.026-.026.051Zm-1.837-.885.033-.046-.033.046Zm-.013-.01-.034.046.034-.046ZM5.653 7.938l-.044-.036-.016.02.003.025.057-.009Zm.07-.063.023.054.01-.007-.032-.047Zm.928-.397.055-.015-.014-.053-.054.012.013.056Zm1.476 3.174-.05.03.005.005.045-.035Zm.093.12.045-.034-.045.034Zm0 0 .046-.034-.046.035Zm0 0-.045.035.045-.034Zm1.052 3.253L9.323 14l-.024-.05-.05.023.023.052Zm-1.617.246v.057-.057Zm1.757-.038-.045.036.045-.036Zm.02.026-.053.025.007.01.045-.035Zm-.864.461.01-.056-.01.056Zm-1.204-.446v-.057l-.208.004.18.102.028-.05Zm3.306-3.677.047-.032-.077-.116-.026.137.056.01Zm.813.819.037.043.053-.045-.055-.043-.035.045Zm-1.18-.14-.044-.034.044.035Zm-.09.118-.046-.034-.002.004.048.03Zm.11.365-.046.033.046-.033Zm.322.068.003.057.156-.008-.125-.095-.034.046Zm-.109-.076-.031.048.031-.048Zm-.204-.179.032-.047-.144-.098.058.164.054-.019Zm.55.153-.007-.057.007.057Zm.122-.107.049.03.002-.006-.051-.024Zm.184-.236.034.046-.034-.046Zm.007-.005.044-.035-.034-.043-.044.032.034.046Zm.135.17-.044.035.036.046.045-.038-.037-.043Zm-.084-8.614.005-.056-.167-.016.123.114.04-.042Zm0 0 .049-.032-.01-.01-.039.042Zm.838 1.958-.054.018.111-.023-.057.005Zm-.302-.92.053-.021v-.001l-.053.022Zm-.368-.546-.05.03.002.002.048-.032Zm-.164-.471.054-.019-.11.03.056-.011ZM9.94 6.135l-.034.045.087-.068-.052.023Zm-.285-.391-.05.029.05-.03Zm.108-.068.054-.019-.054.02Zm-.612-1.123.038-.043-.009-.008-.011-.004-.018.055Zm-1.533-.147-.001.057v-.057Zm0 0V4.35v.057Zm-.5-.01.001-.056-.016.112.014-.055Zm.754.132.008-.057-.008.057Zm1.21.302.054-.015-.005-.021-.02-.012-.03.048Zm-.039.053-.007.057.016.002.016-.007-.025-.052Zm-.068-.01.01-.057-.01.057Zm-.264-.008-.013-.055h-.004l.017.055Zm-.328.156.026.05h.001l-.027-.05Zm0 0-.027-.05h-.001l.028.05Zm0 0 .026.05h.001l-.027-.05Zm0 0-.027-.05h-.001l.028.05Zm0 0-.028-.05.028.05Zm0 0-.028-.05.028.05Zm-.152.081-.025-.05.037.106-.012-.056Zm.627.003-.01.056.01-.056Zm.27.04.02-.052-.007-.003-.008-.001-.005.057Zm2.369 2.14h.057v-.05l-.05-.006-.007.056Zm-.692.019-.013-.056-.02.005-.013.017.046.034Zm.692-.019.008.057.049-.007v-.05h-.057Zm-.833.39-.054-.02.096.057-.042-.038Zm.03-.108.056.014-.056-.014Zm3.842 1.372-.04-.04.04.04Zm0 0 .04.04-.04-.04Zm-.438.24.013.055.003-.001-.016-.055Zm-.559-.194.016-.054-.186-.054.127.146.043-.038Zm.12.05-.025.051.025-.05Zm.633-.011.017.054.008-.003-.025-.051Zm.322-.157.036.044-.06-.096.024.052Zm-4.136 1.52.033.046.024-.017v-.03h-.057Zm-.194.341-.057.002.004.13.092-.091-.04-.04Zm.022-.021.04.04-.04-.04Zm.672-.259.007.057-.007-.114v.057Zm0 0-.014.056.01.002.01-.001-.006-.057Zm-.34-2.027-.008-.056-.01.002-.009.004.027.05Zm.317-.016.056.011-.056-.011Zm-.317.016-.031-.047.057.098-.026-.05Zm1.197-.22.014.055v-.11l-.014.055Zm-.195.055-.018-.054-.173.059.175.05.016-.055Zm.047.365-.008-.056.008.056Zm.321.098.004.056.011-.111-.015.055Zm-.275.012.002.057-.002-.057Zm-.913.17-.036-.044.061.095-.025-.051Zm.18-.149.057.01.027-.151-.12.097.037.044Zm-7.097-7.05c.2-.206.383-.382.57-.504l-.062-.096c-.2.13-.39.315-.59.52l.082.08Zm-.317.353c.1-.115.202-.234.317-.353l-.082-.08c-.118.123-.222.244-.321.359l.086.074Zm-.58.58c.225-.165.398-.368.58-.58L3.5 1.981c-.183.213-.35.406-.562.562l.067.092Zm-.527.177c.25-.014.452-.112.53-.18l-.075-.086a.87.87 0 0 1-.461.152l.006.114Zm-.07.005.07-.005-.006-.114-.074.006.01.113Zm-.332-.007c.165.02.25.014.332.007l-.01-.113c-.078.006-.153.012-.308-.007l-.014.113Zm-.473.147a.543.543 0 0 1 .231-.178.268.268 0 0 1 .222.025l.054-.1A.381.381 0 0 0 1.8 2.67a.653.653 0 0 0-.282.214l.087.073ZM1.1 4.027a4.73 4.73 0 0 1 .51-1.074l-.094-.065A4.852 4.852 0 0 0 .99 3.994l.11.033Zm.79 1.939C1.396 5.45.906 4.803 1.1 4.024l-.11-.027c-.21.843.325 1.533.816 2.048l.082-.08Zm.878 1.1c-.184-.402-.444-.675-.88-1.102l-.08.082c.437.427.682.687.856 1.068l.104-.048Zm.217.52c-.065-.176-.135-.367-.219-.523l-.1.054c.079.148.146.33.212.508l.107-.04Zm0 0-.107.038.108-.037Zm.128.327a5.613 5.613 0 0 1-.128-.327l-.107.04c.044.117.087.234.131.333l.104-.046Zm.008.014L3.11 7.91l-.102.052.009.016.102-.05Zm.09.054a.975.975 0 0 1-.07-.02c-.002 0-.003.001-.02-.034l-.102.051c.013.026.027.058.058.079.016.01.032.016.048.02l.06.015.025-.111Zm.534.053a3.786 3.786 0 0 1-.535-.053l-.024.111c.16.034.358.045.553.056l.006-.114Zm.285.019c-.093-.008-.19-.013-.285-.019l-.006.114c.095.005.19.01.281.018l.01-.113Zm.437-.02a3.96 3.96 0 0 1-.441.02l-.002.114c.124.001.294-.003.455-.02l-.012-.113Zm.102-.018-.106.02.02.111.107-.02-.02-.111Zm0 0 .02.112-.02-.113Zm.576-.135a4.058 4.058 0 0 1-.576.135l.02.112c.192-.035.408-.075.594-.139l-.038-.108Zm.565-.189a4.412 4.412 0 0 1-.56.188l.028.11a4.52 4.52 0 0 0 .574-.191l-.042-.107Zm-.059.216c.026-.02.055-.041.078-.063a.197.197 0 0 0 .057-.083l-.11-.033c-.001.005-.007.015-.026.033a.89.89 0 0 1-.068.056l.07.09Zm-.115.107a.507.507 0 0 1 .115-.107l-.069-.09c-.046.035-.107.08-.142.136l.096.061Zm-.627 2.595c-.044-.552-.025-1.002.073-1.413.098-.41.275-.783.552-1.18l-.093-.065a3.507 3.507 0 0 0-.57 1.219c-.101.426-.12.889-.076 1.447l.114-.009Zm-.094.048.003.002.067-.092-.003-.002-.067.092Zm.086-.024-.105-.045.105.046Zm.008-.017-.005-.018-.11.026.004.019.11-.027Zm.005.064-.004-.055-.114.01.005.054.114-.01Zm.347 1.402a5.74 5.74 0 0 1-.347-1.404l-.113.013c.057.516.176.943.353 1.43l.107-.039Zm.411.792a3.913 3.913 0 0 1-.41-.792l-.108.04c.083.225.257.58.425.818l.093-.066Zm.136.178c-.05-.06-.095-.12-.136-.178l-.093.066c.043.06.09.122.141.184l.088-.072Zm-.05.093.012-.114-.012.114Zm.043-.1-.002-.002-.07.09.072-.088Zm2.952 1.732c-1.383-.31-2.41-1.074-2.944-1.724l-.088.072c.55.67 1.598 1.447 3.007 1.763l.025-.111Zm.826-.058a2.167 2.167 0 0 1-.831.057l-.016.113c.275.037.585.017.876-.06l-.03-.11Zm2.304-.714-.019-.054-.004.002-.013.004a24.712 24.712 0 0 0-.234.082l-.61.21c-.479.164-1.05.356-1.426.47l.033.11c.378-.115.951-.308 1.43-.472.239-.081.454-.156.61-.21l.185-.065.05-.017.013-.005a.047.047 0 0 0 .004-.001l-.019-.054Zm-1.993.107c.317.032.818.019 1.236-.002a26.692 26.692 0 0 0 .702-.044l.044-.003a7.304 7.304 0 0 1 .015-.001l-.004-.057-.005-.057h-.003l-.012.001-.044.004-.163.012c-.137.01-.326.021-.535.031-.42.021-.913.034-1.22.003l-.011.114Zm-.067-.009.063.01.018-.114-.065-.009-.016.113Zm-.372-.135c.102.1.251.118.372.135l.016-.113c-.13-.018-.239-.035-.309-.104l-.08.082Zm0-.245a.069.069 0 0 0-.059.034.083.083 0 0 0-.01.046c0 .021.008.045.015.063a.52.52 0 0 0 .048.096l.09-.07-.003-.006a.317.317 0 0 1-.036-.087.036.036 0 0 1 0 .003.039.039 0 0 1-.005.013.045.045 0 0 1-.037.022l-.004-.114Zm.082-.018-.056.014a.17.17 0 0 1-.027.005l.004.113a.265.265 0 0 0 .049-.007l.059-.015-.03-.11Zm0 0 .028.11-.028-.11Zm.363-.069c-.16.015-.283.047-.363.069l.029.11c.08-.021.195-.052.344-.065l-.01-.114Zm-.588-.065c.008.02.018.047.04.07a.19.19 0 0 0 .092.049c.073.019.206.033.455.06l.012-.114a4.1 4.1 0 0 1-.437-.057c-.03-.008-.037-.014-.04-.017a.124.124 0 0 1-.016-.034l-.106.043Zm-.002-.004.002.004.106-.043-.002-.004-.106.043Zm-.236-.51c.09.17.179.367.236.51l.106-.043a5.861 5.861 0 0 0-.241-.52l-.1.053Zm.901-.194a.349.349 0 0 1-.154.081c-.068.02-.15.032-.234.038a3.14 3.14 0 0 1-.458-.009l-.01.114c.114.01.298.021.476.009.09-.007.179-.02.258-.043a.459.459 0 0 0 .204-.11l-.082-.08Zm-.52.1a2.484 2.484 0 0 0 .516.001l.038-.003.01-.001h.003l-.006-.057-.006-.057h-.003l-.01.001-.036.004a2.38 2.38 0 0 1-.493-.001l-.013.113Zm-.295-.083c.043.015.199.071.295.083l.013-.113c-.08-.01-.222-.06-.27-.077l-.038.107Zm-.124-.042c.037.011.078.024.123.041l.041-.106c-.049-.02-.094-.033-.13-.044l-.034.11Zm-.138-.067a.145.145 0 0 0 .064.042.708.708 0 0 0 .074.025l.033-.109c-.028-.009-.05-.015-.065-.021a.114.114 0 0 1-.016-.008c-.003-.002-.001-.001.001.002l-.09.069Zm-.052-.115c.015.031.029.06.045.101l.106-.041a1.663 1.663 0 0 0-.048-.108l-.103.048Zm-.073-.177c.03.084.052.132.073.177l.103-.049a1.597 1.597 0 0 1-.069-.166l-.107.038Zm-.083-.522c.01.166.021.352.083.523l.107-.04a1.77 1.77 0 0 1-.076-.49l-.114.007Zm-.004-.068.004.068.114-.008-.005-.067-.113.007Zm.748.419a1.35 1.35 0 0 1-.647-.458l-.089.072c.176.216.401.4.702.495l.034-.109Zm.038.011a.806.806 0 0 0-.04-.012.065.065 0 0 0-.032 0 .057.057 0 0 0-.034.031l.102.049a.056.056 0 0 1-.06.031h.002a.57.57 0 0 1 .024.01l.038-.109Zm.002.001-.042.106.042-.106Zm.566.062a.676.676 0 0 1-.32.006 1.614 1.614 0 0 1-.248-.069l-.038.108c.05.017.15.052.266.073a.79.79 0 0 0 .375-.01l-.035-.108Zm.05-.016-.05.016.035.109.05-.017-.034-.108Zm-.034.052a.056.056 0 0 1 .027-.048l.011-.005.005-.001.019.112a.079.079 0 0 0 .024-.009.057.057 0 0 0 .028-.049h-.114Zm.07.056.005-.001-.035-.109-.005.002.035.108Zm-.28-.021a.26.26 0 0 0 .074.02.74.74 0 0 0 .198.002l-.02-.111a.663.663 0 0 1-.161-.003.16.16 0 0 1-.041-.01l-.05.102Zm-.693-.498c.042.056.098.132.204.219.105.086.258.18.491.28l.045-.105a1.901 1.901 0 0 1-.464-.264.982.982 0 0 1-.185-.198l-.091.068Zm-.04-.05a.87.87 0 0 1 .04.05l.091-.068a.902.902 0 0 0-.046-.058l-.085.075Zm-.24-.36.235.353.095-.063-.235-.353-.095.064Zm.253-.237a.258.258 0 0 0-.141.03.355.355 0 0 0-.116.15l.102.052c.035-.07.058-.095.074-.105.016-.01.034-.013.083-.013l-.002-.114Zm.117.013-.11-.013-.012.113.11.013.012-.113Zm.457.002c-.14.034-.243.023-.457-.002l-.013.113c.211.024.335.04.497 0l-.027-.11Zm.143.214c-.024-.059-.048-.12-.078-.183l-.103.05c.028.058.051.116.075.175l.106-.042Zm0 0-.106.042.106-.041Zm.32.458c-.186-.122-.249-.277-.32-.458l-.106.042c.071.18.145.367.363.511l.063-.095Zm1.2-.33c-.105.149-.202.285-.372.359-.169.073-.421.09-.843-.036l-.033.11c.434.128.718.119.922.03.203-.088.316-.251.419-.397l-.093-.065Zm.027-.039-.027.04.093.066.027-.04-.092-.066Zm2.43-.002c-.703.588-1.72.45-2.35-.01l-.067.091c.659.483 1.736.637 2.49.006l-.074-.087Zm1.129-2.774c-.005-.005-.006-.01-.005-.007l.002.013a.424.424 0 0 1 .002.062c-.002.054-.01.13-.025.222-.03.186-.087.436-.176.718-.177.564-.479 1.245-.934 1.772l.086.075c.47-.543.777-1.241.957-1.813.09-.286.148-.542.18-.734.015-.095.023-.176.025-.236a.542.542 0 0 0-.008-.112.094.094 0 0 0-.018-.034l-.086.074ZM14.6 8.5c.016-.004.036-.001.063.013a.368.368 0 0 1 .089.072c.064.066.128.161.185.258l.098-.058a1.563 1.563 0 0 0-.201-.28.48.48 0 0 0-.118-.093.205.205 0 0 0-.14-.024l.024.112Zm-.408.16c.12-.057.247-.116.412-.161l-.03-.11c-.176.048-.31.11-.43.167l.048.103Zm-.705.149c.308.036.496-.052.705-.15l-.048-.103c-.207.096-.37.172-.643.14l-.014.113Zm.06-.116-.056.002.006.114.054-.002-.004-.114Zm.038.042a.056.056 0 0 1 .038-.046h.002l-.016.001a2.607 2.607 0 0 1-.062.003l.004.114.065-.003a.349.349 0 0 0 .04-.005.064.064 0 0 0 .013-.006c.003-.002.025-.014.029-.043l-.113-.015Zm-.014-.576.003.009a.982.982 0 0 1 .02.14c.007.096.008.237-.01.43l.114.01a2.79 2.79 0 0 0 .01-.448 1.102 1.102 0 0 0-.015-.124.276.276 0 0 0-.021-.07l-.1.053Zm-.344-.676c.111.208.24.445.343.673l.103-.047a11.04 11.04 0 0 0-.346-.68l-.1.054Zm-.001-.001.102-.051-.102.05Zm-.105-.197c.032.062.068.128.106.198l.1-.054-.105-.197-.101.053Zm-.044-.11.024.067a.282.282 0 0 0 .022.048l.096-.063-.003-.006a.577.577 0 0 1-.009-.02l-.023-.064-.107.038Zm-.236-.458a.71.71 0 0 1 .138.212c.04.087.073.177.098.246l.107-.038a2.906 2.906 0 0 0-.102-.256.818.818 0 0 0-.164-.248l-.077.084Zm-.2-.258-.04.042h.001l.002.002.005.005a15.017 15.017 0 0 0 .234.21l.074-.086a7.898 7.898 0 0 1-.21-.19c-.01-.007-.016-.014-.02-.018l-.006-.005-.002-.001-.039.041Zm.042.171.014-.166-.114-.01-.014.166.114.01Zm.09.095a.221.221 0 0 0-.076-.127.159.159 0 0 0-.06-.028h-.002l-.01.055-.008.057h-.002.001c.002 0 .006.002.011.006.01.007.025.024.035.064l.11-.027Zm.312.764c-.134-.278-.268-.583-.312-.764l-.11.027c.047.194.186.51.32.786l.102-.05Zm-.267.081h.216v-.114h-.216v.114Zm.262-.047-.247-.065-.03.11.248.065.029-.11Zm.302.537-.007-.01a12.344 12.344 0 0 1-.259-.497l-.102.05a12.528 12.528 0 0 0 .263.505l.016.024.089-.072Zm.103.51c0-.152.003-.338-.099-.504l-.097.06c.083.134.083.286.082.443h.114Zm0 .098V8.57l-.115-.001v.101l.115-.002Zm-.094.083.062-.031-.05-.102-.063.031.051.102Zm-.412-.191c.094 0 .177.001.24.022.029.01.05.024.063.04a.131.131 0 0 1 .027.08l.113-.005a.244.244 0 0 0-.051-.146.249.249 0 0 0-.116-.077c-.083-.028-.188-.028-.275-.028v.114Zm-.041 0h.041v-.114h-.04l-.001.114Zm-.17-.04.156.038.027-.11-.156-.039-.027.11Zm.1-.076a.465.465 0 0 1-.048-.021l-.078.083a.17.17 0 0 0 .046.029l.042.016.038-.107Zm.097.187a.131.131 0 0 0 .023-.072.097.097 0 0 0-.03-.067.16.16 0 0 0-.046-.031c-.015-.007-.031-.012-.044-.017l-.038.107a.439.439 0 0 1 .044.019c.002 0 .002.001.003.002 0 0-.003-.005-.003-.01s.001-.003-.006.008l.097.06Zm-.08.171a1.06 1.06 0 0 1 .034-.11.177.177 0 0 1 .017-.032.035.035 0 0 1 .008-.01l-.054-.1c-.04.021-.063.065-.076.1-.016.037-.028.082-.04.122l.11.03Zm-.015.052a2.17 2.17 0 0 0 .014-.052l-.11-.03-.014.05.11.032Zm-.137.045.085-.004-.006-.114-.084.004.005.114Zm.148-.06-.13-.05-.041.106c.044.018.087.034.13.05l.041-.106Zm.324.129c-.117-.049-.22-.089-.324-.129l-.04.107c.103.04.205.08.32.127l.044-.105Zm.069.009-.082-.013-.017.113.082.012.017-.112Zm-.039.285.083-.208-.106-.042-.083.208.106.042Zm-.187-.014.113.046.042-.106-.112-.046-.043.106Zm-.04-.129.005.08.114-.007-.004-.078-.114.005Zm-.493-.062c-.01.011-.02.015-.022.015l-.004.002c-.001 0 0 0 0 0h.051c.04.002.093.007.153.015a1.7 1.7 0 0 1 .353.08l.042-.105a1.744 1.744 0 0 0-.38-.088 2.095 2.095 0 0 0-.216-.016.172.172 0 0 0-.037.005.063.063 0 0 0-.026.018l.087.074Zm-.29.372c.09-.133.176-.26.286-.368l-.08-.082c-.12.118-.212.255-.3.386l.093.064Zm0 0-.095-.064.094.064Zm0 0-.095-.064.094.065Zm-.062.09.061-.09-.094-.064-.06.09.093.064Zm.047-.194a1.59 1.59 0 0 1-.129.117l.07.09c.05-.04.096-.084.139-.126l-.08-.081Zm.002-.002.076.085-.076-.085Zm.365-.24c-.16.039-.27.148-.367.242l.08.081c.1-.097.188-.182.313-.212l-.026-.11Zm.223.033-.132-.023a1.998 1.998 0 0 0-.064-.01c-.003 0-.012-.002-.02 0l.012.113h-.004a1.872 1.872 0 0 1 .057.009l.13.023.021-.112Zm.002 0-.024.112.024-.111Zm-.002 0-.02.112.02-.112Zm.131.024a13.449 13.449 0 0 1-.13-.024l-.021.112.132.024.02-.112Zm-.08.125c.027-.004.057-.008.082-.013l-.023-.112-.074.012.015.113Zm-.088.009c-.006.01-.013.01-.008.008a1.036 1.036 0 0 1 .096-.018l-.015-.112c-.028.003-.06.008-.085.013a.242.242 0 0 0-.039.012.094.094 0 0 0-.042.03l.093.067Zm-.276.427a3.34 3.34 0 0 1 .274-.425l-.088-.071c-.11.135-.198.29-.285.438l.099.058Zm-.002.003-.095-.064.095.064Zm-.126.211c.044-.07.086-.143.128-.214l-.099-.058a7.368 7.368 0 0 1-.125.212l.096.06Zm.063-.256a1.741 1.741 0 0 1-.152.186l.082.08c.065-.067.114-.134.162-.198l-.092-.068Zm-.002.002.095.063-.095-.063Zm.42-.4c-.22.13-.322.267-.418.398l.092.068a1.18 1.18 0 0 1 .384-.367l-.058-.098Zm.367.032a.73.73 0 0 0-.331-.044.104.104 0 0 0-.038.014l.062.095c-.007.005-.011.005-.004.003a.616.616 0 0 1 .26.034l.051-.102Zm-.081.335c.042-.089.087-.184.11-.268l-.11-.031a1.75 1.75 0 0 1-.103.25l.103.049Zm-.044.094.044-.094-.103-.049-.045.096.104.047Zm-.226.365c.083-.115.171-.236.226-.366l-.105-.045a1.855 1.855 0 0 1-.213.345l.092.066Zm-.117.168c.037-.056.076-.11.117-.168l-.092-.066c-.04.056-.082.114-.12.172l.095.062Zm.224-.426c-.056.055-.11.11-.316.36l.088.071c.204-.248.256-.299.308-.35l-.08-.081Zm0 0 .08.08-.08-.08Zm.176-.193c-.1.116-.138.155-.176.193l.08.08c.04-.04.081-.08.182-.199l-.086-.074Zm.279-.723c-.091.25-.19.504-.288.738l.105.044c.1-.236.198-.49.29-.743l-.107-.039Zm.046-.04-.02.01.054.1.02-.01-.054-.1Zm.212-.002a3.364 3.364 0 0 1-.156 0c-.01 0-.009-.002-.002.001l-.055.1c.016.009.034.011.045.013l.047.002c.034 0 .077 0 .124-.002l-.003-.114Zm.001 0v.114-.114Zm.28.001a3.29 3.29 0 0 0-.281 0l.003.113a3.5 3.5 0 0 1 .271.001l.007-.114Zm.272-.122a.728.728 0 0 1-.287.123l.024.112a.855.855 0 0 0 .325-.14l-.062-.095Zm.314-.113a.593.593 0 0 0-.187.042c-.05.02-.09.047-.127.071l.062.095a.48.48 0 0 1 .26-.095l-.008-.113Zm.267.431a.802.802 0 0 0-.033-.223.386.386 0 0 0-.075-.142.189.189 0 0 0-.159-.066l.009.114a.076.076 0 0 1 .066.028c.02.024.037.059.05.1a.684.684 0 0 1 .028.163v.016l.114.01Zm-.342 1.287c.185-.423.306-.887.342-1.287l-.113-.01a4.17 4.17 0 0 1-.334 1.25l.105.047Zm-1.456 1.518c.321-.05.59-.248.825-.521.234-.273.438-.626.63-.994l-.102-.052c-.19.366-.39.709-.615.972-.225.262-.472.439-.755.482l.017.113Zm-1.362-.299c.34.192.725.41 1.363.298l-.02-.112c-.597.105-.95-.095-1.287-.285l-.056.099Zm-.194-.106c.064.033.128.069.194.106l.056-.1a5.523 5.523 0 0 0-.198-.107l-.052.101Zm-.09.123.153-.13-.074-.087-.153.13.074.087Zm-1.48-.228c.132.353.364.552.641.587.274.034.575-.095.842-.362l-.08-.08c-.252.25-.52.357-.748.329-.224-.028-.427-.19-.548-.514l-.106.04Zm.002.005.103-.05-.103.05Zm.049-.082h-.001l.008.114-.007-.114Zm-.054.07.007.014.1-.054-.007-.014-.1.054Zm-.043-.081.042.079.102-.05a1.66 1.66 0 0 0-.044-.085l-.1.056Zm-.034-.066.033.064.101-.052-.033-.065-.101.053Zm0-.001.101-.051-.101.05Zm-.203-.361c.075.113.138.236.203.361l.101-.052a3.792 3.792 0 0 0-.209-.372l-.095.063ZM9.372 9.28c-.104.177-.244.415-.256.688-.013.28.109.583.5.892l.07-.09c-.37-.291-.467-.562-.457-.797.011-.24.135-.455.24-.635l-.097-.058Zm.017-.029-.017.03.098.057.017-.03-.098-.057Zm-1.095-.606a.518.518 0 0 0 .16.243c.076.07.173.135.28.191.213.113.47.2.69.256l.028-.11a3.105 3.105 0 0 1-.665-.246 1.223 1.223 0 0 1-.256-.175.407.407 0 0 1-.126-.188l-.11.029ZM8.36 6.8a3.782 3.782 0 0 0-.13.737c-.016.271 0 .602.064 1.1l.113-.015c-.063-.494-.079-.817-.063-1.078a3.68 3.68 0 0 1 .127-.717L8.36 6.8Zm.01.082.057-.013-.023-.111-.058.012.023.112Zm.005-.002-.036-.108.036.108Zm-.007.002-.02-.112.02.112Zm-1.73.438c.6-.2 1.168-.32 1.731-.438l-.023-.112c-.563.119-1.137.24-1.745.442l.036.108Zm-.076-.05v.005l.114-.018-.001-.004-.113.017Zm-.802.37a4.57 4.57 0 0 1 .433-.179c.18-.067.36-.126.438-.144l-.025-.111c-.087.02-.272.082-.453.148a4.37 4.37 0 0 0-.447.186l.054.1Zm-.375.116c.12-.038.239-.075.364-.111l-.032-.11c-.126.037-.245.074-.366.112l.034.109Zm.001 0-.036-.109.036.108Zm-.757.218c.3-.076.532-.148.756-.218l-.034-.11c-.224.071-.453.143-.75.217l.028.11Zm-.46 0c.148.02.3.02.453 0l-.014-.112a1.654 1.654 0 0 1-.425-.001l-.015.113Zm-.61-.023c.195 0 .436 0 .61.023l.014-.113c-.182-.025-.432-.024-.625-.024v.114Zm0 0v-.114.114Zm0 0v-.114.114Zm-.351-.03a.083.083 0 0 0 .035.018.833.833 0 0 0 .101.01c.057.002.132.002.215.002v-.114a6.766 6.766 0 0 1-.273-.005.109.109 0 0 1-.013-.003c-.004 0 .004 0 .012.009l-.077.083Zm-.274-.636c.07.22.144.458.266.628l.093-.067c-.11-.152-.179-.37-.25-.595l-.11.034Zm-.223-.543c.092.136.155.332.223.543l.108-.034c-.065-.206-.133-.42-.237-.574l-.094.065Zm0 0 .002.003.089-.071L2.8 6.67l-.09.071Zm0 0 .002.003.084-.077-.002-.003-.085.077Zm-.34-.37c.12.117.235.23.336.366l.091-.068c-.106-.143-.228-.263-.346-.38l-.08.081Zm-.053-.054.054.053.08-.081-.054-.053-.08.081Zm-1.04-1.48c.122.515.553.996 1.04 1.48l.08-.08c-.49-.488-.896-.947-1.009-1.427l-.11.026Zm-.02-.087.02.084.112-.022-.022-.09-.11.028Zm-.046-.666c-.033.36.011.533.046.666l.11-.029c-.032-.124-.074-.284-.043-.627l-.113-.01Zm.004-.016-.001.002.107.038.001-.003-.107-.037Zm0-.001v.002l.107.036.001-.002-.108-.036Zm.647-1.092a2.48 2.48 0 0 0-.648 1.094l.11.031c.115-.397.301-.72.62-1.045l-.082-.08Zm.985.047c-.266-.051-.606-.058-.943-.064l-.002.114c.34.006.669.013.924.062l.021-.112Zm.045.007-.047-.007-.018.112.047.008.018-.113Zm.59.144c-.234-.087-.46-.123-.59-.144l-.018.113c.13.02.346.055.568.137l.04-.106Zm1.489.693.024-.051h-.001a.15.15 0 0 1-.01-.005 15.822 15.822 0 0 0-.134-.062l-.367-.163a20.8 20.8 0 0 0-1.002-.412l-.04.106c.324.12.7.28.996.41a33.04 33.04 0 0 1 .5.225l.007.003h.002v.001l.025-.052Zm-.47-.2c.148.086.297.17.442.25l.055-.1a26.06 26.06 0 0 1-.44-.248l-.057.099Zm-1.363-.65c.169.034.38.122.616.24.235.118.49.264.747.41l.056-.098c-.256-.146-.514-.294-.752-.413a2.79 2.79 0 0 0-.644-.251l-.023.111Zm-.171-.131a.192.192 0 0 0 .066.09.235.235 0 0 0 .109.04l.015-.112a.124.124 0 0 1-.056-.02.078.078 0 0 1-.028-.038l-.106.04Zm.855-.868c-.207.279-.41.552-.83.799l.057.098c.441-.26.656-.548.865-.829l-.092-.068Zm0 0 .092.068-.092-.067Zm.42-.494c-.172.161-.297.33-.42.494l.092.068c.123-.165.243-.326.406-.48l-.079-.082Zm.099-.048-.083.037.045.104.084-.037-.046-.104Zm0 0 .046.104-.046-.104Zm.394-.122a1.149 1.149 0 0 0-.394.122l.046.104a1.05 1.05 0 0 1 .36-.113l-.012-.113ZM7.915 2.53c-.76-.417-1.728-.949-3.164-1.176l-.017.113c1.415.224 2.368.747 3.126 1.163l.055-.1Zm0 0-.055.1.055-.1Zm.296.161a31.033 31.033 0 0 1-.296-.16l-.055.1c.102.055.201.11.297.16l.054-.1Zm.426.221c-.137-.07-.279-.14-.426-.22l-.054.1c.149.08.291.153.429.222l.051-.102Zm0 0-.05.102.05-.102Zm.483.254c-.157-.09-.317-.17-.483-.254l-.051.102c.166.084.324.164.478.251l.056-.099Zm1.238.97c-.116-.16-.364-.382-.61-.572a5.078 5.078 0 0 0-.36-.256 1.417 1.417 0 0 0-.278-.146l-.036.108c.055.018.143.065.252.134.107.069.23.156.352.25.246.19.482.404.587.55l.092-.067Zm.543 1.49c-.149-.492-.313-1.005-.538-1.48l-.103.049c.221.467.383.972.532 1.463l.109-.033Zm.145.718.052-.024-.004-.007a5.404 5.404 0 0 1-.193-.682l-.11.024c.053.251.104.429.14.544a2.437 2.437 0 0 0 .059.159l.003.008.001.002v.001l.052-.024Zm-.131-.504a.239.239 0 0 0-.002.057 3.504 3.504 0 0 0 .064.392 4.352 4.352 0 0 0 .012.063l.001.003v.001l.056-.012.056-.012-.001-.004-.003-.014-.01-.048a7.509 7.509 0 0 1-.055-.313.951.951 0 0 1-.006-.062v-.02a.047.047 0 0 1 0-.009l-.112-.022Zm.457.048a.302.302 0 0 1-.074-.005 2.161 2.161 0 0 1-.307-.086l-.04.108a2.276 2.276 0 0 0 .33.091c.036.006.073.01.104.005l-.013-.113Zm-.513-.328a.406.406 0 0 0 .11.167c.05.05.109.095.165.135a2.129 2.129 0 0 0 .218.133l.027-.05.026-.05-.001-.001-.003-.002-.013-.007a2.134 2.134 0 0 1-.189-.117 1.122 1.122 0 0 1-.15-.122.305.305 0 0 1-.08-.117l-.11.031Zm-.248-1.019c.072.318.16.712.248 1.02l.11-.032a18.06 18.06 0 0 1-.246-1.013l-.112.025Zm.001.004.11-.033-.11.033Zm-.133-.551c-.005-.006-.005-.01-.001 0a2.52 2.52 0 0 1 .043.153c.025.102.056.239.09.394l.111-.025a22.678 22.678 0 0 0-.09-.395 2.617 2.617 0 0 0-.048-.169.117.117 0 0 0-.022-.037l-.082.079Zm-1.005-.771a5.9 5.9 0 0 1 .58.397c.197.15.361.293.422.37l.09-.071a3.121 3.121 0 0 0-.443-.39 6.018 6.018 0 0 0-.592-.405l-.057.099Zm-.23-.192a.112.112 0 0 0 .03.057c.013.014.03.027.048.04.037.027.088.058.152.095l.057-.099a1.731 1.731 0 0 1-.142-.088.22.22 0 0 1-.03-.026c-.007-.007-.004-.005-.002.003l-.113.018Zm.08-.115-.064.066.081.08.065-.066-.082-.08Zm0 0 .082.08-.082-.08Zm.302-.283c-.1.077-.209.188-.302.283l.082.08c.095-.097.197-.202.29-.273l-.07-.09Zm.063-.05a4.03 4.03 0 0 1-.063.05l.07.09.064-.05-.071-.09Zm-.002.002.075.086-.075-.086Zm.331-.206c-.139.051-.238.131-.33.204l.072.09c.092-.074.178-.143.298-.187l-.04-.107Zm1.056 0c-.2-.08-.558-.224-1.06.001l.048.104c.457-.206.777-.077.97.001l.042-.106Zm.12.044c.008-.007.012 0-.015-.006a.853.853 0 0 1-.105-.038l-.043.106a.822.822 0 0 0 .122.043c.033.008.082.014.12-.021l-.078-.084Zm-.022-.155a.093.093 0 0 0-.026-.007.064.064 0 0 0-.05.015.063.063 0 0 0-.02.05c0 .011.003.02.006.026a.29.29 0 0 0 .039.064 1.387 1.387 0 0 0 .063.079l.005.006.001.001.044-.037.043-.037-.002-.002-.004-.005a1.72 1.72 0 0 1-.076-.098.15.15 0 0 1-.005-.008l-.002-.004v.002l.002.008c0 .006 0 .026-.018.04a.05.05 0 0 1-.039.013h-.005l.044-.106Zm.174.057-.101-.029a.434.434 0 0 1-.068-.025l-.054.1a.53.53 0 0 0 .088.034l.105.03.03-.11Zm.159.058a.115.115 0 0 0-.034-.02.46.46 0 0 0-.035-.013l-.09-.025-.03.11.085.024.027.01c.008.003.005.002 0-.003l.077-.083Zm1.336 1.714a6.506 6.506 0 0 0-.724-1.073 4.726 4.726 0 0 0-.616-.644l-.07.09c.123.096.35.324.598.626a6.4 6.4 0 0 1 .711 1.054l.101-.053Zm.097.577a.769.769 0 0 0 .007-.306 1.026 1.026 0 0 0-.104-.27l-.101.052a.915.915 0 0 1 .093.24.66.66 0 0 1-.007.262l.111.022Zm-.13.51c.049-.153.084-.28.13-.51l-.112-.022a3.9 3.9 0 0 1-.127.498l.108.035Zm-.292.872v-.003a.237.237 0 0 1 .01-.044 1.65 1.65 0 0 1 .027-.1 9.5 9.5 0 0 1 .252-.719l-.104-.045a9.47 9.47 0 0 0-.287.838.34.34 0 0 0-.012.074h.114Zm.107.86.052-.024V6.89l-.002-.004-.007-.015a2.088 2.088 0 0 1-.089-.259 1.439 1.439 0 0 1-.061-.549l-.113-.015a1.54 1.54 0 0 0 .064.595 2.588 2.588 0 0 0 .094.272l.007.016.002.005v.001l.053-.023Zm-.058-.124c0 .036.002.075 0 .122l.115.002-.001-.127-.114.003Zm.005-.175a1.03 1.03 0 0 0-.005.175l.114-.003a1 1 0 0 1 .004-.158l-.113-.014Zm.014-.163-.014.165.113.01.015-.166-.114-.01Zm-.007-.062a.23.23 0 0 0 .007.07.125.125 0 0 0 .001.008l.056-.011.056-.012v-.002l-.001-.004a.358.358 0 0 1-.005-.032v-.007l-.114-.01Zm.031-.192a1.725 1.725 0 0 0-.031.192l.113.01c.007-.066.019-.126.03-.18l-.112-.022Zm0 0 .112.022-.112-.022Zm.016-.086a.992.992 0 0 1-.016.086l.112.023c.007-.034.014-.067.017-.095l-.113-.014Zm.343-1.2c-.142.39-.268.735-.343 1.198l.113.018c.073-.451.195-.786.337-1.177l-.107-.039Zm.039-.106-.039.106.107.04.039-.107-.107-.039Zm.055-.11c-.016.03-.036.066-.054.107l.105.045a.963.963 0 0 1 .049-.095l-.1-.056Zm.002-.003.095.063-.095-.063Zm.045-.12c.001.035-.014.066-.047.124l.1.056c.029-.052.064-.111.06-.185l-.113.005Zm-.147-.379c.04.075.078.145.105.21a.42.42 0 0 1 .042.165l.114.002a.539.539 0 0 0-.05-.211c-.03-.071-.071-.146-.11-.22l-.1.054Zm-.074-.142.074.142.1-.053a4.619 4.619 0 0 1-.072-.14l-.102.05Zm-.362-.644c.15.23.265.447.362.643l.102-.05a5.975 5.975 0 0 0-.37-.655l-.094.062Zm-1.162-1.114c.527.237.815.616 1.162 1.116l.094-.065c-.348-.5-.651-.903-1.21-1.155l-.046.104Zm-.922-.09c.095-.017.288-.011.482.008.096.01.19.023.268.038a.9.9 0 0 1 .172.044l.046-.104a.993.993 0 0 0-.197-.052 3.565 3.565 0 0 0-.277-.039 2.193 2.193 0 0 0-.515-.006l.021.112Zm-.616.206c.161-.103.366-.153.618-.205l-.024-.112c-.249.052-.474.105-.656.221l.062.096Zm-.371.304c.12-.11.239-.22.37-.304l-.06-.096c-.143.091-.268.207-.387.316l.077.084Zm-.001 0-.075-.085.075.086Zm.004-.003-.083-.078.083.078Zm-.363.297c.127-.08.245-.189.36-.294l-.077-.084a2.566 2.566 0 0 1-.344.282l.06.096Zm-.877-.476c.11.075.371.255.82.48l.052-.103c-.443-.221-.7-.397-.807-.47l-.065.093Zm0 0 .064-.094-.063.095Zm-.048-.032.048.032.065-.094-.056-.037-.057.1Zm-1.137-.569c.42.192.812.395 1.139.57l.054-.1c-.328-.176-.722-.38-1.146-.574l-.047.104Zm-2.594-.726a8.02 8.02 0 0 1 2.263.545c.081.035.15.068.204.097a.59.59 0 0 1 .111.074l.078-.084a.692.692 0 0 0-.135-.09 2.527 2.527 0 0 0-.213-.101 8.133 8.133 0 0 0-2.299-.554l-.009.113Zm-.025-.009.06-.096-.06.096Zm.79 10.83c.077.182.165.383.259.567.093.183.194.354.3.474l.085-.075a2.252 2.252 0 0 1-.284-.45 9.425 9.425 0 0 1-.256-.56l-.104.045Zm3.441.967c-1.15.028-2.513-.527-3.36-1.037l-.058.097c.855.515 2.24 1.082 3.42 1.054l-.002-.114Zm.42.61a10.76 10.76 0 0 1-.37-.581l-.098.057c.118.204.259.419.372.588l.095-.063Zm-3.217-.454c.634.31 1.676.772 3.177.543l-.017-.113c-1.467.224-2.484-.225-3.11-.532l-.05.102Zm-.083-.08.068.07.08-.082a7.986 7.986 0 0 1-.067-.068l-.08.08Zm2.668-.697c-.982-.21-1.61-.44-2.06-.676-.45-.236-.724-.48-.996-.723l-.075.085c.272.244.554.496 1.017.739.462.243 1.102.476 2.09.687l.024-.112Zm-.06.024-.002.005.1.054.003-.006-.1-.053Zm.113-.64a1.886 1.886 0 0 0-.12.668l.115-.002a1.764 1.764 0 0 1 .11-.622l-.105-.043Zm.004-.01-.004.01.105.044.005-.011-.106-.044ZM4.936 9.294c.151.41.58.985 1.203 1.485.625.502 1.45.933 2.396 1.046l.014-.114c-.921-.11-1.726-.53-2.338-1.02-.613-.493-1.027-1.053-1.168-1.437l-.107.04Zm.068 1.384a4.233 4.233 0 0 1 .041-1.392l-.111-.024a4.346 4.346 0 0 0-.043 1.43l.113-.014Zm.372.296a7.075 7.075 0 0 0-.393-.334l-.07.09a7.2 7.2 0 0 1 .388.33l.075-.086Zm3.342.511a4.52 4.52 0 0 1 .094-.216l-.103-.05c-.03.062-.061.138-.096.223l.105.043Zm-1.828-1.08c.544.392 1.09.784 1.75 1.11l.05-.102c-.65-.321-1.188-.708-1.734-1.1l-.066.092Zm-.013-.01.013.01.066-.092-.013-.01-.066.093Zm-1.28-2.449c.155 1.007.379 1.792 1.28 2.45l.066-.093c-.863-.63-1.08-1.377-1.234-2.374l-.113.017Zm.105-.125a.264.264 0 0 0-.093.08l.088.072a.174.174 0 0 1 .048-.046l-.043-.106Zm.936-.4c-.34.075-.655.209-.946.406l.064.094a2.6 2.6 0 0 1 .907-.389l-.025-.111Zm1.538 3.2c-.592-.995-1.183-2.082-1.47-3.159l-.11.03c.291 1.093.89 2.191 1.482 3.188l.098-.058Zm.09.116a10.11 10.11 0 0 0-.095-.121l-.089.07.093.12.09-.07Zm0 0-.091.069.09-.07Zm0 0-.092.069.092-.069Zm.52.456a1.272 1.272 0 0 1-.307-.204 1.965 1.965 0 0 1-.214-.252l-.09.07c.079.103.144.188.227.265.083.078.183.147.332.223l.052-.102Zm.462 2.78c-.511.233-1.053.237-1.593.24v.114c.537-.003 1.103-.005 1.64-.251l-.047-.104Zm.208.223A1.033 1.033 0 0 1 9.323 14l-.102.05c.046.097.114.18.146.22l.089-.073Zm.027.037c-.004-.008-.011-.017-.013-.02a1.316 1.316 0 0 0-.014-.017l-.089.072.013.016.002.003-.002-.005.103-.049Zm-.924.543c.117.02.465.068.724.028a.648.648 0 0 0 .18-.052.268.268 0 0 0 .127-.116c.056-.109.013-.248-.114-.413l-.09.07c.123.16.126.246.103.291a.156.156 0 0 1-.075.065.535.535 0 0 1-.148.042c-.24.038-.572-.008-.688-.028l-.019.113Zm-1.223-.454c.39.221.801.386 1.224.454l.017-.113a3.557 3.557 0 0 1-1.185-.44l-.056.1Zm.32-.11-.293.004.002.114c.096-.002.193-.003.29-.003v-.114Zm2.967-3.584c.193.288.484.565.825.832l.07-.09c-.337-.263-.617-.532-.8-.806l-.095.064Zm-.274.683c.15-.194.323-.414.377-.705l-.112-.02c-.048.259-.202.457-.355.655l.09.07Zm-.09.117c.028-.039.059-.078.09-.117l-.09-.07-.091.118.091.069Zm.11.297a.655.655 0 0 1-.121-.228.098.098 0 0 1 0-.043.1.1 0 0 1 .013-.03l-.096-.061a.21.21 0 0 0-.028.063.21.21 0 0 0-.001.092.756.756 0 0 0 .14.273l.094-.066Zm.273.044a.87.87 0 0 1-.174-.008.32.32 0 0 1-.07-.018.075.075 0 0 1-.029-.019l-.092.067c.02.028.05.046.078.057.03.012.062.02.095.026.066.01.14.012.198.009l-.006-.114Zm-.137.029c.038.025.074.05.105.073l.07-.09c-.035-.027-.075-.053-.112-.078l-.063.095Zm-.227-.208a.283.283 0 0 0 .093.113c.04.032.088.064.134.095l.063-.095a1.77 1.77 0 0 1-.125-.089c-.037-.03-.054-.05-.058-.062l-.107.038Zm.596.077c-.15.02-.321-.014-.51-.143l-.064.094c.209.143.407.186.59.162l-.016-.113Zm.08-.079a.247.247 0 0 1-.048.061c-.017.015-.028.018-.03.018l.012.114a.175.175 0 0 0 .093-.046.36.36 0 0 0 .072-.089l-.099-.058Zm.2-.253a.514.514 0 0 0-.095.084.73.73 0 0 0-.107.174l.103.048a.617.617 0 0 1 .09-.147.42.42 0 0 1 .077-.067l-.067-.092Zm.007-.005-.006.005.067.092.006-.005-.067-.092Zm.214.18-.136-.17-.089.072.136.17.089-.072Zm.071-.138-.153.13.074.087.153-.13-.074-.087Zm-.205-8.383c-.01 0-.012-.005-.005 0a1.095 1.095 0 0 1 .105.116 5.941 5.941 0 0 1 .411.631c.028.05.05.093.067.128a.356.356 0 0 1 .027.068l.112-.02a.437.437 0 0 0-.036-.097 2.303 2.303 0 0 0-.07-.133 6.124 6.124 0 0 0-.42-.646 1.187 1.187 0 0 0-.09-.105.337.337 0 0 0-.04-.034.108.108 0 0 0-.05-.021l-.011.113Zm.044-.099-.078.084.078-.084Zm-.086.074.655.99.095-.064-.655-.99-.095.064Zm.646.966c.02.134.051.275.083.415l.111-.025a5.512 5.512 0 0 1-.08-.407l-.114.017Zm0 .003.083.411.111-.022-.081-.411-.112.022Zm.083.412c.042.187.083.373.1.55l.113-.01a4.407 4.407 0 0 0-.102-.565l-.111.025Zm0-.002.1.557.112-.02-.1-.557-.113.02Zm.211.531a10.442 10.442 0 0 0-.304-.925l-.106.041c.118.305.213.61.3.916l.11-.032Zm0-.002-.303-.92-.108.035.302.92.109-.035Zm-.304-.924a1.932 1.932 0 0 0-.38-.562l-.084.076c.24.265.326.45.358.53l.106-.044Zm-.006-.01-.368-.546-.095.064.369.546.094-.064Zm-.366-.543a1.224 1.224 0 0 1-.157-.453l-.112.021c.028.146.056.3.17.49l.099-.058Zm.005.01-.164-.471-.108.037.164.472.108-.038ZM9.976 6.091a.706.706 0 0 1-.13-.15 4.257 4.257 0 0 1-.143-.227l-.097.059c.049.082.098.162.146.232.048.07.099.132.154.175l.07-.09Zm-.267-.395c.059.162.116.322.18.463l.104-.047a6.022 6.022 0 0 1-.176-.455l-.108.039Zm-.596-1.1c.294.26.45.688.596 1.1l.108-.039c-.145-.403-.308-.863-.628-1.147l-.076.085Zm-1.496-.133c.564.008 1.115.015 1.517.144l.035-.109c-.422-.135-.993-.141-1.55-.149l-.002.114Zm0 0 .002-.114-.002.114Zm-.502-.01c.165.006.334.008.502.01l.002-.114a20.337 20.337 0 0 1-.5-.01l-.004.115Zm.765.018a7.205 7.205 0 0 1-.749-.13l-.028.11c.228.06.496.096.762.133l.015-.113Zm1.232.311a1.815 1.815 0 0 0-.555-.2 8.864 8.864 0 0 0-.677-.11l-.015.112c.23.032.46.064.667.11.208.045.388.103.52.185l.06-.097Zm-.044.153a.146.146 0 0 0 .051-.038.09.09 0 0 0 .018-.082l-.11.03a.024.024 0 0 1 0-.01.023.023 0 0 1 .004-.01H9.03a.08.08 0 0 1-.011.007l.049.103Zm-.102-.006.07.01.015-.112a2.385 2.385 0 0 1-.066-.01l-.019.112Zm-.242-.008a.6.6 0 0 1 .242.008l.019-.113a.721.721 0 0 0-.287-.006l.026.11Zm-.314.15c.108-.06.21-.116.319-.152l-.035-.108a2 2 0 0 0-.34.16l.056.1Zm0 0-.054-.1.053.1Zm0 0-.054-.1.053.1Zm0 0-.055-.1.055.1Zm0 0-.055-.1.055.1Zm-.001 0-.053-.1.053.1Zm0 0-.053-.1.053.1Zm.001 0-.055-.1.055.1Zm0 0-.055-.1.055.1Zm-.153.082c.052-.026.103-.055.153-.082l-.055-.1c-.05.028-.1.055-.15.08l.052.102Zm.612-.104a1.41 1.41 0 0 0-.649-.003l.023.112c.29-.06.434-.03.604.003l.022-.112Zm.264.04a2.283 2.283 0 0 1-.264-.04l-.022.112c.08.015.168.032.277.042l.01-.114Zm.57.625c-.073-.121-.152-.253-.24-.365a.775.775 0 0 0-.314-.256l-.04.106c.093.036.18.115.264.22.083.106.159.231.233.354l.097-.059Zm1.8 1.515a2.11 2.11 0 0 0-.71.02l.024.11a2 2 0 0 1 .673-.017l.014-.113Zm.05.056h-.113.114Zm-.847.427c.138-.15.228-.225.335-.271.11-.047.24-.067.464-.1l-.016-.112c-.22.031-.367.053-.494.107-.129.056-.232.145-.373.3l.084.076Zm-.067-.159c-.01.037-.018.07-.029.103l.108.037c.013-.038.023-.076.032-.112l-.11-.028Zm.12-.283c-.073.098-.098.198-.12.283l.11.028a.638.638 0 0 1 .101-.243l-.091-.068Zm3.817 1.71-.08-.081.08.08Zm-.462.253c.146-.045.242-.087.312-.13a.725.725 0 0 0 .15-.124l-.08-.08a.642.642 0 0 1-.13.107 1.22 1.22 0 0 1-.285.118l.034.109Zm-.618-.21a.689.689 0 0 0 .246.191.578.578 0 0 0 .369.02l-.026-.111a.465.465 0 0 1-.299-.014.577.577 0 0 1-.204-.161l-.086.075Zm.189-.039c-.037-.018-.078-.039-.13-.053l-.032.11c.041.01.074.027.111.045l.05-.102Zm.59-.015c-.198.063-.319.078-.402.073a.44.44 0 0 1-.188-.058l-.051.102c.06.03.127.064.232.07.103.006.24-.014.443-.078l-.035-.109Zm.314-.154-.322.157.05.103.322-.157-.05-.103Zm-.013.164a.845.845 0 0 1 .074-.068l-.071-.089a.806.806 0 0 0-.083.077l.08.08Zm-4.04 1.408a.056.056 0 0 1-.021.043c-.008.006-.015.009-.017.01a.064.064 0 0 1-.01.002h.008l.048.003a4.434 4.434 0 0 1 .415.057l.037-.108a2.212 2.212 0 0 0-.11-.021 6.425 6.425 0 0 0-.387-.045h-.021a.077.077 0 0 0-.017.004.058.058 0 0 0-.04.055h.114Zm-.195.34a.278.278 0 0 1 .025-.137.427.427 0 0 1 .145-.157l-.066-.093a.538.538 0 0 0-.181.2.392.392 0 0 0-.037.19l.114-.004Zm-.075-.061-.023.022.08.081.023-.022-.08-.081Zm.712-.275c-.198 0-.314-.002-.41.035-.098.037-.174.113-.302.24l.08.081c.135-.133.192-.188.263-.215.071-.027.16-.028.368-.027l.001-.114Zm0 0v.114-.114Zm.007.114-.014-.113.014.113Zm-.021-.001.028-.11-.028.11Zm-.326-2.083.008.057h.003a2.24 2.24 0 0 1 .155-.02 1.22 1.22 0 0 1 .128-.006c.002 0-.003 0-.01-.005a.053.053 0 0 1-.022-.055l.11.024a.06.06 0 0 0-.005-.041.062.062 0 0 0-.022-.023.083.083 0 0 0-.029-.011.247.247 0 0 0-.046-.004 3.825 3.825 0 0 0-.274.027h-.003l-.001.001.008.056Zm.026.05-.053-.1.053.1Zm1.185-.325a1.402 1.402 0 0 0-.649-.041c-.195.039-.379.13-.593.269l.062.095c.21-.135.38-.218.554-.253.174-.034.358-.023.597.04l.03-.11Zm-.19.164c.062-.021.124-.037.19-.054l-.028-.11a2.498 2.498 0 0 0-.2.056l.037.108Zm.036.367a.084.084 0 0 0 .065-.052.172.172 0 0 0 .012-.063.618.618 0 0 0-.014-.136 1.07 1.07 0 0 0-.054-.178.137.137 0 0 0-.012-.02.08.08 0 0 0-.01-.012.063.063 0 0 0-.026-.015l-.032.11a.05.05 0 0 1-.024-.016l.002.003a.957.957 0 0 1 .044.15.509.509 0 0 1 .01.13v.002s.006-.013.023-.015l.016.112Zm.313.042.015-.055-.003-.001-.011-.003-.039-.011a16.547 16.547 0 0 1-.255-.076l.002.001a.05.05 0 0 1 .009.007c.001.002.014.013.016.033a.057.057 0 0 1-.047.063l-.016-.112a.059.059 0 0 0-.042.027.057.057 0 0 0 .02.079.703.703 0 0 0 .054.021 4.889 4.889 0 0 0 .267.077l.011.003.003.001h.001l.015-.054Zm-.273.07c.091-.004.184-.007.277-.014l-.008-.113c-.09.006-.181.01-.273.012l.004.114Zm-.89.163c.282-.142.576-.153.89-.164l-.004-.114c-.31.011-.63.021-.937.176l.051.102Zm.117-.24-.178.145.072.088.178-.146-.072-.088Zm-.005.082a.058.058 0 0 0 .097-.018.075.075 0 0 0 .004-.013l-.113-.02.003-.01a.056.056 0 0 1 .091-.017l-.082.078Zm.008-.086-.003.003.072.088.003-.002-.072-.089Zm-.066-.315a.723.723 0 0 0 .008.228 1.243 1.243 0 0 0 .036.152.076.076 0 0 0 .014.021l.082-.078a.045.045 0 0 1 .007.008v.002-.004a.632.632 0 0 1-.034-.305l-.113-.024Z"/></g></svg>