<svg xmlns="http://www.w3.org/2000/svg" width="16" height="16" fill="none" viewBox="0 0 16 16"><g fill="#6C707E" fill-rule="evenodd" clip-rule="evenodd"><path d="M12.157 7.202a.6.6 0 1 0-.752-.935l-2.477 1.99a1.8 1.8 0 1 0 .764.926l2.465-1.98ZM8.8 9.8a.8.8 0 1 1-1.6 0 .8.8 0 0 1 1.6 0Z"/><path d="M8 3.5A6.5 6.5 0 0 0 1.5 10c0 .89.27 2.087.64 3h11.72c.37-.913.64-2.11.64-3A6.5 6.5 0 0 0 8 3.5ZM.5 10a7.5 7.5 0 1 1 15 0c0 1.16-.377 2.68-.866 3.73a.475.475 0 0 1-.435.27H1.8a.475.475 0 0 1-.435-.27C.877 12.68.5 11.16.5 10Z"/></g></svg>