<svg xmlns="http://www.w3.org/2000/svg" width="16" height="16" fill="none" viewBox="0 0 16 16"><g fill="#6C707E" fill-rule="evenodd" clip-rule="evenodd"><path d="m7.803 4.717.29.283H13a1 1 0 0 1 1 1v5h1V6a2 2 0 0 0-2-2H8.5L6.736 2.283A1 1 0 0 0 6.038 2H2.75C1.784 2 1 2.836 1 3.867v8.266C1 13.164 1.784 14 2.75 14H3v-1h-.25c-.354 0-.75-.326-.75-.867V3.867c0-.54.396-.867.75-.867h3.288l1.765 1.717Z"/><path d="M10.5 15a1.5 1.5 0 1 0 0-3 1.5 1.5 0 0 0 0 3Zm2.45-2a2.5 2.5 0 0 0-4.9 0H5.5a.5.5 0 0 0 0 1h2.55a2.5 2.5 0 0 0 4.9 0h2.55a.5.5 0 0 0 0-1h-2.55Z"/></g></svg>