<svg width="0" height="0" class="hidden"><symbol xmlns="http://www.w3.org/2000/svg" fill="none" viewBox="0 0 16 16" id="add"><g fill="currentColor"><path d="M13.5 6a.5.5 0 0 0 .5-.5v-3a.5.5 0 0 0-.5-.5h-11a.5.5 0 0 0-.5.5v3a.5.5 0 0 0 1 0V3h10v2.5a.5.5 0 0 0 .5.5Z"></path><path d="M5.146 8.353a.5.5 0 0 1 0-.707l2.5-2.5a.5.5 0 0 1 .708 0l2.5 2.5a.5.5 0 0 1-.707.708L8.5 6.707V13.5a.5.5 0 1 1-1 0V6.707L5.854 8.353a.5.5 0 0 1-.708 0Z"></path></g></symbol><symbol xmlns="http://www.w3.org/2000/svg" fill="none" viewBox="0 0 16 16" id="autoscroll-from-source"><g fill="currentColor"><path d="M14 5.5a.5.5 0 0 1-1 0V3H3v2.5a.5.5 0 0 1-1 0v-3a.5.5 0 0 1 .5-.5h11a.5.5 0 0 1 .5.5v3Z"></path><path d="M5.146 11.354a.5.5 0 0 1 .707-.707L7.5 12.293V5.5a.5.5 0 1 1 1 0v6.793l1.646-1.647a.5.5 0 1 1 .707.707l-2.5 2.5a.5.5 0 0 1-.707 0l-2.5-2.5Z"></path></g></symbol><symbol xmlns="http://www.w3.org/2000/svg" fill="none" viewBox="0 0 16 16" id="autoscroll-to-source"><g fill="currentColor"><path d="M13.5 6a.5.5 0 0 0 .5-.5v-3a.5.5 0 0 0-.5-.5h-11a.5.5 0 0 0-.5.5v3a.5.5 0 0 0 1 0V3h10v2.5a.5.5 0 0 0 .5.5Z"></path><path d="M5.146 8.353a.5.5 0 0 1 0-.707l2.5-2.5a.5.5 0 0 1 .708 0l2.5 2.5a.5.5 0 0 1-.707.708L8.5 6.707V13.5a.5.5 0 1 1-1 0V6.707L5.854 8.353a.5.5 0 0 1-.708 0Z"></path></g></symbol><symbol xmlns="http://www.w3.org/2000/svg" fill="none" viewBox="0 0 16 16" id="checkmark"><path stroke="currentColor" stroke-linecap="round" stroke-linejoin="round" stroke-width="1.5" d="m2.5 8.25 3.5 3.5 7.5-7.5"></path></symbol><symbol xmlns="http://www.w3.org/2000/svg" fill="none" viewBox="0 0 16 16" id="chevron-down-large"><path stroke="currentColor" stroke-linecap="round" d="M12.5 5.75 8 10.25l-4.5-4.5"></path></symbol><symbol xmlns="http://www.w3.org/2000/svg" fill="none" viewBox="0 0 16 16" id="chevron-down"><path stroke="var(--icon-color)" stroke-linecap="round" d="M11.5 6.25 8 9.75l-3.5-3.5"></path></symbol><symbol xmlns="http://www.w3.org/2000/svg" fill="none" viewBox="0 0 16 16" id="chevron-left"><path stroke="var(--icon-color)" stroke-linecap="round" d="M9.5 11.5 6 8l3.5-3.5"></path></symbol><symbol xmlns="http://www.w3.org/2000/svg" fill="none" viewBox="0 0 16 16" id="chevron-right"><path stroke="var(--icon-color)" stroke-linecap="round" d="M6 11.5 9.5 8 6 4.5"></path></symbol><symbol xmlns="http://www.w3.org/2000/svg" fill="none" viewBox="0 0 16 16" id="chevron-up-large"><path stroke="currentColor" stroke-linecap="round" d="M12.5 10.25 8 5.75l-4.5 4.5"></path></symbol><symbol xmlns="http://www.w3.org/2000/svg" fill="none" viewBox="0 0 16 16" id="chevron-up"><path stroke="var(--icon-color)" stroke-linecap="round" d="M4.5 9.75 8 6.25l3.5 3.5"></path></symbol><symbol xmlns="http://www.w3.org/2000/svg" fill="none" viewBox="0 0 16 16" id="close-small-hovered"><circle cx="8" cy="8" r="8" fill="currentColor" opacity=".1"></circle><path fill="var(--icon-color)" fill-rule="evenodd" d="M11.493 4.488a.5.5 0 0 0-.72-.01L8 7.288l-2.772-2.81a.5.5 0 0 0-.711.702L7.299 8l-2.782 2.82a.5.5 0 0 0 .711.702L8 8.712l2.772 2.81a.5.5 0 1 0 .712-.702L8.702 8l2.782-2.82a.5.5 0 0 0 .01-.692Z" clip-rule="evenodd"></path></symbol><symbol xmlns="http://www.w3.org/2000/svg" fill="none" viewBox="0 0 16 16" id="close-small"><path fill="var(--icon-color)" fill-rule="evenodd" d="M11.493 4.488a.5.5 0 0 0-.72-.01L8 7.288l-2.772-2.81a.5.5 0 0 0-.711.702L7.299 8l-2.782 2.82a.5.5 0 0 0 .711.702L8 8.712l2.772 2.81a.5.5 0 1 0 .712-.702L8.702 8l2.782-2.82a.5.5 0 0 0 .01-.692Z" clip-rule="evenodd"></path></symbol><symbol xmlns="http://www.w3.org/2000/svg" fill="none" viewBox="0 0 16 16" id="close"><path stroke="currentColor" stroke-linecap="round" d="M3 13 13 3m0 10L3 3"></path></symbol><symbol xmlns="http://www.w3.org/2000/svg" fill="none" viewBox="0 0 16 16" id="collapse-all"><path stroke="currentColor" stroke-linecap="round" stroke-linejoin="round" d="M4.5 2.5 8 6l3.5-3.5m-7 11L8 10l3.5 3.5"></path></symbol><symbol xmlns="http://www.w3.org/2000/svg" fill="none" viewBox="0 0 16 16" id="copy"><rect width="9" height="10" x="2.5" y="3.5" stroke="currentColor" rx="1.5"></rect><rect width="4" height="1" x="5" y="6" fill="currentColor" rx=".5"></rect><rect width="4" height="1" x="5" y="8" fill="currentColor" rx=".5"></rect><rect width="4" height="1" x="5" y="10" fill="currentColor" rx=".5"></rect><path fill="currentColor" fill-rule="evenodd" d="M11.002 2h.598A1.4 1.4 0 0 1 13 3.4v.51l.002.09v7.548A2.397 2.397 0 0 0 14 9.6V3.4A2.4 2.4 0 0 0 11.6 1H6.4c-.803 0-1.514.394-1.95 1h6.552Z" clip-rule="evenodd"></path></symbol><symbol xmlns="http://www.w3.org/2000/svg" fill="none" viewBox="0 0 16 16" id="cut"><path fill="currentColor" fill-rule="evenodd" d="M7 4.5a2.5 2.5 0 0 1-1.243 2.161l1.865.794 5.683-2.415a.5.5 0 1 1 .39.92L8.9 8l4.797 2.04a.5.5 0 0 1-.391.921L7.622 8.542l-1.87.794A2.499 2.499 0 0 1 4.5 14a2.5 2.5 0 0 1-1.058-4.766l-.001-.002 2.903-1.234-2.687-1.144A2.501 2.501 0 1 1 7 4.5Zm-1 0a1.5 1.5 0 0 1-1.985 1.42l-.2-.086A1.5 1.5 0 1 1 6 4.5Zm0 7a1.5 1.5 0 1 1-3 0 1.5 1.5 0 0 1 3 0Z" clip-rule="evenodd"></path></symbol><symbol xmlns="http://www.w3.org/2000/svg" fill="none" viewBox="0 0 16 16" id="delete"><path fill="currentColor" fill-rule="evenodd" d="M7 2h2a1 1 0 0 1 1 1H6a1 1 0 0 1 1-1ZM5 3a2 2 0 0 1 2-2h2a2 2 0 0 1 2 2h2a1 1 0 0 1 1 1v2h-1v7a2 2 0 0 1-2 2H5a2 2 0 0 1-2-2V6H2V4a1 1 0 0 1 1-1h2Zm6 1H3v1h10V4h-2ZM4 6h8v7a1 1 0 0 1-1 1H5a1 1 0 0 1-1-1V6Zm2.5 1a.5.5 0 0 0-.5.5v4a.5.5 0 0 0 1 0v-4a.5.5 0 0 0-.5-.5Zm2.5.5a.5.5 0 0 1 1 0v4a.5.5 0 0 1-1 0v-4Z" clip-rule="evenodd"></path></symbol><symbol xmlns="http://www.w3.org/2000/svg" fill="none" viewBox="0 0 16 16" id="double-color"><path fill="currentColor" d="M13 4H8.5L6.736 2.283A1 1 0 0 0 6.038 2H2.75C1.784 2 1 2.836 1 3.867v8.266C1 13.164 1.784 14 2.75 14H8v-1H2.75c-.354 0-.75-.326-.75-.867V3.867c0-.54.396-.867.75-.867h3.288l2.056 2H13a1 1 0 0 1 1 1v1h1V6a2 2 0 0 0-2-2Z"></path><path fill="var(--icon-color)" d="M13 12.5a.5.5 0 0 1 .5-.5h2a.5.5 0 0 1 .5.5v2a.5.5 0 0 1-.5.5h-2a.5.5 0 0 1-.5-.5v-2Zm-4 0a.5.5 0 0 1 .5-.5h2a.5.5 0 0 1 .5.5v2a.5.5 0 0 1-.5.5h-2a.5.5 0 0 1-.5-.5v-2Zm4-4a.5.5 0 0 1 .5-.5h2a.5.5 0 0 1 .5.5v2a.5.5 0 0 1-.5.5h-2a.5.5 0 0 1-.5-.5v-2Z"></path></symbol><symbol xmlns="http://www.w3.org/2000/svg" fill="none" viewBox="0 0 16 16" id="down"><path fill="currentColor" fill-rule="evenodd" d="M12.354 9.654a.5.5 0 0 0-.708-.708L8.5 12.093V2.5a.5.5 0 0 0-1 0v9.593L4.354 8.946a.5.5 0 1 0-.708.708l4 4 .354.353.354-.353 4-4Z" clip-rule="evenodd"></path></symbol><symbol xmlns="http://www.w3.org/2000/svg" fill="none" viewBox="0 0 16 16" id="download"><g fill="currentColor"><path fill-rule="evenodd" d="M10.854 8.354a.5.5 0 1 0-.707-.707L8.5 9.293V2.5a.5.5 0 0 0-1 0v6.793L5.853 7.646a.5.5 0 0 0-.707.708l2.5 2.5a.5.5 0 0 0 .708 0l2.5-2.5Z" clip-rule="evenodd"></path><rect width="12" height="1" rx=".5" transform="matrix(1 0 0 -1 2 14)"></rect><rect width="1" height="4" x="2" y="10" rx=".5"></rect><rect width="1" height="4" x="13" y="10" rx=".5"></rect></g></symbol><symbol xmlns="http://www.w3.org/2000/svg" fill="none" viewBox="0 0 16 16" id="edit"><path stroke="currentColor" stroke-miterlimit="10" d="m11.597 7.655 2.091-2.095a1.035 1.035 0 0 0 .007-1.474l-1.668-1.772-.005-.005a1.05 1.05 0 0 0-1.489.002L8.387 4.444m3.21 3.21-3.21-3.21m3.21 3.21L5.74 13.5H2.5v-3.18l5.887-5.876"></path></symbol><symbol xmlns="http://www.w3.org/2000/svg" fill="none" viewBox="0 0 16 16" id="exit"><path fill="currentColor" fill-rule="evenodd" d="M6 2h7a1 1 0 0 1 1 1v10a1 1 0 0 1-1 1H6a1 1 0 0 1-1-1v-3H4v3a2 2 0 0 0 2 2h7a2 2 0 0 0 2-2V3a2 2 0 0 0-2-2H6a2 2 0 0 0-2 2v3h1V3a1 1 0 0 1 1-1Z" clip-rule="evenodd"></path><path stroke="var(--icon-color)" stroke-linecap="round" stroke-linejoin="round" d="M2.5 8H11m0 0L8.5 5.5M11 8l-2.5 2.5"></path></symbol><symbol xmlns="http://www.w3.org/2000/svg" fill="none" viewBox="0 0 16 16" id="expand-all"><path stroke="currentColor" stroke-linecap="round" stroke-linejoin="round" d="M4.5 6 8 2.5 11.5 6m-7 4L8 13.5l3.5-3.5"></path></symbol><symbol xmlns="http://www.w3.org/2000/svg" fill="none" viewBox="0 0 16 16" id="export"><path fill="currentColor" fill-rule="evenodd" d="M13.962 2.309a.5.5 0 0 0-.106-.16l-.005-.005A.498.498 0 0 0 13.5 2h-4a.5.5 0 0 0 0 1h2.793L7.146 8.146a.5.5 0 1 0 .708.708L13 3.707V6.5a.5.5 0 0 0 1 0V2.497a.501.501 0 0 0-.038-.188Z" clip-rule="evenodd"></path><path stroke="currentColor" stroke-linecap="round" d="M2.5 4.5V12A1.5 1.5 0 0 0 4 13.5h7.5"></path></symbol><symbol xmlns="http://www.w3.org/2000/svg" fill="none" viewBox="0 0 16 16" id="external-link"><path fill="currentColor" fill-rule="evenodd" d="M5 5.5a.5.5 0 0 1 .5-.5H11v5.5a.5.5 0 0 1-1 0V6.707l-5.146 5.147a.5.5 0 0 1-.708-.708L9.293 6H5.5a.5.5 0 0 1-.5-.5Z" clip-rule="evenodd"></path></symbol><symbol xmlns="http://www.w3.org/2000/svg" id="favourite" viewBox="0 0 48 48"><path fill="currentColor" d="m24 41.95-2.05-1.85q-5.3-4.85-8.75-8.375-3.45-3.525-5.5-6.3T4.825 20.4Q4 18.15 4 15.85q0-4.5 3.025-7.525Q10.05 5.3 14.5 5.3q2.85 0 5.275 1.35Q22.2 8 24 10.55q2.1-2.7 4.45-3.975T33.5 5.3q4.45 0 7.475 3.025Q44 11.35 44 15.85q0 2.3-.825 4.55T40.3 25.425q-2.05 2.775-5.5 6.3T26.05 40.1ZM24 38q5.05-4.65 8.325-7.975 3.275-3.325 5.2-5.825 1.925-2.5 2.7-4.45.775-1.95.775-3.9 0-3.3-2.1-5.425T33.5 8.3q-2.55 0-4.75 1.575T25.2 14.3h-2.45q-1.3-2.8-3.5-4.4-2.2-1.6-4.75-1.6-3.3 0-5.4 2.125Q7 12.55 7 15.85q0 1.95.775 3.925.775 1.975 2.7 4.5Q12.4 26.8 15.7 30.1 19 33.4 24 38Zm0-14.85Z"></path></symbol><symbol xmlns="http://www.w3.org/2000/svg" fill="none" viewBox="0 0 16 16" id="filter"><path stroke="currentColor" stroke-linejoin="round" d="M13.5 2.5h-11l4 5V14l3-2V7.5l4-5Z"></path></symbol><symbol xmlns="http://www.w3.org/2000/svg" fill="none" viewBox="0 0 16 16" id="groups"><g stroke="currentColor"><rect width="5" height="5" x="1.5" y="1.5" rx=".5"></rect><rect width="5" height="5" x="1.5" y="8.5" rx=".5"></rect><rect width="5" height="5" x="8.5" y="8.5" rx=".5"></rect><rect width="5" height="5" x="8.5" y="1.5" rx=".5"></rect></g></symbol><symbol xmlns="http://www.w3.org/2000/svg" fill="none" viewBox="0 0 16 16" id="help"><g fill="currentColor"><circle cx="7.8" cy="14.15" r=".85"></circle><path d="M7.98 8.251c.224-.237.518-.515.88-.833.373-.328.668-.61.886-.847V6.57a3 3 0 0 0 .552-.837l.001-.002a2.54 2.54 0 0 0 .228-1.097c0-.499-.104-.938-.311-1.32a2.205 2.205 0 0 0-.873-.892h-.001a2.537 2.537 0 0 0-1.299-.329c-.51 0-.961.114-1.356.338-.389.225-.692.54-.912.949-.102.192-.18.4-.234.62a2.997 2.997 0 0 0-.058.317c-.04.302-.275.55-.58.55H4.78a.53.53 0 0 1-.53-.55c.01-.108.025-.213.043-.317a3.69 3.69 0 0 1 .415-1.191 3.385 3.385 0 0 1 1.36-1.331C6.647 1.158 7.31 1 8.053 1c.723 0 1.367.152 1.928.458.567.3 1.008.722 1.322 1.264.313.543.469 1.165.469 1.865 0 .549-.09 1.038-.274 1.464-.181.42-.405.775-.674 1.064-.257.282-.595.605-1.015.967-.335.29-.595.532-.782.725a2.56 2.56 0 0 0-.448.64v.002a1.685 1.685 0 0 0-.18.78.48.48 0 0 1-.48.48H7.72a.528.528 0 0 1-.527-.527c0-.405.075-.772.227-1.097.15-.32.337-.597.56-.834Z"></path></g></symbol><symbol xmlns="http://www.w3.org/2000/svg" fill="none" viewBox="0 0 16 16" id="hide"><path stroke="currentColor" stroke-linecap="round" d="M2 8h12"></path></symbol><symbol xmlns="http://www.w3.org/2000/svg" fill="none" viewBox="0 0 16 16" id="history"><g stroke="currentColor"><circle cx="8" cy="8" r="6.5"></circle><path stroke-linecap="round" stroke-linejoin="round" d="M8 5v3l2.5 1.5"></path></g></symbol><symbol xmlns="http://www.w3.org/2000/svg" fill="none" viewBox="0 0 16 16" id="ide-update"><g fill="var(--icon-color)" clip-path="url(#a)"><path d="m8.5 5.207 2.646 2.647a.5.5 0 0 0 .708-.708l-3.5-3.5a.5.5 0 0 0-.708 0l-3.5 3.5a.5.5 0 1 0 .708.708L7.5 5.207V12a.5.5 0 0 0 1 0V5.207Z"></path><path fill-rule="evenodd" d="M8 16A8 8 0 1 0 8 0a8 8 0 0 0 0 16Zm0-1A7 7 0 1 0 8 1a7 7 0 0 0 0 14Z" clip-rule="evenodd"></path></g><defs><clipPath id="a"><path fill="var(--icon-color)" d="M0 0h16v16H0z"></path></clipPath></defs></symbol><symbol xmlns="http://www.w3.org/2000/svg" fill="none" viewBox="0 0 16 16" id="import"><path fill="currentColor" fill-rule="evenodd" d="M7.038 8.691A.498.498 0 0 0 7.5 9h4a.5.5 0 0 0 0-1H8.707l5.147-5.146a.5.5 0 0 0-.708-.708L8 7.293V4.5a.5.5 0 0 0-1 0v4.003a.5.5 0 0 0 .038.188Z" clip-rule="evenodd"></path><path stroke="currentColor" stroke-linecap="round" d="M2.5 4.5V12A1.5 1.5 0 0 0 4 13.5h7.5"></path></symbol><symbol xmlns="http://www.w3.org/2000/svg" fill="none" viewBox="0 0 16 16" id="layout"><path fill="currentColor" fill-rule="evenodd" d="M7 3H4a1 1 0 0 0-1 1v8a1 1 0 0 0 1 1h3V3Zm1 0v4h5V4a1 1 0 0 0-1-1H8Zm0 5v5h4a1 1 0 0 0 1-1V8H8ZM4 2a2 2 0 0 0-2 2v8a2 2 0 0 0 2 2h8a2 2 0 0 0 2-2V4a2 2 0 0 0-2-2H4Z" clip-rule="evenodd"></path></symbol><symbol xmlns="http://www.w3.org/2000/svg" fill="none" viewBox="0 0 16 16" id="left"><path fill="currentColor" fill-rule="evenodd" d="M6.347 3.646a.5.5 0 1 1 .707.708l-3.15 3.15h9.6a.5.5 0 0 1 0 1H3.91l3.143 3.142a.5.5 0 0 1-.707.708l-4-4L1.993 8l.354-.354 4-4Z" clip-rule="evenodd"></path></symbol></svg>