<svg width="0" height="0"><symbol xmlns="http://www.w3.org/2000/svg" id="custom" viewBox="0 0 48 48"><path stroke="#999" d="m12.5 40 2.15-8.5H7l.75-3h7.65l2.25-9H9l.75-3h8.65L20.5 8h2.95l-2.1 8.5h9.05L32.5 8h2.95l-2.1 8.5H41l-.75 3H32.6l-2.25 9H39l-.75 3H29.6L27.5 40h-3l2.15-8.5H17.6L15.5 40Zm5.85-11.5h9.05l2.25-9H20.6Z"/></symbol><symbol xmlns="http://www.w3.org/2000/svg" id="fill" viewBox="0 0 48 48"><path d="m12.45 37.65-2.1-2.1L21.9 24 10.35 12.45l2.1-2.1L24 21.9l11.55-11.55 2.1 2.1L26.1 24l11.55 11.55-2.1 2.1L24 26.1Z"/></symbol><symbol xmlns="http://www.w3.org/2000/svg" id="mixed" viewBox="0 0 48 48"><path fill="currentColor" stroke="currentColor" d="M6 42v-3h36v3Zm0-8.25v-3h23.6v3Zm0-8.25v-3h36v3Zm0-8.25v-3h23.6v3ZM6 9V6h36v3Z"/></symbol><symbol xmlns="http://www.w3.org/2000/svg" id="stroke" viewBox="0 0 48 48"><path stroke="currentColor" d="m24 41.95-2.05-1.85q-5.3-4.85-8.75-8.375-3.45-3.525-5.5-6.3T4.825 20.4Q4 18.15 4 15.85q0-4.5 3.025-7.525Q10.05 5.3 14.5 5.3q2.85 0 5.275 1.35Q22.2 8 24 10.55q2.1-2.7 4.45-3.975T33.5 5.3q4.45 0 7.475 3.025Q44 11.35 44 15.85q0 2.3-.825 4.55T40.3 25.425q-2.05 2.775-5.5 6.3T26.05 40.1ZM24 38q5.05-4.65 8.325-7.975 3.275-3.325 5.2-5.825 1.925-2.5 2.7-4.45.775-1.95.775-3.9 0-3.3-2.1-5.425T33.5 8.3q-2.55 0-4.75 1.575T25.2 14.3h-2.45q-1.3-2.8-3.5-4.4-2.2-1.6-4.75-1.6-3.3 0-5.4 2.125Q7 12.55 7 15.85q0 1.95.775 3.925.775 1.975 2.7 4.5Q12.4 26.8 15.7 30.1 19 33.4 24 38Zm0-14.85Z"/></symbol></svg>