<svg width="0" height="0" class="hidden"><symbol xmlns="http://www.w3.org/2000/svg" fill="none" viewBox="0 0 16 16" id="double-color"><path fill="#6C707E" d="M13 4H8.5L6.736 2.283A1 1 0 0 0 6.038 2H2.75C1.784 2 1 2.836 1 3.867v8.266C1 13.164 1.784 14 2.75 14H8v-1H2.75c-.354 0-.75-.326-.75-.867V3.867c0-.54.396-.867.75-.867h3.288l2.056 2H13a1 1 0 0 1 1 1v1h1V6a2 2 0 0 0-2-2Z"></path><path fill="#3574F0" d="M13 12.5a.5.5 0 0 1 .5-.5h2a.5.5 0 0 1 .5.5v2a.5.5 0 0 1-.5.5h-2a.5.5 0 0 1-.5-.5v-2Zm-4 0a.5.5 0 0 1 .5-.5h2a.5.5 0 0 1 .5.5v2a.5.5 0 0 1-.5.5h-2a.5.5 0 0 1-.5-.5v-2Zm4-4a.5.5 0 0 1 .5-.5h2a.5.5 0 0 1 .5.5v2a.5.5 0 0 1-.5.5h-2a.5.5 0 0 1-.5-.5v-2Z"></path></symbol><symbol xmlns="http://www.w3.org/2000/svg" id="favourite" viewBox="0 0 48 48"><path fill="#eee" stroke="#F1E2C3" d="m24 41.95-2.05-1.85q-5.3-4.85-8.75-8.375-3.45-3.525-5.5-6.3T4.825 20.4Q4 18.15 4 15.85q0-4.5 3.025-7.525Q10.05 5.3 14.5 5.3q2.85 0 5.275 1.35Q22.2 8 24 10.55q2.1-2.7 4.45-3.975T33.5 5.3q4.45 0 7.475 3.025Q44 11.35 44 15.85q0 2.3-.825 4.55T40.3 25.425q-2.05 2.775-5.5 6.3T26.05 40.1ZM24 38q5.05-4.65 8.325-7.975 3.275-3.325 5.2-5.825 1.925-2.5 2.7-4.45.775-1.95.775-3.9 0-3.3-2.1-5.425T33.5 8.3q-2.55 0-4.75 1.575T25.2 14.3h-2.45q-1.3-2.8-3.5-4.4-2.2-1.6-4.75-1.6-3.3 0-5.4 2.125Q7 12.55 7 15.85q0 1.95.775 3.925.775 1.975 2.7 4.5Q12.4 26.8 15.7 30.1 19 33.4 24 38Zm0-14.85Z"></path></symbol><symbol viewBox="0 0 20 20" fill="none" xmlns="http://www.w3.org/2000/svg" id="flag-US"><g clip-path="url(#clip0_1032_4076)"><path d="M10 20C15.5228 20 20 15.5228 20 10C20 4.47715 15.5228 0 10 0C4.47715 0 0 4.47715 0 10C0 15.5228 4.47715 20 10 20Z" fill="#F0F0F0"></path><path d="M10 20C15.5228 20 20 15.5228 20 10C20 4.47715 15.5228 0 10 0C4.47715 0 0 4.47715 0 10C0 15.5228 4.47715 20 10 20Z" fill="#F0F0F0"></path><path d="M9.56547 9.99998H20.0002C20.0002 9.0974 19.8799 8.22303 19.6557 7.39127H9.56547V9.99998ZM9.56547 4.7826H18.5325C17.921 3.7854 17.1401 2.90259 16.2251 2.17389H9.56547V4.7826ZM10.0002 20C12.3537 20 14.5169 19.1865 16.2251 17.8261H3.77539C5.48359 19.1865 7.64676 20 10.0002 20ZM1.46797 15.2174H18.5325C19.0299 14.406 19.4081 13.5275 19.6557 12.6087H0.344727C0.592339 13.5275 0.970614 14.406 1.46797 15.2174Z" fill="#D80027"></path><path d="M4.63219 1.56164H5.54348L4.69582 2.17746L5.01961 3.17391L4.17199 2.55809L3.32437 3.17391L3.60406 2.31309C2.85635 2.93597 2.20303 3.66409 1.66453 4.47469H1.95652L1.41695 4.86668C1.33281 5.0071 1.25214 5.14956 1.175 5.29395L1.43266 6.08695L0.951953 5.7377C0.831984 5.9917 0.722875 6.2507 0.624922 6.51398L0.908789 7.38773H1.95652L1.10887 8.00355L1.43266 9L0.585039 8.38418L0.0773047 8.75309C0.0258214 9.16673 3.78062e-06 9.58316 0 10H10V0C8.02453 0 6.18301 0.573047 4.63219 1.56164ZM5.01961 9L4.17199 8.38418L3.32437 9L3.64816 8.00355L2.80051 7.38773H3.84824L4.17199 6.39129L4.49574 7.38773H5.54348L4.69582 8.00355L5.01961 9ZM4.69582 5.09051L5.01961 6.08695L4.17199 5.47113L3.32437 6.08695L3.64816 5.09051L2.80051 4.47469H3.84824L4.17199 3.47824L4.49574 4.47469H5.54348L4.69582 5.09051ZM8.60656 9L7.75895 8.38418L6.91133 9L7.23512 8.00355L6.38746 7.38773H7.4352L7.75895 6.39129L8.0827 7.38773H9.13043L8.28277 8.00355L8.60656 9ZM8.28277 5.09051L8.60656 6.08695L7.75895 5.47113L6.91133 6.08695L7.23512 5.09051L6.38746 4.47469H7.4352L7.75895 3.47824L8.0827 4.47469H9.13043L8.28277 5.09051ZM8.28277 2.17746L8.60656 3.17391L7.75895 2.55809L6.91133 3.17391L7.23512 2.17746L6.38746 1.56164H7.4352L7.75895 0.565195L8.0827 1.56164H9.13043L8.28277 2.17746Z" fill="#0052B4"></path></g><defs><clipPath id="clip0_1032_4076"><rect width="20" height="20" fill="white"></rect></clipPath></defs></symbol><symbol viewBox="0 0 20 24" fill="none" xmlns="http://www.w3.org/2000/svg" id="icon-with-filter-url"><g filter="url(#filter0_d_1894_15360)"><path fill-rule="evenodd" clip-rule="evenodd" d="M4.41076 4.41076C4.7362 4.08533 5.26384 4.08533 5.58928 4.41076L10 8.82151L14.4108 4.41076C14.7362 4.08533 15.2638 4.08533 15.5893 4.41076C15.9147 4.7362 15.9147 5.26384 15.5893 5.58928L11.1785 10L15.5893 14.4108C15.9147 14.7362 15.9147 15.2638 15.5893 15.5893C15.2638 15.9147 14.7362 15.9147 14.4108 15.5893L10 11.1785L5.58928 15.5893C5.26384 15.9147 4.7362 15.9147 4.41076 15.5893C4.08533 15.2638 4.08533 14.7362 4.41076 14.4108L8.82151 10L4.41076 5.58928C4.08533 5.26384 4.08533 4.7362 4.41076 4.41076Z" fill="#101213"></path></g><defs><filter id="filter0_d_1894_15360" x="-4" y="0" width="28" height="28" filterUnits="userSpaceOnUse" color-interpolation-filters="sRGB"><feFlood flood-opacity="0" result="BackgroundImageFix"></feFlood><feColorMatrix in="SourceAlpha" type="matrix" values="0 0 0 0 0 0 0 0 0 0 0 0 0 0 0 0 0 0 127 0" result="hardAlpha"></feColorMatrix><feOffset dy="4"></feOffset><feGaussianBlur stdDeviation="2"></feGaussianBlur><feComposite in2="hardAlpha" operator="out"></feComposite><feColorMatrix type="matrix" values="0 0 0 0 0 0 0 0 0 0 0 0 0 0 0 0 0 0 0.25 0"></feColorMatrix><feBlend mode="normal" in2="BackgroundImageFix" result="effect1_dropShadow_1894_15360"></feBlend><feBlend mode="normal" in="SourceGraphic" in2="effect1_dropShadow_1894_15360" result="shape"></feBlend></filter></defs></symbol><symbol viewBox="0 0 140 34" fill="none" xmlns="http://www.w3.org/2000/svg" id="linkedin-logo"><g clip-path="url(#clip0_1020_4205)"><path d="M137.201 31.8052C137.287 31.806 137.371 31.7893 137.45 31.756C137.529 31.7227 137.6 31.6736 137.659 31.6117C137.718 31.5497 137.764 31.4763 137.793 31.396C137.823 31.3157 137.835 31.2301 137.831 31.1447C137.831 30.6763 137.548 30.4525 136.969 30.4525H136.032V32.9049H136.384V31.8359H136.817L136.827 31.8489L137.499 32.9049H137.875L137.153 31.812L137.201 31.8052ZM136.794 31.5595H136.385V30.7304H136.903C137.17 30.7304 137.475 30.7741 137.475 31.1244C137.475 31.5273 137.167 31.5595 136.792 31.5595" fill="#0A66C2"></path><path d="M0 4.98972H5.1984V23.9347H14.8222V28.7344H0V4.98972Z" fill="#0A66C2"></path><path d="M17.1193 12.6348H22.1133V28.7256H17.1193V12.6348ZM19.6163 4.63525C20.1892 4.63536 20.7493 4.80544 21.2256 5.12399C21.702 5.44254 22.0732 5.89526 22.2924 6.42489C22.5116 6.95453 22.5689 7.5373 22.457 8.09952C22.3452 8.66173 22.0693 9.17814 21.6641 9.58345C21.2589 9.98876 20.7427 10.2648 20.1808 10.3766C19.6188 10.4884 19.0363 10.4309 18.507 10.2115C17.9777 9.99213 17.5253 9.62063 17.2069 9.14399C16.8886 8.66734 16.7188 8.10698 16.7188 7.53373C16.7187 7.15305 16.7937 6.77611 16.9393 6.42441C17.0849 6.07272 17.2984 5.75317 17.5674 5.48401C17.8365 5.21486 18.1559 5.00137 18.5075 4.85574C18.859 4.71011 19.2358 4.63519 19.6163 4.63525Z" fill="#0A66C2"></path><path d="M43.0059 4.98608H47.9998V19.1766L53.6596 12.6276H59.7824L53.2279 20.077L59.6446 28.7324H53.3678L48.0664 20.7786H48.0009V28.7313H43.0069L43.0059 4.98608Z" fill="#0A66C2"></path><path d="M24.8828 12.6364H29.6786V14.8354H29.7467C30.2257 14.0143 30.9187 13.3388 31.7515 12.881C32.5843 12.4232 33.5258 12.2003 34.4754 12.2362C39.5396 12.2362 40.4718 15.5698 40.4718 19.9006V28.7246H35.4778V20.9014C35.4778 19.034 35.4435 16.6336 32.8768 16.6336C30.281 16.6336 29.8804 18.6671 29.8804 20.7656V28.7225H24.8864L24.8828 12.6364Z" fill="#0A66C2"></path><path d="M70.2982 18.8086C70.3078 18.4033 70.235 18.0002 70.0842 17.6238C69.9335 17.2474 69.708 16.9055 69.4213 16.6189C69.1346 16.3323 68.7928 16.1069 68.4165 15.9563C68.0402 15.8058 67.6373 15.7332 67.2321 15.7431C66.3596 15.6888 65.5006 15.9797 64.8404 16.5531C64.1803 17.1266 63.7718 17.9366 63.7031 18.8086H70.2982ZM74.5285 25.939C73.6987 26.9459 72.6554 27.7554 71.4742 28.3091C70.2931 28.8628 69.0036 29.1468 67.6993 29.1404C62.7053 29.1404 58.707 25.8053 58.707 20.6407C58.707 15.4761 62.7048 12.1425 67.6993 12.1425C72.3671 12.1425 75.2942 15.4735 75.2942 20.6407V22.2073H63.7031C63.8474 23.0957 64.3078 23.9021 64.9994 24.4778C65.691 25.0534 66.5673 25.3597 67.4667 25.34C68.1776 25.3356 68.876 25.1533 69.4984 24.8099C70.1209 24.4665 70.6476 23.9727 71.0307 23.3736L74.5285 25.939Z" fill="#0A66C2"></path><path d="M85.7042 16.5243C83.2072 16.5243 81.709 18.1924 81.709 20.623C81.709 23.0536 83.2067 24.7232 85.7042 24.7232C88.2017 24.7232 89.703 23.0577 89.703 20.623C89.703 18.1882 88.2043 16.5243 85.7042 16.5243ZM94.3006 28.7225H89.703V26.5886H89.6349C89.0581 27.3648 88.31 27.9972 87.4488 28.4367C86.5877 28.8762 85.6367 29.1108 84.6701 29.1222C79.8717 29.1222 76.7109 25.6575 76.7109 20.7578C76.7109 16.2578 79.508 12.1259 84.1061 12.1259C86.1729 12.1259 88.1034 12.6916 89.2359 14.2598H89.3014V4.98453H94.3L94.3006 28.7225Z" fill="#0A66C2"></path><path d="M128.014 28.7318H123.02V20.9071C123.02 19.0413 122.987 16.6393 120.422 16.6393C117.821 16.6393 117.423 18.6723 117.423 20.7713V28.7313H112.429V12.6406H117.224V14.8395H117.291C117.771 14.0188 118.464 13.3436 119.297 12.8859C120.13 12.4282 121.071 12.2051 122.021 12.2403C127.083 12.2403 128.016 15.5713 128.016 19.9047L128.014 28.7318ZM106.795 10.4411C106.221 10.4412 105.661 10.2712 105.184 9.95272C104.708 9.6342 104.336 9.18142 104.117 8.65164C103.897 8.12186 103.84 7.53888 103.952 6.97641C104.063 6.41393 104.339 5.89724 104.745 5.49166C105.15 5.08608 105.666 4.80984 106.228 4.69786C106.79 4.58588 107.373 4.64319 107.903 4.86256C108.432 5.08192 108.885 5.45348 109.203 5.93024C109.522 6.40701 109.692 6.96757 109.692 7.54104C109.692 7.92181 109.617 8.29887 109.472 8.65068C109.326 9.00249 109.113 9.32217 108.844 9.59146C108.575 9.86076 108.255 10.0744 107.904 10.2202C107.552 10.3659 107.175 10.441 106.795 10.4411ZM109.292 28.7318H104.292V12.6406H109.292V28.7318ZM130.503 0.0020838H101.783C101.131 -0.0052763 100.503 0.246597 100.037 0.702354C99.5703 1.15811 99.3039 1.78047 99.2959 2.43266V31.2868C99.3036 31.9393 99.5698 32.5621 100.036 33.0183C100.503 33.4746 101.131 33.7269 101.783 33.72H130.503C131.157 33.7282 131.787 33.4765 132.255 33.0203C132.723 32.5641 132.991 31.9406 133 31.2868V2.43058C132.991 1.77709 132.723 1.15403 132.255 0.698282C131.786 0.242535 131.157 -0.00861763 130.503 1.0941e-06" fill="#0A66C2"></path><path d="M136.836 29.3601C136.228 29.3659 135.648 29.6123 135.221 30.0452C134.794 30.4782 134.557 31.0625 134.56 31.6705C134.563 32.2784 134.806 32.8604 135.237 33.2892C135.667 33.7181 136.25 33.9588 136.858 33.9588C137.465 33.9588 138.048 33.7181 138.479 33.2892C138.91 32.8604 139.153 32.2784 139.156 31.6705C139.159 31.0625 138.921 30.4782 138.495 30.0452C138.068 29.6123 137.488 29.3659 136.88 29.3601H136.836ZM136.836 33.6956C136.437 33.7022 136.046 33.5904 135.711 33.3744C135.376 33.1584 135.112 32.8479 134.953 32.4821C134.795 32.1162 134.748 31.7115 134.819 31.3192C134.891 30.9268 135.077 30.5644 135.354 30.2778C135.631 29.9911 135.987 29.7931 136.376 29.7088C136.766 29.6245 137.172 29.6577 137.542 29.8042C137.913 29.9506 138.232 30.2038 138.459 30.5316C138.686 30.8594 138.811 31.2472 138.817 31.646C138.817 31.6574 138.817 31.6683 138.817 31.6798C138.828 32.2029 138.631 32.7089 138.27 33.0868C137.908 33.4646 137.411 33.6832 136.888 33.6945H136.836" fill="#0A66C2"></path></g><defs><clipPath id="clip0_1020_4205"><rect width="140" height="34" fill="white"></rect></clipPath></defs></symbol><symbol viewBox="0 0 40 40" fill="none" xmlns="http://www.w3.org/2000/svg" id="logo-journey-map"><g clip-path="url(#clip0_1038_6698)"><rect width="40" height="40" rx="4" fill="#FBFBFB"></rect><g clip-path="url(#clip1_1038_6698)"><path fill-rule="evenodd" clip-rule="evenodd" d="M8.34082 14.9701C9.43631 12.9971 11.0433 11.3522 12.9945 10.2068C14.9456 9.06138 17.1697 8.45722 19.4352 8.45722C21.7007 8.45722 23.9248 9.06138 25.876 10.2068C27.8272 11.3522 29.4341 12.9971 30.5296 14.9701C29.7464 17.2801 28.2546 19.2875 26.2643 20.7094C24.274 22.1313 21.8855 22.8961 19.4352 22.8961C16.985 22.8961 14.5965 22.1313 12.6062 20.7094C10.6159 19.2875 9.12403 17.2801 8.34082 14.9701ZM19.4349 21.2301C20.2135 21.2301 20.9746 21.0004 21.622 20.57C22.2693 20.1396 22.7739 19.5278 23.0718 18.8121C23.3697 18.0964 23.4476 17.3089 23.2957 16.5491C23.1438 15.7893 22.7688 15.0914 22.2182 14.5437C21.6676 13.996 20.9662 13.623 20.2025 13.472C19.4389 13.3209 18.6474 13.3985 17.9281 13.6951C17.2088 13.9916 16.594 14.4937 16.1616 15.1379C15.7291 15.7821 15.4983 16.5394 15.4985 17.314C15.4986 18.3527 15.9134 19.3488 16.6516 20.0831C17.3898 20.8175 18.391 21.2301 19.4349 21.2301Z" fill="#0F0067"></path><path fill-rule="evenodd" clip-rule="evenodd" d="M6.75684 13.3385C7.01988 14.559 7.28474 15.5713 7.61674 16.4919C8.3009 18.3876 9.2719 19.8924 11.1071 22.0304C14.3502 25.2567 14.8867 29.63 14.443 32.6571C12.162 31.6848 10.2179 30.0679 8.85161 28.0068C7.48535 25.9457 6.757 23.5309 6.75684 21.0619V13.3385ZM32.1082 13.3385C31.8452 14.559 31.5809 15.5713 31.2483 16.4925C30.5642 18.3876 29.5932 19.893 27.758 22.0304C24.5148 25.2573 23.9784 29.63 24.4221 32.6571C26.7029 31.6856 28.6472 30.0697 30.014 28.0095C31.3808 25.9493 32.11 23.5353 32.1113 21.0668L32.1082 13.3385Z" fill="#F69020"></path></g></g><defs><clipPath id="clip0_1038_6698"><rect width="40" height="40" rx="12" fill="white"></rect></clipPath><clipPath id="clip1_1038_6698"><rect width="28" height="28" fill="white" transform="translate(6 6)"></rect></clipPath></defs></symbol></svg>