<svg width="0" height="0"><defs><linearGradient id="inline-all-extract-animated-mask-ref-a-5f551070" x1="0%" x2="100%" y1="0%" y2="0%"><stop offset="0%" stop-color="red"/><stop offset="100%" stop-color="#ff0"/></linearGradient><linearGradient id="inline-all-extract-animated-mask-ref-b-5f551070" x1="0%" x2="100%" y1="0%" y2="100%"><stop offset="0%" stop-color="#00f"><animate attributeName="stop-color" dur="3s" repeatCount="indefinite" values="blue;purple;blue"/></stop><stop offset="100%" stop-color="green"><animate attributeName="stop-color" dur="3s" repeatCount="indefinite" values="green;yellow;green"/></stop></linearGradient><linearGradient id="inline-all-extract-linear-gradient-ref-a-0540f7a7" x1="0%" x2="100%" y1="0%" y2="100%"><stop offset="0%" style="stop-color:#ff0;stop-opacity:1"/><stop offset="100%" style="stop-color:red;stop-opacity:1"/></linearGradient><linearGradient id="inline-all-extract-mixed-gradient-ref-a-836b6a20" x1="0" x2="200" y1="0" y2="200" gradientUnits="userSpaceOnUse"><stop offset="0" style="stop-color:#fff"/><stop offset="1" style="stop-color:#00f"/></linearGradient><linearGradient id="inline-all-extract-mixed-gradient-ref-b-836b6a20" x1="200" x2="0" y1="0" y2="200" gradientUnits="userSpaceOnUse"><stop offset="0" style="stop-color:#fff"/><stop offset="1" style="stop-color:#00f"/></linearGradient><mask id="inline-all-extract-animated-mask-ref-c-5f551070"><path fill="url(#inline-all-extract-animated-mask-ref-a-5f551070)" d="M0 0h200v200H0z"/></mask><mask id="inline-all-extract-flag-ad-ref-a-fc4f87b1"><circle cx="256" cy="256" r="256" fill="#fff"/></mask><mask id="inline-all-extract-flag-uk-ref-a-c3391966"><circle cx="256" cy="256" r="256" fill="#fff"/></mask><pattern id="inline-all-extract-animated-pattern-ref-a-cc20ebf7" width="40" height="40" patternUnits="userSpaceOnUse"><path fill="#ff0" d="M0 0h40v40H0z"/><circle cx="20" cy="20" r="10" fill="orange"><animate attributeName="r" dur="1s" from="10" repeatCount="indefinite" to="15"/></circle></pattern><pattern id="inline-all-extract-mixed-animation-pattern-ref-a-141ec3ea" width="40" height="40" patternUnits="userSpaceOnUse"><circle cx="20" cy="20" r="10" fill="currentColor"/><circle cx="20" cy="20" r="5" fill="currentColor"><animate attributeName="cx" dur="2s" from="10" repeatCount="indefinite" to="30"/><animate attributeName="cy" dur="2s" from="10" repeatCount="indefinite" to="30"/></circle></pattern><filter id="inline-all-extract-combined-filter-ref-a-0c0e9338" width="200%" height="200%" x="0" y="0"><feGaussianBlur in="SourceGraphic" result="blur" stdDeviation="4"/><feColorMatrix in="blur" result="matrixOut" values="0 0 0 0 0 0 0 0 0.5 0 0 0 0 0.5 0 0 0 0 1 0"/><feMerge><feMergeNode in="matrixOut"/><feMergeNode in="SourceGraphic"/></feMerge></filter><filter id="inline-all-extract-dynamic-filter-ref-a-c60a732e"><feTurbulence baseFrequency=".02" numOctaves="3" result="noise" type="fractalNoise"/><feDisplacementMap in="SourceGraphic" in2="noise" scale="43"/><animate attributeName="baseFrequency" dur="10s" repeatCount="indefinite" values="0.05;0.1;0.05"/></filter><symbol id="inline-all-extract-animated-symbol-ref-a-54cc15ca" viewBox="0 0 24 24"><path fill="currentColor" d="m12 2 3 6 7 1-5 5 1 7-6-3-6 3 1-7-5-5 7-1z"/></symbol></defs><symbol xmlns="http://www.w3.org/2000/svg" id="inline-all-extract-add-d1e7ceb4" fill="none" viewBox="0 0 16 16"><g fill="currentColor"><path d="M13.5 6a.5.5 0 0 0 .5-.5v-3a.5.5 0 0 0-.5-.5h-11a.5.5 0 0 0-.5.5v3a.5.5 0 0 0 1 0V3h10v2.5a.5.5 0 0 0 .5.5"/><path d="M5.146 8.353a.5.5 0 0 1 0-.707l2.5-2.5a.5.5 0 0 1 .708 0l2.5 2.5a.5.5 0 0 1-.707.708L8.5 6.707V13.5a.5.5 0 1 1-1 0V6.707L5.854 8.353a.5.5 0 0 1-.708 0"/></g></symbol><symbol xmlns="http://www.w3.org/2000/svg" id="inline-all-extract-animated-mask-5f551070"><path fill="url(#inline-all-extract-animated-mask-ref-b-5f551070)" d="M0 0h200v200H0z" mask="url(#inline-all-extract-animated-mask-ref-c-5f551070)"/></symbol><symbol xmlns="http://www.w3.org/2000/svg" id="inline-all-extract-animated-pattern-cc20ebf7"><path fill="url(#inline-all-extract-animated-pattern-ref-a-cc20ebf7)" d="M0 0h200v200H0z"/></symbol><symbol xmlns="http://www.w3.org/2000/svg" id="inline-all-extract-animated-symbol-54cc15ca"><use x="20" y="20" href="#inline-all-extract-animated-symbol-ref-a-54cc15ca"><animateTransform attributeName="transform" dur="10s" from="0 12 12" repeatCount="indefinite" to="360 12 12" type="rotate"/></use><use x="80" y="20" href="#inline-all-extract-animated-symbol-ref-a-54cc15ca" transform="scale(.5)"/><use x="140" y="20" href="#inline-all-extract-animated-symbol-ref-a-54cc15ca" transform="scale(.75)"/><use x="20" y="80" href="#inline-all-extract-animated-symbol-ref-a-54cc15ca" transform="scale(.25)"/></symbol><symbol xmlns="http://www.w3.org/2000/svg" id="inline-all-extract-checkmark-a60a1b79" fill="none" viewBox="0 0 16 16"><path stroke="currentColor" stroke-linecap="round" stroke-linejoin="round" stroke-width="1.5" d="m2.5 8.25 3.5 3.5 7.5-7.5"/></symbol><symbol xmlns="http://www.w3.org/2000/svg" id="inline-all-extract-close-6690626c" fill="none" viewBox="0 0 16 16"><path stroke="currentColor" stroke-linecap="round" d="M3 13 13 3m0 10L3 3"/></symbol><symbol xmlns="http://www.w3.org/2000/svg" id="inline-all-extract-combined-filter-0c0e9338"><circle cx="100" cy="100" r="60" fill="currentColor" filter="url(#inline-all-extract-combined-filter-ref-a-0c0e9338)"/></symbol><symbol xmlns="http://www.w3.org/2000/svg" id="inline-all-extract-dynamic-filter-c60a732e"><circle cx="100" cy="100" r="80" fill="currentColor" filter="url(#inline-all-extract-dynamic-filter-ref-a-c60a732e)"/></symbol><symbol xmlns="http://www.w3.org/2000/svg" id="inline-all-extract-favourite-476f15b3"><path fill="currentColor" d="m24 41.95-2.05-1.85q-5.3-4.85-8.75-8.375t-5.5-6.3T4.825 20.4 4 15.85q0-4.5 3.025-7.525T14.5 5.3q2.85 0 5.275 1.35T24 10.55q2.1-2.7 4.45-3.975T33.5 5.3q4.45 0 7.475 3.025T44 15.85q0 2.3-.825 4.55T40.3 25.425t-5.5 6.3-8.75 8.375ZM24 38q5.05-4.65 8.325-7.975t5.2-5.825 2.7-4.45.775-3.9q0-3.3-2.1-5.425T33.5 8.3q-2.55 0-4.75 1.575T25.2 14.3h-2.45q-1.3-2.8-3.5-4.4T14.5 8.3q-3.3 0-5.4 2.125T7 15.85q0 1.95.775 3.925t2.7 4.5T15.7 30.1 24 38m0-14.85"/></symbol><symbol xmlns="http://www.w3.org/2000/svg" id="inline-all-extract-flag-ad-fc4f87b1" viewBox="0 0 512 512"><g mask="url(#inline-all-extract-flag-ad-ref-a-fc4f87b1)"><path fill="#0052b4" d="M0 0h144.7l36 254.6-36 257.4H0z"/><path fill="#d80027" d="M367.3 0H512v512H367.3l-29.7-257.3z"/><path fill="#ffda44" d="M144.7 0h222.6v512H144.7z"/><path fill="#d80027" d="M256 354.5V256h66.8v47.3zm-66.8-165.3H256V256h-66.8z"/><path fill="#ff9811" d="M289.4 167a22.3 22.3 0 0 0-33.4-19.3 22.1 22.1 0 0 0-11.1-3c-12.3 0-22.3 10-22.3 22.3H167v111.3c0 41.4 32.9 65.4 58.7 77.8a22.1 22.1 0 0 0-3 11.2 22.3 22.3 0 0 0 33.3 19.3 22.1 22.1 0 0 0 11.1 3 22.3 22.3 0 0 0 19.2-33.5c25.8-12.4 58.7-36.4 58.7-77.8V167zm22.3 111.3c0 5.8 0 23.4-27.5 40.9a136.5 136.5 0 0 1-28.2 13.3c-7-2.4-17.8-6.7-28.2-13.3-27.5-17.5-27.5-35.1-27.5-41v-77.9h111.4z"/></g></symbol><symbol xmlns="http://www.w3.org/2000/svg" id="inline-all-extract-flag-uk-c3391966" viewBox="0 0 512 512"><g mask="url(#inline-all-extract-flag-uk-ref-a-c3391966)"><path fill="#eee" d="m0 0 8 22-8 23v23l32 54-32 54v32l32 48-32 48v32l32 54-32 54v68l22-8 23 8h23l54-32 54 32h32l48-32 48 32h32l54-32 54 32h68l-8-22 8-23v-23l-32-54 32-54v-32l-32-48 32-48v-32l-32-54 32-54V0l-22 8-23-8h-23l-54 32-54-32h-32l-48 32-48-32h-32l-54 32L68 0z"/><path fill="#0052b4" d="M336 0v108L444 0Zm176 68L404 176h108zM0 176h108L0 68ZM68 0l108 108V0Zm108 512V404L68 512ZM0 444l108-108H0Zm512-108H404l108 108Zm-68 176L336 404v108z"/><path fill="#d80027" d="M0 0v45l131 131h45zm208 0v208H0v96h208v208h96V304h208v-96H304V0zm259 0L336 131v45L512 0zM176 336 0 512h45l131-131zm160 0 176 176v-45L381 336z"/></g></symbol><symbol xmlns="http://www.w3.org/2000/svg" id="inline-all-extract-folder-colored-cd78d9d5" fill="none" viewBox="0 0 16 16"><path fill="currentColor" d="M13 4H8.5L6.736 2.283A1 1 0 0 0 6.038 2H2.75C1.784 2 1 2.836 1 3.867v8.266C1 13.164 1.784 14 2.75 14H8v-1H2.75c-.354 0-.75-.326-.75-.867V3.867c0-.54.396-.867.75-.867h3.288l2.056 2H13a1 1 0 0 1 1 1v1h1V6a2 2 0 0 0-2-2"/><path fill="currentColor" d="M13 12.5a.5.5 0 0 1 .5-.5h2a.5.5 0 0 1 .5.5v2a.5.5 0 0 1-.5.5h-2a.5.5 0 0 1-.5-.5zm-4 0a.5.5 0 0 1 .5-.5h2a.5.5 0 0 1 .5.5v2a.5.5 0 0 1-.5.5h-2a.5.5 0 0 1-.5-.5zm4-4a.5.5 0 0 1 .5-.5h2a.5.5 0 0 1 .5.5v2a.5.5 0 0 1-.5.5h-2a.5.5 0 0 1-.5-.5z"/></symbol><symbol xmlns="http://www.w3.org/2000/svg" id="inline-all-extract-hex-a-fill-d80501b9" fill="none" viewBox="0 0 16 16"><g fill="currentColor"><path d="M14 5.5a.5.5 0 0 1-1 0V3H3v2.5a.5.5 0 0 1-1 0v-3a.5.5 0 0 1 .5-.5h11a.5.5 0 0 1 .5.5z"/><path d="M5.146 11.354a.5.5 0 0 1 .707-.707L7.5 12.293V5.5a.5.5 0 1 1 1 0v6.793l1.646-1.647a.5.5 0 1 1 .707.707l-2.5 2.5a.5.5 0 0 1-.707 0z"/></g></symbol><symbol xmlns="http://www.w3.org/2000/svg" id="inline-all-extract-linear-gradient-0540f7a7" viewBox="0 0 100 100"><ellipse cx="50" cy="50" fill="url(#inline-all-extract-linear-gradient-ref-a-0540f7a7)" rx="50" ry="25"/></symbol><symbol xmlns="http://www.w3.org/2000/svg" id="inline-all-extract-mixed-animation-pattern-141ec3ea"><path fill="url(#inline-all-extract-mixed-animation-pattern-ref-a-141ec3ea)" d="M0 0h200v200H0z"/></symbol><symbol xmlns="http://www.w3.org/2000/svg" id="inline-all-extract-mixed-gradient-836b6a20"><circle cx="100" cy="100" r="100" fill="url(#inline-all-extract-mixed-gradient-ref-a-836b6a20)"/><circle cx="100" cy="100" r="50" fill="url(#inline-all-extract-mixed-gradient-ref-b-836b6a20)"/></symbol><symbol xmlns="http://www.w3.org/2000/svg" id="inline-all-extract-simple-hex-upper-38564154" fill="none" viewBox="0 0 16 16"><path fill="currentColor" fill-rule="evenodd" d="M7.5 1a.5.5 0 0 1 .5.5V7h5.5a.5.5 0 0 1 0 1H8v5.5a.5.5 0 0 1-1 0V8H1.5a.5.5 0 0 1 0-1H7V1.5a.5.5 0 0 1 .5-.5" clip-rule="evenodd"/></symbol></svg>