<svg width="0" height="0"><symbol xmlns="http://www.w3.org/2000/svg" id="add" fill="none" viewBox="0 0 16 16"><g fill="currentColor"><path d="M13.5 6a.5.5 0 0 0 .5-.5v-3a.5.5 0 0 0-.5-.5h-11a.5.5 0 0 0-.5.5v3a.5.5 0 0 0 1 0V3h10v2.5a.5.5 0 0 0 .5.5"/><path d="M5.146 8.353a.5.5 0 0 1 0-.707l2.5-2.5a.5.5 0 0 1 .708 0l2.5 2.5a.5.5 0 0 1-.707.708L8.5 6.707V13.5a.5.5 0 1 1-1 0V6.707L5.854 8.353a.5.5 0 0 1-.708 0"/></g></symbol><symbol xmlns="http://www.w3.org/2000/svg" id="checkmark" fill="none" viewBox="0 0 16 16"><path stroke="currentColor" stroke-linecap="round" stroke-linejoin="round" stroke-width="1.5" d="m2.5 8.25 3.5 3.5 7.5-7.5"/></symbol><symbol xmlns="http://www.w3.org/2000/svg" id="close" fill="none" viewBox="0 0 16 16"><path stroke="currentColor" stroke-linecap="round" d="M3 13 13 3m0 10L3 3"/></symbol><symbol xmlns="http://www.w3.org/2000/svg" id="favourite"><path fill="currentColor" d="m24 41.95-2.05-1.85q-5.3-4.85-8.75-8.375t-5.5-6.3T4.825 20.4 4 15.85q0-4.5 3.025-7.525T14.5 5.3q2.85 0 5.275 1.35T24 10.55q2.1-2.7 4.45-3.975T33.5 5.3q4.45 0 7.475 3.025T44 15.85q0 2.3-.825 4.55T40.3 25.425t-5.5 6.3-8.75 8.375ZM24 38q5.05-4.65 8.325-7.975t5.2-5.825 2.7-4.45.775-3.9q0-3.3-2.1-5.425T33.5 8.3q-2.55 0-4.75 1.575T25.2 14.3h-2.45q-1.3-2.8-3.5-4.4T14.5 8.3q-3.3 0-5.4 2.125T7 15.85q0 1.95.775 3.925t2.7 4.5T15.7 30.1 24 38m0-14.85"/></symbol><symbol xmlns="http://www.w3.org/2000/svg" id="folder-colored" fill="none" viewBox="0 0 16 16"><path fill="currentColor" d="M13 4H8.5L6.736 2.283A1 1 0 0 0 6.038 2H2.75C1.784 2 1 2.836 1 3.867v8.266C1 13.164 1.784 14 2.75 14H8v-1H2.75c-.354 0-.75-.326-.75-.867V3.867c0-.54.396-.867.75-.867h3.288l2.056 2H13a1 1 0 0 1 1 1v1h1V6a2 2 0 0 0-2-2"/><path fill="currentColor" d="M13 12.5a.5.5 0 0 1 .5-.5h2a.5.5 0 0 1 .5.5v2a.5.5 0 0 1-.5.5h-2a.5.5 0 0 1-.5-.5zm-4 0a.5.5 0 0 1 .5-.5h2a.5.5 0 0 1 .5.5v2a.5.5 0 0 1-.5.5h-2a.5.5 0 0 1-.5-.5zm4-4a.5.5 0 0 1 .5-.5h2a.5.5 0 0 1 .5.5v2a.5.5 0 0 1-.5.5h-2a.5.5 0 0 1-.5-.5z"/></symbol><symbol xmlns="http://www.w3.org/2000/svg" id="hex-a-fill" fill="none" viewBox="0 0 16 16"><g fill="currentColor"><path d="M14 5.5a.5.5 0 0 1-1 0V3H3v2.5a.5.5 0 0 1-1 0v-3a.5.5 0 0 1 .5-.5h11a.5.5 0 0 1 .5.5z"/><path d="M5.146 11.354a.5.5 0 0 1 .707-.707L7.5 12.293V5.5a.5.5 0 1 1 1 0v6.793l1.646-1.647a.5.5 0 1 1 .707.707l-2.5 2.5a.5.5 0 0 1-.707 0z"/></g></symbol><symbol xmlns="http://www.w3.org/2000/svg" id="simple-hex-upper" fill="none" viewBox="0 0 16 16"><path fill="currentColor" fill-rule="evenodd" d="M7.5 1a.5.5 0 0 1 .5.5V7h5.5a.5.5 0 0 1 0 1H8v5.5a.5.5 0 0 1-1 0V8H1.5a.5.5 0 0 1 0-1H7V1.5a.5.5 0 0 1 .5-.5" clip-rule="evenodd"/></symbol></svg>