<svg xmlns="http://www.w3.org/2000/svg" width="106" height="48" fill="none" viewBox="0 0 106 48"><g filter="url(#a)"><path fill="#4338CA" d="M8 18c0-6.627 5.373-12 12-12h66c6.627 0 12 5.373 12 12v8c0 6.627-5.373 12-12 12H20c-6.627 0-12-5.373-12-12v-8Z"/><path fill="#fff" d="M17.53 27V16.818h3.56c.71 0 1.295.123 1.755.368.461.242.804.569 1.03.98.225.407.338.86.338 1.357 0 .437-.078.799-.234 1.084-.152.285-.355.51-.607.676a2.763 2.763 0 0 1-.81.368v.099c.312.02.625.13.94.328.315.199.578.484.79.855.212.372.318.826.318 1.363 0 .51-.116.969-.348 1.377-.232.407-.598.73-1.098.969-.5.239-1.152.358-1.954.358h-3.68Zm1.234-1.094h2.446c.805 0 1.377-.155 1.715-.467a1.5 1.5 0 0 0 .512-1.143c0-.345-.088-.663-.263-.955a1.907 1.907 0 0 0-.751-.706c-.325-.179-.71-.269-1.154-.269h-2.505v3.54Zm0-4.613h2.287c.37 0 .706-.073 1.004-.22.302-.145.54-.35.716-.616.179-.265.268-.576.268-.934a1.55 1.55 0 0 0-.467-1.139c-.312-.315-.805-.472-1.482-.472h-2.326v3.38Zm12.526 2.585v-4.514h1.173V27H31.29v-1.293h-.08a2.503 2.503 0 0 1-.835.99c-.378.268-.855.402-1.432.402a2.55 2.55 0 0 1-1.273-.313 2.192 2.192 0 0 1-.875-.954c-.212-.428-.318-.966-.318-1.616v-4.852h1.174v4.772c0 .557.155 1.001.467 1.333.315.331.716.497 1.203.497a2 2 0 0 0 .89-.224c.305-.149.56-.378.766-.686.208-.308.313-.7.313-1.178Zm6.643-4.514v.994h-3.957v-.994h3.957Zm-2.804-1.83h1.173v7.279c0 .33.048.58.145.745a.74.74 0 0 0 .377.328c.156.053.32.08.492.08.13 0 .236-.007.319-.02l.199-.04.238 1.054c-.08.03-.19.06-.333.09a2.45 2.45 0 0 1-.542.05 2.37 2.37 0 0 1-.974-.214 1.937 1.937 0 0 1-.786-.652c-.205-.291-.308-.66-.308-1.103v-7.597Zm7.89 1.83v.994h-3.957v-.994h3.957Zm-2.804-1.83h1.173v7.279c0 .33.048.58.144.745.1.163.226.272.378.328.156.053.32.08.492.08.13 0 .236-.007.319-.02l.199-.04.238 1.054c-.08.03-.19.06-.333.09-.143.033-.323.05-.542.05a2.37 2.37 0 0 1-.974-.214 1.937 1.937 0 0 1-.786-.652c-.205-.291-.308-.66-.308-1.103v-7.597Zm7.59 9.625c-.69 0-1.295-.164-1.816-.492a3.344 3.344 0 0 1-1.213-1.377c-.288-.59-.432-1.28-.432-2.068 0-.796.144-1.49.432-2.084a3.337 3.337 0 0 1 1.213-1.382c.52-.328 1.126-.492 1.815-.492.69 0 1.293.164 1.81.492.52.328.924.79 1.213 1.383.291.593.437 1.287.437 2.083 0 .788-.146 1.478-.437 2.068a3.298 3.298 0 0 1-1.213 1.377c-.517.328-1.12.492-1.81.492Zm0-1.054c.523 0 .954-.134 1.292-.403.338-.268.588-.621.75-1.059.163-.437.244-.911.244-1.421s-.081-.986-.244-1.427a2.405 2.405 0 0 0-.75-1.07c-.338-.27-.77-.407-1.293-.407-.524 0-.955.136-1.293.408a2.404 2.404 0 0 0-.75 1.069c-.163.44-.244.916-.244 1.427 0 .51.081.984.244 1.421.162.438.412.79.75 1.06.338.268.77.402 1.293.402Zm6.424-3.699V27h-1.174v-7.636h1.134v1.193h.1c.178-.388.45-.7.815-.935.364-.238.835-.358 1.412-.358.517 0 .969.106 1.357.318.388.21.69.527.905.955.215.424.323.961.323 1.61V27h-1.173v-4.773c0-.6-.156-1.067-.468-1.402-.311-.338-.739-.507-1.282-.507-.375 0-.71.081-1.005.244-.291.162-.522.4-.69.71-.17.312-.254.69-.254 1.134Zm14.274-3.042v.994h-3.957v-.994h3.957Zm-2.804-1.83h1.174v7.279c0 .33.048.58.144.745.1.163.225.272.378.328.155.053.32.08.492.08.13 0 .235-.007.318-.02l.199-.04.239 1.054c-.08.03-.191.06-.334.09a2.45 2.45 0 0 1-.541.05 2.37 2.37 0 0 1-.975-.214 1.938 1.938 0 0 1-.786-.652c-.205-.291-.308-.66-.308-1.103v-7.597Zm7.689 9.625c-.736 0-1.37-.162-1.904-.487a3.27 3.27 0 0 1-1.228-1.372c-.285-.59-.428-1.276-.428-2.059 0-.782.143-1.471.428-2.068.288-.6.69-1.067 1.203-1.402.517-.338 1.12-.507 1.81-.507.397 0 .79.067 1.178.2.388.132.74.347 1.059.645.318.295.572.686.76 1.174.19.487.284 1.087.284 1.8v.497h-5.887v-1.015h4.694c0-.43-.087-.815-.259-1.153a1.948 1.948 0 0 0-.726-.8c-.311-.196-.68-.294-1.103-.294-.468 0-.872.116-1.214.348a2.29 2.29 0 0 0-.78.895A2.63 2.63 0 0 0 71 22.744v.677c0 .576.1 1.065.299 1.466.202.398.482.701.84.91.358.205.774.308 1.248.308.308 0 .587-.043.835-.13.252-.089.47-.221.651-.397.183-.179.324-.4.423-.666l1.133.318c-.119.385-.32.723-.601 1.014-.282.289-.63.514-1.044.677-.414.159-.88.238-1.397.238Zm5.616-7.795 1.83 3.122 1.83-3.122h1.352l-2.466 3.818L84.016 27h-1.352l-1.83-2.963L79.004 27h-1.352l2.426-3.818-2.426-3.818h1.352Zm10.007 0v.994h-3.957v-.994h3.957Zm-2.804-1.83h1.173v7.279c0 .33.049.58.145.745a.74.74 0 0 0 .377.328c.156.053.32.08.493.08.129 0 .235-.007.318-.02l.199-.04.238 1.054c-.08.03-.19.06-.333.09-.142.033-.323.05-.542.05a2.37 2.37 0 0 1-.974-.214 1.937 1.937 0 0 1-.786-.652c-.205-.291-.308-.66-.308-1.103v-7.597Z"/></g><defs><filter id="a" width="106" height="48" x="0" y="0" color-interpolation-filters="sRGB" filterUnits="userSpaceOnUse"><feFlood flood-opacity="0" result="BackgroundImageFix"/><feColorMatrix in="SourceAlpha" result="hardAlpha" values="0 0 0 0 0 0 0 0 0 0 0 0 0 0 0 0 0 0 127 0"/><feMorphology in="SourceAlpha" radius="8" result="effect1_dropShadow_56_2034"/><feOffset dy="2"/><feGaussianBlur stdDeviation="8"/><feComposite in2="hardAlpha" operator="out"/><feColorMatrix values="0 0 0 0 0 0 0 0 0 0 0 0 0 0 0 0 0 0 0.75 0"/><feBlend in2="BackgroundImageFix" result="effect1_dropShadow_56_2034"/><feColorMatrix in="SourceAlpha" result="hardAlpha" values="0 0 0 0 0 0 0 0 0 0 0 0 0 0 0 0 0 0 127 0"/><feOffset/><feGaussianBlur stdDeviation=".5"/><feComposite in2="hardAlpha" operator="out"/><feColorMatrix values="0 0 0 0 0 0 0 0 0 0 0 0 0 0 0 0 0 0 0.7 0"/><feBlend in2="effect1_dropShadow_56_2034" result="effect2_dropShadow_56_2034"/><feBlend in="SourceGraphic" in2="effect2_dropShadow_56_2034" result="shape"/></filter></defs></svg>