<svg width="0" height="0"><symbol xmlns="http://www.w3.org/2000/svg" id="ant" fill="none" viewBox="0 0 16 16"><path stroke="currentColor" stroke-linecap="round" stroke-linejoin="round" d="M12.4 14.4v-3.68l-1.994-.841M3.598 14.4v-3.68l1.994-.841M12.4 4.4v2.4L10 8.4m-6.4-4v2.4L6 8.4"/><path fill="currentColor" d="M8.009 2.362v.5zM7.999 14.4v.5zm1.47-9.775c0 .663-.149.902-.292 1.015-.179.14-.51.222-1.168.222v1c.665 0 1.313-.066 1.784-.435.506-.396.676-1.026.676-1.802zm-1.46-1.763c.283 0 .65.105.939.366.276.25.52.674.52 1.397h1c0-.975-.342-1.68-.85-2.14a2.44 2.44 0 0 0-1.61-.623zm-1.46 1.763c0-.723.245-1.148.52-1.397.29-.26.656-.366.94-.366v-1c-.5 0-1.114.178-1.609.624-.508.458-.851 1.164-.851 2.139zm1.46 1.237c-.659 0-.99-.082-1.168-.222-.144-.113-.292-.352-.292-1.015h-1c0 .776.17 1.406.675 1.802.471.37 1.12.435 1.785.435zm1.89 4.6c0 .567-.181 1.477-.55 2.234-.382.788-.856 1.204-1.35 1.204v1c1.107 0 1.833-.908 2.25-1.767.433-.89.65-1.95.65-2.672zM8 8.5c1.006 0 1.9.814 1.9 1.961h1C10.9 8.754 9.55 7.5 8 7.5zm-1.9 1.96c0-1.146.895-1.96 1.9-1.96v-1c-1.55 0-2.9 1.254-2.9 2.961zM8 13.9c-.493 0-.967-.416-1.35-1.204-.367-.757-.55-1.667-.55-2.235h-1c0 .723.219 1.782.65 2.672.418.859 1.144 1.767 2.25 1.767z"/><path stroke="currentColor" stroke-linecap="round" stroke-linejoin="round" d="m9.6 3.2.8-2m-4 2-.8-2"/></symbol><symbol xmlns="http://www.w3.org/2000/svg" id="aws-glue" fill="none" viewBox="0 0 13 13"><path fill="currentColor" fill-rule="evenodd" d="M6.5.5 1 3v2.279l5.5.41L12 5V3zM7 1.777l4 1.58V4H7z" clip-rule="evenodd"/><path stroke="currentColor" d="M6.5 7h5v2.64l-5 1.666z"/><path fill="currentColor" fill-rule="evenodd" d="m3.5 11.154-1-.577V6.5h1zM1 9.711V6.5h1v3.788zM4.965 12 4 11.443V6.5h1V12z" clip-rule="evenodd"/></symbol><symbol xmlns="http://www.w3.org/2000/svg" id="bookmarks" fill="none" viewBox="0 0 16 16"><path stroke="currentColor" d="M8.312 11.562 8 11.312l-.312.25-3.374 2.705a.5.5 0 0 1-.813-.39V3.5A1.5 1.5 0 0 1 5 2h5.999a1.5 1.5 0 0 1 1.5 1.5v10.377a.5.5 0 0 1-.813.39z"/></symbol><symbol xmlns="http://www.w3.org/2000/svg" id="build-server-protocol" fill="none" viewBox="0 0 16 16"><path fill="currentColor" fill-rule="evenodd" d="M7.146 2.146a.5.5 0 0 0 0 .708L8.293 4H3.5a.5.5 0 0 0 0 1h4.793L7.146 6.146a.5.5 0 1 0 .708.708l2-2a.5.5 0 0 0 0-.708l-2-2a.5.5 0 0 0-.708 0m1.708 7a.5.5 0 0 0-.708 0l-2 2a.5.5 0 0 0 0 .708l2 2a.5.5 0 0 0 .708-.708L7.707 12H12.5a.5.5 0 0 0 0-1H7.707l1.147-1.146a.5.5 0 0 0 0-.708M14.5 1a.5.5 0 0 1 .5.5v13a.5.5 0 0 1-1 0v-13a.5.5 0 0 1 .5-.5m-13 0a.5.5 0 0 1 .5.5v13a.5.5 0 0 1-1 0v-13a.5.5 0 0 1 .5-.5" clip-rule="evenodd"/></symbol><symbol xmlns="http://www.w3.org/2000/svg" id="build" fill="none" viewBox="0 0 16 16"><g stroke="currentColor" stroke-linejoin="round"><path d="M3.6 1.5h-2v3.2h2l.8-.4h1.2l1 .8h2.2l1.6-1.2c1.2 0 2 0 4 1.4-1.2-3.8-3.6-3.8-4.8-3.8h-3l-1 .4H4.4z"/><path d="M6 14.5h3.4V9.426a5 5 0 0 0-.404-1.97L8.8 7V5H6.6v2l-.196.457A5 5 0 0 0 6 9.427z"/></g></symbol><symbol xmlns="http://www.w3.org/2000/svg" id="c-make-tool-window" fill="none" viewBox="0 0 16 16"><g stroke="currentColor"><path d="M14.568 14.501H1.431L8 1.621z"/><path d="m5.486 10.761 3.281-2.856.463 4.452z"/></g></symbol><symbol xmlns="http://www.w3.org/2000/svg" id="changes" fill="none" viewBox="0 0 16 16"><g fill="currentColor"><rect width="7" height="1" x="2" y="5" rx=".5"/><rect width="5" height="1" x="2" y="8" rx=".5"/><rect width="12" height="1" x="2" y="2" rx=".5"/><path fill-rule="evenodd" d="M12.146 6.146a.5.5 0 0 1 .708.708L11.707 8H15.5a.5.5 0 0 1 0 1h-3.793l1.147 1.146a.5.5 0 0 1-.708.708l-2-2-.353-.354.353-.354zm-3.292 4a.5.5 0 0 0-.708.708L9.293 12H5.5a.5.5 0 0 0 0 1h3.793l-1.147 1.146a.5.5 0 0 0 .708.708l2-2 .353-.354-.353-.354z" clip-rule="evenodd"/></g></symbol><symbol xmlns="http://www.w3.org/2000/svg" id="commit" fill="none" viewBox="0 0 16 16"><path fill="currentColor" fill-rule="evenodd" d="M8 10a2 2 0 1 0 0-4 2 2 0 0 0 0 4m2.959-2.5a3 3 0 0 0-5.918 0H.5a.5.5 0 0 0 0 1h4.541a3 3 0 0 0 5.918 0H15.5a.5.5 0 0 0 0-1z" clip-rule="evenodd"/></symbol><symbol xmlns="http://www.w3.org/2000/svg" id="concurrency-diagram-toolwindow" fill="none" viewBox="0 0 16 16"><path fill="currentColor" d="M2 5.5a.5.5 0 0 1 .5-.5h11a.5.5 0 0 1 0 1h-11a.5.5 0 0 1-.5-.5m0 3a.5.5 0 0 1 .5-.5h4a.5.5 0 0 1 0 1h-4a.5.5 0 0 1-.5-.5m0-6a.5.5 0 0 1 .5-.5h11a.5.5 0 0 1 0 1h-11a.5.5 0 0 1-.5-.5"/><path stroke="currentColor" d="M9.5 13.536V9.464a1 1 0 0 1 1.588-.81l2.8 2.037a1 1 0 0 1 0 1.617l-2.8 2.037a1 1 0 0 1-1.588-.809Z"/></symbol><symbol xmlns="http://www.w3.org/2000/svg" id="coverage" fill="none" viewBox="0 0 16 16"><g fill="currentColor" fill-rule="evenodd" clip-rule="evenodd"><path d="m8 .457 6 2.545v5.776c0 1.766-.892 3.057-2.032 4.079-.839.751-1.86 1.395-2.797 1.987a54 54 0 0 0-.896.573L8 15.6l-.275-.182a54 54 0 0 0-.896-.573c-.937-.592-1.958-1.236-2.797-1.987C2.892 11.835 2 10.544 2 8.777V3.003zM3 3.664v5.114c0 1.377.679 2.42 1.7 3.334.77.69 1.684 1.268 2.602 1.847q.35.22.698.444.348-.224.698-.444c.918-.58 1.832-1.157 2.602-1.847 1.021-.915 1.7-1.957 1.7-3.334V3.664l-5-2.12z"/><path d="M10.854 5.725a.5.5 0 0 1 0 .707l-3.5 3.5a.5.5 0 0 1-.708 0l-1.5-1.5a.5.5 0 1 1 .708-.707L7 8.87l3.146-3.146a.5.5 0 0 1 .708 0Z"/></g></symbol><symbol xmlns="http://www.w3.org/2000/svg" id="cwm-access" fill="none" viewBox="0 0 16 16"><g fill="currentColor"><path fill-rule="evenodd" d="M8 7a3 3 0 1 0 0-6 3 3 0 0 0 0 6m0-1a2 2 0 1 0 0-4 2 2 0 0 0 0 4" clip-rule="evenodd"/><path d="M2.103 13.008C2.399 11.303 3.548 8 8 8c1.238 0 2.22.255 3 .66v1.17C10.314 9.345 9.359 9 8 9c-1.942 0-3.06.704-3.744 1.511-.665.784-.985 1.744-1.134 2.489H8v1H3c-.553 0-.992-.448-.897-.992"/></g><path fill="currentColor" fill-rule="evenodd" d="M12.5 9a.5.5 0 0 1 .5.5V12h2.5a.5.5 0 0 1 0 1H13v2.5a.5.5 0 0 1-1 0V13H9.5a.5.5 0 0 1 0-1H12V9.5a.5.5 0 0 1 .5-.5" clip-rule="evenodd"/></symbol><symbol xmlns="http://www.w3.org/2000/svg" id="cwm-users" fill="none" viewBox="0 0 16 16"><g fill="currentColor"><path fill-rule="evenodd" d="M8.5 4.5a2.5 2.5 0 1 1-5 0 2.5 2.5 0 0 1 5 0m-1 0a1.5 1.5 0 1 1-3 0 1.5 1.5 0 0 1 3 0M1.901 13h8.198c.562 0 1.005-.464.88-1.012C10.645 10.527 9.553 8 5.997 8c-3.558 0-4.645 2.528-4.976 3.99-.124.547.318 1.01.88 1.01m8.05-1H2.049c.16-.599.454-1.304.983-1.872C3.594 9.523 4.487 9 5.997 9s2.403.523 2.967 1.128c.53.568.826 1.273.987 1.872" clip-rule="evenodd"/><path d="M10 7c-.456 0-.882-.122-1.25-.335a3.5 3.5 0 0 0 .5-.865 1.5 1.5 0 1 0 0-2.6 3.5 3.5 0 0 0-.5-.865A2.5 2.5 0 1 1 10 7m3.95 5h-1.957a1.7 1.7 0 0 1-.19 1h2.296c.562 0 1.005-.464.88-1.012C14.645 10.527 13.553 8 9.997 8q-.226 0-.438.013a5.3 5.3 0 0 1 1.107 1.024c1.114.13 1.823.581 2.298 1.09.53.569.826 1.274.987 1.873Z"/></g></symbol><symbol xmlns="http://www.w3.org/2000/svg" id="database-changes" fill="none" viewBox="0 0 16 16"><g fill="currentColor"><path fill-rule="evenodd" d="M2 4c0-.477.267-.866.606-1.158.34-.292.805-.534 1.334-.726C5.003 1.729 6.439 1.5 8 1.5s2.997.23 4.06.616c.53.192.993.434 1.334.726.339.292.606.681.606 1.158v2.805c-.002.474-.268.862-.606 1.153-.34.293-.805.534-1.334.726-1.063.387-2.499.616-4.06.616s-2.997-.23-4.06-.616A5 5 0 0 1 3 8.242V9.6c0 .076.04.212.258.4.216.185.558.375 1.024.544.927.338 2.242.556 3.718.556v1c-1.561 0-2.997-.23-4.06-.616a5 5 0 0 1-.94-.442V12.4c0 .076.04.212.258.4.216.185.558.375 1.024.544.927.338 2.242.556 3.718.556v1c-1.561 0-2.997-.23-4.06-.616-.53-.192-.993-.434-1.334-.726C2.267 13.266 2 12.877 2 12.4zm1 0c0-.076.04-.212.258-.4.216-.185.558-.375 1.024-.544C5.209 2.718 6.524 2.5 8 2.5s2.79.218 3.718.556c.466.17.808.359 1.024.545.217.187.258.323.258.399s-.04.212-.258.4c-.216.185-.558.375-1.024.544-.927.338-2.242.556-3.718.556s-2.79-.218-3.718-.556c-.466-.17-.808-.359-1.024-.545C3.041 4.212 3 4.076 3 4m0 2.8c0 .076.04.212.258.4.216.185.558.375 1.024.544.927.338 2.242.556 3.718.556s2.79-.218 3.718-.556c.466-.169.808-.359 1.024-.545.217-.187.258-.323.258-.399V5.442a5 5 0 0 1-.94.442C10.997 6.271 9.561 6.5 8 6.5s-2.997-.23-4.06-.616A5 5 0 0 1 3 5.442z" clip-rule="evenodd"/><path d="M15.354 11.354a.5.5 0 0 0-.708-.708L11.5 13.793l-1.646-1.647a.5.5 0 0 0-.708.708l2.354 2.353z"/></g></symbol><symbol xmlns="http://www.w3.org/2000/svg" id="dataproc-tool-window" fill="none" viewBox="0 0 16 16"><path stroke="currentColor" stroke-linejoin="round" d="m4.144 14.248-3.429-6a.5.5 0 0 1 0-.496l-.434-.248.434.248 3.429-6a.5.5 0 0 1 .434-.252h6.84a.5.5 0 0 1 .433.252l3.429 6a.5.5 0 0 1 0 .496l-3.429 6a.5.5 0 0 1-.434.252H4.578a.5.5 0 0 1-.434-.252Z"/><path fill="currentColor" fill-rule="evenodd" d="M8.667 6.686A1.5 1.5 0 1 0 6.249 5.5v2.585a1.5 1.5 0 1 0 .356 2.647L8.75 9.404a1.5 1.5 0 1 0 2.32-1.159zM7.748 6a.5.5 0 1 0-.325-.12l.112.072q.098.046.213.048m-.5.958v2.2l1.737-1.074zM6.048 9.9a.5.5 0 1 0-.077.048zm4.2.1a.5.5 0 1 0 0-1 .5.5 0 0 0 0 1" clip-rule="evenodd"/></symbol><symbol xmlns="http://www.w3.org/2000/svg" id="dbms" fill="none" viewBox="0 0 16 16"><path fill="currentColor" fill-rule="evenodd" d="M2 3.392h.017c.062-.388.29-.717.58-.979.34-.307.804-.561 1.335-.764C4.998 1.24 6.436 1 8 1s3.002.241 4.068.649c.53.203.995.457 1.335.764.29.262.518.591.58.98H14v9.125h-.003c-.027.444-.274.816-.594 1.106-.34.307-.804.561-1.335.764-1.066.408-2.504.65-4.068.65s-3.002-.242-4.068-.65c-.53-.203-.995-.457-1.335-.764-.32-.29-.566-.662-.594-1.106H2zm1 .21c0-.1.051-.251.268-.447.216-.195.557-.395 1.021-.572C5.215 2.229 6.526 2 8 2s2.786.23 3.71.583c.465.177.806.377 1.022.572.217.196.268.348.268.448s-.051.252-.268.447c-.216.196-.557.395-1.021.573-.925.353-2.237.582-3.711.582s-2.785-.229-3.71-.582c-.465-.178-.806-.377-1.022-.573C3.05 3.855 3 3.703 3 3.603Zm0 2.945v-1.45c.272.175.588.328.932.46 1.066.407 2.504.648 4.068.648s3.002-.241 4.068-.648a5 5 0 0 0 .932-.46v1.45c0 .1-.051.252-.268.447-.216.196-.557.395-1.021.572-.925.354-2.237.583-3.711.583s-2.785-.229-3.71-.583c-.465-.177-.806-.376-1.022-.572C3.05 6.8 3 6.646 3 6.547M3 8.04v1.45c0 .1.051.251.268.447.216.196.557.395 1.021.572.926.354 2.237.583 3.711.583s2.786-.229 3.71-.583c.465-.177.806-.376 1.022-.572.217-.196.268-.348.268-.448V8.041a5 5 0 0 1-.932.46c-1.066.407-2.504.648-4.068.648s-3.002-.241-4.068-.648A5 5 0 0 1 3 8.04m0 2.944v1.45c0 .1.051.251.268.447.216.196.557.395 1.021.572.926.354 2.237.583 3.711.583s2.786-.23 3.71-.583c.465-.177.806-.377 1.022-.572.217-.196.268-.348.268-.448v-1.449a5 5 0 0 1-.932.46c-1.066.407-2.504.648-4.068.648s-3.002-.241-4.068-.649A5 5 0 0 1 3 10.985Z" clip-rule="evenodd"/></symbol><symbol xmlns="http://www.w3.org/2000/svg" id="debug" fill="none" viewBox="0 0 16 16"><path fill="currentColor" d="M13.967 13.533a.5.5 0 1 0 .5-.866zm-2.217-1.28 2.217 1.28.5-.866-2.217-1.28zM14.9 9.5a.5.5 0 0 0 0-1zm-2.5 0h2.5v-1h-2.5zm2.055-4.26a.5.5 0 0 0-.476-.88zm-2.217 1.2 2.217-1.2-.476-.88-2.217 1.2zM2.03 13.533a.5.5 0 0 1-.5-.866zm2.22-1.282-2.22 1.282-.5-.866 2.22-1.282zM1.1 9.5a.5.5 0 0 1 0-1zm2.5 0H1.1v-1h2.5zM1.542 5.24a.5.5 0 0 1 .476-.88zm2.22 1.2-2.22-1.2.476-.88 2.22 1.2z"/><path fill="currentColor" fill-rule="evenodd" d="M6.3 4.2a1.7 1.7 0 1 1 3.201.8h.999l.08.002a2.7 2.7 0 1 0-5.158 0L5.5 5h1c-.127-.238-.2-.51-.2-.8" clip-rule="evenodd"/><path stroke="currentColor" d="M4 7.5a3 3 0 0 1 3-3h2a3 3 0 0 1 3 3V10a4 4 0 0 1-8 0z"/></symbol><symbol xmlns="http://www.w3.org/2000/svg" id="dependencies" fill="none" viewBox="0 0 16 16"><g stroke="currentColor"><path d="M7.78 1.898a.5.5 0 0 1 .44 0l5.61 2.742a.5.5 0 0 1 0 .899L8.22 8.28a.5.5 0 0 1-.44 0L2.17 5.539a.5.5 0 0 1 0-.899z"/><path stroke-linecap="round" d="m14.275 8.317-5.838 2.836a1 1 0 0 1-.874 0L1.724 8.317m12.551 3.227L8.438 14.38a1 1 0 0 1-.874 0l-5.839-2.836"/></g></symbol><symbol xmlns="http://www.w3.org/2000/svg" id="documentation" fill="none" viewBox="0 0 16 16"><rect width="9" height="10" x="2.5" y="3.5" stroke="currentColor" rx="1.5"/><rect width="4" height="1" x="5" y="6" fill="currentColor" rx=".5"/><rect width="4" height="1" x="5" y="8" fill="currentColor" rx=".5"/><rect width="4" height="1" x="5" y="10" fill="currentColor" rx=".5"/><path fill="currentColor" fill-rule="evenodd" d="M11.002 2h.598A1.4 1.4 0 0 1 13 3.4v.51l.002.09v7.548A2.4 2.4 0 0 0 14 9.6V3.4A2.4 2.4 0 0 0 11.6 1H6.4c-.803 0-1.514.394-1.95 1z" clip-rule="evenodd"/></symbol><symbol xmlns="http://www.w3.org/2000/svg" id="donate" fill="none" viewBox="0 0 16 16"><g fill="currentColor"><path d="M11.992 14.931h1.024V16h-1.024zm0-7.931h1.024v1.209h-1.024zm.367 8.118a3.1 3.1 0 0 1-1.313-.265 2.17 2.17 0 0 1-.891-.75 2 2 0 0 1-.329-1.112h1.26a.96.96 0 0 0 .161.549q.162.24.456.372t.671.132q.363 0 .642-.117a.97.97 0 0 0 .426-.338.87.87 0 0 0 .152-.505.93.93 0 0 0-.789-.936l-1.18-.196a2.1 2.1 0 0 1-.868-.348 1.85 1.85 0 0 1-.568-.671 2 2 0 0 1-.196-.887q0-.584.299-1.044.303-.46.838-.72.539-.26 1.22-.26.69 0 1.23.255.543.25.842.7.304.452.314 1.035h-1.26a.83.83 0 0 0-.141-.475.9.9 0 0 0-.392-.324 1.34 1.34 0 0 0-.579-.117q-.328 0-.578.112a.9.9 0 0 0-.392.309.8.8 0 0 0-.137.465q0 .315.2.54.202.224.53.284l1.147.186a2.06 2.06 0 0 1 1.519 1.102q.22.432.22.926 0 .593-.318 1.074a2.16 2.16 0 0 1-.892.754q-.569.27-1.303.27Z"/><path d="M2 3a4.243 4.243 0 0 1 6 0 4.243 4.243 0 0 1 6.8 4.893q-.347-.313-.782-.516v-.184a3.243 3.243 0 0 0-5.31-3.486L8 4.414l-.707-.707a3.243 3.243 0 0 0-4.585 4.586L8 13.586l.825-.825.002.238q.003.524.17 1.005L8 15 2 9a4.243 4.243 0 0 1 0-6"/></g></symbol><symbol xmlns="http://www.w3.org/2000/svg" id="endpoints" fill="none" viewBox="0 0 16 16"><g fill="currentColor"><path d="M8 2c-1.458 0-2.794.52-3.834 1.384a.5.5 0 0 1-.64-.768 7 7 0 1 1 0 10.769.5.5 0 1 1 .64-.77A6 6 0 1 0 8 2"/><path fill-rule="evenodd" d="M0 8a.5.5 0 0 1 .5-.5h4.541a3 3 0 1 1 0 1H.5A.5.5 0 0 1 0 8m6 0a2 2 0 1 0 4 0 2 2 0 0 0-4 0" clip-rule="evenodd"/></g></symbol><symbol xmlns="http://www.w3.org/2000/svg" id="exception-analyzer" fill="none" viewBox="0 0 16 16"><path fill="currentColor" fill-rule="evenodd" d="M8.244 6.655a1 1 0 0 1-.234-.796l.492-3.45L3.11 9H7a1 1 0 0 1 .99 1.141l-.493 3.45L12.889 7H9a1 1 0 0 1-.755-.345ZM9.746.775c.072-.5-.561-.779-.882-.387L1.668 9.183a.5.5 0 0 0 .387.817H7l-.747 5.225c-.071.5.562.779.882.387l7.196-8.795A.5.5 0 0 0 13.944 6H9z" clip-rule="evenodd"/></symbol><symbol xmlns="http://www.w3.org/2000/svg" id="find-external-usages" fill="none" viewBox="0 0 16 16"><g fill="currentColor"><path fill-rule="evenodd" d="M2.5 14a.5.5 0 0 1-.5-.5V9.707L.854 10.854a.5.5 0 0 1-.708-.708L2.5 7.793l2.354 2.353a.5.5 0 0 1-.708.708L3 9.707V13.5a.5.5 0 0 1-.5.5" clip-rule="evenodd"/><path d="M7 12a4.98 4.98 0 0 0 3.164-1.128l2.982 2.978a.5.5 0 0 0 .707-.708l-2.982-2.977A5 5 0 1 0 2 7h1a4 4 0 1 1 3 3.874V11.9q.486.1 1 .1"/></g></symbol><symbol xmlns="http://www.w3.org/2000/svg" id="find" fill="none" viewBox="0 0 16 16"><g stroke="currentColor"><circle cx="7" cy="7" r="4.5"/><path stroke-linecap="round" d="m10.2 10.2 3.3 3.296"/></g></symbol><symbol xmlns="http://www.w3.org/2000/svg" id="gitlab" fill="none" viewBox="0 0 16 16"><path fill="currentColor" d="m14.283 7.358-.466.18v.001zm-.017-.046.466-.18V7.13zM12.038 2.5l.451-.215a.5.5 0 0 0-.912.021zm-1.62 4V7h.361l.114-.342-.474-.158Zm-4.836 0-.475.158.114.342h.36v-.5Zm-1.62-3.998.46-.193a.5.5 0 0 0-.911-.022zm-2.227 4.81.464.186.002-.004zm-.018.046-.464-.187-.002.005zm1.09 3.722.316-.388-.009-.007-.01-.008zm.006.005-.316.387.012.01.012.009zm.016.01.296-.402-.004-.003-.292.406Zm2.692 1.978.297-.401-.001-.001zm1.335.99.298-.402zm.81.601-.297.402zm.331.11v-.5zm.331-.11-.298-.401.298.402Zm.811-.6-.298-.403zm1.336-.99-.296-.404-.002.002zm2.71-1.99-.287-.41-.008.007zm.008-.005.287.41.01-.008zm1.557-3.901-.018-.046-.933.36.018.045zM10.419 6H5.582v1h4.837zM1.27 7.126l-.018.045.928.373.018-.046zm-.02.05a3.66 3.66 0 0 0-.103 2.362l.96-.281a2.66 2.66 0 0 1 .075-1.718zm-.103 2.362a3.72 3.72 0 0 0 1.362 1.944l.594-.804a2.72 2.72 0 0 1-.997-1.421l-.96.28Zm1.343 1.929.006.005.633-.774-.007-.006zm.03.024.016.01.584-.811-.016-.011zm.012.008 2.692 1.977.592-.805-2.692-1.978zm2.69 1.976 1.335.99.596-.804-1.336-.99zm1.335.99.81.601.596-.803-.81-.601zm.81.601c.183.135.403.207.63.207v-1a.06.06 0 0 1-.034-.01zm.63.207c.225 0 .446-.072.628-.207l-.596-.803a.06.06 0 0 1-.033.01v1Zm.628-.207.81-.601-.595-.804-.81.602zm.81-.601 1.336-.99-.595-.803-1.336.99zm1.334-.988 2.711-1.99-.591-.806-2.711 1.99zm2.702-1.983.007-.005-.573-.82-.007.006zm.018-.013a3.72 3.72 0 0 0 1.362-1.943l-.96-.282a2.72 2.72 0 0 1-.996 1.421zm1.362-1.943a3.66 3.66 0 0 0-.103-2.362l-.931.363c.214.55.24 1.152.074 1.717zM3.962 2.502l-.451-.215-.002.003-.004.009-.016.034-.284.596-.695 1.472c-.514 1.096-1.08 2.318-1.24 2.73l.93.363c.146-.371.693-1.554 1.216-2.668a409 409 0 0 1 .976-2.063l.016-.034.004-.009v-.002h.001zm2.094 3.84c-.122-.365-.535-1.385-.908-2.29a300 300 0 0 0-.665-1.6l-.044-.106-.012-.028-.003-.007V2.31h-.001l-.461.193-.461.194.004.01.012.027.044.106a300 300 0 0 1 .663 1.595c.38.922.776 1.901.883 2.224l.949-.316ZM12.038 2.5l-.46-.193h-.001v.002l-.004.007-.012.028-.205.492c-.134.322-.316.758-.504 1.216-.373.905-.786 1.926-.908 2.29l.949.316c.108-.323.504-1.302.884-2.225a301 301 0 0 1 .662-1.596l.045-.106.011-.028.003-.007.001-.002zm2.693 4.63c-.157-.403-.724-1.626-1.239-2.724-.26-.554-.51-1.084-.696-1.476l-.223-.47-.062-.13-.016-.033-.004-.01-.001-.001v-.001l-.452.215-.451.215.001.003.004.009.016.034.284.597c.186.391.436.92.695 1.473.524 1.116 1.07 2.3 1.213 2.663z"/></symbol><symbol xmlns="http://www.w3.org/2000/svg" id="gradle" fill="none" viewBox="0 0 16 16"><path stroke="currentColor" stroke-linecap="round" d="M14.894 3.545c-.362-.756-1.556-1.65-2.893-.481m2.893.48c.463.882-.33 2.526-1.93 2.526-2.087 0-4.276-3.457-9.04-1.108-.421.207-.608.7-.464 1.148l.116.36m11.318-2.925s1.336 2.815-2.33 5.557c-1.033.773-1.411 2.291-1.45 3.644a.1.1 0 0 1-.1.098h-1.14a.22.22 0 0 1-.208-.169 1.48 1.48 0 0 0-1.436-1.091c-.678 0-1.26.456-1.434 1.094a.22.22 0 0 1-.208.168H5.512a.22.22 0 0 1-.208-.168 1.487 1.487 0 0 0-2.868 0 .22.22 0 0 1-.208.169H1.036a.1.1 0 0 1-.1-.09c-.293-2.844.53-4.951 2.64-6.287m0 0 .58 1.91c.217.636 1.085.741 1.614.444a9.3 9.3 0 0 0 1.822-1.279"/><path fill="currentColor" fill-rule="evenodd" d="M9.26 7.32c-.096-.06-.153-.172-.116-.28a.798.798 0 1 1 1.306.84c-.082.078-.207.072-.302.011z" clip-rule="evenodd"/></symbol><symbol xmlns="http://www.w3.org/2000/svg" id="hierarchy" fill="none" viewBox="0 0 16 16"><path fill="currentColor" fill-rule="evenodd" d="M6.5 2h3v3h-3zm-1 0a1 1 0 0 1 1-1h3a1 1 0 0 1 1 1v3a1 1 0 0 1-1 1H8.4v1.5H11a1 1 0 0 1 1 1V10h1a1 1 0 0 1 1 1v3a1 1 0 0 1-1 1h-3a1 1 0 0 1-1-1v-3a1 1 0 0 1 1-1h1V8.5H5V10h1a1 1 0 0 1 1 1v3a1 1 0 0 1-1 1H3a1 1 0 0 1-1-1v-3a1 1 0 0 1 1-1h1V8.5a1 1 0 0 1 1-1h2.4V6h-.9a1 1 0 0 1-1-1zm.5 9H3v3h3zm7 0h-3v3h3z" clip-rule="evenodd"/></symbol><symbol xmlns="http://www.w3.org/2000/svg" id="hive" fill="none" viewBox="0 0 16 16"><g fill="currentColor"><path fill-rule="evenodd" d="M4.443 1.15c-.193.126-.38.307-.58.512-.117.12-.22.24-.319.356-.183.213-.352.41-.571.571a.9.9 0 0 1-.496.166l-.072.005c-.08.007-.16.014-.32-.006-.182-.099-.355-.035-.523.167-.185.266-.42.771-.517 1.09-.201.81.311 1.48.802 1.994.437.427.689.694.868 1.085.081.152.15.338.216.516.043.118.086.232.13.33l.008.017c.03.06.03.062.128.083.154.033.348.044.544.055q.144.007.283.019c.122.001.29-.003.448-.02l.107-.02c.192-.035.403-.073.584-.136.21-.052.398-.123.567-.19-.012.04-.061.077-.114.118a.6.6 0 0 0-.13.121c-.56.803-.722 1.52-.635 2.63l-.003-.002.004.019.005.054c.056.51.173.934.35 1.418.08.221.253.572.418.805a3 3 0 0 0 .138.181l.001.001c.542.66 1.579 1.43 2.975 1.743.267.037.569.017.853-.058.754-.229 2.29-.77 2.29-.77s-1.363.114-1.988.052l-.064-.01c-.126-.017-.254-.035-.34-.119-.017-.022-.079-.145-.04-.146q.03-.003.096-.021c.08-.021.2-.053.354-.067-.505-.054-.505-.054-.54-.144l-.002-.003a6 6 0 0 0-.238-.516c.224.019.722.047.891-.127 0 0-.294.034-.555.003a1.6 1.6 0 0 1-.282-.08 2 2 0 0 0-.126-.042c-.055-.017-.096-.03-.11-.047l-.045-.105c-.021-.045-.043-.09-.071-.172a1.8 1.8 0 0 1-.08-.507l-.005-.067c.17.21.388.386.675.476l.036.011c.1.035.386.134.605.063l.05-.016q.006 0 .005-.002l-.005.002a.6.6 0 0 1-.237-.018c-.46-.196-.59-.37-.673-.48l-.042-.055-.236-.353c.072-.143.112-.148.207-.15l.11.013c.212.025.326.038.476.002q.043.09.077.18c.071.18.14.35.341.484.857.254 1.071-.051 1.278-.344l.028-.04c.644.473 1.691.618 2.419.008.925-1.07 1.218-2.757 1.136-2.854-.116-.196-.267-.398-.397-.37-.17.046-.301.108-.421.164-.208.096-.383.178-.674.144l.055-.002a.5.5 0 0 0 .092-.007c.036-.39-.002-.578-.02-.61-.104-.23-.232-.47-.344-.677l-.106-.197a1 1 0 0 1-.04-.103c-.05-.138-.133-.371-.251-.481-.07-.06-.24-.216-.24-.216l-.014.166s.066.01.091.113c.046.188.183.499.317.775h-.216l.247.065c.133.272.255.497.273.518.092.15.09.319.09.473v.1l-.063.031c-.009-.196-.205-.196-.386-.197h-.041l-.157-.038c.016.014.042.023.068.033.054.019.108.038.068.102-.042.022-.064.105-.087.187l-.015.051-.085.004.13.05c.104.04.207.08.323.128l.082.013-.083.208-.112-.046-.004-.078c-.198-.08-.58-.113-.595-.097a2.4 2.4 0 0 0-.294.377l-.06.09q.069-.057.133-.122c.098-.095.197-.192.34-.226.01-.001.106.016.2.033l.131.024q-.035.007-.078.012c-.057.008-.114.016-.126.033-.106.13-.193.281-.28.431a7 7 0 0 1-.126.213c.062-.064.11-.128.157-.192.095-.13.19-.258.401-.382a.6.6 0 0 1 .313.033 2 2 0 0 1-.108.26l-.044.095a2 2 0 0 1-.22.355q-.061.085-.118.17c.204-.249.257-.301.31-.355.04-.039.08-.078.18-.196.1-.235.198-.489.29-.74l.018-.01c.019.01.093.008.187.005.086-.002.187-.004.276.001.158-.034.236-.085.307-.131a.5.5 0 0 1 .287-.104c.19-.015.21.342.207.37-.036.393-.155.85-.339 1.268-.38.734-.807 1.393-1.412 1.484-.617.108-.987-.1-1.325-.292a6 6 0 0 0-.196-.107l-.153.13c-.52.519-1.137.473-1.39-.204h.002l-.008-.014-.043-.082-.033-.065a4 4 0 0 0-.207-.367c-.759-.6-.438-1.149-.23-1.506l.018-.03c-.434-.109-1.01-.342-1.088-.649-.128-.991-.063-1.306.064-1.815l-.058.012c-.563.118-1.134.239-1.738.44v-.005a6 6 0 0 0-.886.329c-.126.036-.244.074-.365.111-.224.07-.455.143-.753.217q-.224.029-.44 0c-.177-.025-.422-.024-.617-.024-.166 0-.295 0-.311-.015-.116-.16-.188-.388-.26-.61-.065-.21-.13-.415-.23-.56l-.002-.002-.002-.003c-.104-.14-.222-.256-.341-.373l-.054-.053c-.489-.486-.907-.956-1.024-1.454l-.021-.087a1.6 1.6 0 0 1-.044-.647v-.002l.001-.002c.118-.407.31-.738.634-1.07.338.006.673.013.933.063l.047.007c.13.021.351.056.578.141.65.242 1.51.64 1.51.64q-.218-.12-.442-.249c-.513-.293-1.026-.586-1.38-.658q-.1-.014-.129-.094c.43-.253.64-.534.848-.814.123-.165.245-.33.412-.487l.084-.037c.148-.065.228-.101.377-.117 1.426.225 2.386.752 3.145 1.17l.297.16q.221.12.428.222c.165.084.325.164.48.253.249.082 1 .648 1.22.954.223.471.386.98.534 1.472.107.5.2.702.2.702s-.09-.418-.075-.493c.094.035.316.105.408.094 0 0-.411-.213-.465-.4a19 19 0 0 1-.247-1.016c-.07-.31-.123-.55-.146-.575-.132-.165-.682-.586-1.019-.78-.127-.074-.196-.12-.201-.152l.064-.066c.094-.096.2-.204.295-.278l.064-.05a1.1 1.1 0 0 1 .314-.196c.48-.216.818-.079 1.015 0 .09.037.15.061.18.033 0 0-.15-.172-.083-.144.035.02.112.04.181.059a.6.6 0 0 1 .135.045c.255.2.923.929 1.325 1.699.096.188.135.312.09.54a4 4 0 0 1-.128.503c-.044.102-.295.797-.294.89-.05.381.164.858.164.858l-.001-.125a1 1 0 0 1 .005-.166l.014-.165s-.01-.045-.008-.062c.007-.07.02-.132.031-.186q.011-.052.017-.09c.074-.457.197-.797.34-1.187l.038-.106a1 1 0 0 1 .052-.101c.03-.055.056-.1.054-.155.002-.113-.074-.255-.153-.403q-.039-.07-.074-.14a6 6 0 0 0-.366-.65c-.347-.5-.643-.89-1.186-1.135-.152-.067-.749-.132-.955-.093-.25.052-.465.103-.637.213a3 3 0 0 0-.379.31 3 3 0 0 1-.352.288 6.5 6.5 0 0 1-.814-.475l-.051-.034a20 20 0 0 0-1.143-.572c-.202-.189-1.46-.64-2.612-.73Zm1.362 11.881c-.202-.228-.395-.662-.55-1.025.851.513 2.225 1.074 3.39 1.046.117.203.257.416.37.585-1.484.227-2.513-.228-3.142-.537zm-.467-2.013c.545.486 1.112.992 3.082 1.412l.003-.005a1.8 1.8 0 0 1 .114-.645l.005-.01c-1.868-.224-3.26-1.702-3.553-2.495a4.3 4.3 0 0 0-.041 1.41c.14.11.265.22.39.333m3.422.227q-.043.091-.094.22c-.656-.324-1.198-.713-1.743-1.105l-.013-.01c-.882-.644-1.102-1.41-1.257-2.412a.2.2 0 0 1 .07-.063 2.7 2.7 0 0 1 .928-.397c.289 1.085.884 2.177 1.476 3.174l.093.12c.16.209.248.325.54.473m-1.105 3.026c.538-.003 1.092-.006 1.617-.246.043.09.107.169.14.208l.02.026c.498.65-.63.5-.864.461a3.6 3.6 0 0 1-1.204-.446zm3.828-2.855c-.34-.265-.625-.538-.813-.82-.051.276-.214.485-.367.68l-.09.118c-.034.055-.059.129.11.365.046.063.21.073.322.068l-.109-.076c-.092-.061-.185-.123-.204-.179.199.136.383.175.55.153.038-.004.085-.045.122-.107a.5.5 0 0 1 .184-.236l.007-.005.135.17zm.419-7.493c-.025-.14-.557-.98-.656-.99m.656.99c.019.131.05.27.082.41zm.082.41c.041.187.084.376.1.558zm.1.558a10 10 0 0 0-.302-.92zm-.302-.92c-.035-.085-.123-.276-.368-.546zm-.368-.546c-.11-.182-.137-.327-.164-.471zm-1.76 2.319c.1.164.191.316.287.391a6 6 0 0 1-.178-.459c-.146-.407-.305-.851-.612-1.123-.411-.132-.972-.14-1.533-.147q-.254-.002-.5-.01c.224.058.488.095.754.132.461.064.929.129 1.21.302.006.024-.012.04-.039.053l-.068-.01a.7.7 0 0 0-.264-.008c-.115.037-.222.097-.328.156q-.075.043-.152.081c.301-.061.454-.031.627.003.08.015.165.032.27.04.217.083.38.354.527.599Zm1.15 1.56c.23-.05.464-.047.693-.019-.444.064-.555.083-.833.39a1 1 0 0 0 .03-.108.7.7 0 0 1 .11-.263m3.732 1.635c-.076.076-.152.152-.438.24-.275.064-.43-.046-.559-.194a1 1 0 0 1 .12.05c.118.059.232.115.633-.011l.322-.157q-.044.036-.078.072m-3.558 1.51c-.051-.018-.5-.076-.5-.062-.172.122-.198.24-.194.341l.022-.021c.264-.26.265-.261.672-.259Zm-.023-2.044c.006-.03-.317.016-.317.016.424-.273.707-.348 1.197-.22q-.098.023-.195.055c.026.008.123.354.047.365-.021.003.321.098.321.098a6 6 0 0 1-.275.012c-.312.011-.619.022-.913.17l.178-.146q.003.003.004-.003l-.004.003a.9.9 0 0 1-.043-.35" clip-rule="evenodd"/><path d="m3.863 1.662-.04-.04zm.58-.512.03-.048-.031-.02-.03.02zm-.899.868-.043-.037zm-.571.571-.034-.046-.004.003zm-.496.166.003.057zm-.072.005L2.4 2.704zm-.32-.006-.027.05.01.005.01.001zm-.523.167-.044-.037-.003.004zm-.517 1.09L.99 3.993v.003l.055.013Zm.802 1.994-.041.04.001.001zm.868 1.085-.052.024.002.003zm.216.516.054-.02zm0 0-.054.019.054-.02Zm.13.33-.053.023.001.003zm.008.017.05-.026zm.128.083-.012.056zm.544.055.003-.057zm.283.019-.005.057h.004V8.11Zm.448-.02.006.057h.005l-.01-.057Zm.107-.02-.01-.056.01.057Zm0 0 .01.057-.01-.056Zm.584-.136-.014-.055-.005.001zm.567-.19.055.017.032-.112-.108.042.02.053Zm-.114.118.034.045zm-.13.121.048.033v-.002l-.047-.03Zm-.635 2.63-.034.046.1.073-.01-.123zm-.003-.002.033-.046-.057-.042-.029.065zm0 0-.053-.023-.007.018.004.018zm.004.019.058-.005-.002-.009zm.005.054-.057.005v.002zm.35 1.418.053-.02zm.418.805-.047.033zm.138.181-.005.057.137.013-.088-.106zm0 0 .005-.057-.191-.018.15.12zm.001.001.045-.037-.01-.007zm2.975 1.743-.012.056h.004zm.853-.058.015.055h.002zm2.29-.77.02.055-.025-.111zm-1.988.052-.009.056h.004zm-.064-.01-.008.057zm-.34-.119-.046.035.006.006zm-.04-.146v-.058.057Zm.096-.021-.014-.056zm0 0 .014.055zm.354-.067.005.057.001-.114zm-.54-.144.053-.02zm-.002-.003.053-.022zm-.238-.516.004-.057-.104-.009.05.093zm.891-.127.041.04.111-.115-.158.018zm-.555.003-.006.057zm-.282-.08-.02.053zm-.126-.042.016-.055zm-.11-.047-.052.02.003.008.004.006.046-.034Zm-.045-.105-.052.024zm-.071-.172.053-.019zm-.08-.507.057-.003zm-.005-.067.045-.036-.113-.139.012.178zm.675.476-.017.055.047.015.021-.045zm.036.011.021-.053h-.002zm0 0-.021.053.002.001zm.605.063-.018-.054zm.055-.018h.057v-.078l-.074.024zm-.242-.016.025-.051-.003-.002zm-.673-.48-.045.033.045-.034Zm-.042-.055-.048.031.005.006zm-.236-.353-.05-.025-.016.03.019.027zm.207-.15.006-.056h-.007zm.11.013-.007.057zm.476.002.052-.025-.02-.041-.045.01zm.077.18.053-.021-.053.02Zm0 0-.053.02zm.341.484-.03.047.006.005.008.002.017-.054Zm1.278-.344-.046-.033zm.028-.04.034-.046-.047-.034-.034.047zm2.419.008.037.045.006-.007zm1.136-2.854-.05.03.007.007zm-.397-.37-.012-.056-.003.001zm-.421.164-.024-.052zm-.674.144-.003-.057-.004.114zm.055-.002-.002-.057zm.092-.007.057.007v-.002l-.056-.005Zm-.02-.61-.052.023.002.003zm-.344-.677-.051.026v.001zm0 0 .05-.025v-.002zm-.106-.197.05-.027-.002-.005zm-.04-.103.053-.02zm-.251-.481.038-.042-.001-.001zm-.24-.216.039-.042-.086-.078-.01.115zm-.014.166-.057-.005-.005.054.053.008zm.091.113-.055.014.056-.014Zm.317.775v.057h.09l-.039-.081zm-.216 0v-.057l-.014.113zm.247.065.051-.025-.011-.023-.025-.007zm.273.518.048-.03-.004-.006zm.09.473h-.058zm0 .1.025.05.032-.015v-.036zm-.063.031-.056.003.004.087.078-.039-.025-.05Zm-.386-.197v.057zm-.041 0-.014.057h.014zm-.157-.038.014-.056-.214-.052.161.15.04-.042Zm.068.033.019-.054zm.068.102.027.05.013-.007.008-.012-.048-.03Zm-.087.187.055.015zm-.015.051.003.057.04-.002.012-.039zm-.085.004-.002-.057-.018.11zm.13.05-.02.054zm.323.128-.022.055.014.002zm.082.013.053.021.027-.067-.071-.01zm-.083.208-.021.053.053.021.021-.053zm-.112-.046-.057.003.002.037.033.013zm-.004-.078.057-.003-.002-.037-.034-.013zm-.595-.097.04.041.004-.004-.043-.037Zm-.294.377-.047-.032zm0 0 .047.032zm0 0-.047-.032zm-.06.09-.048-.033.082.078zm.133-.122-.038-.042-.002.002zm0 0 .038.043.002-.002-.04-.04Zm.34-.226-.006-.057-.007.002zm.2.033.012-.055h-.002zm0 0-.012.056h.002zm0 0 .01-.056zm.131.024.012.056-.002-.112zm-.078.012.008.057zm-.126.033.044.036.002-.003zm-.28.431.048.032.002-.003zm0 0-.047-.032-.002.003.05.029Zm-.126.213-.048-.03.089.07zm.157-.192.046.034.001-.003zm0 0-.046-.034-.002.002zm.401-.382.029.049.002-.002zm.313.033.055.016.012-.046-.042-.02zm-.108.26-.051-.025zm-.044.095-.052-.024v.001zm-.22.355.046.033zm-.118.17-.048-.03.091.066zm.31-.355.041.04-.04-.04Zm0 0-.04-.04zm.18-.196.043.037.006-.007.004-.008zm.29-.74-.028-.05-.019.01-.007.02zm.018-.01.028-.05-.027-.015-.027.014.027.05Zm.187.005V8.87h-.001zm0 0v.057h.002zm.276.001-.003.057h.008l.008-.001zm.307-.131-.031-.048zm.287-.104.005.057zm.207.37-.057-.006.057.005Zm-.339 1.268.051.026.002-.003zm-1.412 1.484-.008-.056h-.002zm-1.325-.292.028-.05zm-.196-.107.026-.05-.034-.018-.029.025zm-.153.13-.037-.043-.003.004.04.04Zm-1.39-.204.055-.02-.003-.004-.051.024Zm0 0-.003-.057-.084.006.036.076.052-.025Zm.002 0 .003.057.089-.006-.042-.078zm-.008-.014-.051.025v.002zm-.043-.082-.05.026v.002zm-.033-.065-.051.026zm0 0 .05-.025zm-.207-.367.048-.031-.005-.008-.007-.005zm-.23-1.506.05.029zm.018-.03.05.03.037-.066-.073-.018zM8.35 8.63l-.057.008.001.007zm.064-1.815.056.013.022-.088-.09.019zm-.058.012-.011-.056-.007.002zm0 0 .01.056.008-.002zm0 0-.01-.056h-.001zm-1.738.44-.056.009.01.066.064-.02zm0-.005.056-.008-.01-.06-.06.013zm-.886.329.017.056.01-.006zm-.365.111-.017-.054zm0 0 .017.055h.001L5.368 7.7Zm-.753.217.007.057.007-.001zm-.44 0-.007.056zm-.617-.024v.057zm0 0v-.057zm-.311-.015-.048.034.009.008zm-.26-.61-.053.016zm-.23-.56.048-.032-.003-.003zm-.002-.002L2.8 6.67l-.003-.003-.042.038Zm-.002-.003-.046.034.003.004zm-.341-.373-.04.04zm-.054-.053-.04.04zM1.334 4.824l-.056.011v.002zm-.021-.087.055-.014zm-.044-.647-.056-.02-.001.015zm0-.002.054.019v-.001zm.001-.002.054.018V4.1l-.054-.015Zm.634-1.07V2.96H1.88l-.017.017zm.933.063-.01.056h.001zm.047.007-.01.057h.001zm.578.141-.02.053zm1.51.64-.024.052.051-.102zm-.442-.249.028-.05zM3.15 2.96l.012-.055-.004-.001zm-.129-.094-.029-.05-.041.025.017.045zm.848-.814.046.034zm0 0-.046-.034zm.412-.487-.022-.052-.01.004-.007.007.04.041Zm.084-.037-.023-.052zm0 0 .023.052zm.377-.117.01-.057h-.016zm3.145 1.17.028-.05zm0 0-.027.049zm.297.16.027-.05zm.428.222-.026.051.026-.05Zm0 0 .025-.05zm.48.253-.029.05.011.004zm1.22.954.052-.025-.007-.008zm.534 1.472.056-.012-.001-.005zm.2.702-.051.024.107-.036zm-.075-.493.02-.053-.063-.024-.013.066zm.408.094.006.056.185-.021-.165-.086-.026.05Zm-.465-.4.055-.016-.055.015Zm-.247-1.016.056-.013-.001-.004zm0 0-.056.012.001.004zm-.146-.575-.045.036.003.004zm-1.019-.78-.028.049.028-.05Zm-.201-.152-.04-.04-.021.02.004.03zm.064-.066.041.04-.04-.04Zm0 0-.04-.04zm.295-.278.035.045zm.064-.05.036.044.002-.001zm0 0-.035-.045-.002.002zm.314-.196.02.054.004-.002zm1.015 0-.022.053zm.18.033.04.042.04-.038-.037-.041zm-.083-.144.027-.05-.005-.003zm.181.059-.015.055zm.135.045-.039.042.004.002zm1.325 1.699.05-.026zm.09.54.056.01zm-.128.503.053.023.001-.005zm-.294.89.057.007v-.008h-.057Zm.164.858-.052.024.109-.023zm-.001-.125-.057.002zm.005-.166.056.007V6.63l-.056-.005Zm.014-.165.057.004v-.008l-.001-.008zm-.008-.062-.056-.005zm.031-.186.056.012zm0 0-.056-.011zm.017-.09-.057-.01v.003zm.34-1.187.053.02zm.038-.106-.052-.023-.001.003zm.052-.101-.048-.032-.002.004zm0 0 .047.031.003-.003zm.054-.155h-.057v.003zm-.153-.403.05-.026zm-.074-.14-.051.024.05-.025Zm-.366-.65.048-.031v-.001zm-1.186-1.135.024-.052h-.001zm-.955-.093-.01-.056h-.002zm-.637.213.03.048zm-.379.31.038.043.001-.001zm0 0-.037-.043-.004.004zm0 0 .04.042.002-.003-.042-.04Zm-.352.288-.025.051.029.015.027-.018zm-.814-.475.033-.047zm0 0-.032.047zm-.051-.034.028-.05h-.001zM7.055 1.88l-.039.042.007.006.009.004zm-2.612-.73-.03.048.012.007.013.001.005-.057Zm.812 10.855.03-.049-.152-.09.07.162zm.55 1.025-.043.038.002.002.04-.04Zm2.84.021.05-.028-.017-.03-.034.001zm.37.585.01.057.088-.014-.05-.074zM5.874 13.1l-.04.04.006.007.008.004zm2.547-.67-.012.056.042.008.02-.037zm-3.082-1.412-.037.042zm3.085 1.407.05.026.007-.013v-.014zm.114-.645.053.022zm.005-.01.053.02.028-.069-.074-.008zM4.989 9.274l.054-.02-.068-.184-.041.192zm-.041 1.41-.057.008.003.023.019.015zm3.718.78-.026.05.055.028.023-.057zm.094-.22.052.025.024-.05-.05-.026zm-1.837-.885.033-.046zm-.013-.01-.034.046zM5.653 7.938l-.044-.036-.016.02.003.025zm.07-.063.023.054.01-.007zm.928-.397.055-.015-.014-.053-.054.012zm1.476 3.174-.05.03.005.005zm.093.12.045-.034zm0 0 .046-.034zm0 0-.045.035zm1.052 3.253L9.323 14l-.024-.05-.05.023zm-1.617.246v.057zm1.757-.038-.045.036zm.02.026-.053.025.007.01.045-.035Zm-.864.461.01-.056zm-1.204-.446v-.057l-.208.004.18.102.028-.05Zm3.306-3.677.047-.032-.077-.116-.026.137zm.813.819.037.043.053-.045-.055-.043zm-1.18-.14-.044-.034zm-.09.118-.046-.034-.002.004zm.11.365-.046.033zm.322.068.003.057.156-.008-.125-.095zm-.109-.076-.031.048zm-.204-.179.032-.047-.144-.098.058.164zm.55.153-.007-.057zm.122-.107.049.03.002-.006zm.184-.236.034.046zm.007-.005.044-.035-.034-.043-.044.032zm.135.17-.044.035.036.046.045-.038zm-.084-8.614.005-.056-.167-.016.123.114zm0 0 .049-.032-.01-.01zm.838 1.958-.054.018.111-.023zm-.302-.92.053-.021v-.001zm-.368-.546-.05.03.002.002zm-.164-.471.054-.019-.11.03zM9.94 6.135l-.034.045.087-.068zm-.285-.391-.05.029.05-.03Zm.108-.068.054-.019zm-.612-1.123.038-.043-.009-.008-.011-.004zm-1.533-.147-.001.057v-.057Zm0 0V4.35v.057Zm-.5-.01.001-.056-.016.112.014-.055Zm.754.132.008-.057zm1.21.302.054-.015-.005-.021-.02-.012zm-.039.053-.007.057.016.002.016-.007zm-.068-.01.01-.057zm-.264-.008-.013-.055h-.004zm-.328.156.026.05h.001zm0 0-.027-.05h-.001zm0 0 .026.05h.001zm0 0-.027-.05h-.001zm0 0-.028-.05zm0 0-.028-.05zm-.152.081-.025-.05.037.106zm.627.003-.01.056zm.27.04.02-.052-.007-.003-.008-.001-.005.057Zm2.369 2.14h.057v-.05l-.05-.006zm-.692.019-.013-.056-.02.005-.013.017zm.692-.019.008.057.049-.007v-.05zm-.833.39-.054-.02.096.057zm.03-.108.056.014zm3.842 1.372-.04-.04zm0 0 .04.04zm-.438.24.013.055.003-.001zm-.559-.194.016-.054-.186-.054.127.146zm.12.05-.025.051zm.633-.011.017.054.008-.003zm.322-.157.036.044-.06-.096zm-4.136 1.52.033.046.024-.017v-.03zm-.194.341-.057.002.004.13.092-.091-.04-.04Zm.022-.021.04.04zm.672-.259.007.057-.007-.114zm0 0-.014.056.01.002.01-.001zm-.34-2.027-.008-.056-.01.002-.009.004zm.317-.016.056.011zm-.317.016-.031-.047.057.098zm1.197-.22.014.055v-.11zm-.195.055-.018-.054-.173.059.175.05zm.047.365-.008-.056zm.321.098.004.056.011-.111zm-.275.012.002.057zm-.913.17-.036-.044.061.095zm.18-.149.057.01.027-.151-.12.097.037.044Zm-7.097-7.05c.2-.206.383-.382.57-.504l-.062-.096c-.2.13-.39.315-.59.52zm-.317.353c.1-.115.202-.234.317-.353l-.082-.08c-.118.123-.222.244-.321.359zm-.58.58c.225-.165.398-.368.58-.58L3.5 1.981c-.183.213-.35.406-.562.562zm-.527.177c.25-.014.452-.112.53-.18l-.075-.086a.87.87 0 0 1-.461.152zm-.07.005.07-.005-.006-.114-.074.006zm-.332-.007c.165.02.25.014.332.007l-.01-.113c-.078.006-.153.012-.308-.007zm-.473.147a.54.54 0 0 1 .231-.178.27.27 0 0 1 .222.025l.054-.1A.38.38 0 0 0 1.8 2.67a.65.65 0 0 0-.282.214zM1.1 4.027a4.7 4.7 0 0 1 .51-1.074l-.094-.065A5 5 0 0 0 .99 3.994zm.79 1.939C1.396 5.45.906 4.803 1.1 4.024l-.11-.027c-.21.843.325 1.533.816 2.048l.082-.08Zm.878 1.1c-.184-.402-.444-.675-.88-1.102l-.08.082c.437.427.682.687.856 1.068zm.217.52c-.065-.176-.135-.367-.219-.523l-.1.054c.079.148.146.33.212.508zm0 0-.107.038.108-.037Zm.128.327a6 6 0 0 1-.128-.327l-.107.04c.044.117.087.234.131.333zm.008.014L3.11 7.91l-.102.052.009.016.102-.05Zm.09.054-.07-.02c-.002 0-.003.001-.02-.034l-.102.051c.013.026.027.058.058.079q.024.015.048.02l.06.015zm.534.053a4 4 0 0 1-.535-.053l-.024.111c.16.034.358.045.553.056zm.285.019q-.141-.011-.285-.019l-.006.114q.143.007.281.018zm.437-.02a4 4 0 0 1-.441.02l-.002.114c.124.001.294-.003.455-.02l-.012-.113Zm.102-.018-.106.02.02.111.107-.02-.02-.111Zm0 0 .02.112zm.576-.135a4 4 0 0 1-.576.135l.02.112c.192-.035.408-.075.594-.139zm.565-.189a4 4 0 0 1-.56.188l.028.11a5 5 0 0 0 .574-.191zm-.059.216c.026-.02.055-.041.078-.063a.2.2 0 0 0 .057-.083l-.11-.033c-.001.005-.007.015-.026.033l-.068.056.07.09Zm-.115.107a.5.5 0 0 1 .115-.107l-.069-.09c-.046.035-.107.08-.142.136zm-.627 2.595c-.044-.552-.025-1.002.073-1.413.098-.41.275-.783.552-1.18l-.093-.065a3.5 3.5 0 0 0-.57 1.219c-.101.426-.12.889-.076 1.447zm-.094.048.003.002.067-.092-.003-.002zm.086-.024-.105-.045.105.046Zm.008-.017-.005-.018-.11.026.004.019zm.005.064-.004-.055-.114.01.005.054.114-.01Zm.347 1.402a5.7 5.7 0 0 1-.347-1.404l-.113.013c.057.516.176.943.353 1.43zm.411.792a4 4 0 0 1-.41-.792l-.108.04c.083.225.257.58.425.818zm.136.178q-.075-.09-.136-.178l-.093.066q.065.09.141.184zm-.05.093.012-.114zm.043-.1-.002-.002-.07.09zm2.952 1.732c-1.383-.31-2.41-1.074-2.944-1.724l-.088.072c.55.67 1.598 1.447 3.007 1.763zm.826-.058a2.2 2.2 0 0 1-.831.057l-.016.113c.275.037.585.017.876-.06zm2.304-.714-.019-.054-.004.002-.013.004-.234.082-.61.21c-.479.164-1.05.356-1.426.47l.033.11c.378-.115.951-.308 1.43-.472.239-.081.454-.156.61-.21l.185-.065.05-.017.013-.005.004-.001zm-1.993.107c.317.032.818.019 1.236-.002a27 27 0 0 0 .702-.044l.044-.003.015-.001-.004-.057-.005-.057h-.003l-.012.001-.044.004-.163.012c-.137.01-.326.021-.535.031-.42.021-.913.034-1.22.003l-.011.114Zm-.067-.009.063.01.018-.114-.065-.009zm-.372-.135c.102.1.251.118.372.135l.016-.113c-.13-.018-.239-.035-.309-.104zm0-.245a.07.07 0 0 0-.059.034.1.1 0 0 0-.01.046c0 .021.008.045.015.063a.5.5 0 0 0 .048.096l.09-.07-.003-.006a.3.3 0 0 1-.036-.087v.003l-.005.013a.05.05 0 0 1-.037.022zm.082-.018-.056.014-.027.005.004.113a.3.3 0 0 0 .049-.007l.059-.015zm0 0 .028.11zm.363-.069c-.16.015-.283.047-.363.069l.029.11c.08-.021.195-.052.344-.065zm-.588-.065c.008.02.018.047.04.07a.2.2 0 0 0 .092.049c.073.019.206.033.455.06l.012-.114a4 4 0 0 1-.437-.057c-.03-.008-.037-.014-.04-.017a.1.1 0 0 1-.016-.034zm-.002-.004.002.004.106-.043-.002-.004zm-.236-.51c.09.17.179.367.236.51l.106-.043a6 6 0 0 0-.241-.52l-.1.053Zm.901-.194a.35.35 0 0 1-.154.081c-.068.02-.15.032-.234.038a3 3 0 0 1-.458-.009l-.01.114c.114.01.298.021.476.009.09-.007.179-.02.258-.043a.46.46 0 0 0 .204-.11zm-.52.1a2.5 2.5 0 0 0 .516.001l.038-.003.01-.001h.003l-.006-.057-.006-.057h-.003l-.01.001-.036.004a2.4 2.4 0 0 1-.493-.001zm-.295-.083c.043.015.199.071.295.083l.013-.113c-.08-.01-.222-.06-.27-.077zm-.124-.042q.055.016.123.041l.041-.106q-.075-.029-.13-.044l-.034.11Zm-.138-.067a.14.14 0 0 0 .064.042l.074.025.033-.109L9 12.708l-.016-.008q-.003-.003.001.002zm-.052-.115c.015.031.029.06.045.101l.106-.041-.048-.108zm-.073-.177c.03.084.052.132.073.177l.103-.049a2 2 0 0 1-.069-.166zm-.083-.522c.01.166.021.352.083.523l.107-.04a1.8 1.8 0 0 1-.076-.49zm-.004-.068.004.068.114-.008-.005-.067zm.748.419a1.35 1.35 0 0 1-.647-.458l-.089.072c.176.216.401.4.702.495zm.038.011-.04-.012a.1.1 0 0 0-.032 0 .06.06 0 0 0-.034.031l.102.049a.06.06 0 0 1-.06.031h.002l.024.01zm.002.001-.042.106zm.566.062a.7.7 0 0 1-.32.006 2 2 0 0 1-.248-.069l-.038.108c.05.017.15.052.266.073a.8.8 0 0 0 .375-.01zm.05-.016-.05.016.035.109.05-.017-.034-.108Zm-.034.052a.06.06 0 0 1 .027-.048l.011-.005.005-.001.019.112.024-.009a.06.06 0 0 0 .028-.049zm.07.056.005-.001-.035-.109-.005.002zm-.28-.021a.3.3 0 0 0 .074.02.7.7 0 0 0 .198.002l-.02-.111a.7.7 0 0 1-.161-.003.2.2 0 0 1-.041-.01zm-.693-.498c.042.056.098.132.204.219.105.086.258.18.491.28l.045-.105a2 2 0 0 1-.464-.264 1 1 0 0 1-.185-.198zm-.04-.05.04.05.091-.068-.046-.058-.085.075Zm-.24-.36.235.353.095-.063-.235-.353zm.253-.237a.26.26 0 0 0-.141.03.36.36 0 0 0-.116.15l.102.052c.035-.07.058-.095.074-.105s.034-.013.083-.013zm.117.013-.11-.013-.012.113.11.013zm.457.002c-.14.034-.243.023-.457-.002l-.013.113c.211.024.335.04.497 0zm.143.214q-.034-.088-.078-.183l-.103.05q.04.087.075.175zm0 0-.106.042zm.32.458c-.186-.122-.249-.277-.32-.458l-.106.042c.071.18.145.367.363.511zm1.2-.33c-.105.149-.202.285-.372.359-.169.073-.421.09-.843-.036l-.033.11c.434.128.718.119.922.03.203-.088.316-.251.419-.397zm.027-.039-.027.04.093.066.027-.04-.092-.066Zm2.43-.002c-.703.588-1.72.45-2.35-.01l-.067.091c.659.483 1.736.637 2.49.006zm1.129-2.774-.005-.007.002.013a.4.4 0 0 1 .002.062q-.003.083-.025.222c-.03.186-.087.436-.176.718-.177.564-.479 1.245-.934 1.772l.086.075c.47-.543.777-1.241.957-1.813.09-.286.148-.542.18-.734q.022-.144.025-.236a.5.5 0 0 0-.008-.112.1.1 0 0 0-.018-.034zM14.6 8.5q.023-.007.063.013a.4.4 0 0 1 .089.072c.064.066.128.161.185.258l.098-.058a1.6 1.6 0 0 0-.201-.28.5.5 0 0 0-.118-.093.2.2 0 0 0-.14-.024zm-.408.16c.12-.057.247-.116.412-.161l-.03-.11c-.176.048-.31.11-.43.167zm-.705.149c.308.036.496-.052.705-.15l-.048-.103c-.207.096-.37.172-.643.14zm.06-.116-.056.002.006.114.054-.002zm.038.042a.06.06 0 0 1 .038-.046h.002l-.016.001-.062.003.004.114.065-.003.04-.005.013-.006c.003-.002.025-.014.029-.043zm-.014-.576.003.009a1 1 0 0 1 .02.14c.007.096.008.237-.01.43l.114.01a3 3 0 0 0 .01-.448 1 1 0 0 0-.015-.124.3.3 0 0 0-.021-.07l-.1.053Zm-.344-.676c.111.208.24.445.343.673l.103-.047a11 11 0 0 0-.346-.68zm-.001-.001.102-.051-.102.05Zm-.105-.197q.048.093.106.198l.1-.054-.105-.197zm-.044-.11.024.067a.3.3 0 0 0 .022.048l.096-.063-.003-.006-.009-.02-.023-.064zm-.236-.458a.7.7 0 0 1 .138.212c.04.087.073.177.098.246l.107-.038a3 3 0 0 0-.102-.256.8.8 0 0 0-.164-.248zm-.2-.258-.04.042h.001l.002.002.005.005.234.21.074-.086a8 8 0 0 1-.21-.19q-.014-.011-.02-.018l-.006-.005-.002-.001zm.042.171.014-.166-.114-.01-.014.166zm.09.095a.22.22 0 0 0-.076-.127.2.2 0 0 0-.06-.028h-.002l-.01.055-.008.057h-.002.001q.003 0 .011.006c.01.007.025.024.035.064l.11-.027Zm.312.764c-.134-.278-.268-.583-.312-.764l-.11.027c.047.194.186.51.32.786l.102-.05Zm-.267.081h.216v-.114h-.216zm.262-.047-.247-.065-.03.11.248.065zm.302.537-.007-.01a12 12 0 0 1-.259-.497l-.102.05a13 13 0 0 0 .263.505l.016.024zm.103.51c0-.152.003-.338-.099-.504l-.097.06c.083.134.083.286.082.443h.114Zm0 .098V8.57l-.115-.001v.101zm-.094.083.062-.031-.05-.102-.063.031zm-.412-.191c.094 0 .177.001.24.022q.043.015.063.04a.13.13 0 0 1 .027.08l.113-.005a.24.24 0 0 0-.051-.146.25.25 0 0 0-.116-.077c-.083-.028-.188-.028-.275-.028v.114Zm-.041 0h.041v-.114h-.04zm-.17-.04.156.038.027-.11-.156-.039zm.1-.076-.048-.021-.078.083a.2.2 0 0 0 .046.029l.042.016zm.097.187a.13.13 0 0 0 .023-.072.1.1 0 0 0-.03-.067.2.2 0 0 0-.046-.031l-.044-.017-.038.107.044.019q.002 0 .003.002-.002-.001-.003-.01c-.001-.009.001-.003-.006.008l.097.06Zm-.08.171a1 1 0 0 1 .034-.11l.017-.032.008-.01-.054-.1c-.04.021-.063.065-.076.1-.016.037-.028.082-.04.122l.11.03Zm-.015.052.014-.052-.11-.03-.014.05zm-.137.045.085-.004-.006-.114-.084.004zm.148-.06-.13-.05-.041.106q.066.027.13.05zm.324.129c-.117-.049-.22-.089-.324-.129l-.04.107c.103.04.205.08.32.127zm.069.009-.082-.013-.017.113.082.012zm-.039.285.083-.208-.106-.042-.083.208zm-.187-.014.113.046.042-.106-.112-.046zm-.04-.129.005.08.114-.007-.004-.078-.114.005Zm-.493-.062c-.01.011-.02.015-.022.015l-.004.002h.051q.062.003.153.015a1.7 1.7 0 0 1 .353.08l.042-.105a1.7 1.7 0 0 0-.38-.088 2 2 0 0 0-.216-.016l-.037.005a.1.1 0 0 0-.026.018zm-.29.372c.09-.133.176-.26.286-.368l-.08-.082c-.12.118-.212.255-.3.386zm0 0-.095-.064zm0 0-.095-.064zm-.062.09.061-.09-.094-.064-.06.09zm.047-.194a2 2 0 0 1-.129.117l.07.09q.075-.061.139-.126zm.002-.002.076.085zm.365-.24c-.16.039-.27.148-.367.242l.08.081c.1-.097.188-.182.313-.212zm.223.033-.132-.023-.064-.01q-.006-.002-.02 0l.012.113h-.004l.057.009.13.023zm.002 0-.024.112zm-.002 0-.02.112zm.131.024-.13-.024-.021.112.132.024.02-.112Zm-.08.125c.027-.004.057-.008.082-.013l-.023-.112-.074.012zm-.088.009c-.006.01-.013.01-.008.008a1 1 0 0 1 .096-.018l-.015-.112c-.028.003-.06.008-.085.013l-.039.012a.1.1 0 0 0-.042.03zm-.276.427a3 3 0 0 1 .274-.425l-.088-.071c-.11.135-.198.29-.285.438zm-.002.003-.095-.064zm-.126.211q.066-.106.128-.214l-.099-.058a7 7 0 0 1-.125.212zm.063-.256a2 2 0 0 1-.152.186l.082.08c.065-.067.114-.134.162-.198zm-.002.002.095.063zm.42-.4c-.22.13-.322.267-.418.398l.092.068a1.2 1.2 0 0 1 .384-.367zm.367.032a.7.7 0 0 0-.331-.044.1.1 0 0 0-.038.014l.062.095q-.012.007-.004.003a.6.6 0 0 1 .26.034zm-.081.335c.042-.089.087-.184.11-.268l-.11-.031a2 2 0 0 1-.103.25zm-.044.094.044-.094-.103-.049-.045.096zm-.226.365c.083-.115.171-.236.226-.366l-.105-.045a2 2 0 0 1-.213.345zm-.117.168.117-.168-.092-.066q-.062.084-.12.172zm.224-.426c-.056.055-.11.11-.316.36l.088.071c.204-.248.256-.299.308-.35zm0 0 .08.08zm.176-.193c-.1.116-.138.155-.176.193l.08.08c.04-.04.081-.08.182-.199zm.279-.723c-.091.25-.19.504-.288.738l.105.044c.1-.236.198-.49.29-.743zm.046-.04-.02.01.054.1.02-.01zm.212-.002h-.156q-.014-.002-.002.001l-.055.1c.016.009.034.011.045.013l.047.002.124-.002zm.001 0v.114zm.28.001a3 3 0 0 0-.281 0l.003.113a4 4 0 0 1 .271.001zm.272-.122a.7.7 0 0 1-.287.123l.024.112a.9.9 0 0 0 .325-.14zm.314-.113a.6.6 0 0 0-.187.042c-.05.02-.09.047-.127.071l.062.095a.5.5 0 0 1 .26-.095zm.267.431a.8.8 0 0 0-.033-.223.4.4 0 0 0-.075-.142.19.19 0 0 0-.159-.066l.009.114a.08.08 0 0 1 .066.028q.03.037.05.1a.7.7 0 0 1 .028.163v.016zm-.342 1.287c.185-.423.306-.887.342-1.287l-.113-.01a4.2 4.2 0 0 1-.334 1.25zm-1.456 1.518c.321-.05.59-.248.825-.521s.438-.626.63-.994l-.102-.052c-.19.366-.39.709-.615.972-.225.262-.472.439-.755.482zm-1.362-.299c.34.192.725.41 1.363.298l-.02-.112c-.597.105-.95-.095-1.287-.285zm-.194-.106q.096.05.194.106l.056-.1a6 6 0 0 0-.198-.107zm-.09.123.153-.13-.074-.087-.153.13zm-1.48-.228c.132.353.364.552.641.587.274.034.575-.095.842-.362l-.08-.08c-.252.25-.52.357-.748.329-.224-.028-.427-.19-.548-.514l-.106.04Zm.002.005.103-.05zm.049-.082.008.114zm-.054.07.007.014.1-.054-.007-.014zm-.043-.081.042.079.102-.05-.044-.085zm-.034-.066.033.064.101-.052-.033-.065zm0-.001.101-.051-.101.05Zm-.203-.361c.075.113.138.236.203.361l.101-.052a4 4 0 0 0-.209-.372zM9.372 9.28c-.104.177-.244.415-.256.688-.013.28.109.583.5.892l.07-.09c-.37-.291-.467-.562-.457-.797.011-.24.135-.455.24-.635zm.017-.029-.017.03.098.057.017-.03zm-1.095-.606a.5.5 0 0 0 .16.243c.076.07.173.135.28.191.213.113.47.2.69.256l.028-.11a3 3 0 0 1-.665-.246 1.2 1.2 0 0 1-.256-.175.4.4 0 0 1-.126-.188zM8.36 6.8a4 4 0 0 0-.13.737c-.016.271 0 .602.064 1.1l.113-.015c-.063-.494-.079-.817-.063-1.078a3.7 3.7 0 0 1 .127-.717zm.01.082.057-.013-.023-.111-.058.012zm.005-.002-.036-.108zm-.007.002-.02-.112zm-1.73.438c.6-.2 1.168-.32 1.731-.438l-.023-.112c-.563.119-1.137.24-1.745.442l.036.108Zm-.076-.05v.005l.114-.018-.001-.004zm-.802.37a5 5 0 0 1 .433-.179c.18-.067.36-.126.438-.144l-.025-.111c-.087.02-.272.082-.453.148a4 4 0 0 0-.447.186zm-.375.116q.178-.057.364-.111l-.032-.11c-.126.037-.245.074-.366.112zm.001 0-.036-.109.036.108Zm-.757.218c.3-.076.532-.148.756-.218l-.034-.11c-.224.071-.453.143-.75.217l.028.11Zm-.46 0q.223.03.453 0l-.014-.112a1.7 1.7 0 0 1-.425-.001zm-.61-.023c.195 0 .436 0 .61.023l.014-.113c-.182-.025-.432-.024-.625-.024zm0 0v-.114zm0 0v-.114zm-.351-.03a.1.1 0 0 0 .035.018 1 1 0 0 0 .101.01c.057.002.132.002.215.002v-.114a7 7 0 0 1-.273-.005l-.013-.003c-.004 0 .004 0 .012.009zm-.274-.636c.07.22.144.458.266.628l.093-.067c-.11-.152-.179-.37-.25-.595zm-.223-.543c.092.136.155.332.223.543l.108-.034c-.065-.206-.133-.42-.237-.574zm0 0 .002.003.089-.071L2.8 6.67l-.09.071Zm0 0 .002.003.084-.077-.002-.003zm-.34-.37c.12.117.235.23.336.366l.091-.068c-.106-.143-.228-.263-.346-.38l-.08.081Zm-.053-.054.054.053.08-.081-.054-.053zm-1.04-1.48c.122.515.553.996 1.04 1.48l.08-.08c-.49-.488-.896-.947-1.009-1.427l-.11.026Zm-.02-.087.02.084.112-.022-.022-.09zm-.046-.666c-.033.36.011.533.046.666l.11-.029c-.032-.124-.074-.284-.043-.627zm.004-.016-.001.002.107.038.001-.003zm0-.001v.002l.107.036.001-.002zm.647-1.092a2.5 2.5 0 0 0-.648 1.094l.11.031c.115-.397.301-.72.62-1.045zm.985.047c-.266-.051-.606-.058-.943-.064l-.002.114c.34.006.669.013.924.062zm.045.007-.047-.007-.018.112.047.008zm.59.144c-.234-.087-.46-.123-.59-.144l-.018.113c.13.02.346.055.568.137zm1.489.693.024-.051h-.001l-.01-.005-.134-.062-.367-.163a21 21 0 0 0-1.002-.412l-.04.106c.324.12.7.28.996.41a33 33 0 0 1 .5.225l.007.003h.002v.001zm-.47-.2q.223.13.442.25l.055-.1a26 26 0 0 1-.44-.248zm-1.363-.65c.169.034.38.122.616.24.235.118.49.264.747.41l.056-.098c-.256-.146-.514-.294-.752-.413a2.8 2.8 0 0 0-.644-.251l-.023.111Zm-.171-.131a.2.2 0 0 0 .066.09.24.24 0 0 0 .109.04l.015-.112a.1.1 0 0 1-.056-.02.1.1 0 0 1-.028-.038zm.855-.868c-.207.279-.41.552-.83.799l.057.098c.441-.26.656-.548.865-.829zm0 0 .092.068zm.42-.494c-.172.161-.297.33-.42.494l.092.068c.123-.165.243-.326.406-.48zm.099-.048-.083.037.045.104.084-.037zm0 0 .046.104zm.394-.122a1.2 1.2 0 0 0-.394.122l.046.104a1 1 0 0 1 .36-.113zM7.915 2.53c-.76-.417-1.728-.949-3.164-1.176l-.017.113c1.415.224 2.368.747 3.126 1.163zm0 0-.055.1zm.296.161-.296-.16-.055.1q.153.084.297.16zm.426.221c-.137-.07-.279-.14-.426-.22l-.054.1q.223.12.429.222zm0 0-.05.102zm.483.254c-.157-.09-.317-.17-.483-.254l-.051.102c.166.084.324.164.478.251zm1.238.97c-.116-.16-.364-.382-.61-.572a5 5 0 0 0-.36-.256 1.4 1.4 0 0 0-.278-.146l-.036.108c.055.018.143.065.252.134.107.069.23.156.352.25.246.19.482.404.587.55zm.543 1.49c-.149-.492-.313-1.005-.538-1.48l-.103.049c.221.467.383.972.532 1.463zm.145.718.052-.024-.004-.007a5 5 0 0 1-.193-.682l-.11.024c.053.251.104.429.14.544a2 2 0 0 0 .059.159l.003.008.001.002v.001zm-.131-.504a.2.2 0 0 0-.002.057 4 4 0 0 0 .064.392l.012.063.001.003v.001l.056-.012.056-.012-.001-.004-.003-.014-.01-.048a8 8 0 0 1-.055-.313l-.006-.062v-.029zm.457.048a.3.3 0 0 1-.074-.005 2 2 0 0 1-.307-.086l-.04.108a2 2 0 0 0 .33.091q.056.01.104.005zm-.513-.328a.4.4 0 0 0 .11.167c.05.05.109.095.165.135a2 2 0 0 0 .218.133l.027-.05.026-.05-.001-.001-.003-.002-.013-.007a2 2 0 0 1-.189-.117 1 1 0 0 1-.15-.122.3.3 0 0 1-.08-.117zm-.248-1.019c.072.318.16.712.248 1.02l.11-.032a18 18 0 0 1-.246-1.013zm.001.004.11-.033zm-.133-.551c-.005-.006-.005-.01-.001 0a3 3 0 0 1 .043.153c.025.102.056.239.09.394l.111-.025-.09-.395a3 3 0 0 0-.048-.169.1.1 0 0 0-.022-.037zm-1.005-.771a6 6 0 0 1 .58.397c.197.15.361.293.422.37l.09-.071a3 3 0 0 0-.443-.39 6 6 0 0 0-.592-.405zm-.23-.192a.1.1 0 0 0 .03.057q.02.02.048.04.056.04.152.095l.057-.099a2 2 0 0 1-.142-.088l-.03-.026c-.007-.007-.004-.005-.002.003zm.08-.115-.064.066.081.08.065-.066zm0 0 .082.08zm.302-.283c-.1.077-.209.188-.302.283l.082.08c.095-.097.197-.202.29-.273zm.063-.05-.063.05.07.09.064-.05zm-.002.002.075.086zm.331-.206c-.139.051-.238.131-.33.204l.072.09c.092-.074.178-.143.298-.187zm1.056 0c-.2-.08-.558-.224-1.06.001l.048.104c.457-.206.777-.077.97.001zm.12.044c.008-.007.012 0-.015-.006a1 1 0 0 1-.105-.038l-.043.106a1 1 0 0 0 .122.043c.033.008.082.014.12-.021zm-.022-.155-.026-.007a.06.06 0 0 0-.05.015.06.06 0 0 0-.02.05q0 .017.006.026a.3.3 0 0 0 .039.064l.063.079.005.006.001.001.044-.037.043-.037-.002-.002-.004-.005-.076-.098-.005-.008-.002-.004v.002l.002.008c0 .006 0 .026-.018.04a.05.05 0 0 1-.039.013h-.005zm.174.057-.101-.029a.4.4 0 0 1-.068-.025l-.054.1a1 1 0 0 0 .088.034l.105.03zm.159.058a.1.1 0 0 0-.034-.02l-.035-.013-.09-.025-.03.11.085.024.027.01c.008.003.005.002 0-.003zm1.336 1.714a6.5 6.5 0 0 0-.724-1.073 4.7 4.7 0 0 0-.616-.644l-.07.09c.123.096.35.324.598.626a6.4 6.4 0 0 1 .711 1.054zm.097.577a.8.8 0 0 0 .007-.306 1 1 0 0 0-.104-.27l-.101.052a1 1 0 0 1 .093.24.7.7 0 0 1-.007.262l.111.022Zm-.13.51c.049-.153.084-.28.13-.51l-.112-.022a4 4 0 0 1-.127.498l.108.035Zm-.292.872v-.003a.2.2 0 0 1 .01-.044l.027-.1a10 10 0 0 1 .252-.719l-.104-.045a10 10 0 0 0-.287.838.3.3 0 0 0-.012.074zm.107.86.052-.024V6.89l-.002-.004-.007-.015a2 2 0 0 1-.089-.259 1.4 1.4 0 0 1-.061-.549l-.113-.015a1.5 1.5 0 0 0 .064.595 3 3 0 0 0 .094.272l.007.016.002.005v.001l.053-.023Zm-.058-.124q.002.053 0 .122l.115.002-.001-.127zm.005-.175a1 1 0 0 0-.005.175l.114-.003a1 1 0 0 1 .004-.158zm.014-.163-.014.165.113.01.015-.166-.114-.01Zm-.007-.062a.2.2 0 0 0 .007.07l.001.008.056-.011.056-.012v-.002l-.001-.004-.005-.032v-.007zm.031-.192a2 2 0 0 0-.031.192l.113.01q.012-.099.03-.18zm0 0 .112.022zm.016-.086-.016.086.112.023q.011-.052.017-.095zm.343-1.2c-.142.39-.268.735-.343 1.198l.113.018c.073-.451.195-.786.337-1.177zm.039-.106-.039.106.107.04.039-.107zm.055-.11q-.026.045-.054.107l.105.045a1 1 0 0 1 .049-.095zm.002-.003.095.063zm.045-.12c.001.035-.014.066-.047.124l.1.056c.029-.052.064-.111.06-.185zm-.147-.379c.04.075.078.145.105.21a.4.4 0 0 1 .042.165l.114.002a.5.5 0 0 0-.05-.211c-.03-.071-.071-.146-.11-.22zm-.074-.142.074.142.1-.053-.072-.14-.102.05Zm-.362-.644c.15.23.265.447.362.643l.102-.05a6 6 0 0 0-.37-.655zm-1.162-1.114c.527.237.815.616 1.162 1.116l.094-.065c-.348-.5-.651-.903-1.21-1.155zm-.922-.09c.095-.017.288-.011.482.008.096.01.19.023.268.038a1 1 0 0 1 .172.044l.046-.104a1 1 0 0 0-.197-.052 4 4 0 0 0-.277-.039 2.2 2.2 0 0 0-.515-.006zm-.616.206c.161-.103.366-.153.618-.205l-.024-.112c-.249.052-.474.105-.656.221zm-.371.304c.12-.11.239-.22.37-.304l-.06-.096c-.143.091-.268.207-.387.316zm-.001 0-.075-.085zm.004-.003-.083-.078zm-.363.297c.127-.08.245-.189.36-.294l-.077-.084a2.6 2.6 0 0 1-.344.282l.06.096Zm-.877-.476c.11.075.371.255.82.48l.052-.103c-.443-.221-.7-.397-.807-.47zm0 0 .064-.094zm-.048-.032.048.032.065-.094-.056-.037zm-1.137-.569c.42.192.812.395 1.139.57l.054-.1c-.328-.176-.722-.38-1.146-.574zm-2.594-.726a8 8 0 0 1 2.263.545q.122.053.204.097a.6.6 0 0 1 .111.074l.078-.084a.7.7 0 0 0-.135-.09 3 3 0 0 0-.213-.101 8.1 8.1 0 0 0-2.299-.554zm-.025-.009.06-.096zm.79 10.83c.077.182.165.383.259.567.093.183.194.354.3.474l.085-.075a2.3 2.3 0 0 1-.284-.45 9 9 0 0 1-.256-.56zm3.441.967c-1.15.028-2.513-.527-3.36-1.037l-.058.097c.855.515 2.24 1.082 3.42 1.054zm.42.61a11 11 0 0 1-.37-.581l-.098.057c.118.204.259.419.372.588l.095-.063Zm-3.217-.454c.634.31 1.676.772 3.177.543l-.017-.113c-1.467.224-2.484-.225-3.11-.532zm-.083-.08.068.07.08-.082-.067-.068zm2.668-.697c-.982-.21-1.61-.44-2.06-.676s-.724-.48-.996-.723l-.075.085c.272.244.554.496 1.017.739s1.102.476 2.09.687zm-.06.024-.002.005.1.054.003-.006zm.113-.64a1.9 1.9 0 0 0-.12.668l.115-.002a1.8 1.8 0 0 1 .11-.622zm.004-.01-.004.01.105.044.005-.011-.106-.044ZM4.936 9.294c.151.41.58.985 1.203 1.485.625.502 1.45.933 2.396 1.046l.014-.114c-.921-.11-1.726-.53-2.338-1.02-.613-.493-1.027-1.053-1.168-1.437zm.068 1.384a4.2 4.2 0 0 1 .041-1.392l-.111-.024a4.4 4.4 0 0 0-.043 1.43zm.372.296a7 7 0 0 0-.393-.334l-.07.09a7 7 0 0 1 .388.33zm3.342.511a5 5 0 0 1 .094-.216l-.103-.05q-.044.094-.096.223zm-1.828-1.08c.544.392 1.09.784 1.75 1.11l.05-.102c-.65-.321-1.188-.708-1.734-1.1zm-.013-.01.013.01.066-.092-.013-.01zm-1.28-2.449c.155 1.007.379 1.792 1.28 2.45l.066-.093c-.863-.63-1.08-1.377-1.234-2.374l-.113.017Zm.105-.125a.3.3 0 0 0-.093.08l.088.072a.2.2 0 0 1 .048-.046zm.936-.4q-.51.112-.946.406l.064.094a2.6 2.6 0 0 1 .907-.389zm1.538 3.2c-.592-.995-1.183-2.082-1.47-3.159l-.11.03c.291 1.093.89 2.191 1.482 3.188zm.09.116-.095-.121-.089.07.093.12.09-.07Zm0 0-.091.069.09-.07Zm0 0-.092.069zm.52.456a1.3 1.3 0 0 1-.307-.204 2 2 0 0 1-.214-.252l-.09.07c.079.103.144.188.227.265s.183.147.332.223zm.462 2.78c-.511.233-1.053.237-1.593.24v.114c.537-.003 1.103-.005 1.64-.251l-.047-.104Zm.208.223A1 1 0 0 1 9.323 14l-.102.05c.046.097.114.18.146.22l.089-.073Zm.027.037c-.004-.008-.011-.017-.013-.02l-.014-.017-.089.072.013.016.002.003-.002-.005zm-.924.543c.117.02.465.068.724.028a.7.7 0 0 0 .18-.052.27.27 0 0 0 .127-.116c.056-.109.013-.248-.114-.413l-.09.07c.123.16.126.246.103.291a.16.16 0 0 1-.075.065.5.5 0 0 1-.148.042c-.24.038-.572-.008-.688-.028zm-1.223-.454c.39.221.801.386 1.224.454l.017-.113a3.6 3.6 0 0 1-1.185-.44zm.32-.11-.293.004.002.114q.144-.003.29-.003v-.114Zm2.967-3.584c.193.288.484.565.825.832l.07-.09c-.337-.263-.617-.532-.8-.806zm-.274.683c.15-.194.323-.414.377-.705l-.112-.02c-.048.259-.202.457-.355.655zm-.09.117q.043-.058.09-.117l-.09-.07-.091.118zm.11.297a.7.7 0 0 1-.121-.228.1.1 0 0 1 0-.043.1.1 0 0 1 .013-.03l-.096-.061a.2.2 0 0 0-.028.063.2.2 0 0 0-.001.092.8.8 0 0 0 .14.273zm.273.044a1 1 0 0 1-.174-.008.3.3 0 0 1-.07-.018.1.1 0 0 1-.029-.019l-.092.067c.02.028.05.046.078.057q.045.018.095.026c.066.01.14.012.198.009zm-.137.029q.058.038.105.073l.07-.09q-.055-.04-.112-.078zm-.227-.208a.3.3 0 0 0 .093.113c.04.032.088.064.134.095l.063-.095a2 2 0 0 1-.125-.089q-.054-.045-.058-.062zm.596.077c-.15.02-.321-.014-.51-.143l-.064.094c.209.143.407.186.59.162zm.08-.079a.3.3 0 0 1-.048.061c-.017.015-.028.018-.03.018l.012.114a.2.2 0 0 0 .093-.046.4.4 0 0 0 .072-.089zm.2-.253a.5.5 0 0 0-.095.084.7.7 0 0 0-.107.174l.103.048a.6.6 0 0 1 .09-.147.4.4 0 0 1 .077-.067zm.007-.005-.006.005.067.092.006-.005zm.214.18-.136-.17-.089.072.136.17zm.071-.138-.153.13.074.087.153-.13zm-.205-8.383c-.01 0-.012-.005-.005 0a1 1 0 0 1 .105.116 6 6 0 0 1 .411.631q.042.075.067.128a.4.4 0 0 1 .027.068l.112-.02a.4.4 0 0 0-.036-.097 2 2 0 0 0-.07-.133 6 6 0 0 0-.42-.646 1 1 0 0 0-.09-.105.3.3 0 0 0-.04-.034.1.1 0 0 0-.05-.021zm.044-.099-.078.084zm-.086.074.655.99.095-.064-.655-.99zm.646.966c.02.134.051.275.083.415l.111-.025a6 6 0 0 1-.08-.407zm0 .003.083.411.111-.022-.081-.411zm.083.412c.042.187.083.373.1.55l.113-.01a4 4 0 0 0-.102-.565zm0-.002.1.557.112-.02-.1-.557-.113.02Zm.211.531a10 10 0 0 0-.304-.925l-.106.041c.118.305.213.61.3.916zm0-.002-.303-.92-.108.035.302.92zm-.304-.924a1.9 1.9 0 0 0-.38-.562l-.084.076c.24.265.326.45.358.53zm-.006-.01-.368-.546-.095.064.369.546zm-.366-.543a1.2 1.2 0 0 1-.157-.453l-.112.021c.028.146.056.3.17.49zm.005.01-.164-.471-.108.037.164.472zM9.976 6.091a.7.7 0 0 1-.13-.15 4 4 0 0 1-.143-.227l-.097.059c.049.082.098.162.146.232s.099.132.154.175l.07-.09Zm-.267-.395c.059.162.116.322.18.463l.104-.047a6 6 0 0 1-.176-.455zm-.596-1.1c.294.26.45.688.596 1.1l.108-.039c-.145-.403-.308-.863-.628-1.147l-.076.085Zm-1.496-.133c.564.008 1.115.015 1.517.144l.035-.109c-.422-.135-.993-.141-1.55-.149zm0 0 .002-.114zm-.502-.01q.249.008.502.01l.002-.114a20 20 0 0 1-.5-.01l-.004.115Zm.765.018a7 7 0 0 1-.749-.13l-.028.11c.228.06.496.096.762.133zm1.232.311a1.8 1.8 0 0 0-.555-.2 9 9 0 0 0-.677-.11l-.015.112c.23.032.46.064.667.11.208.045.388.103.52.185zm-.044.153a.2.2 0 0 0 .051-.038.09.09 0 0 0 .018-.082l-.11.03v-.01l.004-.01H9.03l-.011.007zm-.102-.006.07.01.015-.112-.066-.01zm-.242-.008a.6.6 0 0 1 .242.008l.019-.113a.7.7 0 0 0-.287-.006l.026.11Zm-.314.15c.108-.06.21-.116.319-.152l-.035-.108a2 2 0 0 0-.34.16zm0 0-.054-.1zm0 0-.054-.1zm0 0-.055-.1zm0 0-.055-.1zm-.001 0-.053-.1zm0 0-.053-.1zm.001 0-.055-.1zm0 0-.055-.1zm-.153.082q.078-.04.153-.082l-.055-.1q-.075.042-.15.08zm.612-.104a1.4 1.4 0 0 0-.649-.003l.023.112c.29-.06.434-.03.604.003zm.264.04a2 2 0 0 1-.264-.04l-.022.112c.08.015.168.032.277.042zm.57.625c-.073-.121-.152-.253-.24-.365a.8.8 0 0 0-.314-.256l-.04.106c.093.036.18.115.264.22.083.106.159.231.233.354zm1.8 1.515a2.1 2.1 0 0 0-.71.02l.024.11a2 2 0 0 1 .673-.017zm.05.056h-.113.114Zm-.847.427c.138-.15.228-.225.335-.271.11-.047.24-.067.464-.1l-.016-.112c-.22.031-.367.053-.494.107-.129.056-.232.145-.373.3zm-.067-.159q-.014.055-.029.103l.108.037q.019-.057.032-.112l-.11-.028Zm.12-.283c-.073.098-.098.198-.12.283l.11.028a.6.6 0 0 1 .101-.243zm3.817 1.71-.08-.081.08.08Zm-.462.253c.146-.045.242-.087.312-.13a.7.7 0 0 0 .15-.124l-.08-.08a.6.6 0 0 1-.13.107 1.2 1.2 0 0 1-.285.118zm-.618-.21a.7.7 0 0 0 .246.191.58.58 0 0 0 .369.02l-.026-.111a.47.47 0 0 1-.299-.014.6.6 0 0 1-.204-.161zm.189-.039c-.037-.018-.078-.039-.13-.053l-.032.11c.041.01.074.027.111.045zm.59-.015c-.198.063-.319.078-.402.073a.44.44 0 0 1-.188-.058l-.051.102c.06.03.127.064.232.07.103.006.24-.014.443-.078l-.035-.109Zm.314-.154-.322.157.05.103.322-.157zm-.013.164a1 1 0 0 1 .074-.068l-.071-.089a1 1 0 0 0-.083.077zm-4.04 1.408a.06.06 0 0 1-.021.043q-.013.009-.017.01l-.01.002h.008l.048.003a4 4 0 0 1 .415.057l.037-.108-.11-.021a6 6 0 0 0-.387-.045h-.021l-.017.004a.06.06 0 0 0-.04.055zm-.195.34a.3.3 0 0 1 .025-.137.4.4 0 0 1 .145-.157l-.066-.093a.54.54 0 0 0-.181.2.4.4 0 0 0-.037.19l.114-.004Zm-.075-.061-.023.022.08.081.023-.022zm.712-.275c-.198 0-.314-.002-.41.035-.098.037-.174.113-.302.24l.08.081c.135-.133.192-.188.263-.215s.16-.028.368-.027zm0 0v.114zm.007.114-.014-.113zm-.021-.001.028-.11zm-.326-2.083.008.057h.003a2 2 0 0 1 .155-.02 1 1 0 0 1 .128-.006l-.01-.005a.05.05 0 0 1-.022-.055l.11.024a.06.06 0 0 0-.005-.041.1.1 0 0 0-.022-.023.1.1 0 0 0-.029-.011l-.046-.004a4 4 0 0 0-.274.027h-.003l-.001.001zm.026.05-.053-.1zm1.185-.325a1.4 1.4 0 0 0-.649-.041c-.195.039-.379.13-.593.269l.062.095c.21-.135.38-.218.554-.253.174-.034.358-.023.597.04zm-.19.164q.092-.03.19-.054l-.028-.11a3 3 0 0 0-.2.056zm.036.367a.08.08 0 0 0 .065-.052.2.2 0 0 0 .012-.063.6.6 0 0 0-.014-.136 1 1 0 0 0-.054-.178l-.012-.02-.01-.012a.1.1 0 0 0-.026-.015l-.032.11a.05.05 0 0 1-.024-.016l.002.003a1 1 0 0 1 .044.15.5.5 0 0 1 .01.13v.002s.006-.013.023-.015zm.313.042.015-.055-.003-.001-.011-.003-.039-.011-.255-.076.002.001.009.007c.001.002.014.013.016.033a.057.057 0 0 1-.047.063l-.016-.112a.06.06 0 0 0-.042.027.057.057 0 0 0 .02.079l.054.021a5 5 0 0 0 .267.077l.011.003.003.001h.001zm-.273.07q.137-.005.277-.014l-.008-.113q-.135.009-.273.012zm-.89.163c.282-.142.576-.153.89-.164l-.004-.114c-.31.011-.63.021-.937.176zm.117-.24-.178.145.072.088.178-.146-.072-.088Zm-.005.082a.058.058 0 0 0 .097-.018l.004-.013-.113-.02.003-.01a.056.056 0 0 1 .091-.017zm.008-.086-.003.003.072.088.003-.002zm-.066-.315a.7.7 0 0 0 .008.228 1 1 0 0 0 .036.152l.014.021.082-.078.007.008v.002-.004a.6.6 0 0 1-.034-.305z"/></g></symbol><symbol xmlns="http://www.w3.org/2000/svg" id="jupyter-tool-window" fill="none" viewBox="0 0 16 16"><path fill="currentColor" d="M13.657 5.752c-1.387-1.034-3.58-1.95-5.652-1.95-2.08 0-4.266.913-5.65 1.947-.187.14-.443-.052-.314-.248.613-.933 1.524-1.892 2.305-2.409A6.63 6.63 0 0 1 8.005 2c1.308 0 2.585.381 3.659 1.092.782.518 1.694 1.478 2.307 2.412.129.195-.127.388-.314.248M2.355 10.248c1.387 1.034 3.58 1.95 5.652 1.95 2.079 0 4.265-.913 5.65-1.947.187-.14.443.052.314.248-.613.933-1.524 1.892-2.306 2.409A6.63 6.63 0 0 1 8.007 14a6.63 6.63 0 0 1-3.659-1.092c-.782-.518-1.694-1.478-2.307-2.412-.129-.196.127-.388.314-.248"/></symbol><symbol xmlns="http://www.w3.org/2000/svg" id="kafka" fill="none" viewBox="0 0 15 15"><g fill="currentColor"><path d="M5.009 3.927h1V5.78h-1zm3.828 1.361.5.866-1.605.926-.5-.866zm.359 3.57-.5.866-1.604-.926.5-.866zm-4.187.627h1v1.853h-1z"/><path fill-rule="evenodd" d="M5.544 8.97a1.47 1.47 0 1 0 0-2.94 1.47 1.47 0 0 0 0 2.94m0 1.03a2.5 2.5 0 1 0 0-5 2.5 2.5 0 0 0 0 5m.001-6.676a.824.824 0 1 0 0-1.648.824.824 0 0 0 0 1.648m0 .962a1.786 1.786 0 1 0 0-3.572 1.786 1.786 0 0 0 0 3.572m4.625 1.721a.824.824 0 1 0 0-1.648.824.824 0 0 0 0 1.648m0 .961a1.786 1.786 0 1 0 0-3.571 1.786 1.786 0 0 0 0 3.571m-4.625 6.356a.824.824 0 1 0 0-1.648.824.824 0 0 0 0 1.648m0 .962a1.786 1.786 0 1 0 0-3.572 1.786 1.786 0 0 0 0 3.572m4.625-3.514a.824.824 0 1 0 0-1.649.824.824 0 0 0 0 1.649m0 .961a1.786 1.786 0 1 0 0-3.571 1.786 1.786 0 0 0 0 3.571" clip-rule="evenodd"/></g></symbol><symbol xmlns="http://www.w3.org/2000/svg" id="kotlin-tool-window" fill="none" viewBox="0 0 16 16"><path fill="currentColor" fill-rule="evenodd" d="M2 3a1 1 0 0 1 1-1h9.996c.912 0 1.348 1.12.676 1.737L9.022 8l4.65 4.263c.672.616.236 1.737-.676 1.737H3a1 1 0 0 1-1-1zm10.996 0H3v10h9.996l-4.65-4.263a1 1 0 0 1 0-1.474L12.995 3Z" clip-rule="evenodd"/></symbol><symbol xmlns="http://www.w3.org/2000/svg" id="learn" fill="none" viewBox="0 0 16 16"><path fill="currentColor" fill-rule="evenodd" d="M3.5 7.778v3.972a.5.5 0 0 0 .276.447l4 2a.5.5 0 0 0 .448 0l4-2a.5.5 0 0 0 .276-.447V7.778l-1 .555v3.108L8 13.191l-3.5-1.75V8.333z" clip-rule="evenodd"/><path stroke="currentColor" stroke-linecap="round" stroke-linejoin="round" d="M15 6.389 8 2.5 1 6.389l7 3.889 7-3.89Zm0 0v3.889"/></symbol><symbol xmlns="http://www.w3.org/2000/svg" id="makefile-tool-window" fill="none" viewBox="0 0 16 16"><path stroke="currentColor" d="M5.354 7.646 4.5 6.793V13a.5.5 0 0 1-.5.5H2a.5.5 0 0 1-.5-.5V3a.5.5 0 0 1 .5-.5h2.086a.5.5 0 0 1 .353.146l.354-.353-.354.353 3.207 3.208.354.353.354-.353 3.207-3.208a.5.5 0 0 1 .353-.146H14a.5.5 0 0 1 .5.5v10a.5.5 0 0 1-.5.5h-2a.5.5 0 0 1-.5-.5V6.793l-.854.853L8 10.293z"/></symbol><symbol xmlns="http://www.w3.org/2000/svg" id="maven" fill="none" viewBox="0 0 16 16"><path fill="currentColor" d="M13.162 3.201c2.062 0 2.42 1.735 2.062 3.298l-1.328 6.013c-.095.432-.54.709-.995.618-.453-.09-.744-.515-.649-.948L13.503 6.5c.57-2.479-2.664-2.173-3.977-.332l-1.415 6.35c-.096.431-.541.708-.995.617l-.055-.013c-.432-.106-.704-.518-.611-.939l1.255-5.687c.262-1.12-.275-1.67-1.055-1.766-.928-.1-2.2.447-2.91 1.442v-.007l-.002.003-1.42 6.355c-.096.432-.542.708-.996.617-.454-.092-.744-.517-.647-.95L2.503 4c.096-.433.542-.709.996-.617.516.105.728.578.629 1.031.95-.748 2.056-1.276 3.32-1.207 1.235.025 1.839.689 2.036 1.556 1.139-.973 2.1-1.56 3.678-1.56Z"/></symbol><symbol xmlns="http://www.w3.org/2000/svg" id="messages" fill="none" viewBox="0 0 16 16"><g fill="currentColor"><rect width="12" height="1" x="2" y="3" rx=".5"/><rect width="9" height="1" x="2" y="6" rx=".5"/><rect width="10" height="1" x="2" y="9" rx=".5"/><rect width="12" height="1" x="2" y="12" rx=".5"/></g></symbol><symbol xmlns="http://www.w3.org/2000/svg" id="notifications" fill="none" viewBox="0 0 16 16"><g stroke="currentColor"><path stroke-width=".916" d="M6.957 14.458H9.05a1.143 1.143 0 0 1-2.093 0Z"/><path stroke-linejoin="round" d="M3.947 8.224A.5.5 0 0 0 4 8V6c0-1.707.571-2.815 1.324-3.5.764-.695 1.763-.998 2.677-1h.008c.914.002 1.91.305 2.671 1C11.43 3.184 12 4.292 12 6v2a.5.5 0 0 0 .053.224l1.796 3.592a.472.472 0 0 1-.422.684H2.573a.472.472 0 0 1-.422-.684z"/></g></symbol><symbol xmlns="http://www.w3.org/2000/svg" id="npm" fill="none" viewBox="0 0 16 16"><path stroke="currentColor" d="M2.5 4A1.5 1.5 0 0 1 4 2.5h8A1.5 1.5 0 0 1 13.5 4v8a1.5 1.5 0 0 1-1.5 1.5h-1.5V6.1a.6.6 0 0 0-.6-.6H8.1a.6.6 0 0 0-.6.6v7.4H4A1.5 1.5 0 0 1 2.5 12z"/></symbol><symbol xmlns="http://www.w3.org/2000/svg" id="package-manager" fill="none" viewBox="0 0 16 16"><path stroke="currentColor" stroke-linecap="round" stroke-linejoin="round" d="m8 7.5 6.5-3M8 7.5v7m0-7-6.5-3m13 0v7.02L8 14.5m6.5-10L8 1.5l-6.5 3m6.5 10-6.5-2.98V4.5"/></symbol><symbol xmlns="http://www.w3.org/2000/svg" id="problems" fill="none" viewBox="0 0 16 16"><g stroke="currentColor"><circle cx="8" cy="8" r="6.5"/><circle cx="8.001" cy="10.7" r=".5" fill="currentColor" stroke-width=".4"/><path stroke-linecap="round" stroke-width="1.2" d="M8 4.6v3.8"/></g></symbol><symbol xmlns="http://www.w3.org/2000/svg" id="profiler" fill="none" viewBox="0 0 16 16"><g fill="currentColor" fill-rule="evenodd" clip-rule="evenodd"><path d="M12.157 7.202a.6.6 0 1 0-.752-.935l-2.477 1.99a1.8 1.8 0 1 0 .764.926zM8.8 9.8a.8.8 0 1 1-1.6 0 .8.8 0 0 1 1.6 0"/><path d="M8 3.5A6.5 6.5 0 0 0 1.5 10c0 .89.27 2.087.64 3h11.72c.37-.913.64-2.11.64-3A6.5 6.5 0 0 0 8 3.5M.5 10a7.5 7.5 0 1 1 15 0c0 1.16-.377 2.68-.866 3.73a.48.48 0 0 1-.435.27H1.8a.48.48 0 0 1-.435-.27C.877 12.68.5 11.16.5 10"/></g></symbol><symbol xmlns="http://www.w3.org/2000/svg" id="project" fill="none" viewBox="0 0 16 16"><path stroke="currentColor" d="m8.151 4.358.146.142H13A1.5 1.5 0 0 1 14.5 6v6.133c0 .786-.59 1.367-1.25 1.367H2.75c-.66 0-1.25-.581-1.25-1.367V3.867c0-.786.59-1.367 1.25-1.367h3.288a.5.5 0 0 1 .349.142z"/></symbol><symbol xmlns="http://www.w3.org/2000/svg" id="pull-requests" fill="none" viewBox="0 0 16 16"><g stroke="currentColor"><circle cx="3.75" cy="12" r="2"/><circle cx="3.75" cy="4" r="2"/><circle cx="12.25" cy="12" r="2"/><path d="M3.75 6v4m8.5 0V5.6a1.6 1.6 0 0 0-1.6-1.6H8"/><path stroke-linecap="round" d="m9.75 6-2-2 2-2"/></g></symbol><symbol xmlns="http://www.w3.org/2000/svg" id="python-console-tool-window" fill="none" viewBox="0 0 16 16"><path fill="currentColor" fill-rule="evenodd" d="M6.407 1.137A9 9 0 0 1 8.007 1h.004c.567.005 1.134.055 1.693.15.538.06 1.039.305 1.417.692.377.386.66.953.66 1.502v2.952a2.2 2.2 0 0 1-2.144 2.2H6.515a1.38 1.38 0 0 0-.938.393c-.25.244-.487.562-.502.911v1.5c0 .332-.178.612-.51.612H3.479a2.05 2.05 0 0 1-1.516-.636c-.367-.382-.593-.887-.72-1.412a6.5 6.5 0 0 1-.005-3.49 2.544 2.544 0 0 1 2.56-2.046h.56v-1c0-.474.06-1.003.43-1.434.36-.421.92-.633 1.618-.757h.002Zm1.596.895c-.466 0-.989.04-1.447.12-.614.108-.83.255-.917.356-.078.091-.139.247-.139.652v1.368a1 1 0 0 1-1 1h-.918c-.32-.01-.633.096-.882.296-.283.228-.396.516-.49.851a5.3 5.3 0 0 0 0 2.874c.09.321.19.649.427.896.162.168.555.267.84.267h.489v-.934A2.576 2.576 0 0 1 6.5 7.296h.01l3.204-.016a1 1 0 0 0 .969-1V3.185a1.14 1.14 0 0 0-.32-.689c-.207-.213-.457-.296-.741-.345-.502-.086-1.11-.114-1.62-.119Z" clip-rule="evenodd"/><path fill="currentColor" fill-rule="evenodd" d="M11 4.5c0-.331-.15-.524.182-.524h1.208c.634 0 1.13.258 1.486.673.331.386.522.883.644 1.364a5.93 5.93 0 0 1-.006 3.543l-.001.004c-.157.487-.348.989-.667 1.366-.354.42-.834.65-1.456.65h-.96v1c0 .661-.298 1.164-.71 1.516-.39.335-.88.535-1.319.659a5.75 5.75 0 0 1-3.463-.003c-.869-.27-1.972-.897-1.972-2.172v-1.32a.6.6 0 0 1 .6-.6c.331 0 .509.268.509.6v1.497c0 .42.442.785 1.22 1.027l.004.001a5.03 5.03 0 0 0 2.892 0c.315-.1.635-.204.891-.424a.75.75 0 0 0 .29-.605V11.5a1 1 0 0 1 1-1l1.128.001c.282 0 .422-.085.54-.224.153-.18.286-.478.44-.958.29-.924.29-2.167 0-3.09-.102-.323-.177-.661-.404-.926a.7.7 0 0 0-.576-.254h-1.318C10.85 5.049 11 4.83 11 4.5" clip-rule="evenodd"/><path fill="currentColor" d="M7.55 3.6a.76.76 0 1 1-.75.76.75.75 0 0 1 .75-.76m.667 7.46a.76.76 0 1 1 0 1.52.76.76 0 0 1 0-1.52"/></symbol><symbol xmlns="http://www.w3.org/2000/svg" id="repositories" fill="none" viewBox="0 0 16 16"><g fill="currentColor" fill-rule="evenodd" clip-rule="evenodd"><path d="m7.803 4.717.29.283H13a1 1 0 0 1 1 1v5h1V6a2 2 0 0 0-2-2H8.5L6.736 2.283A1 1 0 0 0 6.038 2H2.75C1.784 2 1 2.836 1 3.867v8.266C1 13.164 1.784 14 2.75 14H3v-1h-.25c-.354 0-.75-.326-.75-.867V3.867c0-.54.396-.867.75-.867h3.288z"/><path d="M10.5 15a1.5 1.5 0 1 0 0-3 1.5 1.5 0 0 0 0 3m2.45-2a2.5 2.5 0 0 0-4.9 0H5.5a.5.5 0 0 0 0 1h2.55a2.5 2.5 0 0 0 4.9 0h2.55a.5.5 0 0 0 0-1z"/></g></symbol><symbol xmlns="http://www.w3.org/2000/svg" id="run" fill="none" viewBox="0 0 16 16"><path stroke="currentColor" d="M13.5 7.134a1 1 0 0 1 0 1.732l-9 5.196a1 1 0 0 1-1.5-.866V2.804a1 1 0 0 1 1.5-.866z"/></symbol><symbol xmlns="http://www.w3.org/2000/svg" id="rust" fill="none" viewBox="0 0 16 16"><path fill="currentColor" fill-rule="evenodd" d="M15 8A7 7 0 1 1 1 8a7 7 0 0 1 14 0m-1.8 2.996A6 6 0 0 1 8 14a6 6 0 0 1-5.197-3h5.261c.047 0 .079-.016.079-.06V9.45c0-.043-.032-.051-.08-.051H6.84v-.945h1.325c.12 0 .646.035.814.71.019.075.046.209.076.36.055.273.12.602.171.74.08.243.4.736.741.736l2.16-.004zm.642-1.623H11.91c-.268 0-.571-.132-.632-.474-.117-.666-.377-.877-.776-1.193l-.028-.023c.515-.329 1.05-.814 1.05-1.463 0-.702-.477-1.144-.803-1.36a2.3 2.3 0 0 0-1.1-.364H3.13a6 6 0 0 1 10.713 4.877ZM2.322 6.055a6 6 0 0 0-.17 3.292h2.385V6.055zm4.518.035v.97h1.603c.341 0 .756-.121.756-.46 0-.406-.541-.51-.63-.51h-1.73Z" clip-rule="evenodd"/></symbol><symbol xmlns="http://www.w3.org/2000/svg" id="sbt-icon" fill="none" viewBox="0 0 16 16"><path stroke="currentColor" d="M4.684 3.623 8.683 2.55c.518-.139 1.07.01 1.45.389l2.927 2.927c.38.38.528.932.389 1.45l-1.072 3.999a1.5 1.5 0 0 1-1.061 1.061L7.317 13.45a1.5 1.5 0 0 1-1.45-.389L2.94 10.133a1.5 1.5 0 0 1-.389-1.45l1.072-3.999a1.5 1.5 0 0 1 1.061-1.061Z"/></symbol><symbol xmlns="http://www.w3.org/2000/svg" id="sbt-shell" fill="none" viewBox="0 0 16 16"><path fill="currentColor" fill-rule="evenodd" d="M3 2a2 2 0 0 0-2 2v8a2 2 0 0 0 2 2h4.416a5 5 0 0 1-.316-1H3a1 1 0 0 1-1-1V6h12v1.416q.537.235 1 .584V4a2 2 0 0 0-2-2zm10 1H3a1 1 0 0 0-1 1v1h12V4a1 1 0 0 0-1-1" clip-rule="evenodd"/><path stroke="currentColor" d="M10.92 15.134 8.895 13.09a.5.5 0 0 1-.129-.48l.733-2.784a.5.5 0 0 1 .354-.355l2.743-.735a.5.5 0 0 1 .484.13l2.027 2.046a.5.5 0 0 1 .129.48l-.733 2.784a.5.5 0 0 1-.354.355l-2.743.735a.5.5 0 0 1-.484-.13Z"/></symbol><symbol xmlns="http://www.w3.org/2000/svg" id="sci-view" fill="none" viewBox="0 0 16 16"><path fill="currentColor" d="M4 11.5a.5.5 0 0 1 1 0v3a.5.5 0 0 1-1 0zm3.5-4a.5.5 0 0 1 1 0v7a.5.5 0 0 1-1 0zm3.5 1a.5.5 0 0 1 1 0v6a.5.5 0 0 1-1 0z"/><path stroke="currentColor" stroke-linecap="round" d="m2 8 5.571-5.143L11 5l3-3"/></symbol><symbol xmlns="http://www.w3.org/2000/svg" id="services" fill="none" viewBox="0 0 16 16"><g stroke="currentColor"><path d="M15.212 7.5a1 1 0 0 1 0 1L12.039 14a1 1 0 0 1-.867.5H4.828a1 1 0 0 1-.867-.5L.788 8.5a1 1 0 0 1 0-1L3.961 2a1 1 0 0 1 .867-.5h6.344a1 1 0 0 1 .867.5z"/><path d="M10.5 7.567a.5.5 0 0 1 0 .866l-3.75 2.165a.5.5 0 0 1-.75-.433v-4.33a.5.5 0 0 1 .75-.433z"/></g></symbol><symbol xmlns="http://www.w3.org/2000/svg" id="setting-sync" fill="none" viewBox="0 0 16 16"><g stroke="currentColor" stroke-linecap="round"><path d="M2.5 9V8A5.5 5.5 0 0 1 11 3.39m-6 9.22A5.5 5.5 0 0 0 13.5 8V7"/><path d="m.5 7.5 2 2 2-2m7 1 2-2 2 2"/></g></symbol><symbol xmlns="http://www.w3.org/2000/svg" id="space-tool-window" fill="none" viewBox="0 0 16 16"><path stroke="currentColor" stroke-linejoin="round" d="M2.783 1.552c2.607-.29 8.43.521 11.558 5.388M2.783 1.552c1.738.58 4.953 2.78 6.691 5.388M2.783 1.552C.784 5.636 1.653 11.719 3.826 14.5M14.34 6.94c-1.825 5.214-7.474 7.56-10.515 7.56M14.34 6.94H9.474M3.826 14.5c2.462-1.303 5.214-4.519 5.648-7.56"/></symbol><symbol xmlns="http://www.w3.org/2000/svg" id="spring" fill="none" viewBox="0 0 16 16"><path fill="currentColor" fill-rule="evenodd" d="M4.195 5.8c.848-.327 1.66-.39 2.363-.43l.265-.013c.614-.032 1.14-.06 1.7-.193h.002c1.385-.329 2.935-1.379 3.522-2.598L13.11.356l.784 2.324c.43 1.272.924 2.964 1.066 4.676.14 1.699-.054 3.57-1.173 5.06-1.154 1.537-2.92 1.971-4.494 2.09-.798.06-1.605.043-2.334.021l-.286-.009a23 23 0 0 0-1.666-.016L5 14.503l-.047.003a8 8 0 0 0-.703.08c-.21.035-.44.023-.67-.066a1.3 1.3 0 0 1-.493-.35c-.182-.209-.282-.458-.324-.56l-.038-.097-.038-.093c-1.355-.7-1.84-2.353-1.643-3.777C1.255 8.11 2.256 6.545 4.195 5.8m2.513 7.719c2.25.071 4.885.155 6.28-1.703 1.814-2.415.803-6.32-.04-8.816-.75 1.56-2.598 2.758-4.192 3.137-.655.156-1.278.188-1.886.219-.78.04-1.539.078-2.316.377-3.155 1.212-3.107 4.973-1.37 5.818l.104.055s2.555-.509 3.969-1.03c2.063-.76 4.33-2.638 5.075-4.82-.395 2.268-2.344 4.451-4.302 5.454-.66.34-1.23.512-1.994.744-.44.133-.947.287-1.574.503-.21.073-.375.143-.375.143.436-.072.868-.096.868-.096a24 24 0 0 1 1.753.015" clip-rule="evenodd"/></symbol><symbol xmlns="http://www.w3.org/2000/svg" id="structure" fill="none" viewBox="0 0 16 16"><g stroke="currentColor"><rect width="5" height="5" x="1.5" y="1.5" rx=".5"/><rect width="5" height="5" x="1.5" y="8.5" rx=".5"/><rect width="5" height="5" x="8.5" y="8.5" rx=".5"/></g></symbol><symbol xmlns="http://www.w3.org/2000/svg" id="task" fill="none" viewBox="0 0 16 16"><path fill="currentColor" fill-rule="evenodd" d="M8 14.053a.5.5 0 0 1-.391-.15c-2.02-2.1-4.321-1.282-5.606-.526-.408.24-1.003-.047-1.003-.52V3.47c0-.285.153-.545.412-.661C2.562 2.292 5.86 1.095 8 3.202c2.141-2.107 5.438-.91 6.588-.393a.71.71 0 0 1 .412.66v9.388c0 .473-.595.76-1.003.52-1.284-.756-3.586-1.575-5.606.526a.5.5 0 0 1-.391.15M7.5 4.13c-.772-.902-1.781-1.164-2.826-1.128-1.055.037-2.066.383-2.674.64v8.6c.672-.334 1.534-.638 2.493-.673a4.77 4.77 0 0 1 3.007.917zm1 8.356a4.77 4.77 0 0 1 3.007-.917c.959.035 1.82.34 2.493.672V3.643c-.608-.257-1.619-.603-2.674-.64-1.045-.036-2.054.226-2.826 1.128z" clip-rule="evenodd"/></symbol><symbol xmlns="http://www.w3.org/2000/svg" id="terminal" fill="none" viewBox="0 0 16 16"><g stroke="currentColor"><rect width="13" height="11" x="1.5" y="2.5" rx="1.5"/><path stroke-linecap="round" d="M4.48 9.48 6.46 7.5 4.48 5.52M7.5 10.5h3"/></g></symbol><symbol xmlns="http://www.w3.org/2000/svg" id="todo" fill="none" viewBox="0 0 16 16"><circle cx="2.7" cy="4.5" r=".7" fill="currentColor"/><circle cx="2.7" cy="8" r=".7" fill="currentColor"/><circle cx="2.7" cy="11.5" r=".7" fill="currentColor"/><path stroke="currentColor" stroke-linecap="round" d="M5.5 4.5h8m-8 7h8M5.5 8h8"/></symbol><symbol xmlns="http://www.w3.org/2000/svg" id="transfer" fill="none" viewBox="0 0 16 16"><path fill="currentColor" d="M11.854 3.146a.5.5 0 0 0-.708 0l-3 3a.5.5 0 1 0 .708.708L11 4.707V12.5a.5.5 0 0 0 1 0V4.707l2.146 2.147a.5.5 0 0 0 .708-.708zM5 3.5a.5.5 0 0 0-1 0v7.793L1.854 9.146a.5.5 0 1 0-.708.708l3 3a.5.5 0 0 0 .708 0l3-3a.5.5 0 1 0-.708-.708L5 11.293z"/></symbol><symbol xmlns="http://www.w3.org/2000/svg" id="unknown" fill="none" viewBox="0 0 16 16"><path fill="currentColor" fill-rule="evenodd" d="M12.95 12.95a7 7 0 1 1-9.9-9.9 7 7 0 0 1 9.9 9.9m-.707-.707a6 6 0 1 1-8.486-8.485 6 6 0 0 1 8.486 8.485M7 6a1 1 0 1 1-2 0 1 1 0 0 1 2 0m4 0a1 1 0 1 1-2 0 1 1 0 0 1 2 0m-1 5a1 1 0 1 0 0-2 1 1 0 0 0 0 2m-3-1a1 1 0 1 1-2 0 1 1 0 0 1 2 0" clip-rule="evenodd"/></symbol><symbol xmlns="http://www.w3.org/2000/svg" id="vcs" fill="none" viewBox="0 0 16 16"><g stroke="currentColor"><circle cx="4.5" cy="4" r="2"/><circle cx="10.5" cy="6" r="2"/><path d="M4.5 11.5h4a2 2 0 0 0 2-2V8"/><path stroke-linecap="round" stroke-linejoin="round" d="M4.5 6.5v8"/></g></symbol><symbol xmlns="http://www.w3.org/2000/svg" id="web-locator" fill="none" viewBox="0 0 16 16"><path fill="currentColor" fill-rule="evenodd" d="M12 7a5 5 0 1 0-1.836 3.872l2.982 2.978a.5.5 0 0 0 .707-.708l-2.982-2.977A4.98 4.98 0 0 0 12 7m-4.127 3.088C7.474 10.887 7.108 11 7 11s-.474-.113-.873-.912A5.4 5.4 0 0 1 5.735 9h2.53a5.4 5.4 0 0 1-.392 1.088M5.5 7q.001.522.056 1h2.888a9 9 0 0 0 0-2H5.556A9 9 0 0 0 5.5 7m3.231 3.607c.236-.454.428-.999.561-1.607h1.173a4 4 0 0 1-1.734 1.607M9.45 8h1.424a4 4 0 0 0 0-2H9.45a10 10 0 0 1 0 2M3.126 8H4.55a10 10 0 0 1 0-2H3.126a4 4 0 0 0 0 2m1.582 1H3.535a4 4 0 0 0 1.734 1.607A6.5 6.5 0 0 1 4.708 9m3.557-4h-2.53c.104-.415.238-.782.392-1.088C6.526 3.113 6.892 3 7 3s.474.113.873.912c.154.306.288.673.392 1.088m2.2 0H9.292a6.5 6.5 0 0 0-.56-1.607c.726.35 1.331.912 1.733 1.607M4.708 5a6.5 6.5 0 0 1 .56-1.607A4 4 0 0 0 3.536 5z" clip-rule="evenodd"/></symbol><symbol xmlns="http://www.w3.org/2000/svg" id="web-server" fill="none" viewBox="0 0 16 16"><g fill="currentColor"><path d="M4 4h2v1H4z"/><path fill-rule="evenodd" d="M2 3v3a1 1 0 0 0 1 1h10a1 1 0 0 0 1-1V3a1 1 0 0 0-1-1H3a1 1 0 0 0-1 1m1 3V3h10v3z" clip-rule="evenodd"/><path d="M6 11H4v1h2z"/><path fill-rule="evenodd" d="M2 10v3a1 1 0 0 0 1 1h10a1 1 0 0 0 1-1v-3a1 1 0 0 0-1-1H3a1 1 0 0 0-1 1m1 3v-3h10v3z" clip-rule="evenodd"/></g></symbol><symbol xmlns="http://www.w3.org/2000/svg" id="web" fill="none" viewBox="0 0 16 16"><g stroke="currentColor"><circle cx="8" cy="8" r="6.5"/><path d="M10.5 8c0 1.882-.328 3.562-.838 4.753-.256.596-.547 1.047-.845 1.341-.297.292-.572.406-.817.406s-.52-.114-.817-.406c-.298-.294-.59-.745-.845-1.341C5.828 11.562 5.5 9.882 5.5 8s.328-3.562.838-4.753c.256-.596.547-1.047.845-1.341.297-.292.572-.406.817-.406s.52.114.817.406c.298.294.59.745.845 1.341.51 1.191.838 2.871.838 4.753Zm3.722-2.5H1.777m12.445 5H1.777"/></g></symbol><symbol xmlns="http://www.w3.org/2000/svg" id="writerside-preview" fill="none" viewBox="0 0 16 16"><g fill="currentColor"><path fill-rule="evenodd" d="M7 3h5a1 1 0 0 1 1 1v8a1 1 0 0 1-1 1H7zM6 2h6a2 2 0 0 1 2 2v8a2 2 0 0 1-2 2H4a2 2 0 0 1-2-2V4a2 2 0 0 1 2-2zm0 11H4a1 1 0 0 1-1-1V4a1 1 0 0 1 1-1h2z" clip-rule="evenodd"/><rect width="4" height="1" x="8" y="5" rx=".5"/><rect width="4" height="1" x="8" y="7.5" rx=".5"/><rect width="4" height="1" x="8" y="10" rx=".5"/></g></symbol><symbol xmlns="http://www.w3.org/2000/svg" id="writerside" fill="none" viewBox="0 0 16 16"><g stroke="currentColor"><rect width="10" height="10" x="2.5" y="3.5" rx="1.5"/><rect width="4" height=".5" x="5" y="10.25" stroke-width=".5" rx=".25"/><path stroke-linecap="round" d="M4.5 1.5H12A2.5 2.5 0 0 1 14.5 4v7.5"/></g></symbol></svg>