<svg width="20" height="20" viewBox="0 0 20 20" fill="none" xmlns="http://www.w3.org/2000/svg">
<g clip-path="url(#clip0_1032_4076)">
<path d="M10 20C15.5228 20 20 15.5228 20 10C20 4.47715 15.5228 0 10 0C4.47715 0 0 4.47715 0 10C0 15.5228 4.47715 20 10 20Z" fill="#F0F0F0"/>
<path d="M10 20C15.5228 20 20 15.5228 20 10C20 4.47715 15.5228 0 10 0C4.47715 0 0 4.47715 0 10C0 15.5228 4.47715 20 10 20Z" fill="#F0F0F0"/>
<path d="M9.56547 9.99998H20.0002C20.0002 9.0974 19.8799 8.22303 19.6557 7.39127H9.56547V9.99998ZM9.56547 4.7826H18.5325C17.921 3.7854 17.1401 2.90259 16.2251 2.17389H9.56547V4.7826ZM10.0002 20C12.3537 20 14.5169 19.1865 16.2251 17.8261H3.77539C5.48359 19.1865 7.64676 20 10.0002 20ZM1.46797 15.2174H18.5325C19.0299 14.406 19.4081 13.5275 19.6557 12.6087H0.344727C0.592339 13.5275 0.970614 14.406 1.46797 15.2174Z" fill="#D80027"/>
<path d="M4.63219 1.56164H5.54348L4.69582 2.17746L5.01961 3.17391L4.17199 2.55809L3.32437 3.17391L3.60406 2.31309C2.85635 2.93597 2.20303 3.66409 1.66453 4.47469H1.95652L1.41695 4.86668C1.33281 5.0071 1.25214 5.14956 1.175 5.29395L1.43266 6.08695L0.951953 5.7377C0.831984 5.9917 0.722875 6.2507 0.624922 6.51398L0.908789 7.38773H1.95652L1.10887 8.00355L1.43266 9L0.585039 8.38418L0.0773047 8.75309C0.0258214 9.16673 3.78062e-06 9.58316 0 10H10V0C8.02453 0 6.18301 0.573047 4.63219 1.56164ZM5.01961 9L4.17199 8.38418L3.32437 9L3.64816 8.00355L2.80051 7.38773H3.84824L4.17199 6.39129L4.49574 7.38773H5.54348L4.69582 8.00355L5.01961 9ZM4.69582 5.09051L5.01961 6.08695L4.17199 5.47113L3.32437 6.08695L3.64816 5.09051L2.80051 4.47469H3.84824L4.17199 3.47824L4.49574 4.47469H5.54348L4.69582 5.09051ZM8.60656 9L7.75895 8.38418L6.91133 9L7.23512 8.00355L6.38746 7.38773H7.4352L7.75895 6.39129L8.0827 7.38773H9.13043L8.28277 8.00355L8.60656 9ZM8.28277 5.09051L8.60656 6.08695L7.75895 5.47113L6.91133 6.08695L7.23512 5.09051L6.38746 4.47469H7.4352L7.75895 3.47824L8.0827 4.47469H9.13043L8.28277 5.09051ZM8.28277 2.17746L8.60656 3.17391L7.75895 2.55809L6.91133 3.17391L7.23512 2.17746L6.38746 1.56164H7.4352L7.75895 0.565195L8.0827 1.56164H9.13043L8.28277 2.17746Z" fill="#0052B4"/>
</g>
<defs>
<clipPath id="clip0_1032_4076">
<rect width="20" height="20" fill="white"/>
</clipPath>
</defs>
</svg>
