<svg width="140" height="34" viewBox="0 0 140 34" fill="none" xmlns="http://www.w3.org/2000/svg">
<g clip-path="url(#clip0_1020_4205)">
<path d="M137.201 31.8052C137.287 31.806 137.371 31.7893 137.45 31.756C137.529 31.7227 137.6 31.6736 137.659 31.6117C137.718 31.5497 137.764 31.4763 137.793 31.396C137.823 31.3157 137.835 31.2301 137.831 31.1447C137.831 30.6763 137.548 30.4525 136.969 30.4525H136.032V32.9049H136.384V31.8359H136.817L136.827 31.8489L137.499 32.9049H137.875L137.153 31.812L137.201 31.8052ZM136.794 31.5595H136.385V30.7304H136.903C137.17 30.7304 137.475 30.7741 137.475 31.1244C137.475 31.5273 137.167 31.5595 136.792 31.5595" fill="#0A66C2"/>
<path d="M0 4.98972H5.1984V23.9347H14.8222V28.7344H0V4.98972Z" fill="#0A66C2"/>
<path d="M17.1193 12.6348H22.1133V28.7256H17.1193V12.6348ZM19.6163 4.63525C20.1892 4.63536 20.7493 4.80544 21.2256 5.12399C21.702 5.44254 22.0732 5.89526 22.2924 6.42489C22.5116 6.95453 22.5689 7.5373 22.457 8.09952C22.3452 8.66173 22.0693 9.17814 21.6641 9.58345C21.2589 9.98876 20.7427 10.2648 20.1808 10.3766C19.6188 10.4884 19.0363 10.4309 18.507 10.2115C17.9777 9.99213 17.5253 9.62063 17.2069 9.14399C16.8886 8.66734 16.7188 8.10698 16.7188 7.53373C16.7187 7.15305 16.7937 6.77611 16.9393 6.42441C17.0849 6.07272 17.2984 5.75317 17.5674 5.48401C17.8365 5.21486 18.1559 5.00137 18.5075 4.85574C18.859 4.71011 19.2358 4.63519 19.6163 4.63525Z" fill="#0A66C2"/>
<path d="M43.0059 4.98608H47.9998V19.1766L53.6596 12.6276H59.7824L53.2279 20.077L59.6446 28.7324H53.3678L48.0664 20.7786H48.0009V28.7313H43.0069L43.0059 4.98608Z" fill="#0A66C2"/>
<path d="M24.8828 12.6364H29.6786V14.8354H29.7467C30.2257 14.0143 30.9187 13.3388 31.7515 12.881C32.5843 12.4232 33.5258 12.2003 34.4754 12.2362C39.5396 12.2362 40.4718 15.5698 40.4718 19.9006V28.7246H35.4778V20.9014C35.4778 19.034 35.4435 16.6336 32.8768 16.6336C30.281 16.6336 29.8804 18.6671 29.8804 20.7656V28.7225H24.8864L24.8828 12.6364Z" fill="#0A66C2"/>
<path d="M70.2982 18.8086C70.3078 18.4033 70.235 18.0002 70.0842 17.6238C69.9335 17.2474 69.708 16.9055 69.4213 16.6189C69.1346 16.3323 68.7928 16.1069 68.4165 15.9563C68.0402 15.8058 67.6373 15.7332 67.2321 15.7431C66.3596 15.6888 65.5006 15.9797 64.8404 16.5531C64.1803 17.1266 63.7718 17.9366 63.7031 18.8086H70.2982ZM74.5285 25.939C73.6987 26.9459 72.6554 27.7554 71.4742 28.3091C70.2931 28.8628 69.0036 29.1468 67.6993 29.1404C62.7053 29.1404 58.707 25.8053 58.707 20.6407C58.707 15.4761 62.7048 12.1425 67.6993 12.1425C72.3671 12.1425 75.2942 15.4735 75.2942 20.6407V22.2073H63.7031C63.8474 23.0957 64.3078 23.9021 64.9994 24.4778C65.691 25.0534 66.5673 25.3597 67.4667 25.34C68.1776 25.3356 68.876 25.1533 69.4984 24.8099C70.1209 24.4665 70.6476 23.9727 71.0307 23.3736L74.5285 25.939Z" fill="#0A66C2"/>
<path d="M85.7042 16.5243C83.2072 16.5243 81.709 18.1924 81.709 20.623C81.709 23.0536 83.2067 24.7232 85.7042 24.7232C88.2017 24.7232 89.703 23.0577 89.703 20.623C89.703 18.1882 88.2043 16.5243 85.7042 16.5243ZM94.3006 28.7225H89.703V26.5886H89.6349C89.0581 27.3648 88.31 27.9972 87.4488 28.4367C86.5877 28.8762 85.6367 29.1108 84.6701 29.1222C79.8717 29.1222 76.7109 25.6575 76.7109 20.7578C76.7109 16.2578 79.508 12.1259 84.1061 12.1259C86.1729 12.1259 88.1034 12.6916 89.2359 14.2598H89.3014V4.98453H94.3L94.3006 28.7225Z" fill="#0A66C2"/>
<path d="M128.014 28.7318H123.02V20.9071C123.02 19.0413 122.987 16.6393 120.422 16.6393C117.821 16.6393 117.423 18.6723 117.423 20.7713V28.7313H112.429V12.6406H117.224V14.8395H117.291C117.771 14.0188 118.464 13.3436 119.297 12.8859C120.13 12.4282 121.071 12.2051 122.021 12.2403C127.083 12.2403 128.016 15.5713 128.016 19.9047L128.014 28.7318ZM106.795 10.4411C106.221 10.4412 105.661 10.2712 105.184 9.95272C104.708 9.6342 104.336 9.18142 104.117 8.65164C103.897 8.12186 103.84 7.53888 103.952 6.97641C104.063 6.41393 104.339 5.89724 104.745 5.49166C105.15 5.08608 105.666 4.80984 106.228 4.69786C106.79 4.58588 107.373 4.64319 107.903 4.86256C108.432 5.08192 108.885 5.45348 109.203 5.93024C109.522 6.40701 109.692 6.96757 109.692 7.54104C109.692 7.92181 109.617 8.29887 109.472 8.65068C109.326 9.00249 109.113 9.32217 108.844 9.59146C108.575 9.86076 108.255 10.0744 107.904 10.2202C107.552 10.3659 107.175 10.441 106.795 10.4411ZM109.292 28.7318H104.292V12.6406H109.292V28.7318ZM130.503 0.0020838H101.783C101.131 -0.0052763 100.503 0.246597 100.037 0.702354C99.5703 1.15811 99.3039 1.78047 99.2959 2.43266V31.2868C99.3036 31.9393 99.5698 32.5621 100.036 33.0183C100.503 33.4746 101.131 33.7269 101.783 33.72H130.503C131.157 33.7282 131.787 33.4765 132.255 33.0203C132.723 32.5641 132.991 31.9406 133 31.2868V2.43058C132.991 1.77709 132.723 1.15403 132.255 0.698282C131.786 0.242535 131.157 -0.00861763 130.503 1.0941e-06" fill="#0A66C2"/>
<path d="M136.836 29.3601C136.228 29.3659 135.648 29.6123 135.221 30.0452C134.794 30.4782 134.557 31.0625 134.56 31.6705C134.563 32.2784 134.806 32.8604 135.237 33.2892C135.667 33.7181 136.25 33.9588 136.858 33.9588C137.465 33.9588 138.048 33.7181 138.479 33.2892C138.91 32.8604 139.153 32.2784 139.156 31.6705C139.159 31.0625 138.921 30.4782 138.495 30.0452C138.068 29.6123 137.488 29.3659 136.88 29.3601H136.836ZM136.836 33.6956C136.437 33.7022 136.046 33.5904 135.711 33.3744C135.376 33.1584 135.112 32.8479 134.953 32.4821C134.795 32.1162 134.748 31.7115 134.819 31.3192C134.891 30.9268 135.077 30.5644 135.354 30.2778C135.631 29.9911 135.987 29.7931 136.376 29.7088C136.766 29.6245 137.172 29.6577 137.542 29.8042C137.913 29.9506 138.232 30.2038 138.459 30.5316C138.686 30.8594 138.811 31.2472 138.817 31.646C138.817 31.6574 138.817 31.6683 138.817 31.6798C138.828 32.2029 138.631 32.7089 138.27 33.0868C137.908 33.4646 137.411 33.6832 136.888 33.6945H136.836" fill="#0A66C2"/>
</g>
<defs>
<clipPath id="clip0_1020_4205">
<rect width="140" height="34" fill="white"/>
</clipPath>
</defs>
</svg>
