<svg width="40" height="40" viewBox="0 0 40 40" fill="none" xmlns="http://www.w3.org/2000/svg">
<g clip-path="url(#clip0_1038_6698)">
<rect width="40" height="40" rx="4" fill="#FBFBFB"/>
<g clip-path="url(#clip1_1038_6698)">
<path fill-rule="evenodd" clip-rule="evenodd" d="M8.34082 14.9701C9.43631 12.9971 11.0433 11.3522 12.9945 10.2068C14.9456 9.06138 17.1697 8.45722 19.4352 8.45722C21.7007 8.45722 23.9248 9.06138 25.876 10.2068C27.8272 11.3522 29.4341 12.9971 30.5296 14.9701C29.7464 17.2801 28.2546 19.2875 26.2643 20.7094C24.274 22.1313 21.8855 22.8961 19.4352 22.8961C16.985 22.8961 14.5965 22.1313 12.6062 20.7094C10.6159 19.2875 9.12403 17.2801 8.34082 14.9701ZM19.4349 21.2301C20.2135 21.2301 20.9746 21.0004 21.622 20.57C22.2693 20.1396 22.7739 19.5278 23.0718 18.8121C23.3697 18.0964 23.4476 17.3089 23.2957 16.5491C23.1438 15.7893 22.7688 15.0914 22.2182 14.5437C21.6676 13.996 20.9662 13.623 20.2025 13.472C19.4389 13.3209 18.6474 13.3985 17.9281 13.6951C17.2088 13.9916 16.594 14.4937 16.1616 15.1379C15.7291 15.7821 15.4983 16.5394 15.4985 17.314C15.4986 18.3527 15.9134 19.3488 16.6516 20.0831C17.3898 20.8175 18.391 21.2301 19.4349 21.2301Z" fill="#0F0067"/>
<path fill-rule="evenodd" clip-rule="evenodd" d="M6.75684 13.3385C7.01988 14.559 7.28474 15.5713 7.61674 16.4919C8.3009 18.3876 9.2719 19.8924 11.1071 22.0304C14.3502 25.2567 14.8867 29.63 14.443 32.6571C12.162 31.6848 10.2179 30.0679 8.85161 28.0068C7.48535 25.9457 6.757 23.5309 6.75684 21.0619V13.3385ZM32.1082 13.3385C31.8452 14.559 31.5809 15.5713 31.2483 16.4925C30.5642 18.3876 29.5932 19.893 27.758 22.0304C24.5148 25.2573 23.9784 29.63 24.4221 32.6571C26.7029 31.6856 28.6472 30.0697 30.014 28.0095C31.3808 25.9493 32.11 23.5353 32.1113 21.0668L32.1082 13.3385Z" fill="#F69020"/>
</g>
</g>
<defs>
<clipPath id="clip0_1038_6698">
<rect width="40" height="40" rx="12" fill="white"/>
</clipPath>
<clipPath id="clip1_1038_6698">
<rect width="28" height="28" fill="white" transform="translate(6 6)"/>
</clipPath>
</defs>
</svg>
