<svg xmlns="http://www.w3.org/2000/svg" width="16" height="16" fill="none" viewBox="0 0 16 16"><path fill="#6C707E" d="M13.657 5.752c-1.387-1.034-3.58-1.95-5.652-1.95-2.08 0-4.266.913-5.65 1.947-.187.14-.443-.052-.314-.248.613-.933 1.524-1.892 2.305-2.409A6.634 6.634 0 0 1 8.005 2c1.308 0 2.585.381 3.659 1.092.782.518 1.694 1.478 2.307 2.412.129.195-.127.388-.314.248ZM2.355 10.248c1.387 1.034 3.58 1.95 5.652 1.95 2.079 0 4.265-.913 5.65-1.947.187-.14.443.052.314.248-.613.933-1.524 1.892-2.306 2.409A6.634 6.634 0 0 1 8.007 14a6.634 6.634 0 0 1-3.659-1.092c-.782-.518-1.694-1.478-2.307-2.412-.129-.196.127-.388.314-.248Z"/></svg>