<svg xmlns="http://www.w3.org/2000/svg" width="16" height="16" fill="none" viewBox="0 0 16 16"><g clip-path="url(#a)"><path stroke="#6C707E" d="M5.346 6.358C6.328 5.383 7.007 4.14 7.5 2.57c.493 1.571 1.172 2.813 2.155 3.788.981.974 2.234 1.65 3.824 2.142-1.59.492-2.843 1.168-3.824 2.142-.983.975-1.662 2.216-2.155 3.788-.493-1.572-1.172-2.813-2.154-3.788-.982-.974-2.234-1.65-3.824-2.142 1.59-.492 2.842-1.168 3.824-2.142Z"/><path fill="#6C707E" d="M12.993 4.907a1.905 1.905 0 1 0 0-3.81 1.905 1.905 0 0 0 0 3.81Z"/></g><defs><clipPath id="a"><path fill="#fff" d="M0 0h16v16H0z"/></clipPath></defs></svg>