<svg xmlns="http://www.w3.org/2000/svg" width="16" height="16" fill="none" viewBox="0 0 16 16"><path fill="#6C707E" fill-rule="evenodd" d="M12 7a5 5 0 1 0-1.836 3.872l2.982 2.978a.5.5 0 0 0 .707-.708l-2.982-2.977A4.98 4.98 0 0 0 12 7Zm-4.127 3.088C7.474 10.887 7.108 11 7 11c-.108 0-.474-.113-.873-.912A5.392 5.392 0 0 1 5.735 9h2.53a5.392 5.392 0 0 1-.392 1.088ZM5.5 7c0 .347.02.682.056 1h2.888a8.866 8.866 0 0 0 0-2H5.556A8.866 8.866 0 0 0 5.5 7Zm3.231 3.607c.236-.454.428-.999.561-1.607h1.173a4.018 4.018 0 0 1-1.734 1.607ZM9.45 8h1.424a4.01 4.01 0 0 0 0-2H9.45a9.916 9.916 0 0 1 0 2ZM3.126 8H4.55a9.916 9.916 0 0 1 0-2H3.126a4.007 4.007 0 0 0 0 2Zm1.582 1H3.535a4.018 4.018 0 0 0 1.734 1.607A6.516 6.516 0 0 1 4.708 9Zm3.557-4h-2.53c.104-.415.238-.782.392-1.088C6.526 3.113 6.892 3 7 3c.108 0 .474.113.873.912.154.306.288.673.392 1.088Zm2.2 0H9.292a6.516 6.516 0 0 0-.56-1.607c.726.35 1.331.912 1.733 1.607ZM4.708 5a6.516 6.516 0 0 1 .56-1.607A4.017 4.017 0 0 0 3.536 5h1.173Z" clip-rule="evenodd"/></svg>